G04 #@! TF.FileFunction,Copper,L1,Top,Signal*
%FSLAX46Y46*%
G04 Gerber Fmt 4.6, Leading zero omitted, Abs format (unit mm)*
G04 Created by KiCad (PCBNEW 4.0.6) date Thu Nov  2 19:42:21 2017*
%MOMM*%
%LPD*%
G01*
G04 APERTURE LIST*
%ADD10C,0.100000*%
%ADD11O,0.900000X2.500000*%
%ADD12O,2.500000X0.900000*%
%ADD13R,6.000000X6.000000*%
%ADD14C,3.500000*%
%ADD15R,2.000000X2.500000*%
%ADD16R,1.200000X0.750000*%
%ADD17R,1.700000X1.700000*%
%ADD18O,1.700000X1.700000*%
%ADD19R,0.900000X1.200000*%
%ADD20R,0.650000X1.560000*%
%ADD21C,3.200000*%
%ADD22C,1.800000*%
%ADD23C,3.300000*%
%ADD24C,1.600000*%
%ADD25C,2.500000*%
%ADD26C,2.200000*%
%ADD27R,1.200000X0.900000*%
%ADD28C,0.600000*%
%ADD29C,0.250000*%
%ADD30C,0.254000*%
G04 APERTURE END LIST*
D10*
D11*
X131910000Y-67200000D03*
X133180000Y-67200000D03*
X134450000Y-67200000D03*
X135720000Y-67200000D03*
X136990000Y-67200000D03*
X138260000Y-67200000D03*
X139530000Y-67200000D03*
X140800000Y-67200000D03*
X142070000Y-67200000D03*
X143340000Y-67200000D03*
X144610000Y-67200000D03*
X145880000Y-67200000D03*
X147150000Y-67200000D03*
X148420000Y-67200000D03*
D12*
X149910000Y-70485000D03*
X149910000Y-71755000D03*
X149910000Y-73025000D03*
X149910000Y-74295000D03*
X149910000Y-75565000D03*
X149910000Y-76835000D03*
X149910000Y-78105000D03*
X149910000Y-79375000D03*
X149910000Y-80645000D03*
X149910000Y-81915000D03*
D11*
X148420000Y-85200000D03*
X147150000Y-85200000D03*
X145880000Y-85200000D03*
X144610000Y-85200000D03*
X143340000Y-85200000D03*
X142070000Y-85200000D03*
X140800000Y-85200000D03*
X139530000Y-85200000D03*
X138260000Y-85200000D03*
X136990000Y-85200000D03*
X135720000Y-85200000D03*
X134450000Y-85200000D03*
X133180000Y-85200000D03*
X131910000Y-85200000D03*
D13*
X139610000Y-76500000D03*
D14*
X139700000Y-76454000D03*
D15*
X127794000Y-92202000D03*
X131794000Y-92202000D03*
D16*
X181422000Y-59944000D03*
X183322000Y-59944000D03*
X128590000Y-86868000D03*
X130490000Y-86868000D03*
D17*
X132080000Y-88900000D03*
D18*
X134620000Y-88900000D03*
X137160000Y-88900000D03*
X139700000Y-88900000D03*
X142240000Y-88900000D03*
X144780000Y-88900000D03*
X147320000Y-88900000D03*
X149860000Y-88900000D03*
X152400000Y-88900000D03*
X154940000Y-88900000D03*
X157480000Y-88900000D03*
X160020000Y-88900000D03*
X162560000Y-88900000D03*
X165100000Y-88900000D03*
X167640000Y-88900000D03*
X170180000Y-88900000D03*
X172720000Y-88900000D03*
X175260000Y-88900000D03*
X177800000Y-88900000D03*
D17*
X132080000Y-63500000D03*
D18*
X134620000Y-63500000D03*
X137160000Y-63500000D03*
X139700000Y-63500000D03*
X142240000Y-63500000D03*
X144780000Y-63500000D03*
X147320000Y-63500000D03*
X149860000Y-63500000D03*
X152400000Y-63500000D03*
X154940000Y-63500000D03*
X157480000Y-63500000D03*
X160020000Y-63500000D03*
X162560000Y-63500000D03*
X165100000Y-63500000D03*
X167640000Y-63500000D03*
X170180000Y-63500000D03*
X172720000Y-63500000D03*
X175260000Y-63500000D03*
X177800000Y-63500000D03*
D19*
X186436000Y-63162000D03*
X186436000Y-65362000D03*
D20*
X182184000Y-65104000D03*
X183134000Y-65104000D03*
X184084000Y-65104000D03*
X184084000Y-62404000D03*
X182184000Y-62404000D03*
X183134000Y-62404000D03*
D21*
X122270000Y-26670000D03*
X122270000Y-97790000D03*
X193230000Y-97790000D03*
X193230000Y-26670000D03*
D22*
X171000000Y-50800000D03*
X171000000Y-48260000D03*
X171000000Y-45720000D03*
X171000000Y-43180000D03*
X171000000Y-40640000D03*
X171000000Y-38100000D03*
X171000000Y-35560000D03*
X168460000Y-38100000D03*
X168460000Y-35560000D03*
X168460000Y-40640000D03*
X168460000Y-43180000D03*
X168460000Y-45720000D03*
X168460000Y-48260000D03*
D23*
X130000000Y-37460000D03*
X130000000Y-48900000D03*
D24*
X136350000Y-46990000D03*
X138890000Y-47630000D03*
X136350000Y-44450000D03*
X138890000Y-45080000D03*
X136350000Y-41910000D03*
X138890000Y-42540000D03*
X136350000Y-39370000D03*
D25*
X133050000Y-35430000D03*
X133050000Y-50930000D03*
D24*
X138890000Y-40010000D03*
D22*
X125140000Y-36340000D03*
X125140000Y-39100000D03*
X125140000Y-47300000D03*
X125140000Y-50020000D03*
X168460000Y-50800000D03*
D26*
X123040000Y-32430000D03*
X123040000Y-53930000D03*
D17*
X187960000Y-50800000D03*
D18*
X185420000Y-50800000D03*
X187960000Y-48260000D03*
X185420000Y-48260000D03*
X187960000Y-45720000D03*
X185420000Y-45720000D03*
X187960000Y-43180000D03*
X185420000Y-43180000D03*
X187960000Y-40640000D03*
X185420000Y-40640000D03*
X187960000Y-38100000D03*
X185420000Y-38100000D03*
X187960000Y-35560000D03*
X185420000Y-35560000D03*
D27*
X186040000Y-58450000D03*
X188240000Y-58450000D03*
D28*
X144780000Y-57785000D03*
X139700000Y-57785000D03*
X134620000Y-57785000D03*
X130175000Y-57785000D03*
X126365000Y-61595000D03*
X129770000Y-26630000D03*
X190500000Y-48260000D03*
X190500000Y-40640000D03*
X185420000Y-31115000D03*
X180975000Y-26670000D03*
X171450000Y-26670000D03*
X162560000Y-26670000D03*
X153670000Y-26670000D03*
X144780000Y-26670000D03*
X137160000Y-26670000D03*
X183515000Y-55880000D03*
X165735000Y-57785000D03*
X160020000Y-57785000D03*
X154940000Y-57785000D03*
X149860000Y-57785000D03*
X145415000Y-78105000D03*
X153670000Y-78105000D03*
X157480000Y-74930000D03*
X160655000Y-71755000D03*
X160655000Y-77470000D03*
X133350000Y-97790000D03*
X140970000Y-97790000D03*
X148590000Y-97790000D03*
X156210000Y-97790000D03*
X163830000Y-97790000D03*
X170815000Y-97790000D03*
X178435000Y-97790000D03*
X185420000Y-86360000D03*
X185420000Y-79375000D03*
X179070000Y-79375000D03*
X179070000Y-83820000D03*
X172085000Y-79375000D03*
X172085000Y-73660000D03*
X164465000Y-79375000D03*
X135255000Y-71120000D03*
X139700000Y-71120000D03*
X139700000Y-81280000D03*
X145415000Y-81280000D03*
X132080000Y-78105000D03*
X132080000Y-81280000D03*
X135255000Y-81280000D03*
X132080000Y-74295000D03*
X135255000Y-78105000D03*
X135255000Y-74295000D03*
X132080000Y-61214000D03*
X147320000Y-61214000D03*
X190500000Y-53340000D03*
X190500000Y-60960000D03*
X190500000Y-68580000D03*
X181864000Y-69850000D03*
X181864000Y-67818000D03*
X180594000Y-65278000D03*
X180594000Y-62484000D03*
X164846000Y-82804000D03*
X156464000Y-82804000D03*
X189484000Y-41910000D03*
X187198000Y-73660000D03*
X182880000Y-41910000D03*
X179578000Y-41910000D03*
X168910000Y-57658000D03*
X154178000Y-82804000D03*
X155702000Y-79248000D03*
X168656000Y-66548000D03*
X182880000Y-44450000D03*
X179578000Y-44450000D03*
X171704000Y-57404000D03*
X170434000Y-66040000D03*
X166370000Y-81280000D03*
X156464000Y-86868000D03*
X153162000Y-86868000D03*
X154940000Y-84328000D03*
X150876000Y-84328000D03*
X157988000Y-85090000D03*
X151638000Y-85344000D03*
X182880000Y-46736000D03*
X179578000Y-46990000D03*
X189738000Y-54610000D03*
X187706000Y-65278000D03*
X189484000Y-39370000D03*
X181102000Y-40132000D03*
X186970000Y-56640000D03*
X184340000Y-58420000D03*
X178876949Y-60004949D03*
X191262000Y-49530000D03*
X182372000Y-58420000D03*
X153670000Y-73914000D03*
X147320000Y-73914000D03*
X156210000Y-72898000D03*
X147320000Y-72898000D03*
X157480000Y-71628000D03*
X147320000Y-71628000D03*
X186182000Y-61468000D03*
X179578000Y-61468000D03*
X160782000Y-67310000D03*
X152146000Y-67310000D03*
X159766000Y-68326000D03*
X152146000Y-68326000D03*
X159766000Y-69596000D03*
X152400000Y-69596000D03*
X183759010Y-66802000D03*
X179832000Y-66802000D03*
D29*
X190490000Y-59580000D02*
X189360000Y-58450000D01*
X189360000Y-58450000D02*
X188240000Y-58450000D01*
X190490000Y-60525736D02*
X190490000Y-59580000D01*
X190500000Y-60960000D02*
X190500000Y-60535736D01*
X190500000Y-60535736D02*
X190490000Y-60525736D01*
X132080000Y-61214000D02*
X128146000Y-61214000D01*
X139700000Y-57785000D02*
X144780000Y-57785000D01*
X134620000Y-57785000D02*
X130175000Y-57785000D01*
X126365000Y-61595000D02*
X127765000Y-61595000D01*
X128146000Y-61214000D02*
X127765000Y-61595000D01*
X137160000Y-26670000D02*
X129810000Y-26670000D01*
X129810000Y-26670000D02*
X129770000Y-26630000D01*
X190500000Y-48260000D02*
X190500000Y-40640000D01*
X185420000Y-31115000D02*
X180975000Y-26670000D01*
X171450000Y-26670000D02*
X162560000Y-26670000D01*
X153670000Y-26670000D02*
X144780000Y-26670000D01*
X183007000Y-56007000D02*
X183388000Y-56007000D01*
X183388000Y-56007000D02*
X183515000Y-55880000D01*
X165735000Y-57785000D02*
X160020000Y-57785000D01*
X154940000Y-57785000D02*
X149860000Y-57785000D01*
X143810000Y-76500000D02*
X145415000Y-78105000D01*
X143810000Y-76500000D02*
X139610000Y-76500000D01*
X156845000Y-78105000D02*
X153670000Y-78105000D01*
X157480000Y-77470000D02*
X156845000Y-78105000D01*
X157480000Y-74930000D02*
X157480000Y-77470000D01*
X160655000Y-77470000D02*
X160655000Y-71755000D01*
X127794000Y-92202000D02*
X127794000Y-92234000D01*
X127794000Y-92234000D02*
X133350000Y-97790000D01*
X140970000Y-97790000D02*
X148590000Y-97790000D01*
X156210000Y-97790000D02*
X163830000Y-97790000D01*
X170815000Y-97790000D02*
X178435000Y-97790000D01*
X185420000Y-86360000D02*
X185420000Y-79375000D01*
X179070000Y-79375000D02*
X179070000Y-83820000D01*
X172085000Y-79375000D02*
X172085000Y-73660000D01*
X164465000Y-82550000D02*
X165100000Y-83185000D01*
X164465000Y-79375000D02*
X164465000Y-82550000D01*
X132080000Y-71120000D02*
X135255000Y-71120000D01*
X139700000Y-71120000D02*
X139610000Y-71210000D01*
X139610000Y-71210000D02*
X139610000Y-76500000D01*
X139610000Y-81190000D02*
X139610000Y-76500000D01*
X139700000Y-81280000D02*
X139610000Y-81190000D01*
X145161000Y-81915000D02*
X145161000Y-81534000D01*
X145161000Y-81534000D02*
X145415000Y-81280000D01*
X132080000Y-78105000D02*
X132080000Y-81280000D01*
X135255000Y-81280000D02*
X135064500Y-81089500D01*
X135064500Y-81089500D02*
X135255000Y-81280000D01*
X132080000Y-74295000D02*
X132080000Y-71120000D01*
X132080000Y-71120000D02*
X135255000Y-74295000D01*
X135255000Y-78105000D02*
X132080000Y-81280000D01*
X131910000Y-67200000D02*
X131910000Y-70950000D01*
X131910000Y-81745000D02*
X132080000Y-81915000D01*
X131910000Y-81450000D02*
X131910000Y-81745000D01*
X132080000Y-81280000D02*
X131910000Y-81450000D01*
X131910000Y-70950000D02*
X132080000Y-71120000D01*
X128590000Y-86868000D02*
X128590000Y-91406000D01*
X128590000Y-91406000D02*
X127794000Y-92202000D01*
X132080000Y-63500000D02*
X132080000Y-61214000D01*
X147320000Y-63500000D02*
X147320000Y-61214000D01*
X190500000Y-53340000D02*
X190500000Y-50800000D01*
X190500000Y-50800000D02*
X187960000Y-48260000D01*
X190500000Y-68580000D02*
X190500000Y-60960000D01*
X183134000Y-70104000D02*
X183134000Y-69850000D01*
X183134000Y-69850000D02*
X183134000Y-65104000D01*
X181864000Y-69850000D02*
X183134000Y-69850000D01*
X180594000Y-65278000D02*
X180594000Y-66548000D01*
X180594000Y-66548000D02*
X181864000Y-67818000D01*
X181422000Y-59944000D02*
X181422000Y-61656000D01*
X181422000Y-61656000D02*
X180594000Y-62484000D01*
X183134000Y-55880000D02*
X183007000Y-56007000D01*
X185420000Y-48260000D02*
X183134000Y-50546000D01*
X183134000Y-50546000D02*
X183134000Y-55880000D01*
X183007000Y-56007000D02*
X181422000Y-57592000D01*
X181422000Y-57592000D02*
X181422000Y-59944000D01*
X187960000Y-48260000D02*
X186757919Y-48260000D01*
X186757919Y-48260000D02*
X185420000Y-48260000D01*
X170733999Y-82504001D02*
X183134000Y-70104000D01*
X164846000Y-82804000D02*
X165145999Y-82504001D01*
X165145999Y-82504001D02*
X170733999Y-82504001D01*
X156464000Y-81915000D02*
X159893000Y-81915000D01*
X149910000Y-81915000D02*
X156464000Y-81915000D01*
X156464000Y-81915000D02*
X156464000Y-82804000D01*
X132080000Y-63500000D02*
X132080000Y-67030000D01*
X132080000Y-67030000D02*
X131910000Y-67200000D01*
X131910000Y-67200000D02*
X131910000Y-68000000D01*
X139700000Y-75790000D02*
X139700000Y-76454000D01*
X131910000Y-68000000D02*
X139700000Y-75790000D01*
X131910000Y-81704000D02*
X134450000Y-81704000D01*
X134450000Y-81704000D02*
X139700000Y-76454000D01*
X131910000Y-85200000D02*
X131910000Y-81704000D01*
X159893000Y-81915000D02*
X159893000Y-83693000D01*
X159893000Y-83693000D02*
X165100000Y-88900000D01*
X139700000Y-76454000D02*
X145161000Y-81915000D01*
X145161000Y-81915000D02*
X149910000Y-81915000D01*
X131910000Y-85200000D02*
X131210000Y-85200000D01*
X131210000Y-85200000D02*
X131064000Y-85346000D01*
X130810000Y-85852000D02*
X129831000Y-85852000D01*
X131064000Y-85346000D02*
X131064000Y-85598000D01*
X131064000Y-85598000D02*
X130810000Y-85852000D01*
X128815000Y-86868000D02*
X128590000Y-86868000D01*
X129831000Y-85852000D02*
X128815000Y-86868000D01*
X130490000Y-86868000D02*
X130490000Y-87493000D01*
X130490000Y-87493000D02*
X131897000Y-88900000D01*
X131897000Y-88900000D02*
X132080000Y-88900000D01*
X132080000Y-88900000D02*
X132080000Y-91916000D01*
X132080000Y-91916000D02*
X131794000Y-92202000D01*
X186690000Y-59944000D02*
X184172000Y-59944000D01*
X187960000Y-61214000D02*
X186690000Y-59944000D01*
X184172000Y-59944000D02*
X183322000Y-59944000D01*
X188331002Y-65578002D02*
X188331002Y-64977998D01*
X187960000Y-64606996D02*
X187960000Y-61214000D01*
X187960000Y-65949004D02*
X188331002Y-65578002D01*
X187960000Y-86360000D02*
X187960000Y-65949004D01*
X135044000Y-92964000D02*
X181356000Y-92964000D01*
X132080000Y-90000000D02*
X135044000Y-92964000D01*
X132080000Y-88900000D02*
X132080000Y-90000000D01*
X188331002Y-64977998D02*
X187960000Y-64606996D01*
X181356000Y-92964000D02*
X187960000Y-86360000D01*
X185420000Y-50800000D02*
X187960000Y-50800000D01*
X185420000Y-55880000D02*
X185420000Y-50800000D01*
X183322000Y-57978000D02*
X185420000Y-55880000D01*
X183322000Y-59944000D02*
X183322000Y-57978000D01*
X183134000Y-62404000D02*
X183134000Y-60132000D01*
X183134000Y-60132000D02*
X183322000Y-59944000D01*
X133180000Y-85200000D02*
X133180000Y-86700000D01*
X131340000Y-86868000D02*
X130490000Y-86868000D01*
X133180000Y-86700000D02*
X133012000Y-86868000D01*
X133012000Y-86868000D02*
X131340000Y-86868000D01*
X131826000Y-89154000D02*
X132080000Y-88900000D01*
X134450000Y-85200000D02*
X134450000Y-88730000D01*
X134450000Y-88730000D02*
X134620000Y-88900000D01*
X137160000Y-88900000D02*
X135720000Y-87460000D01*
X135720000Y-87460000D02*
X135720000Y-85200000D01*
X139700000Y-88900000D02*
X138176000Y-87376000D01*
X138176000Y-87376000D02*
X137666000Y-87376000D01*
X137666000Y-87376000D02*
X136990000Y-86700000D01*
X136990000Y-86700000D02*
X136990000Y-85200000D01*
X138260000Y-86700000D02*
X139132011Y-87572011D01*
X139132011Y-87572011D02*
X140912011Y-87572011D01*
X138260000Y-85200000D02*
X138260000Y-86700000D01*
X140912011Y-87572011D02*
X141390001Y-88050001D01*
X141390001Y-88050001D02*
X142240000Y-88900000D01*
X141838621Y-87675032D02*
X143169800Y-87675032D01*
X143169800Y-87675032D02*
X144394768Y-88900000D01*
X140652000Y-87122000D02*
X141285589Y-87122000D01*
X139530000Y-86000000D02*
X140652000Y-87122000D01*
X139530000Y-85200000D02*
X139530000Y-86000000D01*
X144394768Y-88900000D02*
X144780000Y-88900000D01*
X141285589Y-87122000D02*
X141838621Y-87675032D01*
X147044739Y-88900000D02*
X147320000Y-88900000D01*
X143356200Y-87225021D02*
X143806210Y-87675032D01*
X143806210Y-87675032D02*
X145819771Y-87675032D01*
X140800000Y-85200000D02*
X140800000Y-86000000D01*
X140800000Y-86000000D02*
X142025021Y-87225021D01*
X145819771Y-87675032D02*
X147044739Y-88900000D01*
X142025021Y-87225021D02*
X143356200Y-87225021D01*
X149010001Y-88050001D02*
X149860000Y-88900000D01*
X146456181Y-87675032D02*
X148635032Y-87675032D01*
X143992610Y-87225021D02*
X146006171Y-87225021D01*
X143542600Y-86775010D02*
X143992610Y-87225021D01*
X142070000Y-85200000D02*
X142070000Y-86000000D01*
X148635032Y-87675032D02*
X149010001Y-88050001D01*
X142070000Y-86000000D02*
X142845010Y-86775010D01*
X146006171Y-87225021D02*
X146456181Y-87675032D01*
X142845010Y-86775010D02*
X143542600Y-86775010D01*
X189484000Y-41910000D02*
X189230000Y-41910000D01*
X189230000Y-41910000D02*
X187960000Y-40640000D01*
X180848000Y-92202000D02*
X187198000Y-85852000D01*
X187198000Y-85852000D02*
X187198000Y-73660000D01*
X154499919Y-92202000D02*
X180848000Y-92202000D01*
X152400000Y-88900000D02*
X152400000Y-90102081D01*
X152400000Y-90102081D02*
X154499919Y-92202000D01*
X150725021Y-87225021D02*
X151550001Y-88050001D01*
X144179010Y-86775010D02*
X146192571Y-86775010D01*
X143340000Y-85936000D02*
X144179010Y-86775010D01*
X146642581Y-87225021D02*
X150725021Y-87225021D01*
X146192571Y-86775010D02*
X146642581Y-87225021D01*
X151550001Y-88050001D02*
X152400000Y-88900000D01*
X143340000Y-85200000D02*
X143340000Y-85936000D01*
X143340000Y-85200000D02*
X143340000Y-85826029D01*
X182880000Y-41910000D02*
X184150000Y-40640000D01*
X184150000Y-40640000D02*
X185420000Y-40640000D01*
X178308000Y-53086000D02*
X178308000Y-42672000D01*
X178308000Y-42672000D02*
X179578000Y-41910000D01*
X175006000Y-56388000D02*
X178308000Y-53086000D01*
X170180000Y-56388000D02*
X175006000Y-56388000D01*
X168910000Y-57658000D02*
X170180000Y-56388000D01*
X165100000Y-76200000D02*
X165100000Y-70104000D01*
X152908000Y-84074000D02*
X154178000Y-82804000D01*
X152908000Y-85434996D02*
X152908000Y-84074000D01*
X155702000Y-79248000D02*
X162052000Y-79248000D01*
X162052000Y-79248000D02*
X165100000Y-76200000D01*
X165100000Y-70104000D02*
X168656000Y-66548000D01*
X152908000Y-85434996D02*
X154940000Y-87466996D01*
X150336354Y-82863350D02*
X152908000Y-85434996D01*
X154940000Y-87697919D02*
X154940000Y-88900000D01*
X154940000Y-87466996D02*
X154940000Y-87697919D01*
X146146650Y-82863350D02*
X150336354Y-82863350D01*
X144610000Y-84400000D02*
X146146650Y-82863350D01*
X144610000Y-85200000D02*
X144610000Y-84400000D01*
X182880000Y-44450000D02*
X184150000Y-44450000D01*
X184150000Y-44450000D02*
X185420000Y-43180000D01*
X178816000Y-53848000D02*
X178816000Y-44958000D01*
X178816000Y-44958000D02*
X179578000Y-44450000D01*
X175559999Y-57104001D02*
X178816000Y-53848000D01*
X171704000Y-57404000D02*
X172003999Y-57104001D01*
X172003999Y-57104001D02*
X175559999Y-57104001D01*
X166370000Y-81280000D02*
X166370000Y-70104000D01*
X166370000Y-70104000D02*
X170434000Y-66040000D01*
X156464000Y-86868000D02*
X156464000Y-87884000D01*
X156464000Y-87884000D02*
X157480000Y-88900000D01*
X146828981Y-86775010D02*
X153069010Y-86775010D01*
X145880000Y-85826029D02*
X146828981Y-86775010D01*
X145880000Y-85200000D02*
X145880000Y-85826029D01*
X153069010Y-86775010D02*
X153162000Y-86868000D01*
X154940000Y-84328000D02*
X155448000Y-84328000D01*
X155448000Y-84328000D02*
X160020000Y-88900000D01*
X148090191Y-83459809D02*
X150007809Y-83459809D01*
X147150000Y-85200000D02*
X147150000Y-84400000D01*
X150007809Y-83459809D02*
X150876000Y-84328000D01*
X147150000Y-84400000D02*
X148090191Y-83459809D01*
X157988000Y-85090000D02*
X161798000Y-88900000D01*
X161798000Y-88900000D02*
X162560000Y-88900000D01*
X148420000Y-85200000D02*
X151494000Y-85200000D01*
X151494000Y-85200000D02*
X151638000Y-85344000D01*
X149910000Y-80645000D02*
X159385000Y-80645000D01*
X159385000Y-80645000D02*
X167640000Y-88900000D01*
X184950998Y-46990000D02*
X186690000Y-46990000D01*
X186690000Y-46990000D02*
X187960000Y-45720000D01*
X182626000Y-55372000D02*
X182626000Y-49314998D01*
X182626000Y-49314998D02*
X184950998Y-46990000D01*
X177292000Y-60706000D02*
X182626000Y-55372000D01*
X155194000Y-60706000D02*
X177292000Y-60706000D01*
X152400000Y-63500000D02*
X155194000Y-60706000D01*
X143018981Y-65624990D02*
X143288600Y-65624990D01*
X142070000Y-66573971D02*
X143018981Y-65624990D01*
X151550001Y-64349999D02*
X152400000Y-63500000D01*
X150725021Y-65174979D02*
X151550001Y-64349999D01*
X143738611Y-65174979D02*
X150725021Y-65174979D01*
X142070000Y-67200000D02*
X142070000Y-66573971D01*
X143288600Y-65624990D02*
X143738611Y-65174979D01*
X182880000Y-46736000D02*
X183896000Y-45720000D01*
X183896000Y-45720000D02*
X185420000Y-45720000D01*
X175006000Y-58674000D02*
X179578000Y-54102000D01*
X179578000Y-54102000D02*
X179578000Y-46990000D01*
X139446000Y-58674000D02*
X175006000Y-58674000D01*
X134620000Y-63500000D02*
X139446000Y-58674000D01*
X133180000Y-67200000D02*
X133180000Y-64940000D01*
X133180000Y-64940000D02*
X134620000Y-63500000D01*
X189484000Y-48768000D02*
X189484000Y-44704000D01*
X189484000Y-44704000D02*
X187960000Y-43180000D01*
X191516000Y-50800000D02*
X189484000Y-48768000D01*
X191516000Y-53340000D02*
X191516000Y-50800000D01*
X190545999Y-54310001D02*
X191516000Y-53340000D01*
X189738000Y-54610000D02*
X190037999Y-54310001D01*
X190037999Y-54310001D02*
X190545999Y-54310001D01*
X186436000Y-65362000D02*
X187622000Y-65362000D01*
X187622000Y-65362000D02*
X187706000Y-65278000D01*
X182184000Y-65104000D02*
X182184000Y-64074000D01*
X182184000Y-64074000D02*
X182259001Y-63998999D01*
X182259001Y-63998999D02*
X185222999Y-63998999D01*
X185222999Y-63998999D02*
X186436000Y-65212000D01*
X186436000Y-65212000D02*
X186436000Y-65362000D01*
X189484000Y-39370000D02*
X189484000Y-38354000D01*
X189484000Y-38354000D02*
X189230000Y-38100000D01*
X189230000Y-38100000D02*
X187960000Y-38100000D01*
X176022000Y-59690000D02*
X181102000Y-54610000D01*
X181102000Y-54610000D02*
X181102000Y-40132000D01*
X146812000Y-59690000D02*
X176022000Y-59690000D01*
X145629999Y-60872001D02*
X146812000Y-59690000D01*
X144780000Y-63500000D02*
X145629999Y-62650001D01*
X145629999Y-62650001D02*
X145629999Y-60872001D01*
X142196171Y-65174979D02*
X142696148Y-64675001D01*
X139485021Y-65174979D02*
X142196171Y-65174979D01*
X142804001Y-64675001D02*
X143979002Y-63500000D01*
X138260000Y-66400000D02*
X139485021Y-65174979D01*
X138260000Y-67200000D02*
X138260000Y-66400000D01*
X142696148Y-64675001D02*
X142804001Y-64675001D01*
X143979002Y-63500000D02*
X144780000Y-63500000D01*
X181864000Y-55118000D02*
X181864000Y-41656000D01*
X181864000Y-41656000D02*
X185420000Y-38100000D01*
X176784000Y-60198000D02*
X181864000Y-55118000D01*
X153162000Y-60198000D02*
X176784000Y-60198000D01*
X149860000Y-63500000D02*
X153162000Y-60198000D01*
X142832581Y-65174979D02*
X143102201Y-65174979D01*
X141575010Y-65624990D02*
X142382571Y-65624990D01*
X143102201Y-65174979D02*
X143552212Y-64724968D01*
X142382571Y-65624990D02*
X142832581Y-65174979D01*
X140800000Y-67200000D02*
X140800000Y-66400000D01*
X140800000Y-66400000D02*
X141575010Y-65624990D01*
X148635032Y-64724968D02*
X149010001Y-64349999D01*
X143552212Y-64724968D02*
X148635032Y-64724968D01*
X149010001Y-64349999D02*
X149860000Y-63500000D01*
X180340000Y-38862000D02*
X182277001Y-36924999D01*
X182277001Y-36924999D02*
X186595001Y-36924999D01*
X186595001Y-36924999D02*
X187110001Y-36409999D01*
X187110001Y-36409999D02*
X187960000Y-35560000D01*
X180340000Y-54102000D02*
X180340000Y-38862000D01*
X175260000Y-59182000D02*
X180340000Y-54102000D01*
X141478000Y-59182000D02*
X175260000Y-59182000D01*
X137160000Y-63500000D02*
X141478000Y-59182000D01*
X136650000Y-63500000D02*
X137160000Y-63500000D01*
X134450000Y-65700000D02*
X136650000Y-63500000D01*
X134450000Y-67200000D02*
X134450000Y-65700000D01*
X186040000Y-58450000D02*
X186040000Y-57570000D01*
X186040000Y-57570000D02*
X186970000Y-56640000D01*
X184340000Y-58420000D02*
X186010000Y-58420000D01*
X186010000Y-58420000D02*
X186040000Y-58450000D01*
X177667898Y-61214000D02*
X178576950Y-60304948D01*
X157480000Y-63500000D02*
X159766000Y-61214000D01*
X178576950Y-60304948D02*
X178876949Y-60004949D01*
X159766000Y-61214000D02*
X177667898Y-61214000D01*
X189484000Y-33020000D02*
X191262000Y-34798000D01*
X191262000Y-34798000D02*
X191262000Y-49530000D01*
X186757919Y-33020000D02*
X189484000Y-33020000D01*
X185420000Y-35560000D02*
X185420000Y-34357919D01*
X185420000Y-34357919D02*
X186757919Y-33020000D01*
X182184000Y-62404000D02*
X182184000Y-61374000D01*
X182184000Y-61374000D02*
X182372000Y-61186000D01*
X182372000Y-61186000D02*
X182372000Y-58420000D01*
X156630001Y-64349999D02*
X157480000Y-63500000D01*
X153670000Y-73914000D02*
X153670000Y-67310000D01*
X153670000Y-67310000D02*
X156630001Y-64349999D01*
X144610000Y-67200000D02*
X144610000Y-71204000D01*
X144610000Y-71204000D02*
X147320000Y-73914000D01*
X138899002Y-63500000D02*
X139700000Y-63500000D01*
X135720000Y-65700000D02*
X136744999Y-64675001D01*
X135720000Y-67200000D02*
X135720000Y-65700000D01*
X137724001Y-64675001D02*
X138899002Y-63500000D01*
X136744999Y-64675001D02*
X137724001Y-64675001D01*
X138665032Y-64724968D02*
X141015032Y-64724968D01*
X136990000Y-67200000D02*
X136990000Y-66400000D01*
X136990000Y-66400000D02*
X138665032Y-64724968D01*
X141390001Y-64349999D02*
X142240000Y-63500000D01*
X141015032Y-64724968D02*
X141390001Y-64349999D01*
X143340000Y-67200000D02*
X143340000Y-66400000D01*
X152815010Y-65624990D02*
X154940000Y-63500000D01*
X143340000Y-66400000D02*
X144115010Y-65624990D01*
X144115010Y-65624990D02*
X152815010Y-65624990D01*
X156210000Y-72898000D02*
X156210000Y-67310000D01*
X156210000Y-67310000D02*
X160020000Y-63500000D01*
X145880000Y-67200000D02*
X145880000Y-71458000D01*
X145880000Y-71458000D02*
X147320000Y-72898000D01*
X157480000Y-71628000D02*
X157480000Y-68580000D01*
X157480000Y-68580000D02*
X162560000Y-63500000D01*
X147150000Y-67200000D02*
X147150000Y-71458000D01*
X147150000Y-71458000D02*
X147320000Y-71628000D01*
X179153736Y-61468000D02*
X179578000Y-61468000D01*
X178957725Y-61664011D02*
X179153736Y-61468000D01*
X166935989Y-61664011D02*
X178957725Y-61664011D01*
X165100000Y-63500000D02*
X166935989Y-61664011D01*
X186182000Y-61468000D02*
X186182000Y-62908000D01*
X186182000Y-62908000D02*
X186436000Y-63162000D01*
X184084000Y-62404000D02*
X185678000Y-62404000D01*
X185678000Y-62404000D02*
X186436000Y-63162000D01*
X160782000Y-67310000D02*
X161290000Y-67310000D01*
X161290000Y-67310000D02*
X165100000Y-63500000D01*
X148420000Y-67200000D02*
X152036000Y-67200000D01*
X152036000Y-67200000D02*
X152146000Y-67310000D01*
X159766000Y-68326000D02*
X162814000Y-68326000D01*
X162814000Y-68326000D02*
X167640000Y-63500000D01*
X149910000Y-70485000D02*
X149910000Y-69785000D01*
X149910000Y-69785000D02*
X151369000Y-68326000D01*
X151369000Y-68326000D02*
X152146000Y-68326000D01*
X159766000Y-69596000D02*
X164084000Y-69596000D01*
X164084000Y-69596000D02*
X170180000Y-63500000D01*
X149910000Y-71755000D02*
X150710000Y-71755000D01*
X150710000Y-71755000D02*
X152400000Y-70065000D01*
X152400000Y-70065000D02*
X152400000Y-69891029D01*
X152400000Y-69891029D02*
X152400000Y-69596000D01*
X184059009Y-66502001D02*
X183759010Y-66802000D01*
X184084000Y-66477010D02*
X184059009Y-66502001D01*
X184084000Y-65104000D02*
X184084000Y-66477010D01*
X177800000Y-63500000D02*
X177800000Y-64770000D01*
X177800000Y-64770000D02*
X179832000Y-66802000D01*
X139530000Y-67200000D02*
X139530000Y-66400000D01*
D30*
G36*
X196330000Y-100890000D02*
X119160000Y-100890000D01*
X119160000Y-98232619D01*
X120034613Y-98232619D01*
X120374155Y-99054372D01*
X121002321Y-99683636D01*
X121823481Y-100024611D01*
X122712619Y-100025387D01*
X123534372Y-99685845D01*
X124163636Y-99057679D01*
X124504611Y-98236519D01*
X124504614Y-98232619D01*
X190994613Y-98232619D01*
X191334155Y-99054372D01*
X191962321Y-99683636D01*
X192783481Y-100024611D01*
X193672619Y-100025387D01*
X194494372Y-99685845D01*
X195123636Y-99057679D01*
X195464611Y-98236519D01*
X195465387Y-97347381D01*
X195125845Y-96525628D01*
X194497679Y-95896364D01*
X193676519Y-95555389D01*
X192787381Y-95554613D01*
X191965628Y-95894155D01*
X191336364Y-96522321D01*
X190995389Y-97343481D01*
X190994613Y-98232619D01*
X124504614Y-98232619D01*
X124505387Y-97347381D01*
X124165845Y-96525628D01*
X123537679Y-95896364D01*
X122716519Y-95555389D01*
X121827381Y-95554613D01*
X121005628Y-95894155D01*
X120376364Y-96522321D01*
X120035389Y-97343481D01*
X120034613Y-98232619D01*
X119160000Y-98232619D01*
X119160000Y-92487750D01*
X126159000Y-92487750D01*
X126159000Y-93578310D01*
X126255673Y-93811699D01*
X126434302Y-93990327D01*
X126667691Y-94087000D01*
X127508250Y-94087000D01*
X127667000Y-93928250D01*
X127667000Y-92329000D01*
X127921000Y-92329000D01*
X127921000Y-93928250D01*
X128079750Y-94087000D01*
X128920309Y-94087000D01*
X129153698Y-93990327D01*
X129332327Y-93811699D01*
X129429000Y-93578310D01*
X129429000Y-92487750D01*
X129270250Y-92329000D01*
X127921000Y-92329000D01*
X127667000Y-92329000D01*
X126317750Y-92329000D01*
X126159000Y-92487750D01*
X119160000Y-92487750D01*
X119160000Y-90825690D01*
X126159000Y-90825690D01*
X126159000Y-91916250D01*
X126317750Y-92075000D01*
X127667000Y-92075000D01*
X127667000Y-90475750D01*
X127921000Y-90475750D01*
X127921000Y-92075000D01*
X129270250Y-92075000D01*
X129429000Y-91916250D01*
X129429000Y-90825690D01*
X129332327Y-90592301D01*
X129153698Y-90413673D01*
X128920309Y-90317000D01*
X128079750Y-90317000D01*
X127921000Y-90475750D01*
X127667000Y-90475750D01*
X127508250Y-90317000D01*
X126667691Y-90317000D01*
X126434302Y-90413673D01*
X126255673Y-90592301D01*
X126159000Y-90825690D01*
X119160000Y-90825690D01*
X119160000Y-87153750D01*
X127355000Y-87153750D01*
X127355000Y-87369310D01*
X127451673Y-87602699D01*
X127630302Y-87781327D01*
X127863691Y-87878000D01*
X128304250Y-87878000D01*
X128463000Y-87719250D01*
X128463000Y-86995000D01*
X127513750Y-86995000D01*
X127355000Y-87153750D01*
X119160000Y-87153750D01*
X119160000Y-86366690D01*
X127355000Y-86366690D01*
X127355000Y-86582250D01*
X127513750Y-86741000D01*
X128463000Y-86741000D01*
X128463000Y-86016750D01*
X128717000Y-86016750D01*
X128717000Y-86741000D01*
X128737000Y-86741000D01*
X128737000Y-86995000D01*
X128717000Y-86995000D01*
X128717000Y-87719250D01*
X128875750Y-87878000D01*
X129316309Y-87878000D01*
X129549698Y-87781327D01*
X129551068Y-87779957D01*
X129638110Y-87839431D01*
X129854242Y-87883199D01*
X129952599Y-88030401D01*
X130582560Y-88660362D01*
X130582560Y-89750000D01*
X130626838Y-89985317D01*
X130765910Y-90201441D01*
X130916830Y-90304560D01*
X130794000Y-90304560D01*
X130558683Y-90348838D01*
X130342559Y-90487910D01*
X130197569Y-90700110D01*
X130146560Y-90952000D01*
X130146560Y-93452000D01*
X130190838Y-93687317D01*
X130329910Y-93903441D01*
X130542110Y-94048431D01*
X130794000Y-94099440D01*
X132794000Y-94099440D01*
X133029317Y-94055162D01*
X133245441Y-93916090D01*
X133390431Y-93703890D01*
X133441440Y-93452000D01*
X133441440Y-92436242D01*
X134506599Y-93501401D01*
X134753161Y-93666148D01*
X135044000Y-93724000D01*
X181356000Y-93724000D01*
X181646839Y-93666148D01*
X181893401Y-93501401D01*
X188497401Y-86897401D01*
X188662148Y-86650840D01*
X188720000Y-86360000D01*
X188720000Y-66263806D01*
X188868403Y-66115403D01*
X189033150Y-65868841D01*
X189091002Y-65578002D01*
X189091002Y-64977998D01*
X189033150Y-64687159D01*
X188868403Y-64440597D01*
X188720000Y-64292194D01*
X188720000Y-61214000D01*
X188693974Y-61083161D01*
X188662148Y-60923160D01*
X188497401Y-60676599D01*
X187227401Y-59406599D01*
X187114116Y-59330904D01*
X187137969Y-59295994D01*
X187280302Y-59438327D01*
X187513691Y-59535000D01*
X187954250Y-59535000D01*
X188113000Y-59376250D01*
X188113000Y-58577000D01*
X188367000Y-58577000D01*
X188367000Y-59376250D01*
X188525750Y-59535000D01*
X188966309Y-59535000D01*
X189199698Y-59438327D01*
X189378327Y-59259699D01*
X189475000Y-59026310D01*
X189475000Y-58735750D01*
X189316250Y-58577000D01*
X188367000Y-58577000D01*
X188113000Y-58577000D01*
X188093000Y-58577000D01*
X188093000Y-58323000D01*
X188113000Y-58323000D01*
X188113000Y-57523750D01*
X188367000Y-57523750D01*
X188367000Y-58323000D01*
X189316250Y-58323000D01*
X189475000Y-58164250D01*
X189475000Y-57873690D01*
X189378327Y-57640301D01*
X189199698Y-57461673D01*
X188966309Y-57365000D01*
X188525750Y-57365000D01*
X188367000Y-57523750D01*
X188113000Y-57523750D01*
X187954250Y-57365000D01*
X187567179Y-57365000D01*
X187762192Y-57170327D01*
X187904838Y-56826799D01*
X187905162Y-56454833D01*
X187763117Y-56111057D01*
X187500327Y-55847808D01*
X187156799Y-55705162D01*
X186784833Y-55704838D01*
X186441057Y-55846883D01*
X186177808Y-56109673D01*
X186035162Y-56453201D01*
X186035121Y-56500077D01*
X185502599Y-57032599D01*
X185337852Y-57279161D01*
X185318712Y-57375382D01*
X185204683Y-57396838D01*
X184988559Y-57535910D01*
X184903772Y-57660000D01*
X184902463Y-57660000D01*
X184870327Y-57627808D01*
X184783181Y-57591621D01*
X185957401Y-56417401D01*
X186122148Y-56170839D01*
X186180000Y-55880000D01*
X186180000Y-52063301D01*
X186499147Y-51850054D01*
X186499971Y-51848821D01*
X186506838Y-51885317D01*
X186645910Y-52101441D01*
X186858110Y-52246431D01*
X187110000Y-52297440D01*
X188810000Y-52297440D01*
X189045317Y-52253162D01*
X189261441Y-52114090D01*
X189406431Y-51901890D01*
X189457440Y-51650000D01*
X189457440Y-49950000D01*
X189426438Y-49785240D01*
X190756000Y-51114802D01*
X190756000Y-53025198D01*
X190231197Y-53550001D01*
X190037999Y-53550001D01*
X189747160Y-53607853D01*
X189646787Y-53674920D01*
X189552833Y-53674838D01*
X189209057Y-53816883D01*
X188945808Y-54079673D01*
X188803162Y-54423201D01*
X188802838Y-54795167D01*
X188944883Y-55138943D01*
X189207673Y-55402192D01*
X189551201Y-55544838D01*
X189923167Y-55545162D01*
X190266943Y-55403117D01*
X190530192Y-55140327D01*
X190560600Y-55067097D01*
X190836838Y-55012149D01*
X191083400Y-54847402D01*
X192053401Y-53877401D01*
X192218148Y-53630839D01*
X192276000Y-53340000D01*
X192276000Y-50800000D01*
X192218148Y-50509161D01*
X192053401Y-50262599D01*
X191952572Y-50161770D01*
X192054192Y-50060327D01*
X192196838Y-49716799D01*
X192197162Y-49344833D01*
X192055117Y-49001057D01*
X192022000Y-48967882D01*
X192022000Y-34798000D01*
X191964148Y-34507161D01*
X191799401Y-34260599D01*
X190021401Y-32482599D01*
X189774839Y-32317852D01*
X189484000Y-32260000D01*
X186757919Y-32260000D01*
X186467079Y-32317852D01*
X186220518Y-32482599D01*
X184882599Y-33820518D01*
X184717852Y-34067080D01*
X184674044Y-34287315D01*
X184340853Y-34509946D01*
X184018946Y-34991715D01*
X183905907Y-35560000D01*
X184018946Y-36128285D01*
X184043477Y-36164999D01*
X182277001Y-36164999D01*
X181986162Y-36222851D01*
X181739600Y-36387598D01*
X179802599Y-38324599D01*
X179637852Y-38571161D01*
X179580000Y-38862000D01*
X179580000Y-40975001D01*
X179392833Y-40974838D01*
X179049057Y-41116883D01*
X178785808Y-41379673D01*
X178719812Y-41538607D01*
X177916983Y-42020305D01*
X177848016Y-42082871D01*
X177770599Y-42134599D01*
X177739207Y-42181580D01*
X177697355Y-42219548D01*
X177657581Y-42303742D01*
X177605852Y-42381161D01*
X177594828Y-42436580D01*
X177570692Y-42487673D01*
X177566166Y-42580674D01*
X177548000Y-42672000D01*
X177548000Y-52771198D01*
X174691198Y-55628000D01*
X170180000Y-55628000D01*
X169889160Y-55685852D01*
X169642599Y-55850599D01*
X168770320Y-56722878D01*
X168724833Y-56722838D01*
X168381057Y-56864883D01*
X168117808Y-57127673D01*
X167975162Y-57471201D01*
X167974838Y-57843167D01*
X168004106Y-57914000D01*
X139446000Y-57914000D01*
X139155161Y-57971852D01*
X138908599Y-58136599D01*
X134986408Y-62058790D01*
X134620000Y-61985907D01*
X134051715Y-62098946D01*
X133569946Y-62420853D01*
X133540597Y-62464777D01*
X133468327Y-62290302D01*
X133289699Y-62111673D01*
X133056310Y-62015000D01*
X132365750Y-62015000D01*
X132207000Y-62173750D01*
X132207000Y-63373000D01*
X132227000Y-63373000D01*
X132227000Y-63627000D01*
X132207000Y-63627000D01*
X132207000Y-64826250D01*
X132365750Y-64985000D01*
X132420000Y-64985000D01*
X132420000Y-65461164D01*
X132204001Y-65355592D01*
X132037000Y-65482498D01*
X132037000Y-67073000D01*
X132057000Y-67073000D01*
X132057000Y-67327000D01*
X132037000Y-67327000D01*
X132037000Y-68917502D01*
X132204001Y-69044408D01*
X132532259Y-68883968D01*
X132764788Y-69039338D01*
X133180000Y-69121929D01*
X133595212Y-69039338D01*
X133815000Y-68892480D01*
X134034788Y-69039338D01*
X134450000Y-69121929D01*
X134865212Y-69039338D01*
X135085000Y-68892480D01*
X135304788Y-69039338D01*
X135720000Y-69121929D01*
X136135212Y-69039338D01*
X136355000Y-68892480D01*
X136574788Y-69039338D01*
X136990000Y-69121929D01*
X137405212Y-69039338D01*
X137625000Y-68892480D01*
X137844788Y-69039338D01*
X138260000Y-69121929D01*
X138675212Y-69039338D01*
X138895000Y-68892480D01*
X139114788Y-69039338D01*
X139530000Y-69121929D01*
X139945212Y-69039338D01*
X140165000Y-68892480D01*
X140384788Y-69039338D01*
X140800000Y-69121929D01*
X141215212Y-69039338D01*
X141435000Y-68892480D01*
X141654788Y-69039338D01*
X142070000Y-69121929D01*
X142485212Y-69039338D01*
X142705000Y-68892480D01*
X142924788Y-69039338D01*
X143340000Y-69121929D01*
X143755212Y-69039338D01*
X143850000Y-68976003D01*
X143850000Y-71204000D01*
X143907852Y-71494839D01*
X144072599Y-71741401D01*
X146384878Y-74053680D01*
X146384838Y-74099167D01*
X146526883Y-74442943D01*
X146789673Y-74706192D01*
X147133201Y-74848838D01*
X147505167Y-74849162D01*
X147848943Y-74707117D01*
X148033416Y-74522965D01*
X148070662Y-74710212D01*
X148217520Y-74930000D01*
X148070662Y-75149788D01*
X147988071Y-75565000D01*
X148070662Y-75980212D01*
X148217520Y-76200000D01*
X148070662Y-76419788D01*
X147988071Y-76835000D01*
X148070662Y-77250212D01*
X148217520Y-77470000D01*
X148070662Y-77689788D01*
X147988071Y-78105000D01*
X148070662Y-78520212D01*
X148217520Y-78740000D01*
X148070662Y-78959788D01*
X147988071Y-79375000D01*
X148070662Y-79790212D01*
X148217520Y-80010000D01*
X148070662Y-80229788D01*
X147988071Y-80645000D01*
X148070662Y-81060212D01*
X148226032Y-81292741D01*
X148065592Y-81620999D01*
X148192498Y-81788000D01*
X149783000Y-81788000D01*
X149783000Y-81768000D01*
X150037000Y-81768000D01*
X150037000Y-81788000D01*
X151627502Y-81788000D01*
X151754408Y-81620999D01*
X151648836Y-81405000D01*
X159070198Y-81405000D01*
X165080198Y-87415000D01*
X164972998Y-87415000D01*
X164972998Y-87579844D01*
X164743110Y-87458524D01*
X164333076Y-87628355D01*
X163904817Y-88018642D01*
X163837702Y-88161553D01*
X163610054Y-87820853D01*
X163128285Y-87498946D01*
X162560000Y-87385907D01*
X161991715Y-87498946D01*
X161680017Y-87707215D01*
X158923122Y-84950320D01*
X158923162Y-84904833D01*
X158781117Y-84561057D01*
X158518327Y-84297808D01*
X158174799Y-84155162D01*
X157802833Y-84154838D01*
X157459057Y-84296883D01*
X157195808Y-84559673D01*
X157066319Y-84871517D01*
X155985401Y-83790599D01*
X155738839Y-83625852D01*
X155515957Y-83581518D01*
X155470327Y-83535808D01*
X155126799Y-83393162D01*
X154911442Y-83392974D01*
X154970192Y-83334327D01*
X155112838Y-82990799D01*
X155113162Y-82618833D01*
X154971117Y-82275057D01*
X154708327Y-82011808D01*
X154364799Y-81869162D01*
X153992833Y-81868838D01*
X153649057Y-82010883D01*
X153385808Y-82273673D01*
X153243162Y-82617201D01*
X153243121Y-82664077D01*
X152370599Y-83536599D01*
X152255966Y-83708160D01*
X151336542Y-82788736D01*
X151567013Y-82592408D01*
X151754408Y-82209001D01*
X151627502Y-82042000D01*
X150037000Y-82042000D01*
X150037000Y-82062000D01*
X149783000Y-82062000D01*
X149783000Y-82042000D01*
X148192498Y-82042000D01*
X148145877Y-82103350D01*
X146146650Y-82103350D01*
X145855810Y-82161202D01*
X145609249Y-82325949D01*
X144649308Y-83285890D01*
X144610000Y-83278071D01*
X144194788Y-83360662D01*
X143975000Y-83507520D01*
X143755212Y-83360662D01*
X143340000Y-83278071D01*
X142924788Y-83360662D01*
X142705000Y-83507520D01*
X142485212Y-83360662D01*
X142070000Y-83278071D01*
X141654788Y-83360662D01*
X141435000Y-83507520D01*
X141215212Y-83360662D01*
X140800000Y-83278071D01*
X140384788Y-83360662D01*
X140165000Y-83507520D01*
X139945212Y-83360662D01*
X139530000Y-83278071D01*
X139114788Y-83360662D01*
X138895000Y-83507520D01*
X138675212Y-83360662D01*
X138260000Y-83278071D01*
X137844788Y-83360662D01*
X137625000Y-83507520D01*
X137405212Y-83360662D01*
X136990000Y-83278071D01*
X136574788Y-83360662D01*
X136355000Y-83507520D01*
X136135212Y-83360662D01*
X135720000Y-83278071D01*
X135304788Y-83360662D01*
X135085000Y-83507520D01*
X134865212Y-83360662D01*
X134450000Y-83278071D01*
X134034788Y-83360662D01*
X133815000Y-83507520D01*
X133595212Y-83360662D01*
X133180000Y-83278071D01*
X132764788Y-83360662D01*
X132532259Y-83516032D01*
X132204001Y-83355592D01*
X132037000Y-83482498D01*
X132037000Y-85073000D01*
X132057000Y-85073000D01*
X132057000Y-85327000D01*
X132037000Y-85327000D01*
X132037000Y-85347000D01*
X131783000Y-85347000D01*
X131783000Y-85327000D01*
X130825000Y-85327000D01*
X130825000Y-85845560D01*
X129890000Y-85845560D01*
X129654683Y-85889838D01*
X129551354Y-85956329D01*
X129549698Y-85954673D01*
X129316309Y-85858000D01*
X128875750Y-85858000D01*
X128717000Y-86016750D01*
X128463000Y-86016750D01*
X128304250Y-85858000D01*
X127863691Y-85858000D01*
X127630302Y-85954673D01*
X127451673Y-86133301D01*
X127355000Y-86366690D01*
X119160000Y-86366690D01*
X119160000Y-85471000D01*
X130556000Y-85471000D01*
X130602159Y-85462315D01*
X130644553Y-85435035D01*
X130672994Y-85393410D01*
X130683000Y-85344000D01*
X130683000Y-84273000D01*
X130825000Y-84273000D01*
X130825000Y-85073000D01*
X131783000Y-85073000D01*
X131783000Y-83482498D01*
X131615999Y-83355592D01*
X131232592Y-83542987D01*
X130956192Y-83867456D01*
X130825000Y-84273000D01*
X130683000Y-84273000D01*
X130683000Y-78148528D01*
X138185077Y-78148528D01*
X138375364Y-78493271D01*
X139256591Y-78844956D01*
X140205323Y-78832641D01*
X141024636Y-78493271D01*
X141214923Y-78148528D01*
X139700000Y-76633605D01*
X138185077Y-78148528D01*
X130683000Y-78148528D01*
X130683000Y-76010591D01*
X137309044Y-76010591D01*
X137321359Y-76959323D01*
X137660729Y-77778636D01*
X138005472Y-77968923D01*
X139520395Y-76454000D01*
X139879605Y-76454000D01*
X141394528Y-77968923D01*
X141739271Y-77778636D01*
X142090956Y-76897409D01*
X142078641Y-75948677D01*
X141739271Y-75129364D01*
X141394528Y-74939077D01*
X139879605Y-76454000D01*
X139520395Y-76454000D01*
X138005472Y-74939077D01*
X137660729Y-75129364D01*
X137309044Y-76010591D01*
X130683000Y-76010591D01*
X130683000Y-74759472D01*
X138185077Y-74759472D01*
X139700000Y-76274395D01*
X141214923Y-74759472D01*
X141024636Y-74414729D01*
X140143409Y-74063044D01*
X139194677Y-74075359D01*
X138375364Y-74414729D01*
X138185077Y-74759472D01*
X130683000Y-74759472D01*
X130683000Y-67327000D01*
X130825000Y-67327000D01*
X130825000Y-68127000D01*
X130956192Y-68532544D01*
X131232592Y-68857013D01*
X131615999Y-69044408D01*
X131783000Y-68917502D01*
X131783000Y-67327000D01*
X130825000Y-67327000D01*
X130683000Y-67327000D01*
X130683000Y-67056000D01*
X130674315Y-67009841D01*
X130647035Y-66967447D01*
X130605410Y-66939006D01*
X130556000Y-66929000D01*
X119160000Y-66929000D01*
X119160000Y-66273000D01*
X130825000Y-66273000D01*
X130825000Y-67073000D01*
X131783000Y-67073000D01*
X131783000Y-65482498D01*
X131615999Y-65355592D01*
X131232592Y-65542987D01*
X130956192Y-65867456D01*
X130825000Y-66273000D01*
X119160000Y-66273000D01*
X119160000Y-63785750D01*
X130595000Y-63785750D01*
X130595000Y-64476309D01*
X130691673Y-64709698D01*
X130870301Y-64888327D01*
X131103690Y-64985000D01*
X131794250Y-64985000D01*
X131953000Y-64826250D01*
X131953000Y-63627000D01*
X130753750Y-63627000D01*
X130595000Y-63785750D01*
X119160000Y-63785750D01*
X119160000Y-62523691D01*
X130595000Y-62523691D01*
X130595000Y-63214250D01*
X130753750Y-63373000D01*
X131953000Y-63373000D01*
X131953000Y-62173750D01*
X131794250Y-62015000D01*
X131103690Y-62015000D01*
X130870301Y-62111673D01*
X130691673Y-62290302D01*
X130595000Y-62523691D01*
X119160000Y-62523691D01*
X119160000Y-57127000D01*
X146740000Y-57127000D01*
X146786159Y-57118315D01*
X146828553Y-57091035D01*
X146856994Y-57049410D01*
X146867000Y-57000000D01*
X146867000Y-56047000D01*
X157970000Y-56047000D01*
X158017789Y-56037666D01*
X158059803Y-56009803D01*
X159982606Y-54087000D01*
X173440000Y-54087000D01*
X173486159Y-54078315D01*
X173528553Y-54051035D01*
X173556994Y-54009410D01*
X173567000Y-53960000D01*
X173567000Y-30595634D01*
X173573208Y-30570802D01*
X173577000Y-30540000D01*
X173577000Y-30500000D01*
X173568315Y-30453841D01*
X173541035Y-30411447D01*
X173499410Y-30383006D01*
X173450000Y-30373000D01*
X146777000Y-30373000D01*
X146777000Y-29980000D01*
X146768315Y-29933841D01*
X146741035Y-29891447D01*
X146699410Y-29863006D01*
X146650000Y-29853000D01*
X119160000Y-29853000D01*
X119160000Y-27112619D01*
X120034613Y-27112619D01*
X120374155Y-27934372D01*
X121002321Y-28563636D01*
X121823481Y-28904611D01*
X122712619Y-28905387D01*
X123534372Y-28565845D01*
X124163636Y-27937679D01*
X124504611Y-27116519D01*
X124504614Y-27112619D01*
X190994613Y-27112619D01*
X191334155Y-27934372D01*
X191962321Y-28563636D01*
X192783481Y-28904611D01*
X193672619Y-28905387D01*
X194494372Y-28565845D01*
X195123636Y-27937679D01*
X195464611Y-27116519D01*
X195465387Y-26227381D01*
X195125845Y-25405628D01*
X194497679Y-24776364D01*
X193676519Y-24435389D01*
X192787381Y-24434613D01*
X191965628Y-24774155D01*
X191336364Y-25402321D01*
X190995389Y-26223481D01*
X190994613Y-27112619D01*
X124504614Y-27112619D01*
X124505387Y-26227381D01*
X124165845Y-25405628D01*
X123537679Y-24776364D01*
X122716519Y-24435389D01*
X121827381Y-24434613D01*
X121005628Y-24774155D01*
X120376364Y-25402321D01*
X120035389Y-26223481D01*
X120034613Y-27112619D01*
X119160000Y-27112619D01*
X119160000Y-23570000D01*
X196330000Y-23570000D01*
X196330000Y-100890000D01*
X196330000Y-100890000D01*
G37*
X196330000Y-100890000D02*
X119160000Y-100890000D01*
X119160000Y-98232619D01*
X120034613Y-98232619D01*
X120374155Y-99054372D01*
X121002321Y-99683636D01*
X121823481Y-100024611D01*
X122712619Y-100025387D01*
X123534372Y-99685845D01*
X124163636Y-99057679D01*
X124504611Y-98236519D01*
X124504614Y-98232619D01*
X190994613Y-98232619D01*
X191334155Y-99054372D01*
X191962321Y-99683636D01*
X192783481Y-100024611D01*
X193672619Y-100025387D01*
X194494372Y-99685845D01*
X195123636Y-99057679D01*
X195464611Y-98236519D01*
X195465387Y-97347381D01*
X195125845Y-96525628D01*
X194497679Y-95896364D01*
X193676519Y-95555389D01*
X192787381Y-95554613D01*
X191965628Y-95894155D01*
X191336364Y-96522321D01*
X190995389Y-97343481D01*
X190994613Y-98232619D01*
X124504614Y-98232619D01*
X124505387Y-97347381D01*
X124165845Y-96525628D01*
X123537679Y-95896364D01*
X122716519Y-95555389D01*
X121827381Y-95554613D01*
X121005628Y-95894155D01*
X120376364Y-96522321D01*
X120035389Y-97343481D01*
X120034613Y-98232619D01*
X119160000Y-98232619D01*
X119160000Y-92487750D01*
X126159000Y-92487750D01*
X126159000Y-93578310D01*
X126255673Y-93811699D01*
X126434302Y-93990327D01*
X126667691Y-94087000D01*
X127508250Y-94087000D01*
X127667000Y-93928250D01*
X127667000Y-92329000D01*
X127921000Y-92329000D01*
X127921000Y-93928250D01*
X128079750Y-94087000D01*
X128920309Y-94087000D01*
X129153698Y-93990327D01*
X129332327Y-93811699D01*
X129429000Y-93578310D01*
X129429000Y-92487750D01*
X129270250Y-92329000D01*
X127921000Y-92329000D01*
X127667000Y-92329000D01*
X126317750Y-92329000D01*
X126159000Y-92487750D01*
X119160000Y-92487750D01*
X119160000Y-90825690D01*
X126159000Y-90825690D01*
X126159000Y-91916250D01*
X126317750Y-92075000D01*
X127667000Y-92075000D01*
X127667000Y-90475750D01*
X127921000Y-90475750D01*
X127921000Y-92075000D01*
X129270250Y-92075000D01*
X129429000Y-91916250D01*
X129429000Y-90825690D01*
X129332327Y-90592301D01*
X129153698Y-90413673D01*
X128920309Y-90317000D01*
X128079750Y-90317000D01*
X127921000Y-90475750D01*
X127667000Y-90475750D01*
X127508250Y-90317000D01*
X126667691Y-90317000D01*
X126434302Y-90413673D01*
X126255673Y-90592301D01*
X126159000Y-90825690D01*
X119160000Y-90825690D01*
X119160000Y-87153750D01*
X127355000Y-87153750D01*
X127355000Y-87369310D01*
X127451673Y-87602699D01*
X127630302Y-87781327D01*
X127863691Y-87878000D01*
X128304250Y-87878000D01*
X128463000Y-87719250D01*
X128463000Y-86995000D01*
X127513750Y-86995000D01*
X127355000Y-87153750D01*
X119160000Y-87153750D01*
X119160000Y-86366690D01*
X127355000Y-86366690D01*
X127355000Y-86582250D01*
X127513750Y-86741000D01*
X128463000Y-86741000D01*
X128463000Y-86016750D01*
X128717000Y-86016750D01*
X128717000Y-86741000D01*
X128737000Y-86741000D01*
X128737000Y-86995000D01*
X128717000Y-86995000D01*
X128717000Y-87719250D01*
X128875750Y-87878000D01*
X129316309Y-87878000D01*
X129549698Y-87781327D01*
X129551068Y-87779957D01*
X129638110Y-87839431D01*
X129854242Y-87883199D01*
X129952599Y-88030401D01*
X130582560Y-88660362D01*
X130582560Y-89750000D01*
X130626838Y-89985317D01*
X130765910Y-90201441D01*
X130916830Y-90304560D01*
X130794000Y-90304560D01*
X130558683Y-90348838D01*
X130342559Y-90487910D01*
X130197569Y-90700110D01*
X130146560Y-90952000D01*
X130146560Y-93452000D01*
X130190838Y-93687317D01*
X130329910Y-93903441D01*
X130542110Y-94048431D01*
X130794000Y-94099440D01*
X132794000Y-94099440D01*
X133029317Y-94055162D01*
X133245441Y-93916090D01*
X133390431Y-93703890D01*
X133441440Y-93452000D01*
X133441440Y-92436242D01*
X134506599Y-93501401D01*
X134753161Y-93666148D01*
X135044000Y-93724000D01*
X181356000Y-93724000D01*
X181646839Y-93666148D01*
X181893401Y-93501401D01*
X188497401Y-86897401D01*
X188662148Y-86650840D01*
X188720000Y-86360000D01*
X188720000Y-66263806D01*
X188868403Y-66115403D01*
X189033150Y-65868841D01*
X189091002Y-65578002D01*
X189091002Y-64977998D01*
X189033150Y-64687159D01*
X188868403Y-64440597D01*
X188720000Y-64292194D01*
X188720000Y-61214000D01*
X188693974Y-61083161D01*
X188662148Y-60923160D01*
X188497401Y-60676599D01*
X187227401Y-59406599D01*
X187114116Y-59330904D01*
X187137969Y-59295994D01*
X187280302Y-59438327D01*
X187513691Y-59535000D01*
X187954250Y-59535000D01*
X188113000Y-59376250D01*
X188113000Y-58577000D01*
X188367000Y-58577000D01*
X188367000Y-59376250D01*
X188525750Y-59535000D01*
X188966309Y-59535000D01*
X189199698Y-59438327D01*
X189378327Y-59259699D01*
X189475000Y-59026310D01*
X189475000Y-58735750D01*
X189316250Y-58577000D01*
X188367000Y-58577000D01*
X188113000Y-58577000D01*
X188093000Y-58577000D01*
X188093000Y-58323000D01*
X188113000Y-58323000D01*
X188113000Y-57523750D01*
X188367000Y-57523750D01*
X188367000Y-58323000D01*
X189316250Y-58323000D01*
X189475000Y-58164250D01*
X189475000Y-57873690D01*
X189378327Y-57640301D01*
X189199698Y-57461673D01*
X188966309Y-57365000D01*
X188525750Y-57365000D01*
X188367000Y-57523750D01*
X188113000Y-57523750D01*
X187954250Y-57365000D01*
X187567179Y-57365000D01*
X187762192Y-57170327D01*
X187904838Y-56826799D01*
X187905162Y-56454833D01*
X187763117Y-56111057D01*
X187500327Y-55847808D01*
X187156799Y-55705162D01*
X186784833Y-55704838D01*
X186441057Y-55846883D01*
X186177808Y-56109673D01*
X186035162Y-56453201D01*
X186035121Y-56500077D01*
X185502599Y-57032599D01*
X185337852Y-57279161D01*
X185318712Y-57375382D01*
X185204683Y-57396838D01*
X184988559Y-57535910D01*
X184903772Y-57660000D01*
X184902463Y-57660000D01*
X184870327Y-57627808D01*
X184783181Y-57591621D01*
X185957401Y-56417401D01*
X186122148Y-56170839D01*
X186180000Y-55880000D01*
X186180000Y-52063301D01*
X186499147Y-51850054D01*
X186499971Y-51848821D01*
X186506838Y-51885317D01*
X186645910Y-52101441D01*
X186858110Y-52246431D01*
X187110000Y-52297440D01*
X188810000Y-52297440D01*
X189045317Y-52253162D01*
X189261441Y-52114090D01*
X189406431Y-51901890D01*
X189457440Y-51650000D01*
X189457440Y-49950000D01*
X189426438Y-49785240D01*
X190756000Y-51114802D01*
X190756000Y-53025198D01*
X190231197Y-53550001D01*
X190037999Y-53550001D01*
X189747160Y-53607853D01*
X189646787Y-53674920D01*
X189552833Y-53674838D01*
X189209057Y-53816883D01*
X188945808Y-54079673D01*
X188803162Y-54423201D01*
X188802838Y-54795167D01*
X188944883Y-55138943D01*
X189207673Y-55402192D01*
X189551201Y-55544838D01*
X189923167Y-55545162D01*
X190266943Y-55403117D01*
X190530192Y-55140327D01*
X190560600Y-55067097D01*
X190836838Y-55012149D01*
X191083400Y-54847402D01*
X192053401Y-53877401D01*
X192218148Y-53630839D01*
X192276000Y-53340000D01*
X192276000Y-50800000D01*
X192218148Y-50509161D01*
X192053401Y-50262599D01*
X191952572Y-50161770D01*
X192054192Y-50060327D01*
X192196838Y-49716799D01*
X192197162Y-49344833D01*
X192055117Y-49001057D01*
X192022000Y-48967882D01*
X192022000Y-34798000D01*
X191964148Y-34507161D01*
X191799401Y-34260599D01*
X190021401Y-32482599D01*
X189774839Y-32317852D01*
X189484000Y-32260000D01*
X186757919Y-32260000D01*
X186467079Y-32317852D01*
X186220518Y-32482599D01*
X184882599Y-33820518D01*
X184717852Y-34067080D01*
X184674044Y-34287315D01*
X184340853Y-34509946D01*
X184018946Y-34991715D01*
X183905907Y-35560000D01*
X184018946Y-36128285D01*
X184043477Y-36164999D01*
X182277001Y-36164999D01*
X181986162Y-36222851D01*
X181739600Y-36387598D01*
X179802599Y-38324599D01*
X179637852Y-38571161D01*
X179580000Y-38862000D01*
X179580000Y-40975001D01*
X179392833Y-40974838D01*
X179049057Y-41116883D01*
X178785808Y-41379673D01*
X178719812Y-41538607D01*
X177916983Y-42020305D01*
X177848016Y-42082871D01*
X177770599Y-42134599D01*
X177739207Y-42181580D01*
X177697355Y-42219548D01*
X177657581Y-42303742D01*
X177605852Y-42381161D01*
X177594828Y-42436580D01*
X177570692Y-42487673D01*
X177566166Y-42580674D01*
X177548000Y-42672000D01*
X177548000Y-52771198D01*
X174691198Y-55628000D01*
X170180000Y-55628000D01*
X169889160Y-55685852D01*
X169642599Y-55850599D01*
X168770320Y-56722878D01*
X168724833Y-56722838D01*
X168381057Y-56864883D01*
X168117808Y-57127673D01*
X167975162Y-57471201D01*
X167974838Y-57843167D01*
X168004106Y-57914000D01*
X139446000Y-57914000D01*
X139155161Y-57971852D01*
X138908599Y-58136599D01*
X134986408Y-62058790D01*
X134620000Y-61985907D01*
X134051715Y-62098946D01*
X133569946Y-62420853D01*
X133540597Y-62464777D01*
X133468327Y-62290302D01*
X133289699Y-62111673D01*
X133056310Y-62015000D01*
X132365750Y-62015000D01*
X132207000Y-62173750D01*
X132207000Y-63373000D01*
X132227000Y-63373000D01*
X132227000Y-63627000D01*
X132207000Y-63627000D01*
X132207000Y-64826250D01*
X132365750Y-64985000D01*
X132420000Y-64985000D01*
X132420000Y-65461164D01*
X132204001Y-65355592D01*
X132037000Y-65482498D01*
X132037000Y-67073000D01*
X132057000Y-67073000D01*
X132057000Y-67327000D01*
X132037000Y-67327000D01*
X132037000Y-68917502D01*
X132204001Y-69044408D01*
X132532259Y-68883968D01*
X132764788Y-69039338D01*
X133180000Y-69121929D01*
X133595212Y-69039338D01*
X133815000Y-68892480D01*
X134034788Y-69039338D01*
X134450000Y-69121929D01*
X134865212Y-69039338D01*
X135085000Y-68892480D01*
X135304788Y-69039338D01*
X135720000Y-69121929D01*
X136135212Y-69039338D01*
X136355000Y-68892480D01*
X136574788Y-69039338D01*
X136990000Y-69121929D01*
X137405212Y-69039338D01*
X137625000Y-68892480D01*
X137844788Y-69039338D01*
X138260000Y-69121929D01*
X138675212Y-69039338D01*
X138895000Y-68892480D01*
X139114788Y-69039338D01*
X139530000Y-69121929D01*
X139945212Y-69039338D01*
X140165000Y-68892480D01*
X140384788Y-69039338D01*
X140800000Y-69121929D01*
X141215212Y-69039338D01*
X141435000Y-68892480D01*
X141654788Y-69039338D01*
X142070000Y-69121929D01*
X142485212Y-69039338D01*
X142705000Y-68892480D01*
X142924788Y-69039338D01*
X143340000Y-69121929D01*
X143755212Y-69039338D01*
X143850000Y-68976003D01*
X143850000Y-71204000D01*
X143907852Y-71494839D01*
X144072599Y-71741401D01*
X146384878Y-74053680D01*
X146384838Y-74099167D01*
X146526883Y-74442943D01*
X146789673Y-74706192D01*
X147133201Y-74848838D01*
X147505167Y-74849162D01*
X147848943Y-74707117D01*
X148033416Y-74522965D01*
X148070662Y-74710212D01*
X148217520Y-74930000D01*
X148070662Y-75149788D01*
X147988071Y-75565000D01*
X148070662Y-75980212D01*
X148217520Y-76200000D01*
X148070662Y-76419788D01*
X147988071Y-76835000D01*
X148070662Y-77250212D01*
X148217520Y-77470000D01*
X148070662Y-77689788D01*
X147988071Y-78105000D01*
X148070662Y-78520212D01*
X148217520Y-78740000D01*
X148070662Y-78959788D01*
X147988071Y-79375000D01*
X148070662Y-79790212D01*
X148217520Y-80010000D01*
X148070662Y-80229788D01*
X147988071Y-80645000D01*
X148070662Y-81060212D01*
X148226032Y-81292741D01*
X148065592Y-81620999D01*
X148192498Y-81788000D01*
X149783000Y-81788000D01*
X149783000Y-81768000D01*
X150037000Y-81768000D01*
X150037000Y-81788000D01*
X151627502Y-81788000D01*
X151754408Y-81620999D01*
X151648836Y-81405000D01*
X159070198Y-81405000D01*
X165080198Y-87415000D01*
X164972998Y-87415000D01*
X164972998Y-87579844D01*
X164743110Y-87458524D01*
X164333076Y-87628355D01*
X163904817Y-88018642D01*
X163837702Y-88161553D01*
X163610054Y-87820853D01*
X163128285Y-87498946D01*
X162560000Y-87385907D01*
X161991715Y-87498946D01*
X161680017Y-87707215D01*
X158923122Y-84950320D01*
X158923162Y-84904833D01*
X158781117Y-84561057D01*
X158518327Y-84297808D01*
X158174799Y-84155162D01*
X157802833Y-84154838D01*
X157459057Y-84296883D01*
X157195808Y-84559673D01*
X157066319Y-84871517D01*
X155985401Y-83790599D01*
X155738839Y-83625852D01*
X155515957Y-83581518D01*
X155470327Y-83535808D01*
X155126799Y-83393162D01*
X154911442Y-83392974D01*
X154970192Y-83334327D01*
X155112838Y-82990799D01*
X155113162Y-82618833D01*
X154971117Y-82275057D01*
X154708327Y-82011808D01*
X154364799Y-81869162D01*
X153992833Y-81868838D01*
X153649057Y-82010883D01*
X153385808Y-82273673D01*
X153243162Y-82617201D01*
X153243121Y-82664077D01*
X152370599Y-83536599D01*
X152255966Y-83708160D01*
X151336542Y-82788736D01*
X151567013Y-82592408D01*
X151754408Y-82209001D01*
X151627502Y-82042000D01*
X150037000Y-82042000D01*
X150037000Y-82062000D01*
X149783000Y-82062000D01*
X149783000Y-82042000D01*
X148192498Y-82042000D01*
X148145877Y-82103350D01*
X146146650Y-82103350D01*
X145855810Y-82161202D01*
X145609249Y-82325949D01*
X144649308Y-83285890D01*
X144610000Y-83278071D01*
X144194788Y-83360662D01*
X143975000Y-83507520D01*
X143755212Y-83360662D01*
X143340000Y-83278071D01*
X142924788Y-83360662D01*
X142705000Y-83507520D01*
X142485212Y-83360662D01*
X142070000Y-83278071D01*
X141654788Y-83360662D01*
X141435000Y-83507520D01*
X141215212Y-83360662D01*
X140800000Y-83278071D01*
X140384788Y-83360662D01*
X140165000Y-83507520D01*
X139945212Y-83360662D01*
X139530000Y-83278071D01*
X139114788Y-83360662D01*
X138895000Y-83507520D01*
X138675212Y-83360662D01*
X138260000Y-83278071D01*
X137844788Y-83360662D01*
X137625000Y-83507520D01*
X137405212Y-83360662D01*
X136990000Y-83278071D01*
X136574788Y-83360662D01*
X136355000Y-83507520D01*
X136135212Y-83360662D01*
X135720000Y-83278071D01*
X135304788Y-83360662D01*
X135085000Y-83507520D01*
X134865212Y-83360662D01*
X134450000Y-83278071D01*
X134034788Y-83360662D01*
X133815000Y-83507520D01*
X133595212Y-83360662D01*
X133180000Y-83278071D01*
X132764788Y-83360662D01*
X132532259Y-83516032D01*
X132204001Y-83355592D01*
X132037000Y-83482498D01*
X132037000Y-85073000D01*
X132057000Y-85073000D01*
X132057000Y-85327000D01*
X132037000Y-85327000D01*
X132037000Y-85347000D01*
X131783000Y-85347000D01*
X131783000Y-85327000D01*
X130825000Y-85327000D01*
X130825000Y-85845560D01*
X129890000Y-85845560D01*
X129654683Y-85889838D01*
X129551354Y-85956329D01*
X129549698Y-85954673D01*
X129316309Y-85858000D01*
X128875750Y-85858000D01*
X128717000Y-86016750D01*
X128463000Y-86016750D01*
X128304250Y-85858000D01*
X127863691Y-85858000D01*
X127630302Y-85954673D01*
X127451673Y-86133301D01*
X127355000Y-86366690D01*
X119160000Y-86366690D01*
X119160000Y-85471000D01*
X130556000Y-85471000D01*
X130602159Y-85462315D01*
X130644553Y-85435035D01*
X130672994Y-85393410D01*
X130683000Y-85344000D01*
X130683000Y-84273000D01*
X130825000Y-84273000D01*
X130825000Y-85073000D01*
X131783000Y-85073000D01*
X131783000Y-83482498D01*
X131615999Y-83355592D01*
X131232592Y-83542987D01*
X130956192Y-83867456D01*
X130825000Y-84273000D01*
X130683000Y-84273000D01*
X130683000Y-78148528D01*
X138185077Y-78148528D01*
X138375364Y-78493271D01*
X139256591Y-78844956D01*
X140205323Y-78832641D01*
X141024636Y-78493271D01*
X141214923Y-78148528D01*
X139700000Y-76633605D01*
X138185077Y-78148528D01*
X130683000Y-78148528D01*
X130683000Y-76010591D01*
X137309044Y-76010591D01*
X137321359Y-76959323D01*
X137660729Y-77778636D01*
X138005472Y-77968923D01*
X139520395Y-76454000D01*
X139879605Y-76454000D01*
X141394528Y-77968923D01*
X141739271Y-77778636D01*
X142090956Y-76897409D01*
X142078641Y-75948677D01*
X141739271Y-75129364D01*
X141394528Y-74939077D01*
X139879605Y-76454000D01*
X139520395Y-76454000D01*
X138005472Y-74939077D01*
X137660729Y-75129364D01*
X137309044Y-76010591D01*
X130683000Y-76010591D01*
X130683000Y-74759472D01*
X138185077Y-74759472D01*
X139700000Y-76274395D01*
X141214923Y-74759472D01*
X141024636Y-74414729D01*
X140143409Y-74063044D01*
X139194677Y-74075359D01*
X138375364Y-74414729D01*
X138185077Y-74759472D01*
X130683000Y-74759472D01*
X130683000Y-67327000D01*
X130825000Y-67327000D01*
X130825000Y-68127000D01*
X130956192Y-68532544D01*
X131232592Y-68857013D01*
X131615999Y-69044408D01*
X131783000Y-68917502D01*
X131783000Y-67327000D01*
X130825000Y-67327000D01*
X130683000Y-67327000D01*
X130683000Y-67056000D01*
X130674315Y-67009841D01*
X130647035Y-66967447D01*
X130605410Y-66939006D01*
X130556000Y-66929000D01*
X119160000Y-66929000D01*
X119160000Y-66273000D01*
X130825000Y-66273000D01*
X130825000Y-67073000D01*
X131783000Y-67073000D01*
X131783000Y-65482498D01*
X131615999Y-65355592D01*
X131232592Y-65542987D01*
X130956192Y-65867456D01*
X130825000Y-66273000D01*
X119160000Y-66273000D01*
X119160000Y-63785750D01*
X130595000Y-63785750D01*
X130595000Y-64476309D01*
X130691673Y-64709698D01*
X130870301Y-64888327D01*
X131103690Y-64985000D01*
X131794250Y-64985000D01*
X131953000Y-64826250D01*
X131953000Y-63627000D01*
X130753750Y-63627000D01*
X130595000Y-63785750D01*
X119160000Y-63785750D01*
X119160000Y-62523691D01*
X130595000Y-62523691D01*
X130595000Y-63214250D01*
X130753750Y-63373000D01*
X131953000Y-63373000D01*
X131953000Y-62173750D01*
X131794250Y-62015000D01*
X131103690Y-62015000D01*
X130870301Y-62111673D01*
X130691673Y-62290302D01*
X130595000Y-62523691D01*
X119160000Y-62523691D01*
X119160000Y-57127000D01*
X146740000Y-57127000D01*
X146786159Y-57118315D01*
X146828553Y-57091035D01*
X146856994Y-57049410D01*
X146867000Y-57000000D01*
X146867000Y-56047000D01*
X157970000Y-56047000D01*
X158017789Y-56037666D01*
X158059803Y-56009803D01*
X159982606Y-54087000D01*
X173440000Y-54087000D01*
X173486159Y-54078315D01*
X173528553Y-54051035D01*
X173556994Y-54009410D01*
X173567000Y-53960000D01*
X173567000Y-30595634D01*
X173573208Y-30570802D01*
X173577000Y-30540000D01*
X173577000Y-30500000D01*
X173568315Y-30453841D01*
X173541035Y-30411447D01*
X173499410Y-30383006D01*
X173450000Y-30373000D01*
X146777000Y-30373000D01*
X146777000Y-29980000D01*
X146768315Y-29933841D01*
X146741035Y-29891447D01*
X146699410Y-29863006D01*
X146650000Y-29853000D01*
X119160000Y-29853000D01*
X119160000Y-27112619D01*
X120034613Y-27112619D01*
X120374155Y-27934372D01*
X121002321Y-28563636D01*
X121823481Y-28904611D01*
X122712619Y-28905387D01*
X123534372Y-28565845D01*
X124163636Y-27937679D01*
X124504611Y-27116519D01*
X124504614Y-27112619D01*
X190994613Y-27112619D01*
X191334155Y-27934372D01*
X191962321Y-28563636D01*
X192783481Y-28904611D01*
X193672619Y-28905387D01*
X194494372Y-28565845D01*
X195123636Y-27937679D01*
X195464611Y-27116519D01*
X195465387Y-26227381D01*
X195125845Y-25405628D01*
X194497679Y-24776364D01*
X193676519Y-24435389D01*
X192787381Y-24434613D01*
X191965628Y-24774155D01*
X191336364Y-25402321D01*
X190995389Y-26223481D01*
X190994613Y-27112619D01*
X124504614Y-27112619D01*
X124505387Y-26227381D01*
X124165845Y-25405628D01*
X123537679Y-24776364D01*
X122716519Y-24435389D01*
X121827381Y-24434613D01*
X121005628Y-24774155D01*
X120376364Y-25402321D01*
X120035389Y-26223481D01*
X120034613Y-27112619D01*
X119160000Y-27112619D01*
X119160000Y-23570000D01*
X196330000Y-23570000D01*
X196330000Y-100890000D01*
G36*
X184148355Y-49026924D02*
X184538642Y-49455183D01*
X184681553Y-49522298D01*
X184340853Y-49749946D01*
X184018946Y-50231715D01*
X183905907Y-50800000D01*
X184018946Y-51368285D01*
X184340853Y-51850054D01*
X184660000Y-52063301D01*
X184660000Y-55565198D01*
X182784599Y-57440599D01*
X182712248Y-57548880D01*
X182558799Y-57485162D01*
X182186833Y-57484838D01*
X181843057Y-57626883D01*
X181579808Y-57889673D01*
X181437162Y-58233201D01*
X181436838Y-58605167D01*
X181578883Y-58948943D01*
X181612000Y-58982118D01*
X181612000Y-59029750D01*
X181549000Y-59092750D01*
X181549000Y-59817000D01*
X181569000Y-59817000D01*
X181569000Y-60071000D01*
X181549000Y-60071000D01*
X181549000Y-60795250D01*
X181612000Y-60858250D01*
X181612000Y-60888380D01*
X181481852Y-61083161D01*
X181475250Y-61116352D01*
X181407559Y-61159910D01*
X181262569Y-61372110D01*
X181211560Y-61624000D01*
X181211560Y-63184000D01*
X181255838Y-63419317D01*
X181394910Y-63635441D01*
X181522366Y-63722528D01*
X181481852Y-63783161D01*
X181475250Y-63816352D01*
X181407559Y-63859910D01*
X181262569Y-64072110D01*
X181211560Y-64324000D01*
X181211560Y-65884000D01*
X181255838Y-66119317D01*
X181394910Y-66335441D01*
X181607110Y-66480431D01*
X181859000Y-66531440D01*
X182509000Y-66531440D01*
X182649086Y-66505081D01*
X182682690Y-66519000D01*
X182848250Y-66519000D01*
X182875386Y-66491864D01*
X182824172Y-66615201D01*
X182823848Y-66987167D01*
X182965893Y-67330943D01*
X183228683Y-67594192D01*
X183572211Y-67736838D01*
X183944177Y-67737162D01*
X184287953Y-67595117D01*
X184551202Y-67332327D01*
X184693848Y-66988799D01*
X184693920Y-66905878D01*
X184786148Y-66767849D01*
X184844000Y-66477010D01*
X184844000Y-66358669D01*
X184860441Y-66348090D01*
X185005431Y-66135890D01*
X185056440Y-65884000D01*
X185056440Y-64907242D01*
X185338560Y-65189362D01*
X185338560Y-65962000D01*
X185382838Y-66197317D01*
X185521910Y-66413441D01*
X185734110Y-66558431D01*
X185986000Y-66609440D01*
X186886000Y-66609440D01*
X187121317Y-66565162D01*
X187200000Y-66514531D01*
X187200000Y-72725001D01*
X187012833Y-72724838D01*
X186669057Y-72866883D01*
X186405808Y-73129673D01*
X186263162Y-73473201D01*
X186262838Y-73845167D01*
X186404883Y-74188943D01*
X186438000Y-74222118D01*
X186438000Y-85537198D01*
X180533198Y-91442000D01*
X154814721Y-91442000D01*
X153391196Y-90018475D01*
X153450054Y-89979147D01*
X153670000Y-89649974D01*
X153889946Y-89979147D01*
X154371715Y-90301054D01*
X154940000Y-90414093D01*
X155508285Y-90301054D01*
X155990054Y-89979147D01*
X156210000Y-89649974D01*
X156429946Y-89979147D01*
X156911715Y-90301054D01*
X157480000Y-90414093D01*
X158048285Y-90301054D01*
X158530054Y-89979147D01*
X158750000Y-89649974D01*
X158969946Y-89979147D01*
X159451715Y-90301054D01*
X160020000Y-90414093D01*
X160588285Y-90301054D01*
X161070054Y-89979147D01*
X161290000Y-89649974D01*
X161509946Y-89979147D01*
X161991715Y-90301054D01*
X162560000Y-90414093D01*
X163128285Y-90301054D01*
X163610054Y-89979147D01*
X163837702Y-89638447D01*
X163904817Y-89781358D01*
X164333076Y-90171645D01*
X164743110Y-90341476D01*
X164973000Y-90220155D01*
X164973000Y-89027000D01*
X164953000Y-89027000D01*
X164953000Y-88773000D01*
X164973000Y-88773000D01*
X164973000Y-88753000D01*
X165227000Y-88753000D01*
X165227000Y-88773000D01*
X165247000Y-88773000D01*
X165247000Y-89027000D01*
X165227000Y-89027000D01*
X165227000Y-90220155D01*
X165456890Y-90341476D01*
X165866924Y-90171645D01*
X166295183Y-89781358D01*
X166362298Y-89638447D01*
X166589946Y-89979147D01*
X167071715Y-90301054D01*
X167640000Y-90414093D01*
X168208285Y-90301054D01*
X168690054Y-89979147D01*
X168910000Y-89649974D01*
X169129946Y-89979147D01*
X169611715Y-90301054D01*
X170180000Y-90414093D01*
X170748285Y-90301054D01*
X171230054Y-89979147D01*
X171450000Y-89649974D01*
X171669946Y-89979147D01*
X172151715Y-90301054D01*
X172720000Y-90414093D01*
X173288285Y-90301054D01*
X173770054Y-89979147D01*
X173990000Y-89649974D01*
X174209946Y-89979147D01*
X174691715Y-90301054D01*
X175260000Y-90414093D01*
X175828285Y-90301054D01*
X176310054Y-89979147D01*
X176530000Y-89649974D01*
X176749946Y-89979147D01*
X177231715Y-90301054D01*
X177800000Y-90414093D01*
X178368285Y-90301054D01*
X178850054Y-89979147D01*
X179171961Y-89497378D01*
X179285000Y-88929093D01*
X179285000Y-88870907D01*
X179171961Y-88302622D01*
X178850054Y-87820853D01*
X178368285Y-87498946D01*
X177800000Y-87385907D01*
X177231715Y-87498946D01*
X176749946Y-87820853D01*
X176530000Y-88150026D01*
X176310054Y-87820853D01*
X175828285Y-87498946D01*
X175260000Y-87385907D01*
X174691715Y-87498946D01*
X174209946Y-87820853D01*
X173990000Y-88150026D01*
X173770054Y-87820853D01*
X173288285Y-87498946D01*
X172720000Y-87385907D01*
X172151715Y-87498946D01*
X171669946Y-87820853D01*
X171450000Y-88150026D01*
X171230054Y-87820853D01*
X170748285Y-87498946D01*
X170180000Y-87385907D01*
X169611715Y-87498946D01*
X169129946Y-87820853D01*
X168910000Y-88150026D01*
X168690054Y-87820853D01*
X168208285Y-87498946D01*
X167640000Y-87385907D01*
X167273592Y-87458790D01*
X159922401Y-80107599D01*
X159773340Y-80008000D01*
X162052000Y-80008000D01*
X162342839Y-79950148D01*
X162589401Y-79785401D01*
X165610000Y-76764802D01*
X165610000Y-80717537D01*
X165577808Y-80749673D01*
X165435162Y-81093201D01*
X165434838Y-81465167D01*
X165576883Y-81808943D01*
X165839673Y-82072192D01*
X166183201Y-82214838D01*
X166555167Y-82215162D01*
X166898943Y-82073117D01*
X167162192Y-81810327D01*
X167304838Y-81466799D01*
X167305162Y-81094833D01*
X167163117Y-80751057D01*
X167130000Y-80717882D01*
X167130000Y-70418802D01*
X170573680Y-66975122D01*
X170619167Y-66975162D01*
X170962943Y-66833117D01*
X171226192Y-66570327D01*
X171368838Y-66226799D01*
X171369162Y-65854833D01*
X171227117Y-65511057D01*
X170964327Y-65247808D01*
X170620799Y-65105162D01*
X170248833Y-65104838D01*
X169905057Y-65246883D01*
X169641808Y-65509673D01*
X169499162Y-65853201D01*
X169499121Y-65900077D01*
X169414659Y-65984539D01*
X169186327Y-65755808D01*
X169053958Y-65700844D01*
X169813592Y-64941210D01*
X170180000Y-65014093D01*
X170748285Y-64901054D01*
X171230054Y-64579147D01*
X171450000Y-64249974D01*
X171669946Y-64579147D01*
X172151715Y-64901054D01*
X172720000Y-65014093D01*
X173288285Y-64901054D01*
X173770054Y-64579147D01*
X173990000Y-64249974D01*
X174209946Y-64579147D01*
X174691715Y-64901054D01*
X175260000Y-65014093D01*
X175828285Y-64901054D01*
X176310054Y-64579147D01*
X176530000Y-64249974D01*
X176749946Y-64579147D01*
X177040678Y-64773407D01*
X177097852Y-65060839D01*
X177262599Y-65307401D01*
X178896878Y-66941680D01*
X178896838Y-66987167D01*
X179038883Y-67330943D01*
X179301673Y-67594192D01*
X179645201Y-67736838D01*
X180017167Y-67737162D01*
X180360943Y-67595117D01*
X180624192Y-67332327D01*
X180766838Y-66988799D01*
X180767162Y-66616833D01*
X180625117Y-66273057D01*
X180362327Y-66009808D01*
X180018799Y-65867162D01*
X179971923Y-65867121D01*
X178750481Y-64645679D01*
X178850054Y-64579147D01*
X179171961Y-64097378D01*
X179285000Y-63529093D01*
X179285000Y-63470907D01*
X179171961Y-62902622D01*
X178852164Y-62424011D01*
X178957725Y-62424011D01*
X179248564Y-62366159D01*
X179269377Y-62352252D01*
X179391201Y-62402838D01*
X179763167Y-62403162D01*
X180106943Y-62261117D01*
X180370192Y-61998327D01*
X180512838Y-61654799D01*
X180513162Y-61282833D01*
X180371117Y-60939057D01*
X180108327Y-60675808D01*
X179764799Y-60533162D01*
X179670053Y-60533079D01*
X179796007Y-60229750D01*
X180187000Y-60229750D01*
X180187000Y-60445310D01*
X180283673Y-60678699D01*
X180462302Y-60857327D01*
X180695691Y-60954000D01*
X181136250Y-60954000D01*
X181295000Y-60795250D01*
X181295000Y-60071000D01*
X180345750Y-60071000D01*
X180187000Y-60229750D01*
X179796007Y-60229750D01*
X179811787Y-60191748D01*
X179812111Y-59819782D01*
X179670066Y-59476006D01*
X179636809Y-59442690D01*
X180187000Y-59442690D01*
X180187000Y-59658250D01*
X180345750Y-59817000D01*
X181295000Y-59817000D01*
X181295000Y-59092750D01*
X181136250Y-58934000D01*
X180695691Y-58934000D01*
X180462302Y-59030673D01*
X180283673Y-59209301D01*
X180187000Y-59442690D01*
X179636809Y-59442690D01*
X179633463Y-59439339D01*
X183163401Y-55909401D01*
X183328148Y-55662839D01*
X183386000Y-55372000D01*
X183386000Y-49629800D01*
X184101647Y-48914153D01*
X184148355Y-49026924D01*
X184148355Y-49026924D01*
G37*
X184148355Y-49026924D02*
X184538642Y-49455183D01*
X184681553Y-49522298D01*
X184340853Y-49749946D01*
X184018946Y-50231715D01*
X183905907Y-50800000D01*
X184018946Y-51368285D01*
X184340853Y-51850054D01*
X184660000Y-52063301D01*
X184660000Y-55565198D01*
X182784599Y-57440599D01*
X182712248Y-57548880D01*
X182558799Y-57485162D01*
X182186833Y-57484838D01*
X181843057Y-57626883D01*
X181579808Y-57889673D01*
X181437162Y-58233201D01*
X181436838Y-58605167D01*
X181578883Y-58948943D01*
X181612000Y-58982118D01*
X181612000Y-59029750D01*
X181549000Y-59092750D01*
X181549000Y-59817000D01*
X181569000Y-59817000D01*
X181569000Y-60071000D01*
X181549000Y-60071000D01*
X181549000Y-60795250D01*
X181612000Y-60858250D01*
X181612000Y-60888380D01*
X181481852Y-61083161D01*
X181475250Y-61116352D01*
X181407559Y-61159910D01*
X181262569Y-61372110D01*
X181211560Y-61624000D01*
X181211560Y-63184000D01*
X181255838Y-63419317D01*
X181394910Y-63635441D01*
X181522366Y-63722528D01*
X181481852Y-63783161D01*
X181475250Y-63816352D01*
X181407559Y-63859910D01*
X181262569Y-64072110D01*
X181211560Y-64324000D01*
X181211560Y-65884000D01*
X181255838Y-66119317D01*
X181394910Y-66335441D01*
X181607110Y-66480431D01*
X181859000Y-66531440D01*
X182509000Y-66531440D01*
X182649086Y-66505081D01*
X182682690Y-66519000D01*
X182848250Y-66519000D01*
X182875386Y-66491864D01*
X182824172Y-66615201D01*
X182823848Y-66987167D01*
X182965893Y-67330943D01*
X183228683Y-67594192D01*
X183572211Y-67736838D01*
X183944177Y-67737162D01*
X184287953Y-67595117D01*
X184551202Y-67332327D01*
X184693848Y-66988799D01*
X184693920Y-66905878D01*
X184786148Y-66767849D01*
X184844000Y-66477010D01*
X184844000Y-66358669D01*
X184860441Y-66348090D01*
X185005431Y-66135890D01*
X185056440Y-65884000D01*
X185056440Y-64907242D01*
X185338560Y-65189362D01*
X185338560Y-65962000D01*
X185382838Y-66197317D01*
X185521910Y-66413441D01*
X185734110Y-66558431D01*
X185986000Y-66609440D01*
X186886000Y-66609440D01*
X187121317Y-66565162D01*
X187200000Y-66514531D01*
X187200000Y-72725001D01*
X187012833Y-72724838D01*
X186669057Y-72866883D01*
X186405808Y-73129673D01*
X186263162Y-73473201D01*
X186262838Y-73845167D01*
X186404883Y-74188943D01*
X186438000Y-74222118D01*
X186438000Y-85537198D01*
X180533198Y-91442000D01*
X154814721Y-91442000D01*
X153391196Y-90018475D01*
X153450054Y-89979147D01*
X153670000Y-89649974D01*
X153889946Y-89979147D01*
X154371715Y-90301054D01*
X154940000Y-90414093D01*
X155508285Y-90301054D01*
X155990054Y-89979147D01*
X156210000Y-89649974D01*
X156429946Y-89979147D01*
X156911715Y-90301054D01*
X157480000Y-90414093D01*
X158048285Y-90301054D01*
X158530054Y-89979147D01*
X158750000Y-89649974D01*
X158969946Y-89979147D01*
X159451715Y-90301054D01*
X160020000Y-90414093D01*
X160588285Y-90301054D01*
X161070054Y-89979147D01*
X161290000Y-89649974D01*
X161509946Y-89979147D01*
X161991715Y-90301054D01*
X162560000Y-90414093D01*
X163128285Y-90301054D01*
X163610054Y-89979147D01*
X163837702Y-89638447D01*
X163904817Y-89781358D01*
X164333076Y-90171645D01*
X164743110Y-90341476D01*
X164973000Y-90220155D01*
X164973000Y-89027000D01*
X164953000Y-89027000D01*
X164953000Y-88773000D01*
X164973000Y-88773000D01*
X164973000Y-88753000D01*
X165227000Y-88753000D01*
X165227000Y-88773000D01*
X165247000Y-88773000D01*
X165247000Y-89027000D01*
X165227000Y-89027000D01*
X165227000Y-90220155D01*
X165456890Y-90341476D01*
X165866924Y-90171645D01*
X166295183Y-89781358D01*
X166362298Y-89638447D01*
X166589946Y-89979147D01*
X167071715Y-90301054D01*
X167640000Y-90414093D01*
X168208285Y-90301054D01*
X168690054Y-89979147D01*
X168910000Y-89649974D01*
X169129946Y-89979147D01*
X169611715Y-90301054D01*
X170180000Y-90414093D01*
X170748285Y-90301054D01*
X171230054Y-89979147D01*
X171450000Y-89649974D01*
X171669946Y-89979147D01*
X172151715Y-90301054D01*
X172720000Y-90414093D01*
X173288285Y-90301054D01*
X173770054Y-89979147D01*
X173990000Y-89649974D01*
X174209946Y-89979147D01*
X174691715Y-90301054D01*
X175260000Y-90414093D01*
X175828285Y-90301054D01*
X176310054Y-89979147D01*
X176530000Y-89649974D01*
X176749946Y-89979147D01*
X177231715Y-90301054D01*
X177800000Y-90414093D01*
X178368285Y-90301054D01*
X178850054Y-89979147D01*
X179171961Y-89497378D01*
X179285000Y-88929093D01*
X179285000Y-88870907D01*
X179171961Y-88302622D01*
X178850054Y-87820853D01*
X178368285Y-87498946D01*
X177800000Y-87385907D01*
X177231715Y-87498946D01*
X176749946Y-87820853D01*
X176530000Y-88150026D01*
X176310054Y-87820853D01*
X175828285Y-87498946D01*
X175260000Y-87385907D01*
X174691715Y-87498946D01*
X174209946Y-87820853D01*
X173990000Y-88150026D01*
X173770054Y-87820853D01*
X173288285Y-87498946D01*
X172720000Y-87385907D01*
X172151715Y-87498946D01*
X171669946Y-87820853D01*
X171450000Y-88150026D01*
X171230054Y-87820853D01*
X170748285Y-87498946D01*
X170180000Y-87385907D01*
X169611715Y-87498946D01*
X169129946Y-87820853D01*
X168910000Y-88150026D01*
X168690054Y-87820853D01*
X168208285Y-87498946D01*
X167640000Y-87385907D01*
X167273592Y-87458790D01*
X159922401Y-80107599D01*
X159773340Y-80008000D01*
X162052000Y-80008000D01*
X162342839Y-79950148D01*
X162589401Y-79785401D01*
X165610000Y-76764802D01*
X165610000Y-80717537D01*
X165577808Y-80749673D01*
X165435162Y-81093201D01*
X165434838Y-81465167D01*
X165576883Y-81808943D01*
X165839673Y-82072192D01*
X166183201Y-82214838D01*
X166555167Y-82215162D01*
X166898943Y-82073117D01*
X167162192Y-81810327D01*
X167304838Y-81466799D01*
X167305162Y-81094833D01*
X167163117Y-80751057D01*
X167130000Y-80717882D01*
X167130000Y-70418802D01*
X170573680Y-66975122D01*
X170619167Y-66975162D01*
X170962943Y-66833117D01*
X171226192Y-66570327D01*
X171368838Y-66226799D01*
X171369162Y-65854833D01*
X171227117Y-65511057D01*
X170964327Y-65247808D01*
X170620799Y-65105162D01*
X170248833Y-65104838D01*
X169905057Y-65246883D01*
X169641808Y-65509673D01*
X169499162Y-65853201D01*
X169499121Y-65900077D01*
X169414659Y-65984539D01*
X169186327Y-65755808D01*
X169053958Y-65700844D01*
X169813592Y-64941210D01*
X170180000Y-65014093D01*
X170748285Y-64901054D01*
X171230054Y-64579147D01*
X171450000Y-64249974D01*
X171669946Y-64579147D01*
X172151715Y-64901054D01*
X172720000Y-65014093D01*
X173288285Y-64901054D01*
X173770054Y-64579147D01*
X173990000Y-64249974D01*
X174209946Y-64579147D01*
X174691715Y-64901054D01*
X175260000Y-65014093D01*
X175828285Y-64901054D01*
X176310054Y-64579147D01*
X176530000Y-64249974D01*
X176749946Y-64579147D01*
X177040678Y-64773407D01*
X177097852Y-65060839D01*
X177262599Y-65307401D01*
X178896878Y-66941680D01*
X178896838Y-66987167D01*
X179038883Y-67330943D01*
X179301673Y-67594192D01*
X179645201Y-67736838D01*
X180017167Y-67737162D01*
X180360943Y-67595117D01*
X180624192Y-67332327D01*
X180766838Y-66988799D01*
X180767162Y-66616833D01*
X180625117Y-66273057D01*
X180362327Y-66009808D01*
X180018799Y-65867162D01*
X179971923Y-65867121D01*
X178750481Y-64645679D01*
X178850054Y-64579147D01*
X179171961Y-64097378D01*
X179285000Y-63529093D01*
X179285000Y-63470907D01*
X179171961Y-62902622D01*
X178852164Y-62424011D01*
X178957725Y-62424011D01*
X179248564Y-62366159D01*
X179269377Y-62352252D01*
X179391201Y-62402838D01*
X179763167Y-62403162D01*
X180106943Y-62261117D01*
X180370192Y-61998327D01*
X180512838Y-61654799D01*
X180513162Y-61282833D01*
X180371117Y-60939057D01*
X180108327Y-60675808D01*
X179764799Y-60533162D01*
X179670053Y-60533079D01*
X179796007Y-60229750D01*
X180187000Y-60229750D01*
X180187000Y-60445310D01*
X180283673Y-60678699D01*
X180462302Y-60857327D01*
X180695691Y-60954000D01*
X181136250Y-60954000D01*
X181295000Y-60795250D01*
X181295000Y-60071000D01*
X180345750Y-60071000D01*
X180187000Y-60229750D01*
X179796007Y-60229750D01*
X179811787Y-60191748D01*
X179812111Y-59819782D01*
X179670066Y-59476006D01*
X179636809Y-59442690D01*
X180187000Y-59442690D01*
X180187000Y-59658250D01*
X180345750Y-59817000D01*
X181295000Y-59817000D01*
X181295000Y-59092750D01*
X181136250Y-58934000D01*
X180695691Y-58934000D01*
X180462302Y-59030673D01*
X180283673Y-59209301D01*
X180187000Y-59442690D01*
X179636809Y-59442690D01*
X179633463Y-59439339D01*
X183163401Y-55909401D01*
X183328148Y-55662839D01*
X183386000Y-55372000D01*
X183386000Y-49629800D01*
X184101647Y-48914153D01*
X184148355Y-49026924D01*
G36*
X157439217Y-65005981D02*
X155672599Y-66772599D01*
X155507852Y-67019161D01*
X155450000Y-67310000D01*
X155450000Y-72335537D01*
X155417808Y-72367673D01*
X155275162Y-72711201D01*
X155274838Y-73083167D01*
X155416883Y-73426943D01*
X155679673Y-73690192D01*
X156023201Y-73832838D01*
X156395167Y-73833162D01*
X156738943Y-73691117D01*
X157002192Y-73428327D01*
X157144838Y-73084799D01*
X157145162Y-72712833D01*
X157039690Y-72457570D01*
X157293201Y-72562838D01*
X157665167Y-72563162D01*
X158008943Y-72421117D01*
X158272192Y-72158327D01*
X158414838Y-71814799D01*
X158415162Y-71442833D01*
X158273117Y-71099057D01*
X158240000Y-71065882D01*
X158240000Y-68894802D01*
X158831019Y-68303783D01*
X158830838Y-68511167D01*
X158972883Y-68854943D01*
X159078710Y-68960954D01*
X158973808Y-69065673D01*
X158831162Y-69409201D01*
X158830838Y-69781167D01*
X158972883Y-70124943D01*
X159235673Y-70388192D01*
X159579201Y-70530838D01*
X159951167Y-70531162D01*
X160294943Y-70389117D01*
X160328118Y-70356000D01*
X164084000Y-70356000D01*
X164340000Y-70305078D01*
X164340000Y-75885198D01*
X161737198Y-78488000D01*
X156264463Y-78488000D01*
X156232327Y-78455808D01*
X155888799Y-78313162D01*
X155516833Y-78312838D01*
X155173057Y-78454883D01*
X154909808Y-78717673D01*
X154767162Y-79061201D01*
X154766838Y-79433167D01*
X154908883Y-79776943D01*
X155016752Y-79885000D01*
X151686003Y-79885000D01*
X151749338Y-79790212D01*
X151831929Y-79375000D01*
X151749338Y-78959788D01*
X151602480Y-78740000D01*
X151749338Y-78520212D01*
X151831929Y-78105000D01*
X151749338Y-77689788D01*
X151602480Y-77470000D01*
X151749338Y-77250212D01*
X151831929Y-76835000D01*
X151749338Y-76419788D01*
X151602480Y-76200000D01*
X151749338Y-75980212D01*
X151831929Y-75565000D01*
X151749338Y-75149788D01*
X151602480Y-74930000D01*
X151749338Y-74710212D01*
X151831929Y-74295000D01*
X151749338Y-73879788D01*
X151602480Y-73660000D01*
X151749338Y-73440212D01*
X151831929Y-73025000D01*
X151749338Y-72609788D01*
X151602480Y-72390000D01*
X151749338Y-72170212D01*
X151831929Y-71755000D01*
X151824110Y-71715692D01*
X152910000Y-70629802D01*
X152910000Y-73351537D01*
X152877808Y-73383673D01*
X152735162Y-73727201D01*
X152734838Y-74099167D01*
X152876883Y-74442943D01*
X153139673Y-74706192D01*
X153483201Y-74848838D01*
X153855167Y-74849162D01*
X154198943Y-74707117D01*
X154462192Y-74444327D01*
X154604838Y-74100799D01*
X154605162Y-73728833D01*
X154463117Y-73385057D01*
X154430000Y-73351882D01*
X154430000Y-67624802D01*
X157113592Y-64941210D01*
X157439217Y-65005981D01*
X157439217Y-65005981D01*
G37*
X157439217Y-65005981D02*
X155672599Y-66772599D01*
X155507852Y-67019161D01*
X155450000Y-67310000D01*
X155450000Y-72335537D01*
X155417808Y-72367673D01*
X155275162Y-72711201D01*
X155274838Y-73083167D01*
X155416883Y-73426943D01*
X155679673Y-73690192D01*
X156023201Y-73832838D01*
X156395167Y-73833162D01*
X156738943Y-73691117D01*
X157002192Y-73428327D01*
X157144838Y-73084799D01*
X157145162Y-72712833D01*
X157039690Y-72457570D01*
X157293201Y-72562838D01*
X157665167Y-72563162D01*
X158008943Y-72421117D01*
X158272192Y-72158327D01*
X158414838Y-71814799D01*
X158415162Y-71442833D01*
X158273117Y-71099057D01*
X158240000Y-71065882D01*
X158240000Y-68894802D01*
X158831019Y-68303783D01*
X158830838Y-68511167D01*
X158972883Y-68854943D01*
X159078710Y-68960954D01*
X158973808Y-69065673D01*
X158831162Y-69409201D01*
X158830838Y-69781167D01*
X158972883Y-70124943D01*
X159235673Y-70388192D01*
X159579201Y-70530838D01*
X159951167Y-70531162D01*
X160294943Y-70389117D01*
X160328118Y-70356000D01*
X164084000Y-70356000D01*
X164340000Y-70305078D01*
X164340000Y-75885198D01*
X161737198Y-78488000D01*
X156264463Y-78488000D01*
X156232327Y-78455808D01*
X155888799Y-78313162D01*
X155516833Y-78312838D01*
X155173057Y-78454883D01*
X154909808Y-78717673D01*
X154767162Y-79061201D01*
X154766838Y-79433167D01*
X154908883Y-79776943D01*
X155016752Y-79885000D01*
X151686003Y-79885000D01*
X151749338Y-79790212D01*
X151831929Y-79375000D01*
X151749338Y-78959788D01*
X151602480Y-78740000D01*
X151749338Y-78520212D01*
X151831929Y-78105000D01*
X151749338Y-77689788D01*
X151602480Y-77470000D01*
X151749338Y-77250212D01*
X151831929Y-76835000D01*
X151749338Y-76419788D01*
X151602480Y-76200000D01*
X151749338Y-75980212D01*
X151831929Y-75565000D01*
X151749338Y-75149788D01*
X151602480Y-74930000D01*
X151749338Y-74710212D01*
X151831929Y-74295000D01*
X151749338Y-73879788D01*
X151602480Y-73660000D01*
X151749338Y-73440212D01*
X151831929Y-73025000D01*
X151749338Y-72609788D01*
X151602480Y-72390000D01*
X151749338Y-72170212D01*
X151831929Y-71755000D01*
X151824110Y-71715692D01*
X152910000Y-70629802D01*
X152910000Y-73351537D01*
X152877808Y-73383673D01*
X152735162Y-73727201D01*
X152734838Y-74099167D01*
X152876883Y-74442943D01*
X153139673Y-74706192D01*
X153483201Y-74848838D01*
X153855167Y-74849162D01*
X154198943Y-74707117D01*
X154462192Y-74444327D01*
X154604838Y-74100799D01*
X154605162Y-73728833D01*
X154463117Y-73385057D01*
X154430000Y-73351882D01*
X154430000Y-67624802D01*
X157113592Y-64941210D01*
X157439217Y-65005981D01*
G36*
X150226408Y-62058790D02*
X149860000Y-61985907D01*
X149291715Y-62098946D01*
X148809946Y-62420853D01*
X148582298Y-62761553D01*
X148515183Y-62618642D01*
X148086924Y-62228355D01*
X147676890Y-62058524D01*
X147447000Y-62179845D01*
X147447000Y-63373000D01*
X147467000Y-63373000D01*
X147467000Y-63627000D01*
X147447000Y-63627000D01*
X147447000Y-63647000D01*
X147193000Y-63647000D01*
X147193000Y-63627000D01*
X147173000Y-63627000D01*
X147173000Y-63373000D01*
X147193000Y-63373000D01*
X147193000Y-62179845D01*
X146963110Y-62058524D01*
X146553076Y-62228355D01*
X146389999Y-62376973D01*
X146389999Y-61186803D01*
X147126802Y-60450000D01*
X151835198Y-60450000D01*
X150226408Y-62058790D01*
X150226408Y-62058790D01*
G37*
X150226408Y-62058790D02*
X149860000Y-61985907D01*
X149291715Y-62098946D01*
X148809946Y-62420853D01*
X148582298Y-62761553D01*
X148515183Y-62618642D01*
X148086924Y-62228355D01*
X147676890Y-62058524D01*
X147447000Y-62179845D01*
X147447000Y-63373000D01*
X147467000Y-63373000D01*
X147467000Y-63627000D01*
X147447000Y-63627000D01*
X147447000Y-63647000D01*
X147193000Y-63647000D01*
X147193000Y-63627000D01*
X147173000Y-63627000D01*
X147173000Y-63373000D01*
X147193000Y-63373000D01*
X147193000Y-62179845D01*
X146963110Y-62058524D01*
X146553076Y-62228355D01*
X146389999Y-62376973D01*
X146389999Y-61186803D01*
X147126802Y-60450000D01*
X151835198Y-60450000D01*
X150226408Y-62058790D01*
G36*
X190502000Y-35112802D02*
X190502000Y-48711198D01*
X190244000Y-48453198D01*
X190244000Y-44704000D01*
X190186148Y-44413161D01*
X190186148Y-44413160D01*
X190021401Y-44166599D01*
X189401210Y-43546408D01*
X189474093Y-43180000D01*
X189407444Y-42844934D01*
X189669167Y-42845162D01*
X190012943Y-42703117D01*
X190276192Y-42440327D01*
X190418838Y-42096799D01*
X190419162Y-41724833D01*
X190277117Y-41381057D01*
X190014327Y-41117808D01*
X189670799Y-40975162D01*
X189407471Y-40974933D01*
X189474093Y-40640000D01*
X189407444Y-40304934D01*
X189669167Y-40305162D01*
X190012943Y-40163117D01*
X190276192Y-39900327D01*
X190418838Y-39556799D01*
X190419162Y-39184833D01*
X190277117Y-38841057D01*
X190244000Y-38807882D01*
X190244000Y-38354000D01*
X190186148Y-38063161D01*
X190186148Y-38063160D01*
X190021401Y-37816599D01*
X189767401Y-37562599D01*
X189520839Y-37397852D01*
X189233407Y-37340678D01*
X189039147Y-37049946D01*
X188709974Y-36830000D01*
X189039147Y-36610054D01*
X189361054Y-36128285D01*
X189474093Y-35560000D01*
X189361054Y-34991715D01*
X189039147Y-34509946D01*
X188557378Y-34188039D01*
X187989093Y-34075000D01*
X187930907Y-34075000D01*
X187362622Y-34188039D01*
X186880853Y-34509946D01*
X186690000Y-34795578D01*
X186499147Y-34509946D01*
X186405409Y-34447312D01*
X187072721Y-33780000D01*
X189169198Y-33780000D01*
X190502000Y-35112802D01*
X190502000Y-35112802D01*
G37*
X190502000Y-35112802D02*
X190502000Y-48711198D01*
X190244000Y-48453198D01*
X190244000Y-44704000D01*
X190186148Y-44413161D01*
X190186148Y-44413160D01*
X190021401Y-44166599D01*
X189401210Y-43546408D01*
X189474093Y-43180000D01*
X189407444Y-42844934D01*
X189669167Y-42845162D01*
X190012943Y-42703117D01*
X190276192Y-42440327D01*
X190418838Y-42096799D01*
X190419162Y-41724833D01*
X190277117Y-41381057D01*
X190014327Y-41117808D01*
X189670799Y-40975162D01*
X189407471Y-40974933D01*
X189474093Y-40640000D01*
X189407444Y-40304934D01*
X189669167Y-40305162D01*
X190012943Y-40163117D01*
X190276192Y-39900327D01*
X190418838Y-39556799D01*
X190419162Y-39184833D01*
X190277117Y-38841057D01*
X190244000Y-38807882D01*
X190244000Y-38354000D01*
X190186148Y-38063161D01*
X190186148Y-38063160D01*
X190021401Y-37816599D01*
X189767401Y-37562599D01*
X189520839Y-37397852D01*
X189233407Y-37340678D01*
X189039147Y-37049946D01*
X188709974Y-36830000D01*
X189039147Y-36610054D01*
X189361054Y-36128285D01*
X189474093Y-35560000D01*
X189361054Y-34991715D01*
X189039147Y-34509946D01*
X188557378Y-34188039D01*
X187989093Y-34075000D01*
X187930907Y-34075000D01*
X187362622Y-34188039D01*
X186880853Y-34509946D01*
X186690000Y-34795578D01*
X186499147Y-34509946D01*
X186405409Y-34447312D01*
X187072721Y-33780000D01*
X189169198Y-33780000D01*
X190502000Y-35112802D01*
G36*
X185547000Y-48133000D02*
X187833000Y-48133000D01*
X187833000Y-48113000D01*
X188087000Y-48113000D01*
X188087000Y-48133000D01*
X188107000Y-48133000D01*
X188107000Y-48387000D01*
X188087000Y-48387000D01*
X188087000Y-48407000D01*
X187833000Y-48407000D01*
X187833000Y-48387000D01*
X185547000Y-48387000D01*
X185547000Y-48407000D01*
X185293000Y-48407000D01*
X185293000Y-48387000D01*
X185273000Y-48387000D01*
X185273000Y-48133000D01*
X185293000Y-48133000D01*
X185293000Y-48113000D01*
X185547000Y-48113000D01*
X185547000Y-48133000D01*
X185547000Y-48133000D01*
G37*
X185547000Y-48133000D02*
X187833000Y-48133000D01*
X187833000Y-48113000D01*
X188087000Y-48113000D01*
X188087000Y-48133000D01*
X188107000Y-48133000D01*
X188107000Y-48387000D01*
X188087000Y-48387000D01*
X188087000Y-48407000D01*
X187833000Y-48407000D01*
X187833000Y-48387000D01*
X185547000Y-48387000D01*
X185547000Y-48407000D01*
X185293000Y-48407000D01*
X185293000Y-48387000D01*
X185273000Y-48387000D01*
X185273000Y-48133000D01*
X185293000Y-48133000D01*
X185293000Y-48113000D01*
X185547000Y-48113000D01*
X185547000Y-48133000D01*
M02*
