M48
;DRILL file {KiCad 4.0.6} date Thu Nov  2 19:34:23 2017
;FORMAT={-:-/ absolute / inch / decimal}
FMAT,2
INCH,TZ
T1C0.016
T2C0.039
T3C0.063
T4C0.071
T5C0.079
T6C0.087
T7C0.098
T8C0.126
T9C0.130
%
G90
G05
M72
T1
X4.975Y-2.425
X5.1091Y-1.0484
X5.125Y-2.275
X5.2Y-2.41
X5.2Y-2.925
X5.2Y-3.075
X5.2Y-3.2
X5.25Y-3.85
X5.3Y-2.275
X5.325Y-2.8
X5.325Y-2.925
X5.325Y-3.075
X5.325Y-3.2
X5.4Y-1.05
X5.5Y-2.275
X5.5Y-2.8
X5.5Y-3.2
X5.55Y-3.85
X5.7Y-1.05
X5.7Y-2.275
X5.725Y-3.075
X5.725Y-3.2
X5.8Y-2.41
X5.8Y-2.82
X5.8Y-2.87
X5.8Y-2.91
X5.85Y-3.85
X5.9Y-2.275
X5.94Y-3.32
X5.97Y-3.36
X5.99Y-2.65
X5.99Y-2.69
X6.Y-2.74
X6.03Y-3.42
X6.05Y-1.05
X6.05Y-2.91
X6.05Y-3.075
X6.07Y-3.26
X6.1Y-2.275
X6.1Y-3.32
X6.13Y-3.12
X6.15Y-2.87
X6.15Y-3.85
X6.16Y-3.26
X6.16Y-3.42
X6.2Y-2.82
X6.2Y-2.95
X6.22Y-3.35
X6.29Y-2.69
X6.29Y-2.74
X6.3Y-2.275
X6.325Y-2.825
X6.325Y-3.05
X6.33Y-2.65
X6.4Y-1.05
X6.45Y-3.85
X6.475Y-3.125
X6.49Y-3.26
X6.525Y-2.275
X6.55Y-3.2
X6.64Y-2.62
X6.65Y-2.27
X6.71Y-2.6
X6.725Y-3.85
X6.75Y-1.05
X6.76Y-2.26
X6.775Y-2.9
X6.775Y-3.125
X7.025Y-3.85
X7.0424Y-2.3624
X7.05Y-3.125
X7.05Y-3.3
X7.07Y-1.65
X7.07Y-1.75
X7.07Y-1.85
X7.07Y-2.42
X7.08Y-2.63
X7.11Y-2.46
X7.11Y-2.57
X7.125Y-1.05
X7.13Y-1.58
X7.16Y-2.67
X7.16Y-2.75
X7.18Y-2.3
X7.2Y-1.65
X7.2Y-1.75
X7.2Y-1.84
X7.225Y-2.2
X7.2346Y-2.63
X7.2575Y-2.3
X7.3Y-1.225
X7.3Y-3.125
X7.3Y-3.4
X7.33Y-2.42
X7.361Y-2.2299
X7.37Y-2.9
X7.39Y-2.57
X7.46Y-1.55
X7.46Y-1.65
X7.47Y-2.15
X7.5Y-1.6
X7.5Y-1.9
X7.5Y-2.1
X7.5Y-2.4
X7.5Y-2.7
X7.53Y-1.95
T2
X5.2Y-2.5
X5.2Y-3.5
X5.3Y-2.5
X5.3Y-3.5
X5.4Y-2.5
X5.4Y-3.5
X5.5Y-2.5
X5.5Y-3.5
X5.6Y-2.5
X5.6Y-3.5
X5.7Y-2.5
X5.7Y-3.5
X5.8Y-2.5
X5.8Y-3.5
X5.9Y-2.5
X5.9Y-3.5
X6.Y-2.5
X6.Y-3.5
X6.1Y-2.5
X6.1Y-3.5
X6.2Y-2.5
X6.2Y-3.5
X6.3Y-2.5
X6.3Y-3.5
X6.4Y-2.5
X6.4Y-3.5
X6.5Y-2.5
X6.5Y-3.5
X6.6Y-2.5
X6.6Y-3.5
X6.7Y-2.5
X6.7Y-3.5
X6.8Y-2.5
X6.8Y-3.5
X6.9Y-2.5
X6.9Y-3.5
X7.Y-2.5
X7.Y-3.5
X7.3Y-1.4
X7.3Y-1.5
X7.3Y-1.6
X7.3Y-1.7
X7.3Y-1.8
X7.3Y-1.9
X7.3Y-2.
X7.4Y-1.4
X7.4Y-1.5
X7.4Y-1.6
X7.4Y-1.7
X7.4Y-1.8
X7.4Y-1.9
X7.4Y-2.
T3
X5.3681Y-1.55
X5.3681Y-1.65
X5.3681Y-1.75
X5.3681Y-1.85
X5.4681Y-1.5752
X5.4681Y-1.6748
X5.4681Y-1.7748
X5.4681Y-1.8752
T4
X4.9268Y-1.4307
X4.9268Y-1.5394
X4.9268Y-1.8622
X4.9268Y-1.9693
X6.6323Y-1.4
X6.6323Y-1.5
X6.6323Y-1.6
X6.6323Y-1.7
X6.6323Y-1.8
X6.6323Y-1.9
X6.6323Y-2.
X6.7323Y-1.4
X6.7323Y-1.5
X6.7323Y-1.6
X6.7323Y-1.7
X6.7323Y-1.8
X6.7323Y-1.9
X6.7323Y-2.
T5
X5.5Y-3.01
T6
X4.8441Y-1.2768
X4.8441Y-2.1232
T7
X5.2382Y-1.3949
X5.2382Y-2.0051
T8
X4.8138Y-1.05
X4.8138Y-3.85
X7.6075Y-1.05
X7.6075Y-3.85
T9
X5.1181Y-1.4748
X5.1181Y-1.9252
T0
M30
