G04 #@! TF.FileFunction,Legend,Top*
%FSLAX46Y46*%
G04 Gerber Fmt 4.6, Leading zero omitted, Abs format (unit mm)*
G04 Created by KiCad (PCBNEW 4.0.6) date Thu Nov  2 19:42:21 2017*
%MOMM*%
%LPD*%
G01*
G04 APERTURE LIST*
%ADD10C,0.100000*%
%ADD11C,0.500000*%
%ADD12C,0.150000*%
%ADD13C,0.120000*%
G04 APERTURE END LIST*
D10*
D11*
X130839981Y-86106000D02*
G75*
G03X130839981Y-86106000I-283981J0D01*
G01*
D12*
X130410000Y-67200000D02*
X130410000Y-85200000D01*
X124410000Y-85200000D02*
X149910000Y-85200000D01*
X124410000Y-67200000D02*
X149910000Y-67200000D01*
X149910000Y-67200000D02*
X149910000Y-85200000D01*
X124410000Y-67200000D02*
X124410000Y-85200000D01*
D13*
X130794000Y-90722000D02*
X128794000Y-90722000D01*
X128794000Y-93682000D02*
X130794000Y-93682000D01*
X182022000Y-59344000D02*
X182722000Y-59344000D01*
X182722000Y-60544000D02*
X182022000Y-60544000D01*
X129190000Y-86268000D02*
X129890000Y-86268000D01*
X129890000Y-87468000D02*
X129190000Y-87468000D01*
X133350000Y-90290000D02*
X179190000Y-90290000D01*
X179190000Y-90290000D02*
X179190000Y-87510000D01*
X179190000Y-87510000D02*
X133350000Y-87510000D01*
X133350000Y-87510000D02*
X133350000Y-90290000D01*
X132080000Y-90290000D02*
X130690000Y-90290000D01*
X130690000Y-90290000D02*
X130690000Y-88900000D01*
X133350000Y-64890000D02*
X179190000Y-64890000D01*
X179190000Y-64890000D02*
X179190000Y-62110000D01*
X179190000Y-62110000D02*
X133350000Y-62110000D01*
X133350000Y-62110000D02*
X133350000Y-64890000D01*
X132080000Y-64890000D02*
X130690000Y-64890000D01*
X130690000Y-64890000D02*
X130690000Y-63500000D01*
X185756000Y-64762000D02*
X185756000Y-63762000D01*
X187116000Y-63762000D02*
X187116000Y-64762000D01*
X184744000Y-64654000D02*
X184744000Y-62854000D01*
X181524000Y-62854000D02*
X181524000Y-65804000D01*
D12*
X118540000Y-29980000D02*
X118540000Y-56980000D01*
X118540000Y-56980000D02*
X173540000Y-56980000D01*
X173540000Y-56980000D02*
X173440000Y-29980000D01*
X173440000Y-29980000D02*
X118540000Y-29980000D01*
X181410000Y-34170000D02*
X175380000Y-34170000D01*
X175380000Y-34170000D02*
X175380000Y-52210000D01*
X175380000Y-52210000D02*
X181500000Y-52210000D01*
D13*
X184140000Y-52190000D02*
X184140000Y-49530000D01*
X181400000Y-52190000D02*
X184140000Y-52190000D01*
X184450000Y-51240000D02*
X184140000Y-51240000D01*
X184450000Y-50360000D02*
X184140000Y-50360000D01*
X186990000Y-51240000D02*
X186390000Y-51240000D01*
X186990000Y-50360000D02*
X186390000Y-50360000D01*
X184140000Y-49530000D02*
X184140000Y-46990000D01*
X184450000Y-48700000D02*
X184140000Y-48700000D01*
X184450000Y-47820000D02*
X184140000Y-47820000D01*
X186990000Y-48700000D02*
X186390000Y-48700000D01*
X186990000Y-47820000D02*
X186390000Y-47820000D01*
X184140000Y-46990000D02*
X184140000Y-44450000D01*
X184450000Y-46160000D02*
X184140000Y-46160000D01*
X184450000Y-45280000D02*
X184140000Y-45280000D01*
X186990000Y-46160000D02*
X186390000Y-46160000D01*
X186990000Y-45280000D02*
X186390000Y-45280000D01*
X184140000Y-44450000D02*
X184140000Y-41910000D01*
X184450000Y-43620000D02*
X184140000Y-43620000D01*
X184450000Y-42740000D02*
X184140000Y-42740000D01*
X186990000Y-43620000D02*
X186390000Y-43620000D01*
X186990000Y-42740000D02*
X186390000Y-42740000D01*
X184140000Y-41910000D02*
X184140000Y-39370000D01*
X184450000Y-41080000D02*
X184140000Y-41080000D01*
X184450000Y-40200000D02*
X184140000Y-40200000D01*
X186990000Y-41080000D02*
X186390000Y-41080000D01*
X186990000Y-40200000D02*
X186390000Y-40200000D01*
X184140000Y-39370000D02*
X184140000Y-36830000D01*
X184450000Y-38540000D02*
X184140000Y-38540000D01*
X184450000Y-37660000D02*
X184140000Y-37660000D01*
X186990000Y-38540000D02*
X186390000Y-38540000D01*
X186990000Y-37660000D02*
X186390000Y-37660000D01*
X184140000Y-36830000D02*
X184140000Y-34170000D01*
X184140000Y-34170000D02*
X181400000Y-34170000D01*
X184450000Y-36000000D02*
X184140000Y-36000000D01*
X184450000Y-35120000D02*
X184140000Y-35120000D01*
X186990000Y-36000000D02*
X186390000Y-36000000D01*
X186990000Y-35120000D02*
X186390000Y-35120000D01*
X189230000Y-50800000D02*
X189230000Y-52070000D01*
X189230000Y-52070000D02*
X187960000Y-52070000D01*
X187640000Y-59130000D02*
X186640000Y-59130000D01*
X186640000Y-57770000D02*
X187640000Y-57770000D01*
D12*
X127595381Y-65404905D02*
X128404905Y-65404905D01*
X128500143Y-65357286D01*
X128547762Y-65309667D01*
X128595381Y-65214429D01*
X128595381Y-65023952D01*
X128547762Y-64928714D01*
X128500143Y-64881095D01*
X128404905Y-64833476D01*
X127595381Y-64833476D01*
X128595381Y-63833476D02*
X128595381Y-64404905D01*
X128595381Y-64119191D02*
X127595381Y-64119191D01*
X127738238Y-64214429D01*
X127833476Y-64309667D01*
X127881095Y-64404905D01*
X129627334Y-90309143D02*
X129579715Y-90356762D01*
X129436858Y-90404381D01*
X129341620Y-90404381D01*
X129198762Y-90356762D01*
X129103524Y-90261524D01*
X129055905Y-90166286D01*
X129008286Y-89975810D01*
X129008286Y-89832952D01*
X129055905Y-89642476D01*
X129103524Y-89547238D01*
X129198762Y-89452000D01*
X129341620Y-89404381D01*
X129436858Y-89404381D01*
X129579715Y-89452000D01*
X129627334Y-89499619D01*
X130008286Y-89499619D02*
X130055905Y-89452000D01*
X130151143Y-89404381D01*
X130389239Y-89404381D01*
X130484477Y-89452000D01*
X130532096Y-89499619D01*
X130579715Y-89594857D01*
X130579715Y-89690095D01*
X130532096Y-89832952D01*
X129960667Y-90404381D01*
X130579715Y-90404381D01*
X182205334Y-59051143D02*
X182157715Y-59098762D01*
X182014858Y-59146381D01*
X181919620Y-59146381D01*
X181776762Y-59098762D01*
X181681524Y-59003524D01*
X181633905Y-58908286D01*
X181586286Y-58717810D01*
X181586286Y-58574952D01*
X181633905Y-58384476D01*
X181681524Y-58289238D01*
X181776762Y-58194000D01*
X181919620Y-58146381D01*
X182014858Y-58146381D01*
X182157715Y-58194000D01*
X182205334Y-58241619D01*
X183157715Y-59146381D02*
X182586286Y-59146381D01*
X182872000Y-59146381D02*
X182872000Y-58146381D01*
X182776762Y-58289238D01*
X182681524Y-58384476D01*
X182586286Y-58432095D01*
X129373334Y-85975143D02*
X129325715Y-86022762D01*
X129182858Y-86070381D01*
X129087620Y-86070381D01*
X128944762Y-86022762D01*
X128849524Y-85927524D01*
X128801905Y-85832286D01*
X128754286Y-85641810D01*
X128754286Y-85498952D01*
X128801905Y-85308476D01*
X128849524Y-85213238D01*
X128944762Y-85118000D01*
X129087620Y-85070381D01*
X129182858Y-85070381D01*
X129325715Y-85118000D01*
X129373334Y-85165619D01*
X129706667Y-85070381D02*
X130325715Y-85070381D01*
X129992381Y-85451333D01*
X130135239Y-85451333D01*
X130230477Y-85498952D01*
X130278096Y-85546571D01*
X130325715Y-85641810D01*
X130325715Y-85879905D01*
X130278096Y-85975143D01*
X130230477Y-86022762D01*
X130135239Y-86070381D01*
X129849524Y-86070381D01*
X129754286Y-86022762D01*
X129706667Y-85975143D01*
X129142381Y-89233333D02*
X129856667Y-89233333D01*
X129999524Y-89280953D01*
X130094762Y-89376191D01*
X130142381Y-89519048D01*
X130142381Y-89614286D01*
X130142381Y-88233333D02*
X130142381Y-88804762D01*
X130142381Y-88519048D02*
X129142381Y-88519048D01*
X129285238Y-88614286D01*
X129380476Y-88709524D01*
X129428095Y-88804762D01*
X129142381Y-63833333D02*
X129856667Y-63833333D01*
X129999524Y-63880953D01*
X130094762Y-63976191D01*
X130142381Y-64119048D01*
X130142381Y-64214286D01*
X129142381Y-63452381D02*
X129142381Y-62833333D01*
X129523333Y-63166667D01*
X129523333Y-63023809D01*
X129570952Y-62928571D01*
X129618571Y-62880952D01*
X129713810Y-62833333D01*
X129951905Y-62833333D01*
X130047143Y-62880952D01*
X130094762Y-62928571D01*
X130142381Y-63023809D01*
X130142381Y-63309524D01*
X130094762Y-63404762D01*
X130047143Y-63452381D01*
X188338381Y-64428666D02*
X187862190Y-64762000D01*
X188338381Y-65000095D02*
X187338381Y-65000095D01*
X187338381Y-64619142D01*
X187386000Y-64523904D01*
X187433619Y-64476285D01*
X187528857Y-64428666D01*
X187671714Y-64428666D01*
X187766952Y-64476285D01*
X187814571Y-64523904D01*
X187862190Y-64619142D01*
X187862190Y-65000095D01*
X188338381Y-63476285D02*
X188338381Y-64047714D01*
X188338381Y-63762000D02*
X187338381Y-63762000D01*
X187481238Y-63857238D01*
X187576476Y-63952476D01*
X187624095Y-64047714D01*
X179686381Y-64515905D02*
X180495905Y-64515905D01*
X180591143Y-64468286D01*
X180638762Y-64420667D01*
X180686381Y-64325429D01*
X180686381Y-64134952D01*
X180638762Y-64039714D01*
X180591143Y-63992095D01*
X180495905Y-63944476D01*
X179686381Y-63944476D01*
X179781619Y-63515905D02*
X179734000Y-63468286D01*
X179686381Y-63373048D01*
X179686381Y-63134952D01*
X179734000Y-63039714D01*
X179781619Y-62992095D01*
X179876857Y-62944476D01*
X179972095Y-62944476D01*
X180114952Y-62992095D01*
X180686381Y-63563524D01*
X180686381Y-62944476D01*
X120936667Y-22922381D02*
X120603333Y-22446190D01*
X120365238Y-22922381D02*
X120365238Y-21922381D01*
X120746191Y-21922381D01*
X120841429Y-21970000D01*
X120889048Y-22017619D01*
X120936667Y-22112857D01*
X120936667Y-22255714D01*
X120889048Y-22350952D01*
X120841429Y-22398571D01*
X120746191Y-22446190D01*
X120365238Y-22446190D01*
X121365238Y-22398571D02*
X121698572Y-22398571D01*
X121841429Y-22922381D02*
X121365238Y-22922381D01*
X121365238Y-21922381D01*
X121841429Y-21922381D01*
X122603334Y-22398571D02*
X122270000Y-22398571D01*
X122270000Y-22922381D02*
X122270000Y-21922381D01*
X122746191Y-21922381D01*
X123270000Y-21922381D02*
X123270000Y-22160476D01*
X123031905Y-22065238D02*
X123270000Y-22160476D01*
X123508096Y-22065238D01*
X123127143Y-22350952D02*
X123270000Y-22160476D01*
X123412858Y-22350952D01*
X124031905Y-21922381D02*
X124031905Y-22160476D01*
X123793810Y-22065238D02*
X124031905Y-22160476D01*
X124270001Y-22065238D01*
X123889048Y-22350952D02*
X124031905Y-22160476D01*
X124174763Y-22350952D01*
X120936667Y-94042381D02*
X120603333Y-93566190D01*
X120365238Y-94042381D02*
X120365238Y-93042381D01*
X120746191Y-93042381D01*
X120841429Y-93090000D01*
X120889048Y-93137619D01*
X120936667Y-93232857D01*
X120936667Y-93375714D01*
X120889048Y-93470952D01*
X120841429Y-93518571D01*
X120746191Y-93566190D01*
X120365238Y-93566190D01*
X121365238Y-93518571D02*
X121698572Y-93518571D01*
X121841429Y-94042381D02*
X121365238Y-94042381D01*
X121365238Y-93042381D01*
X121841429Y-93042381D01*
X122603334Y-93518571D02*
X122270000Y-93518571D01*
X122270000Y-94042381D02*
X122270000Y-93042381D01*
X122746191Y-93042381D01*
X123270000Y-93042381D02*
X123270000Y-93280476D01*
X123031905Y-93185238D02*
X123270000Y-93280476D01*
X123508096Y-93185238D01*
X123127143Y-93470952D02*
X123270000Y-93280476D01*
X123412858Y-93470952D01*
X124031905Y-93042381D02*
X124031905Y-93280476D01*
X123793810Y-93185238D02*
X124031905Y-93280476D01*
X124270001Y-93185238D01*
X123889048Y-93470952D02*
X124031905Y-93280476D01*
X124174763Y-93470952D01*
X191896667Y-94042381D02*
X191563333Y-93566190D01*
X191325238Y-94042381D02*
X191325238Y-93042381D01*
X191706191Y-93042381D01*
X191801429Y-93090000D01*
X191849048Y-93137619D01*
X191896667Y-93232857D01*
X191896667Y-93375714D01*
X191849048Y-93470952D01*
X191801429Y-93518571D01*
X191706191Y-93566190D01*
X191325238Y-93566190D01*
X192325238Y-93518571D02*
X192658572Y-93518571D01*
X192801429Y-94042381D02*
X192325238Y-94042381D01*
X192325238Y-93042381D01*
X192801429Y-93042381D01*
X193563334Y-93518571D02*
X193230000Y-93518571D01*
X193230000Y-94042381D02*
X193230000Y-93042381D01*
X193706191Y-93042381D01*
X194230000Y-93042381D02*
X194230000Y-93280476D01*
X193991905Y-93185238D02*
X194230000Y-93280476D01*
X194468096Y-93185238D01*
X194087143Y-93470952D02*
X194230000Y-93280476D01*
X194372858Y-93470952D01*
X194991905Y-93042381D02*
X194991905Y-93280476D01*
X194753810Y-93185238D02*
X194991905Y-93280476D01*
X195230001Y-93185238D01*
X194849048Y-93470952D02*
X194991905Y-93280476D01*
X195134763Y-93470952D01*
X191896667Y-22922381D02*
X191563333Y-22446190D01*
X191325238Y-22922381D02*
X191325238Y-21922381D01*
X191706191Y-21922381D01*
X191801429Y-21970000D01*
X191849048Y-22017619D01*
X191896667Y-22112857D01*
X191896667Y-22255714D01*
X191849048Y-22350952D01*
X191801429Y-22398571D01*
X191706191Y-22446190D01*
X191325238Y-22446190D01*
X192325238Y-22398571D02*
X192658572Y-22398571D01*
X192801429Y-22922381D02*
X192325238Y-22922381D01*
X192325238Y-21922381D01*
X192801429Y-21922381D01*
X193563334Y-22398571D02*
X193230000Y-22398571D01*
X193230000Y-22922381D02*
X193230000Y-21922381D01*
X193706191Y-21922381D01*
X194230000Y-21922381D02*
X194230000Y-22160476D01*
X193991905Y-22065238D02*
X194230000Y-22160476D01*
X194468096Y-22065238D01*
X194087143Y-22350952D02*
X194230000Y-22160476D01*
X194372858Y-22350952D01*
X194991905Y-21922381D02*
X194991905Y-22160476D01*
X194753810Y-22065238D02*
X194991905Y-22160476D01*
X195230001Y-22065238D01*
X194849048Y-22350952D02*
X194991905Y-22160476D01*
X195134763Y-22350952D01*
X120426667Y-31832381D02*
X120093333Y-31356190D01*
X119855238Y-31832381D02*
X119855238Y-30832381D01*
X120236191Y-30832381D01*
X120331429Y-30880000D01*
X120379048Y-30927619D01*
X120426667Y-31022857D01*
X120426667Y-31165714D01*
X120379048Y-31260952D01*
X120331429Y-31308571D01*
X120236191Y-31356190D01*
X119855238Y-31356190D01*
X120855238Y-31308571D02*
X121188572Y-31308571D01*
X121331429Y-31832381D02*
X120855238Y-31832381D01*
X120855238Y-30832381D01*
X121331429Y-30832381D01*
X122093334Y-31308571D02*
X121760000Y-31308571D01*
X121760000Y-31832381D02*
X121760000Y-30832381D01*
X122236191Y-30832381D01*
X122760000Y-30832381D02*
X122760000Y-31070476D01*
X122521905Y-30975238D02*
X122760000Y-31070476D01*
X122998096Y-30975238D01*
X122617143Y-31260952D02*
X122760000Y-31070476D01*
X122902858Y-31260952D01*
X123521905Y-30832381D02*
X123521905Y-31070476D01*
X123283810Y-30975238D02*
X123521905Y-31070476D01*
X123760001Y-30975238D01*
X123379048Y-31260952D02*
X123521905Y-31070476D01*
X123664763Y-31260952D01*
X182041667Y-52522381D02*
X182041667Y-53236667D01*
X181994047Y-53379524D01*
X181898809Y-53474762D01*
X181755952Y-53522381D01*
X181660714Y-53522381D01*
X182470238Y-52617619D02*
X182517857Y-52570000D01*
X182613095Y-52522381D01*
X182851191Y-52522381D01*
X182946429Y-52570000D01*
X182994048Y-52617619D01*
X183041667Y-52712857D01*
X183041667Y-52808095D01*
X182994048Y-52950952D01*
X182422619Y-53522381D01*
X183041667Y-53522381D01*
X186973334Y-57452381D02*
X186640000Y-56976190D01*
X186401905Y-57452381D02*
X186401905Y-56452381D01*
X186782858Y-56452381D01*
X186878096Y-56500000D01*
X186925715Y-56547619D01*
X186973334Y-56642857D01*
X186973334Y-56785714D01*
X186925715Y-56880952D01*
X186878096Y-56928571D01*
X186782858Y-56976190D01*
X186401905Y-56976190D01*
X187354286Y-56547619D02*
X187401905Y-56500000D01*
X187497143Y-56452381D01*
X187735239Y-56452381D01*
X187830477Y-56500000D01*
X187878096Y-56547619D01*
X187925715Y-56642857D01*
X187925715Y-56738095D01*
X187878096Y-56880952D01*
X187306667Y-57452381D01*
X187925715Y-57452381D01*
M02*
