G04 #@! TF.FileFunction,Soldermask,Top*
%FSLAX46Y46*%
G04 Gerber Fmt 4.6, Leading zero omitted, Abs format (unit mm)*
G04 Created by KiCad (PCBNEW 4.0.6) date Thu Nov  2 19:42:21 2017*
%MOMM*%
%LPD*%
G01*
G04 APERTURE LIST*
%ADD10C,0.100000*%
%ADD11O,1.300000X2.900000*%
%ADD12O,2.900000X1.300000*%
%ADD13R,6.400000X6.400000*%
%ADD14C,3.900000*%
%ADD15R,2.400000X2.900000*%
%ADD16R,1.600000X1.150000*%
%ADD17R,2.100000X2.100000*%
%ADD18O,2.100000X2.100000*%
%ADD19R,1.300000X1.600000*%
%ADD20R,1.050000X1.960000*%
%ADD21C,3.600000*%
%ADD22C,2.200000*%
%ADD23C,3.700000*%
%ADD24C,2.000000*%
%ADD25C,2.900000*%
%ADD26C,2.600000*%
%ADD27R,1.600000X1.300000*%
G04 APERTURE END LIST*
D10*
D11*
X131910000Y-67200000D03*
X133180000Y-67200000D03*
X134450000Y-67200000D03*
X135720000Y-67200000D03*
X136990000Y-67200000D03*
X138260000Y-67200000D03*
X139530000Y-67200000D03*
X140800000Y-67200000D03*
X142070000Y-67200000D03*
X143340000Y-67200000D03*
X144610000Y-67200000D03*
X145880000Y-67200000D03*
X147150000Y-67200000D03*
X148420000Y-67200000D03*
D12*
X149910000Y-70485000D03*
X149910000Y-71755000D03*
X149910000Y-73025000D03*
X149910000Y-74295000D03*
X149910000Y-75565000D03*
X149910000Y-76835000D03*
X149910000Y-78105000D03*
X149910000Y-79375000D03*
X149910000Y-80645000D03*
X149910000Y-81915000D03*
D11*
X148420000Y-85200000D03*
X147150000Y-85200000D03*
X145880000Y-85200000D03*
X144610000Y-85200000D03*
X143340000Y-85200000D03*
X142070000Y-85200000D03*
X140800000Y-85200000D03*
X139530000Y-85200000D03*
X138260000Y-85200000D03*
X136990000Y-85200000D03*
X135720000Y-85200000D03*
X134450000Y-85200000D03*
X133180000Y-85200000D03*
X131910000Y-85200000D03*
D13*
X139610000Y-76500000D03*
D14*
X139700000Y-76454000D03*
D15*
X127794000Y-92202000D03*
X131794000Y-92202000D03*
D16*
X181422000Y-59944000D03*
X183322000Y-59944000D03*
X128590000Y-86868000D03*
X130490000Y-86868000D03*
D17*
X132080000Y-88900000D03*
D18*
X134620000Y-88900000D03*
X137160000Y-88900000D03*
X139700000Y-88900000D03*
X142240000Y-88900000D03*
X144780000Y-88900000D03*
X147320000Y-88900000D03*
X149860000Y-88900000D03*
X152400000Y-88900000D03*
X154940000Y-88900000D03*
X157480000Y-88900000D03*
X160020000Y-88900000D03*
X162560000Y-88900000D03*
X165100000Y-88900000D03*
X167640000Y-88900000D03*
X170180000Y-88900000D03*
X172720000Y-88900000D03*
X175260000Y-88900000D03*
X177800000Y-88900000D03*
D17*
X132080000Y-63500000D03*
D18*
X134620000Y-63500000D03*
X137160000Y-63500000D03*
X139700000Y-63500000D03*
X142240000Y-63500000D03*
X144780000Y-63500000D03*
X147320000Y-63500000D03*
X149860000Y-63500000D03*
X152400000Y-63500000D03*
X154940000Y-63500000D03*
X157480000Y-63500000D03*
X160020000Y-63500000D03*
X162560000Y-63500000D03*
X165100000Y-63500000D03*
X167640000Y-63500000D03*
X170180000Y-63500000D03*
X172720000Y-63500000D03*
X175260000Y-63500000D03*
X177800000Y-63500000D03*
D19*
X186436000Y-63162000D03*
X186436000Y-65362000D03*
D20*
X182184000Y-65104000D03*
X183134000Y-65104000D03*
X184084000Y-65104000D03*
X184084000Y-62404000D03*
X182184000Y-62404000D03*
X183134000Y-62404000D03*
D21*
X122270000Y-26670000D03*
X122270000Y-97790000D03*
X193230000Y-97790000D03*
X193230000Y-26670000D03*
D22*
X171000000Y-50800000D03*
X171000000Y-48260000D03*
X171000000Y-45720000D03*
X171000000Y-43180000D03*
X171000000Y-40640000D03*
X171000000Y-38100000D03*
X171000000Y-35560000D03*
X168460000Y-38100000D03*
X168460000Y-35560000D03*
X168460000Y-40640000D03*
X168460000Y-43180000D03*
X168460000Y-45720000D03*
X168460000Y-48260000D03*
D23*
X130000000Y-37460000D03*
X130000000Y-48900000D03*
D24*
X136350000Y-46990000D03*
X138890000Y-47630000D03*
X136350000Y-44450000D03*
X138890000Y-45080000D03*
X136350000Y-41910000D03*
X138890000Y-42540000D03*
X136350000Y-39370000D03*
D25*
X133050000Y-35430000D03*
X133050000Y-50930000D03*
D24*
X138890000Y-40010000D03*
D22*
X125140000Y-36340000D03*
X125140000Y-39100000D03*
X125140000Y-47300000D03*
X125140000Y-50020000D03*
X168460000Y-50800000D03*
D26*
X123040000Y-32430000D03*
X123040000Y-53930000D03*
D17*
X187960000Y-50800000D03*
D18*
X185420000Y-50800000D03*
X187960000Y-48260000D03*
X185420000Y-48260000D03*
X187960000Y-45720000D03*
X185420000Y-45720000D03*
X187960000Y-43180000D03*
X185420000Y-43180000D03*
X187960000Y-40640000D03*
X185420000Y-40640000D03*
X187960000Y-38100000D03*
X185420000Y-38100000D03*
X187960000Y-35560000D03*
X185420000Y-35560000D03*
D27*
X186040000Y-58450000D03*
X188240000Y-58450000D03*
M02*
