G04 #@! TF.FileFunction,Soldermask,Bot*
%FSLAX46Y46*%
G04 Gerber Fmt 4.6, Leading zero omitted, Abs format (unit mm)*
G04 Created by KiCad (PCBNEW 4.0.6) date Thu Nov  2 19:42:21 2017*
%MOMM*%
%LPD*%
G01*
G04 APERTURE LIST*
%ADD10C,0.100000*%
%ADD11C,3.900000*%
%ADD12R,2.100000X2.100000*%
%ADD13O,2.100000X2.100000*%
%ADD14C,3.600000*%
%ADD15C,2.200000*%
%ADD16C,3.700000*%
%ADD17C,2.000000*%
%ADD18C,2.900000*%
%ADD19C,2.600000*%
G04 APERTURE END LIST*
D10*
D11*
X139700000Y-76454000D03*
D12*
X132080000Y-88900000D03*
D13*
X134620000Y-88900000D03*
X137160000Y-88900000D03*
X139700000Y-88900000D03*
X142240000Y-88900000D03*
X144780000Y-88900000D03*
X147320000Y-88900000D03*
X149860000Y-88900000D03*
X152400000Y-88900000D03*
X154940000Y-88900000D03*
X157480000Y-88900000D03*
X160020000Y-88900000D03*
X162560000Y-88900000D03*
X165100000Y-88900000D03*
X167640000Y-88900000D03*
X170180000Y-88900000D03*
X172720000Y-88900000D03*
X175260000Y-88900000D03*
X177800000Y-88900000D03*
D12*
X132080000Y-63500000D03*
D13*
X134620000Y-63500000D03*
X137160000Y-63500000D03*
X139700000Y-63500000D03*
X142240000Y-63500000D03*
X144780000Y-63500000D03*
X147320000Y-63500000D03*
X149860000Y-63500000D03*
X152400000Y-63500000D03*
X154940000Y-63500000D03*
X157480000Y-63500000D03*
X160020000Y-63500000D03*
X162560000Y-63500000D03*
X165100000Y-63500000D03*
X167640000Y-63500000D03*
X170180000Y-63500000D03*
X172720000Y-63500000D03*
X175260000Y-63500000D03*
X177800000Y-63500000D03*
D14*
X122270000Y-26670000D03*
X122270000Y-97790000D03*
X193230000Y-97790000D03*
X193230000Y-26670000D03*
D15*
X171000000Y-50800000D03*
X171000000Y-48260000D03*
X171000000Y-45720000D03*
X171000000Y-43180000D03*
X171000000Y-40640000D03*
X171000000Y-38100000D03*
X171000000Y-35560000D03*
X168460000Y-38100000D03*
X168460000Y-35560000D03*
X168460000Y-40640000D03*
X168460000Y-43180000D03*
X168460000Y-45720000D03*
X168460000Y-48260000D03*
D16*
X130000000Y-37460000D03*
X130000000Y-48900000D03*
D17*
X136350000Y-46990000D03*
X138890000Y-47630000D03*
X136350000Y-44450000D03*
X138890000Y-45080000D03*
X136350000Y-41910000D03*
X138890000Y-42540000D03*
X136350000Y-39370000D03*
D18*
X133050000Y-35430000D03*
X133050000Y-50930000D03*
D17*
X138890000Y-40010000D03*
D15*
X125140000Y-36340000D03*
X125140000Y-39100000D03*
X125140000Y-47300000D03*
X125140000Y-50020000D03*
X168460000Y-50800000D03*
D19*
X123040000Y-32430000D03*
X123040000Y-53930000D03*
D12*
X187960000Y-50800000D03*
D13*
X185420000Y-50800000D03*
X187960000Y-48260000D03*
X185420000Y-48260000D03*
X187960000Y-45720000D03*
X185420000Y-45720000D03*
X187960000Y-43180000D03*
X185420000Y-43180000D03*
X187960000Y-40640000D03*
X185420000Y-40640000D03*
X187960000Y-38100000D03*
X185420000Y-38100000D03*
X187960000Y-35560000D03*
X185420000Y-35560000D03*
M02*
