G04 #@! TF.FileFunction,Profile,NP*
%FSLAX46Y46*%
G04 Gerber Fmt 4.6, Leading zero omitted, Abs format (unit mm)*
G04 Created by KiCad (PCBNEW 4.0.6) date Thu Nov  2 19:42:21 2017*
%MOMM*%
%LPD*%
G01*
G04 APERTURE LIST*
%ADD10C,0.100000*%
%ADD11C,0.150000*%
G04 APERTURE END LIST*
D10*
D11*
X159020000Y-33570000D02*
X152930000Y-33570000D01*
X159030000Y-35260000D02*
X159030000Y-33610000D01*
X163830000Y-35260000D02*
X159030000Y-35260000D01*
X163830000Y-51050000D02*
X163830000Y-35260000D01*
X157920000Y-51050000D02*
X163830000Y-51050000D01*
X157920000Y-54750000D02*
X157920000Y-51050000D01*
X148320000Y-54750000D02*
X157920000Y-54750000D01*
X148320000Y-46600000D02*
X148320000Y-54750000D01*
X159030000Y-46600000D02*
X148320000Y-46600000D01*
X159030000Y-37760000D02*
X159030000Y-46600000D01*
X152930000Y-37760000D02*
X159030000Y-37760000D01*
X152930000Y-33570000D02*
X152930000Y-37760000D01*
X125750000Y-41090000D02*
X125750000Y-41100000D01*
X130560000Y-41090000D02*
X125750000Y-41090000D01*
X130560000Y-45280000D02*
X130560000Y-41090000D01*
X125760000Y-45280000D02*
X130560000Y-45280000D01*
X125760000Y-41090000D02*
X125760000Y-45280000D01*
X118450000Y-22860000D02*
X118450000Y-22850000D01*
X197040000Y-22860000D02*
X118450000Y-22860000D01*
X197040000Y-101600000D02*
X197040000Y-22860000D01*
X118450000Y-101600000D02*
X197040000Y-101600000D01*
X118450000Y-22860000D02*
X118450000Y-101600000D01*
M02*
