G04 #@! TF.FileFunction,Copper,L1,Top,Signal*
%FSLAX46Y46*%
G04 Gerber Fmt 4.6, Leading zero omitted, Abs format (unit mm)*
G04 Created by KiCad (PCBNEW 4.0.6) date Sat Oct 21 15:15:02 2017*
%MOMM*%
%LPD*%
G01*
G04 APERTURE LIST*
%ADD10C,0.100000*%
%ADD11R,1.800000X2.000000*%
%ADD12C,3.200000*%
%ADD13R,0.500000X0.900000*%
%ADD14R,1.000000X2.500000*%
%ADD15R,0.800000X0.750000*%
%ADD16R,0.750000X0.800000*%
%ADD17R,2.000000X2.500000*%
%ADD18R,0.600000X0.800000*%
%ADD19R,1.700000X1.700000*%
%ADD20O,1.700000X1.700000*%
%ADD21R,1.350000X1.350000*%
%ADD22O,1.350000X1.350000*%
%ADD23R,0.900000X0.500000*%
%ADD24R,1.550000X0.900000*%
%ADD25R,1.560000X0.650000*%
%ADD26O,0.900000X2.500000*%
%ADD27O,2.500000X0.900000*%
%ADD28R,6.000000X6.000000*%
%ADD29C,3.500000*%
%ADD30R,0.250000X1.300000*%
%ADD31R,1.300000X0.250000*%
%ADD32R,0.900000X1.200000*%
%ADD33C,3.850000*%
%ADD34R,1.520000X1.520000*%
%ADD35C,1.520000*%
%ADD36C,2.540000*%
%ADD37C,0.600000*%
%ADD38C,0.250000*%
%ADD39C,0.800000*%
%ADD40C,0.254000*%
G04 APERTURE END LIST*
D10*
D11*
X134540000Y-78900000D03*
X129460000Y-78900000D03*
X129460000Y-83100000D03*
X134540000Y-83100000D03*
D12*
X83550000Y-76000000D03*
D13*
X128537200Y-85476940D03*
X130037200Y-85476940D03*
D14*
X90550000Y-105500000D03*
X87550000Y-105500000D03*
D15*
X89300000Y-102900000D03*
X87800000Y-102900000D03*
X124150000Y-80000000D03*
X125650000Y-80000000D03*
X96050000Y-106700000D03*
X97550000Y-106700000D03*
D16*
X117400000Y-81050000D03*
X117400000Y-82550000D03*
X138000000Y-81250000D03*
X138000000Y-82750000D03*
D15*
X143150000Y-89400000D03*
X144650000Y-89400000D03*
X143150000Y-88000000D03*
X144650000Y-88000000D03*
X143250000Y-101100000D03*
X144750000Y-101100000D03*
X143250000Y-102500000D03*
X144750000Y-102500000D03*
D16*
X122300000Y-98450000D03*
X122300000Y-96950000D03*
D15*
X138750000Y-91000000D03*
X137250000Y-91000000D03*
X138750000Y-95200000D03*
X137250000Y-95200000D03*
D16*
X123400000Y-91350000D03*
X123400000Y-92850000D03*
X120900000Y-98450000D03*
X120900000Y-96950000D03*
D15*
X137250000Y-92400000D03*
X138750000Y-92400000D03*
X129150000Y-88300000D03*
X127650000Y-88300000D03*
X129150000Y-86900000D03*
X127650000Y-86900000D03*
D17*
X142860000Y-105870000D03*
X146860000Y-105870000D03*
D18*
X142150000Y-82000000D03*
X143850000Y-82000000D03*
X142150000Y-84000000D03*
X143850000Y-84000000D03*
D19*
X89050000Y-109000000D03*
D20*
X91590000Y-109000000D03*
D21*
X88300000Y-77700000D03*
D22*
X90300000Y-77700000D03*
X92300000Y-77700000D03*
D17*
X140600000Y-102600000D03*
X136600000Y-102600000D03*
D23*
X93800000Y-104750000D03*
X93800000Y-106250000D03*
D13*
X136950000Y-79000000D03*
X138450000Y-79000000D03*
X96050000Y-104800000D03*
X97550000Y-104800000D03*
X124250000Y-85000000D03*
X125750000Y-85000000D03*
X108150000Y-81900000D03*
X109650000Y-81900000D03*
X141350000Y-98400000D03*
X142850000Y-98400000D03*
X141350000Y-96300000D03*
X142850000Y-96300000D03*
X141350000Y-94200000D03*
X142850000Y-94200000D03*
X141350000Y-92200000D03*
X142850000Y-92200000D03*
X125758000Y-86592000D03*
X124258000Y-86592000D03*
X136250000Y-88000000D03*
X137750000Y-88000000D03*
X147750000Y-82000000D03*
X146250000Y-82000000D03*
X147750000Y-84000000D03*
X146250000Y-84000000D03*
D24*
X109450000Y-102300000D03*
X109450000Y-106900000D03*
X114150000Y-102300000D03*
X114150000Y-106900000D03*
X109450000Y-75400000D03*
X109450000Y-80000000D03*
X114150000Y-75400000D03*
X114150000Y-80000000D03*
D25*
X119650000Y-80050000D03*
X119650000Y-81000000D03*
X119650000Y-81950000D03*
X122350000Y-81950000D03*
X122350000Y-80050000D03*
D26*
X87850000Y-81900000D03*
X89120000Y-81900000D03*
X90390000Y-81900000D03*
X91660000Y-81900000D03*
X92930000Y-81900000D03*
X94200000Y-81900000D03*
X95470000Y-81900000D03*
X96740000Y-81900000D03*
X98010000Y-81900000D03*
X99280000Y-81900000D03*
X100550000Y-81900000D03*
X101820000Y-81900000D03*
X103090000Y-81900000D03*
X104360000Y-81900000D03*
D27*
X105850000Y-85185000D03*
X105850000Y-86455000D03*
X105850000Y-87725000D03*
X105850000Y-88995000D03*
X105850000Y-90265000D03*
X105850000Y-91535000D03*
X105850000Y-92805000D03*
X105850000Y-94075000D03*
X105850000Y-95345000D03*
X105850000Y-96615000D03*
D26*
X104360000Y-99900000D03*
X103090000Y-99900000D03*
X101820000Y-99900000D03*
X100550000Y-99900000D03*
X99280000Y-99900000D03*
X98010000Y-99900000D03*
X96740000Y-99900000D03*
X95470000Y-99900000D03*
X94200000Y-99900000D03*
X92930000Y-99900000D03*
X91660000Y-99900000D03*
X90390000Y-99900000D03*
X89120000Y-99900000D03*
X87850000Y-99900000D03*
D28*
X95550000Y-91200000D03*
D29*
X95640000Y-91154000D03*
D30*
X127050000Y-99950000D03*
X127550000Y-99950000D03*
X128050000Y-99950000D03*
X128550000Y-99950000D03*
X129050000Y-99950000D03*
X129550000Y-99950000D03*
X130050000Y-99950000D03*
X130550000Y-99950000D03*
X131050000Y-99950000D03*
X131550000Y-99950000D03*
X132050000Y-99950000D03*
X132550000Y-99950000D03*
D31*
X134150000Y-98350000D03*
X134150000Y-97850000D03*
X134150000Y-97350000D03*
X134150000Y-96850000D03*
X134150000Y-96350000D03*
X134150000Y-95850000D03*
X134150000Y-95350000D03*
X134150000Y-94850000D03*
X134150000Y-94350000D03*
X134150000Y-93850000D03*
X134150000Y-93350000D03*
X134150000Y-92850000D03*
D30*
X132550000Y-91250000D03*
X132050000Y-91250000D03*
X131550000Y-91250000D03*
X131050000Y-91250000D03*
X130550000Y-91250000D03*
X130050000Y-91250000D03*
X129550000Y-91250000D03*
X129050000Y-91250000D03*
X128550000Y-91250000D03*
X128050000Y-91250000D03*
X127550000Y-91250000D03*
X127050000Y-91250000D03*
D31*
X125450000Y-92850000D03*
X125450000Y-93350000D03*
X125450000Y-93850000D03*
X125450000Y-94350000D03*
X125450000Y-94850000D03*
X125450000Y-95350000D03*
X125450000Y-95850000D03*
X125450000Y-96350000D03*
X125450000Y-96850000D03*
X125450000Y-97350000D03*
X125450000Y-97850000D03*
X125450000Y-98350000D03*
D15*
X137250000Y-93800000D03*
X138750000Y-93800000D03*
D12*
X166550000Y-76000000D03*
X166550000Y-109000000D03*
X83550000Y-109000000D03*
D23*
X120250000Y-91450000D03*
X120250000Y-89950000D03*
D13*
X132970000Y-101930000D03*
X134470000Y-101930000D03*
D32*
X115740000Y-77650000D03*
X119040000Y-77650000D03*
D33*
X160890000Y-89090000D03*
X160890000Y-100530000D03*
D34*
X154540000Y-99260000D03*
D35*
X152000000Y-98620000D03*
X154540000Y-96710000D03*
X152000000Y-96080000D03*
X154540000Y-94170000D03*
X152000000Y-93540000D03*
X154540000Y-91640000D03*
D36*
X157840000Y-87060000D03*
X157840000Y-102560000D03*
D35*
X152000000Y-91000000D03*
D37*
X122280210Y-91300000D03*
X145600000Y-96280000D03*
X130250000Y-88100000D03*
X128100000Y-103000000D03*
X123900000Y-100800000D03*
X120900000Y-83700000D03*
X125200000Y-88500000D03*
X143700000Y-94200000D03*
X143700000Y-90500000D03*
X143700000Y-92200000D03*
X143800000Y-96300000D03*
X143800000Y-98400000D03*
X152567000Y-89005000D03*
X134025000Y-88243000D03*
X135168000Y-90275000D03*
X132715010Y-97100000D03*
X117190000Y-93920000D03*
X110630000Y-90600000D03*
X142280000Y-76813000D03*
X147360000Y-76813000D03*
X152440000Y-81893000D03*
X152440000Y-76813000D03*
X157520000Y-76813000D03*
X157520000Y-84560000D03*
X139980000Y-81240000D03*
X140110000Y-85750000D03*
X106720000Y-105100000D03*
X111480000Y-105100000D03*
X111440000Y-103170000D03*
X114340000Y-85720000D03*
X119420000Y-85660000D03*
X127910000Y-97090000D03*
X123900000Y-97400000D03*
X127910000Y-94160000D03*
X131430000Y-94190000D03*
X131430000Y-97150000D03*
X127500000Y-86101950D03*
X111800000Y-94720000D03*
X113070000Y-83290000D03*
X114340000Y-88370000D03*
X119420000Y-88370000D03*
X105450000Y-75670000D03*
X100370000Y-75670000D03*
X95290000Y-75670000D03*
X152440000Y-109960000D03*
X157647000Y-109960000D03*
X157520000Y-104880000D03*
X137200000Y-109960000D03*
X132120000Y-109960000D03*
X127040000Y-109960000D03*
X127040000Y-104880000D03*
X121960000Y-104880000D03*
X121960000Y-109960000D03*
X116880000Y-109960000D03*
X111800000Y-109960000D03*
X96560000Y-109960000D03*
X101640000Y-109960000D03*
X106847000Y-110087000D03*
X101640000Y-90910000D03*
X101640000Y-93450000D03*
X101640000Y-95990000D03*
X85130000Y-104880000D03*
X82590000Y-104880000D03*
X82590000Y-102340000D03*
X85130000Y-102340000D03*
X87670000Y-97260000D03*
X87670000Y-94720000D03*
X90210000Y-94720000D03*
X90210000Y-92180000D03*
X87670000Y-92180000D03*
X87670000Y-89640000D03*
X90210000Y-89640000D03*
X90210000Y-87100000D03*
X87670000Y-87100000D03*
X87670000Y-84560000D03*
X107600000Y-75400000D03*
X119400000Y-82900000D03*
X124500000Y-91300000D03*
X127000000Y-80900000D03*
X139500000Y-97300000D03*
X135600000Y-95149967D03*
X108000000Y-102300000D03*
X107600000Y-98000000D03*
X98900000Y-106700000D03*
X145700000Y-89500000D03*
X144700000Y-100000000D03*
X139800000Y-92400000D03*
X139800000Y-93800000D03*
X135364717Y-94385335D03*
X156900000Y-99200000D03*
X156900000Y-89500000D03*
X123580000Y-78470000D03*
X120420000Y-77670000D03*
X113190000Y-99050000D03*
X115040000Y-83280000D03*
X93500000Y-103600000D03*
X91000000Y-102000000D03*
X131100000Y-92900000D03*
X127000000Y-92900000D03*
X136400000Y-99900000D03*
X136200000Y-94400000D03*
X131942200Y-87595300D03*
X134500000Y-85974990D03*
X132843900Y-87849300D03*
X135100000Y-86600000D03*
X150535000Y-95126400D03*
X145569300Y-95202600D03*
X123128400Y-87366700D03*
X121693300Y-92903900D03*
X129628635Y-89256094D03*
X108821950Y-87205848D03*
X126155083Y-89178162D03*
X89100000Y-84400000D03*
X118874990Y-100074990D03*
X118244171Y-97228069D03*
X109900000Y-88900000D03*
X90400000Y-84300000D03*
X120200000Y-100700000D03*
X117200000Y-96900000D03*
X109900000Y-92100000D03*
X102000000Y-89400000D03*
X102200000Y-88200000D03*
X109800000Y-90900000D03*
X117200000Y-96000000D03*
X119500000Y-99500000D03*
X121050000Y-94900000D03*
X114250000Y-96700000D03*
X108250000Y-96700000D03*
X106650000Y-97900000D03*
X123502751Y-96475010D03*
X100500000Y-102525010D03*
X102700000Y-104000000D03*
X115864000Y-104016400D03*
X120500000Y-95700000D03*
X119000000Y-96000000D03*
X105000000Y-101900000D03*
X99300000Y-101900000D03*
X130142110Y-89869577D03*
X126465678Y-89948391D03*
X110625518Y-88057791D03*
X98100000Y-84200000D03*
X148198200Y-94501390D03*
X146242400Y-93234100D03*
X132080000Y-101950000D03*
X132080000Y-97810000D03*
X132090000Y-96440000D03*
X132740000Y-94830000D03*
X131485000Y-85182300D03*
X130875001Y-87544899D03*
D38*
X129003634Y-88446366D02*
X129150000Y-88300000D01*
X129003634Y-90303634D02*
X129003634Y-88446366D01*
X129050000Y-90350000D02*
X129003634Y-90303634D01*
X129050000Y-91250000D02*
X129050000Y-90350000D01*
X121980211Y-91599999D02*
X122280210Y-91300000D01*
X120905210Y-92675000D02*
X121980211Y-91599999D01*
X120825000Y-92675000D02*
X120905210Y-92675000D01*
X154540000Y-94170000D02*
X154540000Y-94640711D01*
X91400000Y-104000000D02*
X91300000Y-104000000D01*
X100225009Y-103150011D02*
X99874998Y-102800000D01*
X106224985Y-103150011D02*
X100225009Y-103150011D01*
X92600000Y-102800000D02*
X91400000Y-104000000D01*
X110949997Y-98424999D02*
X106224985Y-103150011D01*
X99874998Y-102800000D02*
X92600000Y-102800000D01*
X113490001Y-98424999D02*
X110949997Y-98424999D01*
X119700000Y-98450000D02*
X113515002Y-98450000D01*
X91300000Y-104000000D02*
X90550000Y-104750000D01*
X90550000Y-104750000D02*
X90550000Y-105500000D01*
X113515002Y-98450000D02*
X113490001Y-98424999D01*
X145600000Y-96280000D02*
X145600000Y-96300000D01*
X145600000Y-96300000D02*
X145600000Y-96280000D01*
X145600000Y-96280000D02*
X145600000Y-96300000D01*
X143800000Y-96300000D02*
X145600000Y-96300000D01*
X151780000Y-96300000D02*
X152000000Y-96080000D01*
X120250000Y-91450000D02*
X120250000Y-92100000D01*
X120250000Y-92100000D02*
X120825000Y-92675000D01*
X117400000Y-81050000D02*
X119600000Y-81050000D01*
X119600000Y-81050000D02*
X119650000Y-81000000D01*
X143250000Y-105300000D02*
X143250000Y-106250000D01*
X143250000Y-106250000D02*
X142600000Y-106900000D01*
X120900000Y-98450000D02*
X122300000Y-98450000D01*
X130250000Y-88100000D02*
X130250000Y-86900000D01*
X129150000Y-86900000D02*
X130250000Y-86900000D01*
X130250000Y-86900000D02*
X132500000Y-86900000D01*
D39*
X91590000Y-109000000D02*
X91590000Y-108040000D01*
X91590000Y-108040000D02*
X90550000Y-107000000D01*
X90550000Y-107000000D02*
X90550000Y-105500000D01*
X91590000Y-109000000D02*
X91550000Y-109000000D01*
X89300000Y-102900000D02*
X89300000Y-103250000D01*
X89300000Y-103250000D02*
X90550000Y-104500000D01*
X90550000Y-104500000D02*
X90550000Y-105500000D01*
X89120000Y-99900000D02*
X89120000Y-102720000D01*
X89120000Y-102720000D02*
X89300000Y-102900000D01*
D38*
X91590000Y-109000000D02*
X91590000Y-108540000D01*
X128100000Y-103000000D02*
X129800000Y-104700000D01*
X129800000Y-104700000D02*
X140100000Y-104700000D01*
X140100000Y-104700000D02*
X140600000Y-104200000D01*
X140600000Y-104200000D02*
X140600000Y-102600000D01*
X120900000Y-100100000D02*
X121600000Y-100800000D01*
X121600000Y-100800000D02*
X123900000Y-100800000D01*
X120900000Y-99900000D02*
X120900000Y-100100000D01*
X120900000Y-98475000D02*
X120900000Y-99900000D01*
X120900000Y-98450000D02*
X120900000Y-98475000D01*
X120900000Y-83700000D02*
X116700000Y-83700000D01*
X125750000Y-84800000D02*
X125750000Y-85000000D01*
X115500000Y-82500000D02*
X116700000Y-83700000D01*
X115500000Y-81700000D02*
X115500000Y-82500000D01*
X119700000Y-96200000D02*
X119700000Y-98450000D01*
X119700000Y-93800000D02*
X119700000Y-96200000D01*
X120825000Y-92675000D02*
X119700000Y-93800000D01*
X122300000Y-98450000D02*
X119700000Y-98450000D01*
X125200000Y-88500000D02*
X125750000Y-87950000D01*
X132500000Y-86900000D02*
X134540000Y-84860000D01*
X134540000Y-84860000D02*
X134540000Y-83100000D01*
X134540000Y-83100000D02*
X136400000Y-83100000D01*
X137450000Y-79850000D02*
X136400000Y-80900000D01*
X136400000Y-83100000D02*
X137650000Y-83100000D01*
X136400000Y-80900000D02*
X136400000Y-83100000D01*
X138300000Y-79850000D02*
X137450000Y-79850000D01*
X138450000Y-79000000D02*
X138450000Y-79700000D01*
X138450000Y-79700000D02*
X138300000Y-79850000D01*
X137650000Y-83100000D02*
X138000000Y-82750000D01*
X142850000Y-94200000D02*
X143700000Y-94200000D01*
X147750000Y-82000000D02*
X147750000Y-84000000D01*
X147100000Y-86000000D02*
X147750000Y-85350000D01*
X147750000Y-85350000D02*
X147750000Y-84000000D01*
X144525000Y-86000000D02*
X147100000Y-86000000D01*
X143150000Y-88000000D02*
X143150000Y-87375000D01*
X143150000Y-87375000D02*
X144525000Y-86000000D01*
X143700000Y-90500000D02*
X143150000Y-89950000D01*
X143150000Y-89950000D02*
X143150000Y-89400000D01*
X142850000Y-92200000D02*
X143700000Y-92200000D01*
X143150000Y-88000000D02*
X143150000Y-89400000D01*
X143800000Y-96300000D02*
X142850000Y-96300000D01*
X142850000Y-98400000D02*
X143800000Y-98400000D01*
X125750000Y-85000000D02*
X125750000Y-86600000D01*
X129150000Y-88300000D02*
X129150000Y-86900000D01*
X125450000Y-98350000D02*
X122400000Y-98350000D01*
X122400000Y-98350000D02*
X122300000Y-98450000D01*
X143250000Y-101100000D02*
X143250000Y-98800000D01*
X143250000Y-98800000D02*
X142850000Y-98400000D01*
X142600000Y-106900000D02*
X143250000Y-106250000D01*
X143250000Y-106250000D02*
X143250000Y-103900000D01*
X143250000Y-103900000D02*
X143250000Y-102500000D01*
X143250000Y-102500000D02*
X143250000Y-101100000D01*
X143250000Y-101100000D02*
X143250000Y-102500000D01*
X143250000Y-102500000D02*
X143150000Y-102600000D01*
X143150000Y-102600000D02*
X140600000Y-102600000D01*
X116150000Y-81050000D02*
X119600000Y-81050000D01*
X115500000Y-81700000D02*
X116150000Y-81050000D01*
X119600000Y-81050000D02*
X119650000Y-81000000D01*
X90550000Y-105500000D02*
X90900000Y-105600000D01*
X91550000Y-106250000D02*
X93800000Y-106250000D01*
X90900000Y-105600000D02*
X91550000Y-106250000D01*
X90590000Y-105540000D02*
X90450000Y-105400000D01*
X90450000Y-105400000D02*
X90450000Y-104250000D01*
X89000000Y-100020000D02*
X89120000Y-99900000D01*
X125750000Y-87950000D02*
X125750000Y-86600000D01*
X152000000Y-91000000D02*
X152000000Y-89572000D01*
X152000000Y-89572000D02*
X152567000Y-89005000D01*
X156900000Y-99200000D02*
X156900000Y-101620000D01*
X156900000Y-101620000D02*
X157840000Y-102560000D01*
X144750000Y-101100000D02*
X156380000Y-101100000D01*
X156380000Y-101100000D02*
X157840000Y-102560000D01*
X135168000Y-90275000D02*
X135168000Y-89386000D01*
X135168000Y-89386000D02*
X134025000Y-88243000D01*
X87800000Y-102900000D02*
X87800000Y-105250000D01*
X87800000Y-105250000D02*
X87550000Y-105500000D01*
X132965010Y-97350000D02*
X132715010Y-97100000D01*
X134150000Y-97350000D02*
X132965010Y-97350000D01*
X146860000Y-105870000D02*
X146860000Y-107890000D01*
X146860000Y-107890000D02*
X146850000Y-107900000D01*
X156900000Y-88000000D02*
X157840000Y-87060000D01*
X144750000Y-102500000D02*
X144750000Y-102580000D01*
X144750000Y-102580000D02*
X146860000Y-104690000D01*
X146860000Y-104690000D02*
X146860000Y-105870000D01*
X116910000Y-91740000D02*
X117190000Y-92020000D01*
X117190000Y-92020000D02*
X117190000Y-93920000D01*
X111770000Y-91740000D02*
X116910000Y-91740000D01*
X110630000Y-90600000D02*
X111770000Y-91740000D01*
X147360000Y-76813000D02*
X142280000Y-76813000D01*
X152440000Y-76813000D02*
X152440000Y-81893000D01*
X157520000Y-84560000D02*
X157520000Y-76813000D01*
X137750000Y-88000000D02*
X137860000Y-88000000D01*
X137860000Y-88000000D02*
X140110000Y-85750000D01*
X139970000Y-81250000D02*
X138000000Y-81250000D01*
X139980000Y-81240000D02*
X139970000Y-81250000D01*
X111480000Y-105100000D02*
X106720000Y-105100000D01*
X109450000Y-102300000D02*
X110570000Y-102300000D01*
X111480000Y-105100000D02*
X111480000Y-105120000D01*
X110570000Y-102300000D02*
X111440000Y-103170000D01*
X114400000Y-85660000D02*
X119420000Y-85660000D01*
X114400000Y-85660000D02*
X114340000Y-85720000D01*
X125450000Y-97850000D02*
X127150000Y-97850000D01*
X127150000Y-97850000D02*
X127910000Y-97090000D01*
X123700000Y-97600000D02*
X123900000Y-97400000D01*
X127910000Y-97090000D02*
X127910000Y-94160000D01*
X131430000Y-94190000D02*
X131430000Y-97150000D01*
X106650000Y-96615000D02*
X105850000Y-96615000D01*
X108545000Y-94720000D02*
X106650000Y-96615000D01*
X111800000Y-94720000D02*
X108545000Y-94720000D01*
X125450000Y-97850000D02*
X123850000Y-97850000D01*
X123850000Y-97850000D02*
X122950000Y-96950000D01*
X122950000Y-96950000D02*
X122300000Y-96950000D01*
X127650000Y-86251950D02*
X127500000Y-86101950D01*
X127650000Y-86900000D02*
X127650000Y-86251950D01*
X111419000Y-76305000D02*
X110514000Y-75400000D01*
X113070000Y-81809998D02*
X111419000Y-80158998D01*
X113070000Y-83290000D02*
X113070000Y-81809998D01*
X111419000Y-80158998D02*
X111419000Y-76305000D01*
X110514000Y-75400000D02*
X109450000Y-75400000D01*
X119420000Y-88370000D02*
X114340000Y-88370000D01*
X105450000Y-75670000D02*
X109180000Y-75670000D01*
X109180000Y-75670000D02*
X109450000Y-75400000D01*
X95290000Y-75670000D02*
X100370000Y-75670000D01*
X150380000Y-107900000D02*
X152440000Y-109960000D01*
X146850000Y-107900000D02*
X150380000Y-107900000D01*
X157647000Y-105007000D02*
X157520000Y-104880000D01*
X157647000Y-109960000D02*
X157647000Y-105007000D01*
X146600000Y-107900000D02*
X146850000Y-107900000D01*
X146600000Y-110212000D02*
X146600000Y-107900000D01*
X137200000Y-109960000D02*
X137499999Y-110259999D01*
X137499999Y-110259999D02*
X146552001Y-110259999D01*
X127040000Y-109960000D02*
X132120000Y-109960000D01*
X126740001Y-104580001D02*
X127040000Y-104880000D01*
X121960000Y-104880000D02*
X122259999Y-104580001D01*
X122259999Y-104580001D02*
X126740001Y-104580001D01*
X116880000Y-109960000D02*
X121960000Y-109960000D01*
X111800000Y-109960000D02*
X116880000Y-109960000D01*
X146552001Y-110259999D02*
X146600000Y-110212000D01*
X89050000Y-110100000D02*
X90053000Y-111103000D01*
X89050000Y-109000000D02*
X89050000Y-110100000D01*
X95417000Y-111103000D02*
X96560000Y-109960000D01*
X90053000Y-111103000D02*
X95417000Y-111103000D01*
X106720000Y-109960000D02*
X106847000Y-110087000D01*
X101640000Y-109960000D02*
X106720000Y-109960000D01*
X101640000Y-93450000D02*
X101640000Y-90910000D01*
X105850000Y-96615000D02*
X102265000Y-96615000D01*
X102265000Y-96615000D02*
X101640000Y-95990000D01*
X85130000Y-104880000D02*
X86930000Y-104880000D01*
X86930000Y-104880000D02*
X87550000Y-105500000D01*
X82590000Y-102340000D02*
X82590000Y-104880000D01*
X87670000Y-97260000D02*
X87670000Y-99800000D01*
X87670000Y-99800000D02*
X85130000Y-102340000D01*
X90210000Y-94720000D02*
X87670000Y-94720000D01*
X87670000Y-92180000D02*
X90210000Y-92180000D01*
X90210000Y-89640000D02*
X87670000Y-89640000D01*
X87670000Y-87100000D02*
X90210000Y-87100000D01*
X87850000Y-84560000D02*
X87850000Y-88450000D01*
X87850000Y-81900000D02*
X87850000Y-84560000D01*
X87850000Y-84560000D02*
X87670000Y-84560000D01*
X87550000Y-103000000D02*
X87450000Y-102900000D01*
X134150000Y-97350000D02*
X139450000Y-97350000D01*
X139450000Y-97350000D02*
X139500000Y-97300000D01*
X109450000Y-75400000D02*
X107600000Y-75400000D01*
X117400000Y-82550000D02*
X119050000Y-82550000D01*
X119050000Y-82550000D02*
X119400000Y-82900000D01*
X119650000Y-81950000D02*
X119650000Y-82150000D01*
X119650000Y-82150000D02*
X119800000Y-82300000D01*
X119650000Y-81950000D02*
X119195000Y-81950000D01*
X119195000Y-81950000D02*
X118595000Y-82550000D01*
X118595000Y-82550000D02*
X117400000Y-82550000D01*
X124799999Y-91000001D02*
X124500000Y-91300000D01*
X126399999Y-91000001D02*
X124799999Y-91000001D01*
X127050000Y-90350000D02*
X126399999Y-91000001D01*
X127550000Y-90725000D02*
X127175000Y-90350000D01*
X127374998Y-89075002D02*
X127550000Y-88900000D01*
X127374998Y-90025002D02*
X127374998Y-89075002D01*
X127175000Y-90350000D02*
X127175000Y-89275000D01*
X127550000Y-91250000D02*
X127550000Y-90725000D01*
X127050000Y-90350000D02*
X127374998Y-90025002D01*
X127175000Y-89275000D02*
X127550000Y-88900000D01*
X123400000Y-91350000D02*
X124450000Y-91350000D01*
X126700000Y-80000000D02*
X127800000Y-78900000D01*
X127800000Y-78900000D02*
X129460000Y-78900000D01*
X127000000Y-80300000D02*
X126700000Y-80000000D01*
X126700000Y-80000000D02*
X125650000Y-80000000D01*
X127000000Y-80900000D02*
X127000000Y-80300000D01*
X123700000Y-97700000D02*
X122950000Y-96950000D01*
X123850000Y-97850000D02*
X123700000Y-97700000D01*
X134175034Y-95324966D02*
X135000737Y-95324966D01*
X134150000Y-95350000D02*
X134175034Y-95324966D01*
X135175736Y-95149967D02*
X135600000Y-95149967D01*
X135000737Y-95324966D02*
X135175736Y-95149967D01*
X109450000Y-102300000D02*
X108000000Y-102300000D01*
X107600000Y-98000000D02*
X107600000Y-97565000D01*
X107600000Y-97565000D02*
X106650000Y-96615000D01*
X97550000Y-106700000D02*
X98900000Y-106700000D01*
X144650000Y-89400000D02*
X144650000Y-88000000D01*
X145700000Y-89500000D02*
X144750000Y-89500000D01*
X144750000Y-89500000D02*
X144650000Y-89400000D01*
X144750000Y-101100000D02*
X144750000Y-100050000D01*
X144750000Y-100050000D02*
X144700000Y-100000000D01*
X144750000Y-101100000D02*
X144750000Y-102500000D01*
X139800000Y-92400000D02*
X138750000Y-92400000D01*
X138750000Y-93800000D02*
X139800000Y-93800000D01*
X138750000Y-93800000D02*
X138750000Y-95200000D01*
X138750000Y-92400000D02*
X138750000Y-93800000D01*
X138750000Y-91000000D02*
X138750000Y-92400000D01*
X137750000Y-88850000D02*
X138750000Y-89850000D01*
X138750000Y-89850000D02*
X138750000Y-91000000D01*
X137750000Y-88000000D02*
X137750000Y-88850000D01*
X127550000Y-88900000D02*
X127550000Y-88400000D01*
X127050000Y-91250000D02*
X127050000Y-90350000D01*
X127650000Y-88300000D02*
X127650000Y-86900000D01*
X127550000Y-88400000D02*
X127650000Y-88300000D01*
X122950000Y-96950000D02*
X120900000Y-96950000D01*
X87850000Y-99900000D02*
X87850000Y-100850000D01*
X87700000Y-105350000D02*
X87550000Y-105500000D01*
X87550000Y-105500000D02*
X88550000Y-108500000D01*
X88550000Y-108500000D02*
X89050000Y-109000000D01*
X105850000Y-96615000D02*
X100965000Y-96615000D01*
X100965000Y-96615000D02*
X95550000Y-91200000D01*
X87850000Y-99900000D02*
X87850000Y-94050000D01*
X87850000Y-94050000D02*
X90700000Y-91200000D01*
X90600000Y-91200000D02*
X90700000Y-91200000D01*
X90700000Y-91200000D02*
X95550000Y-91200000D01*
X87850000Y-88450000D02*
X90600000Y-91200000D01*
X87850000Y-81900000D02*
X87850000Y-78150000D01*
X87850000Y-78150000D02*
X88300000Y-77700000D01*
X135329382Y-94350000D02*
X135364717Y-94385335D01*
X134150000Y-94350000D02*
X135329382Y-94350000D01*
X156900000Y-89500000D02*
X156900000Y-88000000D01*
X156840000Y-99260000D02*
X156900000Y-99200000D01*
X123580000Y-78470000D02*
X124150000Y-79040000D01*
X124150000Y-79040000D02*
X124150000Y-80000000D01*
X119040000Y-77650000D02*
X120400000Y-77650000D01*
X120400000Y-77650000D02*
X120420000Y-77670000D01*
X122350000Y-80050000D02*
X124100000Y-80050000D01*
X124100000Y-80050000D02*
X124150000Y-80000000D01*
X113190000Y-99050000D02*
X115250000Y-99050000D01*
X115250000Y-99050000D02*
X117088600Y-103733400D01*
X115750000Y-80560000D02*
X115040000Y-81270000D01*
X115040000Y-81270000D02*
X115040000Y-83280000D01*
X115750000Y-78510000D02*
X115750000Y-80560000D01*
X115740000Y-77650000D02*
X115740000Y-78500000D01*
X115740000Y-78500000D02*
X115750000Y-78510000D01*
X117088600Y-103733400D02*
X117088600Y-104157664D01*
X117088600Y-104157664D02*
X115124264Y-107900000D01*
X115124264Y-107900000D02*
X97275000Y-107900000D01*
X97275000Y-107900000D02*
X96075000Y-106700000D01*
X96075000Y-106700000D02*
X96050000Y-106700000D01*
X90390000Y-99900000D02*
X90390000Y-101390000D01*
X93800000Y-103900000D02*
X93800000Y-104750000D01*
X93500000Y-103600000D02*
X93800000Y-103900000D01*
X90390000Y-101390000D02*
X91000000Y-102000000D01*
X93800000Y-104750000D02*
X96000000Y-104750000D01*
X96000000Y-104750000D02*
X96050000Y-104800000D01*
X96050000Y-106700000D02*
X96050000Y-104800000D01*
X132114998Y-93425002D02*
X132190000Y-93350000D01*
X132834996Y-95850000D02*
X132114998Y-95130002D01*
X132114998Y-95130002D02*
X132114998Y-93425002D01*
X134150000Y-95850000D02*
X132834996Y-95850000D01*
X131550000Y-93350000D02*
X132190000Y-93350000D01*
X132190000Y-93350000D02*
X132600000Y-93350000D01*
X135226089Y-93310322D02*
X136450011Y-92086400D01*
X136450011Y-91774989D02*
X137225000Y-91000000D01*
X134852176Y-95850000D02*
X134927199Y-95774977D01*
X134189678Y-93310322D02*
X135226089Y-93310322D01*
X134150000Y-93350000D02*
X134189678Y-93310322D01*
X134927199Y-95774977D02*
X136025023Y-95774977D01*
X134150000Y-95850000D02*
X134852176Y-95850000D01*
X137225000Y-91000000D02*
X137250000Y-91000000D01*
X136600000Y-95200000D02*
X137250000Y-95200000D01*
X136025023Y-95774977D02*
X136600000Y-95200000D01*
X136450011Y-92086400D02*
X136450011Y-91774989D01*
X132600000Y-93350000D02*
X134150000Y-93350000D01*
X131100000Y-92900000D02*
X131550000Y-93350000D01*
X125450000Y-92850000D02*
X126950000Y-92850000D01*
X126950000Y-92850000D02*
X127000000Y-92900000D01*
X123400000Y-92850000D02*
X125450000Y-92850000D01*
X134470000Y-101930000D02*
X135930000Y-101930000D01*
X135930000Y-101930000D02*
X136600000Y-102600000D01*
X136600000Y-93800000D02*
X137250000Y-93800000D01*
X134150000Y-93850000D02*
X134975048Y-93850000D01*
X134975048Y-93850000D02*
X135064715Y-93760333D01*
X135064715Y-93760333D02*
X136560333Y-93760333D01*
X136560333Y-93760333D02*
X136600000Y-93800000D01*
X136400000Y-99900000D02*
X136400000Y-102400000D01*
X136400000Y-102400000D02*
X136600000Y-102600000D01*
X137250000Y-93800000D02*
X136800000Y-93800000D01*
X136800000Y-93800000D02*
X136200000Y-94400000D01*
X137250000Y-92400000D02*
X137250000Y-93800000D01*
X131421500Y-90109900D02*
X131421500Y-88116000D01*
X131421500Y-88116000D02*
X131942200Y-87595300D01*
X131050000Y-90481400D02*
X131421500Y-90109900D01*
X131050000Y-91250000D02*
X131050000Y-90481400D01*
X136725010Y-85974990D02*
X134924264Y-85974990D01*
X140700000Y-82000000D02*
X136725010Y-85974990D01*
X142150000Y-82000000D02*
X140700000Y-82000000D01*
X134924264Y-85974990D02*
X134500000Y-85974990D01*
X143850000Y-82000000D02*
X146250000Y-82000000D01*
X132056500Y-90343500D02*
X132056500Y-88636700D01*
X132056500Y-88636700D02*
X132843900Y-87849300D01*
X132050000Y-91250000D02*
X132050000Y-90350000D01*
X132050000Y-90350000D02*
X132056500Y-90343500D01*
X135100000Y-86600000D02*
X137300000Y-86600000D01*
X137300000Y-86600000D02*
X139900000Y-84000000D01*
X139900000Y-84000000D02*
X142150000Y-84000000D01*
X143850000Y-84000000D02*
X146250000Y-84000000D01*
X150925198Y-93540000D02*
X152000000Y-93540000D01*
X146496400Y-96498000D02*
X146496400Y-94351700D01*
X147308100Y-93540000D02*
X150925198Y-93540000D01*
X146496400Y-94351700D02*
X147308100Y-93540000D01*
X145694400Y-97300000D02*
X146496400Y-96498000D01*
X142450000Y-97300000D02*
X145694400Y-97300000D01*
X141350000Y-98400000D02*
X142450000Y-97300000D01*
X134675000Y-98350000D02*
X134150000Y-98350000D01*
X135050000Y-98725000D02*
X134675000Y-98350000D01*
X141025000Y-98725000D02*
X135050000Y-98725000D01*
X142450000Y-97300000D02*
X141025000Y-98725000D01*
X154540000Y-96710000D02*
X153780001Y-95950001D01*
X153780001Y-95950001D02*
X153780001Y-95437701D01*
X153780001Y-95437701D02*
X153125800Y-94783500D01*
X150535000Y-95126400D02*
X150959264Y-95126400D01*
X150959264Y-95126400D02*
X151302164Y-94783500D01*
X151302164Y-94783500D02*
X153125800Y-94783500D01*
X142220000Y-95230000D02*
X145541900Y-95230000D01*
X145541900Y-95230000D02*
X145569300Y-95202600D01*
X142220000Y-95230000D02*
X141350000Y-96100000D01*
X141350000Y-96100000D02*
X141350000Y-96300000D01*
X134150000Y-97850000D02*
X135224998Y-97850000D01*
X135224998Y-97850000D02*
X135299999Y-97925001D01*
X135299999Y-97925001D02*
X139800003Y-97925001D01*
X139800003Y-97925001D02*
X141350000Y-96375004D01*
X141350000Y-96375004D02*
X141350000Y-96300000D01*
X135299999Y-97925001D02*
X135224998Y-97850000D01*
X142374999Y-91125001D02*
X144000001Y-91125001D01*
X144000001Y-91125001D02*
X145143900Y-92268900D01*
X153467601Y-92725001D02*
X153493001Y-92725001D01*
X156224600Y-96565400D02*
X156199200Y-96590800D01*
X145143900Y-92268900D02*
X153011500Y-92268900D01*
X153493001Y-92725001D02*
X153633800Y-92865800D01*
X153011500Y-92268900D02*
X153467601Y-92725001D01*
X153633800Y-92865800D02*
X156008700Y-92865800D01*
X156199200Y-98610800D02*
X155550000Y-99260000D01*
X156008700Y-92865800D02*
X156224600Y-93081700D01*
X155550000Y-99260000D02*
X154540000Y-99260000D01*
X156224600Y-93081700D02*
X156224600Y-96565400D01*
X156199200Y-96590800D02*
X156199200Y-98610800D01*
X142374999Y-91125001D02*
X144000001Y-91125001D01*
X139550000Y-96224987D02*
X139550000Y-94975004D01*
X140425002Y-94100002D02*
X140425002Y-93074998D01*
X139550000Y-94975004D02*
X140425002Y-94100002D01*
X140425002Y-93074998D02*
X142374999Y-91125001D01*
X135113600Y-96224987D02*
X139550000Y-96224987D01*
X134988587Y-96350000D02*
X135113600Y-96224987D01*
X141350000Y-92200000D02*
X141350000Y-92150000D01*
X141350000Y-92150000D02*
X142374999Y-91125001D01*
X134150000Y-96350000D02*
X134988587Y-96350000D01*
X91660000Y-81900000D02*
X91660000Y-79960000D01*
X90300000Y-78600000D02*
X90300000Y-77700000D01*
X91660000Y-79960000D02*
X90300000Y-78600000D01*
X92930000Y-81900000D02*
X92930000Y-79930000D01*
X92300000Y-79300000D02*
X92300000Y-77700000D01*
X92930000Y-79930000D02*
X92300000Y-79300000D01*
X97550000Y-104800000D02*
X101200000Y-104800000D01*
X103300000Y-106900000D02*
X109450000Y-106900000D01*
X101200000Y-104800000D02*
X103300000Y-106900000D01*
X128537200Y-85476940D02*
X128037200Y-85476940D01*
X128037200Y-85476940D02*
X126785259Y-84224999D01*
X126785259Y-84224999D02*
X124825001Y-84224999D01*
X124825001Y-84224999D02*
X124250000Y-84800000D01*
X124250000Y-84800000D02*
X124250000Y-85000000D01*
X128411600Y-86226620D02*
X128487520Y-86226620D01*
X128487520Y-86226620D02*
X128537200Y-86176940D01*
X128537200Y-86176940D02*
X128537200Y-85476940D01*
X128375001Y-90024999D02*
X128050000Y-90350000D01*
X128411600Y-86226620D02*
X128411600Y-90028620D01*
X128050000Y-90350000D02*
X128050000Y-91250000D01*
X110050000Y-84500000D02*
X122900000Y-84500000D01*
X122900000Y-84500000D02*
X123400000Y-85000000D01*
X108150000Y-81900000D02*
X108150000Y-82600000D01*
X108150000Y-82600000D02*
X110050000Y-84500000D01*
X104360000Y-81900000D02*
X105060000Y-81900000D01*
X105060000Y-81900000D02*
X108150000Y-81900000D01*
X123400000Y-85000000D02*
X124250000Y-85000000D01*
X129453000Y-84692740D02*
X129460000Y-84685740D01*
X129460000Y-84685740D02*
X129460000Y-83100000D01*
X130037200Y-85476940D02*
X130037200Y-85276940D01*
X130037200Y-85276940D02*
X129453000Y-84692740D01*
X109450000Y-80000000D02*
X109450000Y-81700000D01*
X109450000Y-81700000D02*
X109650000Y-81900000D01*
X123128400Y-87366700D02*
X123483300Y-87366700D01*
X123483300Y-87366700D02*
X124258000Y-86592000D01*
X125450000Y-93850000D02*
X122639400Y-93850000D01*
X122639400Y-93850000D02*
X121693300Y-92903900D01*
X136250000Y-88000000D02*
X136250000Y-88700000D01*
X136250000Y-88700000D02*
X136000000Y-88950000D01*
X136000000Y-91900000D02*
X136000000Y-88950000D01*
X134150000Y-92850000D02*
X135050000Y-92850000D01*
X135050000Y-92850000D02*
X136000000Y-91900000D01*
X129550000Y-91250000D02*
X129550000Y-90350000D01*
X129550000Y-90350000D02*
X129517109Y-90317109D01*
X129517109Y-89409563D02*
X129550011Y-89376661D01*
X129517109Y-90317109D02*
X129517109Y-89409563D01*
X126155083Y-89178162D02*
X123714572Y-89178162D01*
X108927798Y-87100000D02*
X108821950Y-87205848D01*
X109000000Y-87100000D02*
X108927798Y-87100000D01*
X121742258Y-87205848D02*
X109246214Y-87205848D01*
X109246214Y-87205848D02*
X108821950Y-87205848D01*
X123714572Y-89178162D02*
X121742258Y-87205848D01*
X89120000Y-81900000D02*
X89120000Y-84380000D01*
X89120000Y-84380000D02*
X89100000Y-84400000D01*
X118874990Y-100499254D02*
X118874990Y-100074990D01*
X118874990Y-101311401D02*
X118874990Y-100499254D01*
X120063611Y-102500022D02*
X118874990Y-101311401D01*
X127472800Y-102500022D02*
X120063611Y-102500022D01*
X128550000Y-99950000D02*
X128550000Y-101422822D01*
X128550000Y-101422822D02*
X127472800Y-102500022D01*
X118244171Y-96803805D02*
X118244171Y-97228069D01*
X118100000Y-90800000D02*
X118244171Y-90944171D01*
X111800000Y-90800000D02*
X118100000Y-90800000D01*
X118244171Y-90944171D02*
X118244171Y-96803805D01*
X109900000Y-88900000D02*
X111800000Y-90800000D01*
X90390000Y-81900000D02*
X90390000Y-84290000D01*
X90390000Y-84290000D02*
X90400000Y-84300000D01*
X120200000Y-100700000D02*
X121100000Y-101600000D01*
X121100000Y-101600000D02*
X127100000Y-101600000D01*
X127100000Y-101600000D02*
X127550000Y-101150000D01*
X127550000Y-101150000D02*
X127550000Y-99950000D01*
X115100000Y-96300000D02*
X115700000Y-96900000D01*
X115700000Y-96900000D02*
X117200000Y-96900000D01*
X115100000Y-93700000D02*
X115100000Y-96300000D01*
X114800000Y-93400000D02*
X115100000Y-93700000D01*
X111200000Y-93400000D02*
X114800000Y-93400000D01*
X109900000Y-92100000D02*
X111200000Y-93400000D01*
X101500000Y-87800000D02*
X101500000Y-88900000D01*
X101500000Y-88900000D02*
X102000000Y-89400000D01*
X100200000Y-86500000D02*
X101500000Y-87800000D01*
X97300000Y-86500000D02*
X100200000Y-86500000D01*
X94200000Y-81900000D02*
X94200000Y-83400000D01*
X94200000Y-83400000D02*
X97300000Y-86500000D01*
X119500000Y-99924264D02*
X119500000Y-99500000D01*
X119500000Y-101300000D02*
X119500000Y-99924264D01*
X120250011Y-102050011D02*
X119500000Y-101300000D01*
X128050000Y-101286411D02*
X127286400Y-102050011D01*
X128050000Y-99950000D02*
X128050000Y-101286411D01*
X127286400Y-102050011D02*
X120250011Y-102050011D01*
X97700000Y-85800000D02*
X96740000Y-84840000D01*
X96740000Y-84840000D02*
X96740000Y-81900000D01*
X100500000Y-85800000D02*
X97700000Y-85800000D01*
X102200000Y-87500000D02*
X100500000Y-85800000D01*
X102200000Y-88200000D02*
X102200000Y-87500000D01*
X115800000Y-92600000D02*
X111500000Y-92600000D01*
X111500000Y-92600000D02*
X109800000Y-90900000D01*
X116000000Y-92800000D02*
X115800000Y-92600000D01*
X116000000Y-96000000D02*
X116000000Y-92800000D01*
X117200000Y-96000000D02*
X116000000Y-96000000D01*
X125450000Y-94350000D02*
X123600000Y-94350000D01*
X123600000Y-94350000D02*
X123050000Y-94900000D01*
X121050000Y-94900000D02*
X123050000Y-94900000D01*
X108250000Y-96700000D02*
X114250000Y-96700000D01*
X101820000Y-99900000D02*
X101820000Y-99100000D01*
X101820000Y-99100000D02*
X103020000Y-97900000D01*
X103020000Y-97900000D02*
X106650000Y-97900000D01*
X123627761Y-96350000D02*
X123502751Y-96475010D01*
X125450000Y-96350000D02*
X123627761Y-96350000D01*
X100550000Y-102475010D02*
X100500000Y-102525010D01*
X100550000Y-99900000D02*
X100550000Y-102475010D01*
X115864000Y-104016400D02*
X102700000Y-104000000D01*
X120500000Y-95700000D02*
X120924264Y-95700000D01*
X120924264Y-95700000D02*
X121074264Y-95850000D01*
X121074264Y-95850000D02*
X124550000Y-95850000D01*
X124550000Y-95850000D02*
X125450000Y-95850000D01*
X118700000Y-97900000D02*
X119000000Y-97600000D01*
X119000000Y-97600000D02*
X119000000Y-96000000D01*
X109424264Y-97900000D02*
X118700000Y-97900000D01*
X105000000Y-101900000D02*
X105424264Y-101900000D01*
X105424264Y-101900000D02*
X109424264Y-97900000D01*
X99280000Y-99900000D02*
X99280000Y-101880000D01*
X99280000Y-101880000D02*
X99300000Y-101900000D01*
X130050000Y-89961687D02*
X130142110Y-89869577D01*
X130050000Y-91250000D02*
X130050000Y-89961687D01*
X120250000Y-89950000D02*
X120800000Y-89950000D01*
X120800000Y-89950000D02*
X120801609Y-89948391D01*
X112516118Y-89948391D02*
X120801609Y-89948391D01*
X120801609Y-89948391D02*
X126041414Y-89948391D01*
X126041414Y-89948391D02*
X126465678Y-89948391D01*
X110625518Y-88057791D02*
X112516118Y-89948391D01*
X98100000Y-84200000D02*
X98100000Y-81990000D01*
X98100000Y-81990000D02*
X98010000Y-81900000D01*
X148198200Y-94818200D02*
X148198200Y-94501390D01*
X152000000Y-98620000D02*
X148198200Y-94818200D01*
X142300000Y-93200000D02*
X146208300Y-93200000D01*
X146208300Y-93200000D02*
X146242400Y-93234100D01*
X141350000Y-94200000D02*
X142050000Y-93500000D01*
X142050000Y-93450000D02*
X142300000Y-93200000D01*
X142050000Y-93500000D02*
X142050000Y-93450000D01*
X140500000Y-96100000D02*
X139925001Y-96674999D01*
X142300000Y-93200000D02*
X142200000Y-93300000D01*
X142200000Y-93300000D02*
X142200000Y-93350000D01*
X142200000Y-93350000D02*
X140500000Y-95050000D01*
X140500000Y-95050000D02*
X140500000Y-96100000D01*
X139925001Y-96674999D02*
X137025001Y-96674999D01*
X137025001Y-96674999D02*
X136850000Y-96850000D01*
X136850000Y-96850000D02*
X134150000Y-96850000D01*
X132080000Y-101950000D02*
X132950000Y-101950000D01*
X132950000Y-101950000D02*
X132970000Y-101930000D01*
X132090000Y-96440000D02*
X132090000Y-97800000D01*
X132090000Y-97800000D02*
X132080000Y-97810000D01*
X132760000Y-94850000D02*
X132740000Y-94830000D01*
X134150000Y-94850000D02*
X132760000Y-94850000D01*
X130550000Y-90350000D02*
X130599989Y-90300011D01*
X130875001Y-87969163D02*
X130875001Y-87544899D01*
X130875001Y-90019989D02*
X130875001Y-87969163D01*
X130599989Y-90295000D02*
X130875001Y-90019989D01*
X130599989Y-90300011D02*
X130599989Y-90295000D01*
X130550000Y-91250000D02*
X130550000Y-90350000D01*
X134558400Y-80813500D02*
X134540000Y-80795100D01*
X134540000Y-80795100D02*
X134540000Y-78900000D01*
X133110600Y-80813500D02*
X134558400Y-80813500D01*
X131784999Y-82139101D02*
X133110600Y-80813500D01*
X131485000Y-85182300D02*
X131784999Y-84882301D01*
X131784999Y-84882301D02*
X131784999Y-82139101D01*
X130888100Y-87531800D02*
X130875001Y-87544899D01*
X119650000Y-80050000D02*
X119650000Y-79475000D01*
X119650000Y-79475000D02*
X122025000Y-77100000D01*
X122025000Y-77100000D02*
X134400000Y-77100000D01*
X134400000Y-77100000D02*
X134540000Y-77240000D01*
X134540000Y-77240000D02*
X134540000Y-78900000D01*
X136950000Y-79000000D02*
X134640000Y-79000000D01*
X134640000Y-79000000D02*
X134540000Y-78900000D01*
D40*
G36*
X169290000Y-111790000D02*
X80710000Y-111790000D01*
X80710000Y-109442619D01*
X81314613Y-109442619D01*
X81654155Y-110264372D01*
X82282321Y-110893636D01*
X83103481Y-111234611D01*
X83992619Y-111235387D01*
X84814372Y-110895845D01*
X85443636Y-110267679D01*
X85784611Y-109446519D01*
X85784751Y-109285750D01*
X87565000Y-109285750D01*
X87565000Y-109976309D01*
X87661673Y-110209698D01*
X87840301Y-110388327D01*
X88073690Y-110485000D01*
X88764250Y-110485000D01*
X88923000Y-110326250D01*
X88923000Y-109127000D01*
X87723750Y-109127000D01*
X87565000Y-109285750D01*
X85784751Y-109285750D01*
X85785387Y-108557381D01*
X85564871Y-108023691D01*
X87565000Y-108023691D01*
X87565000Y-108714250D01*
X87723750Y-108873000D01*
X88923000Y-108873000D01*
X88923000Y-107673750D01*
X88764250Y-107515000D01*
X88073690Y-107515000D01*
X87840301Y-107611673D01*
X87661673Y-107790302D01*
X87565000Y-108023691D01*
X85564871Y-108023691D01*
X85445845Y-107735628D01*
X84817679Y-107106364D01*
X83996519Y-106765389D01*
X83107381Y-106764613D01*
X82285628Y-107104155D01*
X81656364Y-107732321D01*
X81315389Y-108553481D01*
X81314613Y-109442619D01*
X80710000Y-109442619D01*
X80710000Y-105785750D01*
X86415000Y-105785750D01*
X86415000Y-106876310D01*
X86511673Y-107109699D01*
X86690302Y-107288327D01*
X86923691Y-107385000D01*
X87264250Y-107385000D01*
X87423000Y-107226250D01*
X87423000Y-105627000D01*
X87677000Y-105627000D01*
X87677000Y-107226250D01*
X87835750Y-107385000D01*
X88176309Y-107385000D01*
X88409698Y-107288327D01*
X88588327Y-107109699D01*
X88685000Y-106876310D01*
X88685000Y-105785750D01*
X88526250Y-105627000D01*
X87677000Y-105627000D01*
X87423000Y-105627000D01*
X86573750Y-105627000D01*
X86415000Y-105785750D01*
X80710000Y-105785750D01*
X80710000Y-104123690D01*
X86415000Y-104123690D01*
X86415000Y-105214250D01*
X86573750Y-105373000D01*
X87423000Y-105373000D01*
X87423000Y-105353000D01*
X87677000Y-105353000D01*
X87677000Y-105373000D01*
X88526250Y-105373000D01*
X88685000Y-105214250D01*
X88685000Y-104123690D01*
X88667338Y-104081050D01*
X89402560Y-104816271D01*
X89402560Y-106750000D01*
X89446838Y-106985317D01*
X89541269Y-107132067D01*
X89593785Y-107396077D01*
X89673246Y-107515000D01*
X89335750Y-107515000D01*
X89177000Y-107673750D01*
X89177000Y-108873000D01*
X89197000Y-108873000D01*
X89197000Y-109127000D01*
X89177000Y-109127000D01*
X89177000Y-110326250D01*
X89335750Y-110485000D01*
X90026310Y-110485000D01*
X90259699Y-110388327D01*
X90438327Y-110209698D01*
X90510597Y-110035223D01*
X90539946Y-110079147D01*
X91021715Y-110401054D01*
X91590000Y-110514093D01*
X92158285Y-110401054D01*
X92640054Y-110079147D01*
X92961961Y-109597378D01*
X92992744Y-109442619D01*
X164314613Y-109442619D01*
X164654155Y-110264372D01*
X165282321Y-110893636D01*
X166103481Y-111234611D01*
X166992619Y-111235387D01*
X167814372Y-110895845D01*
X168443636Y-110267679D01*
X168784611Y-109446519D01*
X168785387Y-108557381D01*
X168445845Y-107735628D01*
X167817679Y-107106364D01*
X166996519Y-106765389D01*
X166107381Y-106764613D01*
X165285628Y-107104155D01*
X164656364Y-107732321D01*
X164315389Y-108553481D01*
X164314613Y-109442619D01*
X92992744Y-109442619D01*
X93075000Y-109029093D01*
X93075000Y-108970907D01*
X92961961Y-108402622D01*
X92640054Y-107920853D01*
X92595361Y-107890990D01*
X92546215Y-107643923D01*
X92321856Y-107308144D01*
X92321853Y-107308142D01*
X92023711Y-107010000D01*
X92971614Y-107010000D01*
X93098110Y-107096431D01*
X93350000Y-107147440D01*
X94250000Y-107147440D01*
X94485317Y-107103162D01*
X94701441Y-106964090D01*
X94846431Y-106751890D01*
X94897440Y-106500000D01*
X94897440Y-106000000D01*
X94853162Y-105764683D01*
X94714090Y-105548559D01*
X94657657Y-105510000D01*
X95212721Y-105510000D01*
X95290000Y-105630095D01*
X95290000Y-105802069D01*
X95198559Y-105860910D01*
X95053569Y-106073110D01*
X95002560Y-106325000D01*
X95002560Y-107075000D01*
X95046838Y-107310317D01*
X95185910Y-107526441D01*
X95398110Y-107671431D01*
X95650000Y-107722440D01*
X96022638Y-107722440D01*
X96737599Y-108437401D01*
X96984160Y-108602148D01*
X97275000Y-108660000D01*
X115124264Y-108660000D01*
X115236523Y-108637670D01*
X115350335Y-108625597D01*
X115380935Y-108608945D01*
X115415103Y-108602148D01*
X115510269Y-108538561D01*
X115610800Y-108483851D01*
X115632698Y-108456756D01*
X115661665Y-108437401D01*
X115725252Y-108342237D01*
X115797195Y-108253219D01*
X117761531Y-104510883D01*
X117771394Y-104477469D01*
X117790748Y-104448503D01*
X117813077Y-104336248D01*
X117845478Y-104226476D01*
X117841803Y-104191834D01*
X117848600Y-104157664D01*
X117848600Y-103733400D01*
X117821027Y-103594780D01*
X117796038Y-103455675D01*
X116129279Y-99210000D01*
X118519993Y-99210000D01*
X118346047Y-99281873D01*
X118082798Y-99544663D01*
X117940152Y-99888191D01*
X117939828Y-100260157D01*
X118081873Y-100603933D01*
X118114990Y-100637108D01*
X118114990Y-101311401D01*
X118172842Y-101602240D01*
X118337589Y-101848802D01*
X119526210Y-103037423D01*
X119772772Y-103202170D01*
X120063611Y-103260022D01*
X127195767Y-103260022D01*
X127306883Y-103528943D01*
X127569673Y-103792192D01*
X127913201Y-103934838D01*
X127960077Y-103934879D01*
X129262599Y-105237401D01*
X129509161Y-105402148D01*
X129800000Y-105460000D01*
X140100000Y-105460000D01*
X140390839Y-105402148D01*
X140637401Y-105237401D01*
X141137401Y-104737401D01*
X141212560Y-104624917D01*
X141212560Y-107120000D01*
X141256838Y-107355317D01*
X141395910Y-107571441D01*
X141608110Y-107716431D01*
X141860000Y-107767440D01*
X143860000Y-107767440D01*
X144095317Y-107723162D01*
X144311441Y-107584090D01*
X144456431Y-107371890D01*
X144507440Y-107120000D01*
X144507440Y-106155750D01*
X145225000Y-106155750D01*
X145225000Y-107246310D01*
X145321673Y-107479699D01*
X145500302Y-107658327D01*
X145733691Y-107755000D01*
X146574250Y-107755000D01*
X146733000Y-107596250D01*
X146733000Y-105997000D01*
X146987000Y-105997000D01*
X146987000Y-107596250D01*
X147145750Y-107755000D01*
X147986309Y-107755000D01*
X148219698Y-107658327D01*
X148398327Y-107479699D01*
X148495000Y-107246310D01*
X148495000Y-106155750D01*
X148336250Y-105997000D01*
X146987000Y-105997000D01*
X146733000Y-105997000D01*
X145383750Y-105997000D01*
X145225000Y-106155750D01*
X144507440Y-106155750D01*
X144507440Y-104620000D01*
X144483674Y-104493690D01*
X145225000Y-104493690D01*
X145225000Y-105584250D01*
X145383750Y-105743000D01*
X146733000Y-105743000D01*
X146733000Y-104143750D01*
X146987000Y-104143750D01*
X146987000Y-105743000D01*
X148336250Y-105743000D01*
X148495000Y-105584250D01*
X148495000Y-104493690D01*
X148398327Y-104260301D01*
X148219698Y-104081673D01*
X147986309Y-103985000D01*
X147145750Y-103985000D01*
X146987000Y-104143750D01*
X146733000Y-104143750D01*
X146574250Y-103985000D01*
X145733691Y-103985000D01*
X145500302Y-104081673D01*
X145321673Y-104260301D01*
X145225000Y-104493690D01*
X144483674Y-104493690D01*
X144463162Y-104384683D01*
X144324090Y-104168559D01*
X144111890Y-104023569D01*
X144010000Y-104002936D01*
X144010000Y-103907777D01*
X156671828Y-103907777D01*
X156803520Y-104202657D01*
X157511036Y-104474261D01*
X158268632Y-104454436D01*
X158876480Y-104202657D01*
X159008172Y-103907777D01*
X157840000Y-102739605D01*
X156671828Y-103907777D01*
X144010000Y-103907777D01*
X144010000Y-103421486D01*
X144223691Y-103510000D01*
X144464250Y-103510000D01*
X144623000Y-103351250D01*
X144623000Y-102627000D01*
X144877000Y-102627000D01*
X144877000Y-103351250D01*
X145035750Y-103510000D01*
X145276309Y-103510000D01*
X145509698Y-103413327D01*
X145688327Y-103234699D01*
X145785000Y-103001310D01*
X145785000Y-102785750D01*
X145626250Y-102627000D01*
X144877000Y-102627000D01*
X144623000Y-102627000D01*
X144603000Y-102627000D01*
X144603000Y-102373000D01*
X144623000Y-102373000D01*
X144623000Y-101227000D01*
X144877000Y-101227000D01*
X144877000Y-102373000D01*
X145626250Y-102373000D01*
X145768214Y-102231036D01*
X155925739Y-102231036D01*
X155945564Y-102988632D01*
X156197343Y-103596480D01*
X156492223Y-103728172D01*
X157660395Y-102560000D01*
X156492223Y-101391828D01*
X156197343Y-101523520D01*
X155925739Y-102231036D01*
X145768214Y-102231036D01*
X145785000Y-102214250D01*
X145785000Y-101998690D01*
X145702700Y-101800000D01*
X145785000Y-101601310D01*
X145785000Y-101385750D01*
X145626250Y-101227000D01*
X144877000Y-101227000D01*
X144623000Y-101227000D01*
X144603000Y-101227000D01*
X144603000Y-101212223D01*
X156671828Y-101212223D01*
X157840000Y-102380395D01*
X157854143Y-102366253D01*
X158033748Y-102545858D01*
X158019605Y-102560000D01*
X159187777Y-103728172D01*
X159482657Y-103596480D01*
X159754261Y-102888964D01*
X159752710Y-102829683D01*
X160378551Y-103089554D01*
X161396981Y-103090443D01*
X162338229Y-102701528D01*
X163058997Y-101982017D01*
X163449554Y-101041449D01*
X163450443Y-100023019D01*
X163061528Y-99081771D01*
X162342017Y-98361003D01*
X161401449Y-97970446D01*
X160383019Y-97969557D01*
X159441771Y-98358472D01*
X158721003Y-99077983D01*
X158330446Y-100018551D01*
X158329845Y-100707498D01*
X158168964Y-100645739D01*
X157411368Y-100665564D01*
X156803520Y-100917343D01*
X156671828Y-101212223D01*
X144603000Y-101212223D01*
X144603000Y-100973000D01*
X144623000Y-100973000D01*
X144623000Y-100248750D01*
X144877000Y-100248750D01*
X144877000Y-100973000D01*
X145626250Y-100973000D01*
X145785000Y-100814250D01*
X145785000Y-100598690D01*
X145688327Y-100365301D01*
X145509698Y-100186673D01*
X145276309Y-100090000D01*
X145035750Y-100090000D01*
X144877000Y-100248750D01*
X144623000Y-100248750D01*
X144464250Y-100090000D01*
X144223691Y-100090000D01*
X144010000Y-100178514D01*
X144010000Y-99324901D01*
X144328943Y-99193117D01*
X144592192Y-98930327D01*
X144734838Y-98586799D01*
X144735162Y-98214833D01*
X144671186Y-98060000D01*
X145694400Y-98060000D01*
X145985239Y-98002148D01*
X146231801Y-97837401D01*
X147033801Y-97035401D01*
X147198548Y-96788840D01*
X147256400Y-96498000D01*
X147256400Y-94666502D01*
X147263061Y-94659841D01*
X147263038Y-94686557D01*
X147405083Y-95030333D01*
X147521154Y-95146606D01*
X147660799Y-95355601D01*
X150617347Y-98312149D01*
X150605242Y-98341300D01*
X150604758Y-98896265D01*
X150816687Y-99409172D01*
X151208764Y-99801934D01*
X151721300Y-100014758D01*
X152276265Y-100015242D01*
X152789172Y-99803313D01*
X153132560Y-99460524D01*
X153132560Y-100020000D01*
X153176838Y-100255317D01*
X153315910Y-100471441D01*
X153528110Y-100616431D01*
X153780000Y-100667440D01*
X155300000Y-100667440D01*
X155535317Y-100623162D01*
X155751441Y-100484090D01*
X155896431Y-100271890D01*
X155947440Y-100020000D01*
X155947440Y-99890920D01*
X156087401Y-99797401D01*
X156736601Y-99148201D01*
X156901348Y-98901640D01*
X156921565Y-98800000D01*
X156959200Y-98610800D01*
X156959200Y-96693093D01*
X156984600Y-96565400D01*
X156984600Y-93081700D01*
X156926748Y-92790861D01*
X156762001Y-92544299D01*
X156546101Y-92328399D01*
X156299539Y-92163652D01*
X156008700Y-92105800D01*
X155857067Y-92105800D01*
X155934758Y-91918700D01*
X155935242Y-91363735D01*
X155723313Y-90850828D01*
X155331236Y-90458066D01*
X154818700Y-90245242D01*
X154263735Y-90244758D01*
X153750828Y-90456687D01*
X153387684Y-90819198D01*
X153379341Y-90652951D01*
X153220742Y-90270059D01*
X152978764Y-90200841D01*
X152179605Y-91000000D01*
X152193748Y-91014143D01*
X152014143Y-91193748D01*
X152000000Y-91179605D01*
X151985858Y-91193748D01*
X151806253Y-91014143D01*
X151820395Y-91000000D01*
X151021236Y-90200841D01*
X150779258Y-90270059D01*
X150592845Y-90792780D01*
X150620659Y-91347049D01*
X150687700Y-91508900D01*
X145458702Y-91508900D01*
X144634840Y-90685038D01*
X144635162Y-90314833D01*
X144523000Y-90043380D01*
X144523000Y-89527000D01*
X144777000Y-89527000D01*
X144777000Y-90251250D01*
X144935750Y-90410000D01*
X145176309Y-90410000D01*
X145409698Y-90313327D01*
X145588327Y-90134699D01*
X145635324Y-90021236D01*
X151200841Y-90021236D01*
X152000000Y-90820395D01*
X152799159Y-90021236D01*
X152729941Y-89779258D01*
X152207220Y-89592845D01*
X151652951Y-89620659D01*
X151270059Y-89779258D01*
X151200841Y-90021236D01*
X145635324Y-90021236D01*
X145685000Y-89901310D01*
X145685000Y-89685750D01*
X145526250Y-89527000D01*
X144777000Y-89527000D01*
X144523000Y-89527000D01*
X144503000Y-89527000D01*
X144503000Y-89273000D01*
X144523000Y-89273000D01*
X144523000Y-88127000D01*
X144777000Y-88127000D01*
X144777000Y-89273000D01*
X145526250Y-89273000D01*
X145685000Y-89114250D01*
X145685000Y-88898690D01*
X145602700Y-88700000D01*
X145685000Y-88501310D01*
X145685000Y-88407777D01*
X156671828Y-88407777D01*
X156803520Y-88702657D01*
X157511036Y-88974261D01*
X158268632Y-88954436D01*
X158330140Y-88928958D01*
X158329557Y-89596981D01*
X158718472Y-90538229D01*
X159437983Y-91258997D01*
X160378551Y-91649554D01*
X161396981Y-91650443D01*
X162338229Y-91261528D01*
X163058997Y-90542017D01*
X163449554Y-89601449D01*
X163450443Y-88583019D01*
X163061528Y-87641771D01*
X162342017Y-86921003D01*
X161401449Y-86530446D01*
X160383019Y-86529557D01*
X159738738Y-86795768D01*
X159734436Y-86631368D01*
X159482657Y-86023520D01*
X159187777Y-85891828D01*
X158019605Y-87060000D01*
X158033748Y-87074143D01*
X157854143Y-87253748D01*
X157840000Y-87239605D01*
X156671828Y-88407777D01*
X145685000Y-88407777D01*
X145685000Y-88285750D01*
X145526250Y-88127000D01*
X144777000Y-88127000D01*
X144523000Y-88127000D01*
X144503000Y-88127000D01*
X144503000Y-87873000D01*
X144523000Y-87873000D01*
X144523000Y-87148750D01*
X144777000Y-87148750D01*
X144777000Y-87873000D01*
X145526250Y-87873000D01*
X145685000Y-87714250D01*
X145685000Y-87498690D01*
X145588327Y-87265301D01*
X145409698Y-87086673D01*
X145176309Y-86990000D01*
X144935750Y-86990000D01*
X144777000Y-87148750D01*
X144523000Y-87148750D01*
X144487026Y-87112776D01*
X144839802Y-86760000D01*
X147100000Y-86760000D01*
X147245610Y-86731036D01*
X155925739Y-86731036D01*
X155945564Y-87488632D01*
X156197343Y-88096480D01*
X156492223Y-88228172D01*
X157660395Y-87060000D01*
X156492223Y-85891828D01*
X156197343Y-86023520D01*
X155925739Y-86731036D01*
X147245610Y-86731036D01*
X147390839Y-86702148D01*
X147637401Y-86537401D01*
X148287401Y-85887401D01*
X148404450Y-85712223D01*
X156671828Y-85712223D01*
X157840000Y-86880395D01*
X159008172Y-85712223D01*
X158876480Y-85417343D01*
X158168964Y-85145739D01*
X157411368Y-85165564D01*
X156803520Y-85417343D01*
X156671828Y-85712223D01*
X148404450Y-85712223D01*
X148452148Y-85640839D01*
X148510000Y-85350000D01*
X148510000Y-84828386D01*
X148596431Y-84701890D01*
X148647440Y-84450000D01*
X148647440Y-83550000D01*
X148603162Y-83314683D01*
X148510000Y-83169905D01*
X148510000Y-82828386D01*
X148596431Y-82701890D01*
X148647440Y-82450000D01*
X148647440Y-81550000D01*
X148603162Y-81314683D01*
X148464090Y-81098559D01*
X148251890Y-80953569D01*
X148000000Y-80902560D01*
X147500000Y-80902560D01*
X147264683Y-80946838D01*
X147048559Y-81085910D01*
X147000866Y-81155711D01*
X146964090Y-81098559D01*
X146751890Y-80953569D01*
X146500000Y-80902560D01*
X146000000Y-80902560D01*
X145764683Y-80946838D01*
X145548559Y-81085910D01*
X145443274Y-81240000D01*
X144672931Y-81240000D01*
X144614090Y-81148559D01*
X144401890Y-81003569D01*
X144150000Y-80952560D01*
X143550000Y-80952560D01*
X143314683Y-80996838D01*
X143098559Y-81135910D01*
X142999367Y-81281083D01*
X142914090Y-81148559D01*
X142701890Y-81003569D01*
X142450000Y-80952560D01*
X141850000Y-80952560D01*
X141614683Y-80996838D01*
X141398559Y-81135910D01*
X141327437Y-81240000D01*
X140700000Y-81240000D01*
X140409161Y-81297852D01*
X140162599Y-81462599D01*
X139022440Y-82602758D01*
X139022440Y-82350000D01*
X138978162Y-82114683D01*
X138911671Y-82011354D01*
X138913327Y-82009698D01*
X139010000Y-81776309D01*
X139010000Y-81535750D01*
X138851250Y-81377000D01*
X138127000Y-81377000D01*
X138127000Y-81397000D01*
X137873000Y-81397000D01*
X137873000Y-81377000D01*
X137853000Y-81377000D01*
X137853000Y-81123000D01*
X137873000Y-81123000D01*
X137873000Y-81103000D01*
X138127000Y-81103000D01*
X138127000Y-81123000D01*
X138851250Y-81123000D01*
X139010000Y-80964250D01*
X139010000Y-80723691D01*
X138913327Y-80490302D01*
X138821231Y-80398205D01*
X138837401Y-80387401D01*
X138987401Y-80237401D01*
X139152148Y-79990839D01*
X139173974Y-79881111D01*
X139296431Y-79701890D01*
X139347440Y-79450000D01*
X139347440Y-78550000D01*
X139303162Y-78314683D01*
X139164090Y-78098559D01*
X138951890Y-77953569D01*
X138700000Y-77902560D01*
X138200000Y-77902560D01*
X137964683Y-77946838D01*
X137748559Y-78085910D01*
X137700866Y-78155711D01*
X137664090Y-78098559D01*
X137451890Y-77953569D01*
X137200000Y-77902560D01*
X136700000Y-77902560D01*
X136464683Y-77946838D01*
X136248559Y-78085910D01*
X136143274Y-78240000D01*
X136087440Y-78240000D01*
X136087440Y-77900000D01*
X136043162Y-77664683D01*
X135904090Y-77448559D01*
X135691890Y-77303569D01*
X135440000Y-77252560D01*
X135300000Y-77252560D01*
X135300000Y-77240000D01*
X135242148Y-76949161D01*
X135077401Y-76702599D01*
X134937401Y-76562599D01*
X134757838Y-76442619D01*
X164314613Y-76442619D01*
X164654155Y-77264372D01*
X165282321Y-77893636D01*
X166103481Y-78234611D01*
X166992619Y-78235387D01*
X167814372Y-77895845D01*
X168443636Y-77267679D01*
X168784611Y-76446519D01*
X168785387Y-75557381D01*
X168445845Y-74735628D01*
X167817679Y-74106364D01*
X166996519Y-73765389D01*
X166107381Y-73764613D01*
X165285628Y-74104155D01*
X164656364Y-74732321D01*
X164315389Y-75553481D01*
X164314613Y-76442619D01*
X134757838Y-76442619D01*
X134690839Y-76397852D01*
X134400000Y-76340000D01*
X122025000Y-76340000D01*
X121734160Y-76397852D01*
X121487599Y-76562599D01*
X121061262Y-76988936D01*
X120950327Y-76877808D01*
X120606799Y-76735162D01*
X120234833Y-76734838D01*
X120082331Y-76797851D01*
X119954090Y-76598559D01*
X119741890Y-76453569D01*
X119490000Y-76402560D01*
X118590000Y-76402560D01*
X118354683Y-76446838D01*
X118138559Y-76585910D01*
X117993569Y-76798110D01*
X117942560Y-77050000D01*
X117942560Y-78250000D01*
X117986838Y-78485317D01*
X118125910Y-78701441D01*
X118338110Y-78846431D01*
X118590000Y-78897440D01*
X119152758Y-78897440D01*
X119112599Y-78937599D01*
X119019080Y-79077560D01*
X118870000Y-79077560D01*
X118634683Y-79121838D01*
X118418559Y-79260910D01*
X118273569Y-79473110D01*
X118222560Y-79725000D01*
X118222560Y-80187265D01*
X118026890Y-80053569D01*
X117775000Y-80002560D01*
X117025000Y-80002560D01*
X116789683Y-80046838D01*
X116573559Y-80185910D01*
X116510000Y-80278932D01*
X116510000Y-78798670D01*
X116641441Y-78714090D01*
X116786431Y-78501890D01*
X116837440Y-78250000D01*
X116837440Y-77050000D01*
X116793162Y-76814683D01*
X116654090Y-76598559D01*
X116441890Y-76453569D01*
X116190000Y-76402560D01*
X115290000Y-76402560D01*
X115217860Y-76416134D01*
X115376441Y-76314090D01*
X115521431Y-76101890D01*
X115572440Y-75850000D01*
X115572440Y-74950000D01*
X115528162Y-74714683D01*
X115389090Y-74498559D01*
X115176890Y-74353569D01*
X114925000Y-74302560D01*
X113375000Y-74302560D01*
X113139683Y-74346838D01*
X112923559Y-74485910D01*
X112778569Y-74698110D01*
X112727560Y-74950000D01*
X112727560Y-75850000D01*
X112771838Y-76085317D01*
X112910910Y-76301441D01*
X113123110Y-76446431D01*
X113375000Y-76497440D01*
X114925000Y-76497440D01*
X114997140Y-76483866D01*
X114838559Y-76585910D01*
X114693569Y-76798110D01*
X114642560Y-77050000D01*
X114642560Y-78250000D01*
X114686838Y-78485317D01*
X114825910Y-78701441D01*
X114990000Y-78813559D01*
X114990000Y-78915723D01*
X114925000Y-78902560D01*
X113375000Y-78902560D01*
X113139683Y-78946838D01*
X112923559Y-79085910D01*
X112778569Y-79298110D01*
X112727560Y-79550000D01*
X112727560Y-80450000D01*
X112771838Y-80685317D01*
X112910910Y-80901441D01*
X113123110Y-81046431D01*
X113375000Y-81097440D01*
X114314325Y-81097440D01*
X114280000Y-81270000D01*
X114280000Y-82717537D01*
X114247808Y-82749673D01*
X114105162Y-83093201D01*
X114104838Y-83465167D01*
X114218396Y-83740000D01*
X110364802Y-83740000D01*
X109622242Y-82997440D01*
X109900000Y-82997440D01*
X110135317Y-82953162D01*
X110351441Y-82814090D01*
X110496431Y-82601890D01*
X110547440Y-82350000D01*
X110547440Y-81450000D01*
X110503162Y-81214683D01*
X110405824Y-81063416D01*
X110460317Y-81053162D01*
X110676441Y-80914090D01*
X110821431Y-80701890D01*
X110872440Y-80450000D01*
X110872440Y-79550000D01*
X110828162Y-79314683D01*
X110689090Y-79098559D01*
X110476890Y-78953569D01*
X110225000Y-78902560D01*
X108675000Y-78902560D01*
X108439683Y-78946838D01*
X108223559Y-79085910D01*
X108078569Y-79298110D01*
X108027560Y-79550000D01*
X108027560Y-80450000D01*
X108071838Y-80685317D01*
X108147282Y-80802560D01*
X107900000Y-80802560D01*
X107664683Y-80846838D01*
X107448559Y-80985910D01*
X107343274Y-81140000D01*
X105445000Y-81140000D01*
X105445000Y-81063071D01*
X105362409Y-80647859D01*
X105127211Y-80295860D01*
X104775212Y-80060662D01*
X104360000Y-79978071D01*
X103944788Y-80060662D01*
X103725000Y-80207520D01*
X103505212Y-80060662D01*
X103090000Y-79978071D01*
X102674788Y-80060662D01*
X102455000Y-80207520D01*
X102235212Y-80060662D01*
X101820000Y-79978071D01*
X101404788Y-80060662D01*
X101185000Y-80207520D01*
X100965212Y-80060662D01*
X100550000Y-79978071D01*
X100134788Y-80060662D01*
X99915000Y-80207520D01*
X99695212Y-80060662D01*
X99280000Y-79978071D01*
X98864788Y-80060662D01*
X98645000Y-80207520D01*
X98425212Y-80060662D01*
X98010000Y-79978071D01*
X97594788Y-80060662D01*
X97375000Y-80207520D01*
X97155212Y-80060662D01*
X96740000Y-79978071D01*
X96324788Y-80060662D01*
X96105000Y-80207520D01*
X95885212Y-80060662D01*
X95470000Y-79978071D01*
X95054788Y-80060662D01*
X94835000Y-80207520D01*
X94615212Y-80060662D01*
X94200000Y-79978071D01*
X93784788Y-80060662D01*
X93690000Y-80123997D01*
X93690000Y-79930000D01*
X93632148Y-79639161D01*
X93467401Y-79392599D01*
X93060000Y-78985198D01*
X93060000Y-78763099D01*
X93226310Y-78651974D01*
X93510282Y-78226979D01*
X93610000Y-77725664D01*
X93610000Y-77674336D01*
X93510282Y-77173021D01*
X93226310Y-76748026D01*
X92801315Y-76464054D01*
X92300000Y-76364336D01*
X91798685Y-76464054D01*
X91373690Y-76748026D01*
X91300000Y-76858311D01*
X91226310Y-76748026D01*
X90801315Y-76464054D01*
X90300000Y-76364336D01*
X89798685Y-76464054D01*
X89506986Y-76658961D01*
X89334699Y-76486673D01*
X89101310Y-76390000D01*
X88585750Y-76390000D01*
X88427000Y-76548750D01*
X88427000Y-77573000D01*
X88447000Y-77573000D01*
X88447000Y-77827000D01*
X88427000Y-77827000D01*
X88427000Y-78851250D01*
X88585750Y-79010000D01*
X89101310Y-79010000D01*
X89334699Y-78913327D01*
X89506986Y-78741039D01*
X89577416Y-78788099D01*
X89597852Y-78890839D01*
X89762599Y-79137401D01*
X90656224Y-80031026D01*
X90390000Y-79978071D01*
X89974788Y-80060662D01*
X89755000Y-80207520D01*
X89535212Y-80060662D01*
X89120000Y-79978071D01*
X88704788Y-80060662D01*
X88472259Y-80216032D01*
X88144001Y-80055592D01*
X87977000Y-80182498D01*
X87977000Y-81773000D01*
X87997000Y-81773000D01*
X87997000Y-82027000D01*
X87977000Y-82027000D01*
X87977000Y-83617502D01*
X88144001Y-83744408D01*
X88360000Y-83638836D01*
X88360000Y-83817572D01*
X88307808Y-83869673D01*
X88165162Y-84213201D01*
X88164838Y-84585167D01*
X88306883Y-84928943D01*
X88569673Y-85192192D01*
X88913201Y-85334838D01*
X89285167Y-85335162D01*
X89628943Y-85193117D01*
X89799980Y-85022378D01*
X89869673Y-85092192D01*
X90213201Y-85234838D01*
X90585167Y-85235162D01*
X90928943Y-85093117D01*
X91192192Y-84830327D01*
X91334838Y-84486799D01*
X91335162Y-84114833D01*
X91193117Y-83771057D01*
X91150000Y-83727865D01*
X91150000Y-83676003D01*
X91244788Y-83739338D01*
X91660000Y-83821929D01*
X92075212Y-83739338D01*
X92295000Y-83592480D01*
X92514788Y-83739338D01*
X92930000Y-83821929D01*
X93345212Y-83739338D01*
X93488460Y-83643623D01*
X93497852Y-83690839D01*
X93662599Y-83937401D01*
X96762599Y-87037401D01*
X97009161Y-87202148D01*
X97300000Y-87260000D01*
X99885198Y-87260000D01*
X100740000Y-88114802D01*
X100740000Y-88900000D01*
X100797852Y-89190839D01*
X100962599Y-89437401D01*
X101064878Y-89539680D01*
X101064838Y-89585167D01*
X101206883Y-89928943D01*
X101469673Y-90192192D01*
X101813201Y-90334838D01*
X102185167Y-90335162D01*
X102528943Y-90193117D01*
X102792192Y-89930327D01*
X102934838Y-89586799D01*
X102935162Y-89214833D01*
X102810083Y-88912118D01*
X102992192Y-88730327D01*
X103134838Y-88386799D01*
X103135162Y-88014833D01*
X102993117Y-87671057D01*
X102960000Y-87637882D01*
X102960000Y-87500000D01*
X102902148Y-87209161D01*
X102737401Y-86962599D01*
X101037401Y-85262599D01*
X100790839Y-85097852D01*
X100500000Y-85040000D01*
X98515477Y-85040000D01*
X98628943Y-84993117D01*
X98892192Y-84730327D01*
X99034838Y-84386799D01*
X99035162Y-84014833D01*
X98926393Y-83751592D01*
X99280000Y-83821929D01*
X99695212Y-83739338D01*
X99915000Y-83592480D01*
X100134788Y-83739338D01*
X100550000Y-83821929D01*
X100965212Y-83739338D01*
X101185000Y-83592480D01*
X101404788Y-83739338D01*
X101820000Y-83821929D01*
X102235212Y-83739338D01*
X102455000Y-83592480D01*
X102674788Y-83739338D01*
X103090000Y-83821929D01*
X103505212Y-83739338D01*
X103725000Y-83592480D01*
X103944788Y-83739338D01*
X104360000Y-83821929D01*
X104775212Y-83739338D01*
X105127211Y-83504140D01*
X105362409Y-83152141D01*
X105445000Y-82736929D01*
X105445000Y-82660000D01*
X107344895Y-82660000D01*
X107427456Y-82788303D01*
X107447852Y-82890839D01*
X107612599Y-83137401D01*
X109512599Y-85037401D01*
X109759161Y-85202148D01*
X110050000Y-85260000D01*
X122585198Y-85260000D01*
X122862599Y-85537401D01*
X123109161Y-85702148D01*
X123400000Y-85760000D01*
X123444895Y-85760000D01*
X123471849Y-85801887D01*
X123411569Y-85890110D01*
X123360560Y-86142000D01*
X123360560Y-86414638D01*
X123335080Y-86440118D01*
X123315199Y-86431862D01*
X122943233Y-86431538D01*
X122599457Y-86573583D01*
X122391945Y-86780733D01*
X122279659Y-86668447D01*
X122033097Y-86503700D01*
X121742258Y-86445848D01*
X109384413Y-86445848D01*
X109352277Y-86413656D01*
X109008749Y-86271010D01*
X108636783Y-86270686D01*
X108293007Y-86412731D01*
X108029758Y-86675521D01*
X107887112Y-87019049D01*
X107886788Y-87391015D01*
X108028833Y-87734791D01*
X108291623Y-87998040D01*
X108635151Y-88140686D01*
X109007117Y-88141010D01*
X109350893Y-87998965D01*
X109384068Y-87965848D01*
X109690597Y-87965848D01*
X109690590Y-87974855D01*
X109371057Y-88106883D01*
X109107808Y-88369673D01*
X108965162Y-88713201D01*
X108964838Y-89085167D01*
X109106883Y-89428943D01*
X109369673Y-89692192D01*
X109713201Y-89834838D01*
X109760077Y-89834879D01*
X109890276Y-89965078D01*
X109614833Y-89964838D01*
X109271057Y-90106883D01*
X109007808Y-90369673D01*
X108865162Y-90713201D01*
X108864838Y-91085167D01*
X109006883Y-91428943D01*
X109127622Y-91549893D01*
X109107808Y-91569673D01*
X108965162Y-91913201D01*
X108964838Y-92285167D01*
X109106883Y-92628943D01*
X109369673Y-92892192D01*
X109713201Y-93034838D01*
X109760077Y-93034879D01*
X110662599Y-93937401D01*
X110909161Y-94102148D01*
X111200000Y-94160000D01*
X114340000Y-94160000D01*
X114340000Y-95765078D01*
X114064833Y-95764838D01*
X113721057Y-95906883D01*
X113687882Y-95940000D01*
X108812463Y-95940000D01*
X108780327Y-95907808D01*
X108436799Y-95765162D01*
X108064833Y-95764838D01*
X107721057Y-95906883D01*
X107567114Y-96060558D01*
X107533968Y-95992741D01*
X107689338Y-95760212D01*
X107771929Y-95345000D01*
X107689338Y-94929788D01*
X107542480Y-94710000D01*
X107689338Y-94490212D01*
X107771929Y-94075000D01*
X107689338Y-93659788D01*
X107542480Y-93440000D01*
X107689338Y-93220212D01*
X107771929Y-92805000D01*
X107689338Y-92389788D01*
X107542480Y-92170000D01*
X107689338Y-91950212D01*
X107771929Y-91535000D01*
X107689338Y-91119788D01*
X107542480Y-90900000D01*
X107689338Y-90680212D01*
X107771929Y-90265000D01*
X107689338Y-89849788D01*
X107542480Y-89630000D01*
X107689338Y-89410212D01*
X107771929Y-88995000D01*
X107689338Y-88579788D01*
X107542480Y-88360000D01*
X107689338Y-88140212D01*
X107771929Y-87725000D01*
X107689338Y-87309788D01*
X107542480Y-87090000D01*
X107689338Y-86870212D01*
X107771929Y-86455000D01*
X107689338Y-86039788D01*
X107542480Y-85820000D01*
X107689338Y-85600212D01*
X107771929Y-85185000D01*
X107689338Y-84769788D01*
X107454140Y-84417789D01*
X107102141Y-84182591D01*
X106686929Y-84100000D01*
X105013071Y-84100000D01*
X104597859Y-84182591D01*
X104245860Y-84417789D01*
X104010662Y-84769788D01*
X103928071Y-85185000D01*
X104010662Y-85600212D01*
X104157520Y-85820000D01*
X104010662Y-86039788D01*
X103928071Y-86455000D01*
X104010662Y-86870212D01*
X104157520Y-87090000D01*
X104010662Y-87309788D01*
X103928071Y-87725000D01*
X104010662Y-88140212D01*
X104157520Y-88360000D01*
X104010662Y-88579788D01*
X103928071Y-88995000D01*
X104010662Y-89410212D01*
X104157520Y-89630000D01*
X104010662Y-89849788D01*
X103928071Y-90265000D01*
X104010662Y-90680212D01*
X104157520Y-90900000D01*
X104010662Y-91119788D01*
X103928071Y-91535000D01*
X104010662Y-91950212D01*
X104157520Y-92170000D01*
X104010662Y-92389788D01*
X103928071Y-92805000D01*
X104010662Y-93220212D01*
X104157520Y-93440000D01*
X104010662Y-93659788D01*
X103928071Y-94075000D01*
X104010662Y-94490212D01*
X104157520Y-94710000D01*
X104010662Y-94929788D01*
X103928071Y-95345000D01*
X104010662Y-95760212D01*
X104166032Y-95992741D01*
X104005592Y-96320999D01*
X104132498Y-96488000D01*
X105723000Y-96488000D01*
X105723000Y-96468000D01*
X105977000Y-96468000D01*
X105977000Y-96488000D01*
X105997000Y-96488000D01*
X105997000Y-96742000D01*
X105977000Y-96742000D01*
X105977000Y-96762000D01*
X105723000Y-96762000D01*
X105723000Y-96742000D01*
X104132498Y-96742000D01*
X104005592Y-96909001D01*
X104118496Y-97140000D01*
X103020000Y-97140000D01*
X102729160Y-97197852D01*
X102482599Y-97362599D01*
X101859308Y-97985890D01*
X101820000Y-97978071D01*
X101404788Y-98060662D01*
X101185000Y-98207520D01*
X100965212Y-98060662D01*
X100550000Y-97978071D01*
X100134788Y-98060662D01*
X99915000Y-98207520D01*
X99695212Y-98060662D01*
X99280000Y-97978071D01*
X98864788Y-98060662D01*
X98645000Y-98207520D01*
X98425212Y-98060662D01*
X98010000Y-97978071D01*
X97594788Y-98060662D01*
X97375000Y-98207520D01*
X97155212Y-98060662D01*
X96740000Y-97978071D01*
X96324788Y-98060662D01*
X96105000Y-98207520D01*
X95885212Y-98060662D01*
X95470000Y-97978071D01*
X95054788Y-98060662D01*
X94835000Y-98207520D01*
X94615212Y-98060662D01*
X94200000Y-97978071D01*
X93784788Y-98060662D01*
X93565000Y-98207520D01*
X93345212Y-98060662D01*
X92930000Y-97978071D01*
X92514788Y-98060662D01*
X92295000Y-98207520D01*
X92075212Y-98060662D01*
X91660000Y-97978071D01*
X91244788Y-98060662D01*
X91025000Y-98207520D01*
X90805212Y-98060662D01*
X90390000Y-97978071D01*
X89974788Y-98060662D01*
X89755000Y-98207520D01*
X89535212Y-98060662D01*
X89120000Y-97978071D01*
X88704788Y-98060662D01*
X88472259Y-98216032D01*
X88144001Y-98055592D01*
X87977000Y-98182498D01*
X87977000Y-99773000D01*
X87997000Y-99773000D01*
X87997000Y-100027000D01*
X87977000Y-100027000D01*
X87977000Y-101617502D01*
X88085000Y-101699572D01*
X88085000Y-101890750D01*
X87927000Y-102048750D01*
X87927000Y-102773000D01*
X87947000Y-102773000D01*
X87947000Y-103027000D01*
X87927000Y-103027000D01*
X87927000Y-103047000D01*
X87673000Y-103047000D01*
X87673000Y-103027000D01*
X86923750Y-103027000D01*
X86765000Y-103185750D01*
X86765000Y-103401310D01*
X86861673Y-103634699D01*
X86865908Y-103638934D01*
X86690302Y-103711673D01*
X86511673Y-103890301D01*
X86415000Y-104123690D01*
X80710000Y-104123690D01*
X80710000Y-102398690D01*
X86765000Y-102398690D01*
X86765000Y-102614250D01*
X86923750Y-102773000D01*
X87673000Y-102773000D01*
X87673000Y-102048750D01*
X87514250Y-101890000D01*
X87273691Y-101890000D01*
X87040302Y-101986673D01*
X86861673Y-102165301D01*
X86765000Y-102398690D01*
X80710000Y-102398690D01*
X80710000Y-100227000D01*
X86500000Y-100227000D01*
X86546159Y-100218315D01*
X86588553Y-100191035D01*
X86616994Y-100149410D01*
X86627000Y-100100000D01*
X86627000Y-100027000D01*
X86765000Y-100027000D01*
X86765000Y-100827000D01*
X86896192Y-101232544D01*
X87172592Y-101557013D01*
X87555999Y-101744408D01*
X87723000Y-101617502D01*
X87723000Y-100027000D01*
X86765000Y-100027000D01*
X86627000Y-100027000D01*
X86627000Y-98973000D01*
X86765000Y-98973000D01*
X86765000Y-99773000D01*
X87723000Y-99773000D01*
X87723000Y-98182498D01*
X87555999Y-98055592D01*
X87172592Y-98242987D01*
X86896192Y-98567456D01*
X86765000Y-98973000D01*
X86627000Y-98973000D01*
X86627000Y-92848528D01*
X94125077Y-92848528D01*
X94315364Y-93193271D01*
X95196591Y-93544956D01*
X96145323Y-93532641D01*
X96964636Y-93193271D01*
X97154923Y-92848528D01*
X95640000Y-91333605D01*
X94125077Y-92848528D01*
X86627000Y-92848528D01*
X86627000Y-90710591D01*
X93249044Y-90710591D01*
X93261359Y-91659323D01*
X93600729Y-92478636D01*
X93945472Y-92668923D01*
X95460395Y-91154000D01*
X95819605Y-91154000D01*
X97334528Y-92668923D01*
X97679271Y-92478636D01*
X98030956Y-91597409D01*
X98018641Y-90648677D01*
X97679271Y-89829364D01*
X97334528Y-89639077D01*
X95819605Y-91154000D01*
X95460395Y-91154000D01*
X93945472Y-89639077D01*
X93600729Y-89829364D01*
X93249044Y-90710591D01*
X86627000Y-90710591D01*
X86627000Y-89459472D01*
X94125077Y-89459472D01*
X95640000Y-90974395D01*
X97154923Y-89459472D01*
X96964636Y-89114729D01*
X96083409Y-88763044D01*
X95134677Y-88775359D01*
X94315364Y-89114729D01*
X94125077Y-89459472D01*
X86627000Y-89459472D01*
X86627000Y-82027000D01*
X86765000Y-82027000D01*
X86765000Y-82827000D01*
X86896192Y-83232544D01*
X87172592Y-83557013D01*
X87555999Y-83744408D01*
X87723000Y-83617502D01*
X87723000Y-82027000D01*
X86765000Y-82027000D01*
X86627000Y-82027000D01*
X86627000Y-81600000D01*
X86618315Y-81553841D01*
X86591035Y-81511447D01*
X86549410Y-81483006D01*
X86500000Y-81473000D01*
X80710000Y-81473000D01*
X80710000Y-80973000D01*
X86765000Y-80973000D01*
X86765000Y-81773000D01*
X87723000Y-81773000D01*
X87723000Y-80182498D01*
X87555999Y-80055592D01*
X87172592Y-80242987D01*
X86896192Y-80567456D01*
X86765000Y-80973000D01*
X80710000Y-80973000D01*
X80710000Y-76442619D01*
X81314613Y-76442619D01*
X81654155Y-77264372D01*
X82282321Y-77893636D01*
X83103481Y-78234611D01*
X83992619Y-78235387D01*
X84596785Y-77985750D01*
X86990000Y-77985750D01*
X86990000Y-78501309D01*
X87086673Y-78734698D01*
X87265301Y-78913327D01*
X87498690Y-79010000D01*
X88014250Y-79010000D01*
X88173000Y-78851250D01*
X88173000Y-77827000D01*
X87148750Y-77827000D01*
X86990000Y-77985750D01*
X84596785Y-77985750D01*
X84814372Y-77895845D01*
X85443636Y-77267679D01*
X85596853Y-76898691D01*
X86990000Y-76898691D01*
X86990000Y-77414250D01*
X87148750Y-77573000D01*
X88173000Y-77573000D01*
X88173000Y-76548750D01*
X88014250Y-76390000D01*
X87498690Y-76390000D01*
X87265301Y-76486673D01*
X87086673Y-76665302D01*
X86990000Y-76898691D01*
X85596853Y-76898691D01*
X85784611Y-76446519D01*
X85785274Y-75685750D01*
X108040000Y-75685750D01*
X108040000Y-75976310D01*
X108136673Y-76209699D01*
X108315302Y-76388327D01*
X108548691Y-76485000D01*
X109164250Y-76485000D01*
X109323000Y-76326250D01*
X109323000Y-75527000D01*
X109577000Y-75527000D01*
X109577000Y-76326250D01*
X109735750Y-76485000D01*
X110351309Y-76485000D01*
X110584698Y-76388327D01*
X110763327Y-76209699D01*
X110860000Y-75976310D01*
X110860000Y-75685750D01*
X110701250Y-75527000D01*
X109577000Y-75527000D01*
X109323000Y-75527000D01*
X108198750Y-75527000D01*
X108040000Y-75685750D01*
X85785274Y-75685750D01*
X85785387Y-75557381D01*
X85482232Y-74823690D01*
X108040000Y-74823690D01*
X108040000Y-75114250D01*
X108198750Y-75273000D01*
X109323000Y-75273000D01*
X109323000Y-74473750D01*
X109577000Y-74473750D01*
X109577000Y-75273000D01*
X110701250Y-75273000D01*
X110860000Y-75114250D01*
X110860000Y-74823690D01*
X110763327Y-74590301D01*
X110584698Y-74411673D01*
X110351309Y-74315000D01*
X109735750Y-74315000D01*
X109577000Y-74473750D01*
X109323000Y-74473750D01*
X109164250Y-74315000D01*
X108548691Y-74315000D01*
X108315302Y-74411673D01*
X108136673Y-74590301D01*
X108040000Y-74823690D01*
X85482232Y-74823690D01*
X85445845Y-74735628D01*
X84817679Y-74106364D01*
X83996519Y-73765389D01*
X83107381Y-73764613D01*
X82285628Y-74104155D01*
X81656364Y-74732321D01*
X81315389Y-75553481D01*
X81314613Y-76442619D01*
X80710000Y-76442619D01*
X80710000Y-73210000D01*
X169290000Y-73210000D01*
X169290000Y-111790000D01*
X169290000Y-111790000D01*
G37*
X169290000Y-111790000D02*
X80710000Y-111790000D01*
X80710000Y-109442619D01*
X81314613Y-109442619D01*
X81654155Y-110264372D01*
X82282321Y-110893636D01*
X83103481Y-111234611D01*
X83992619Y-111235387D01*
X84814372Y-110895845D01*
X85443636Y-110267679D01*
X85784611Y-109446519D01*
X85784751Y-109285750D01*
X87565000Y-109285750D01*
X87565000Y-109976309D01*
X87661673Y-110209698D01*
X87840301Y-110388327D01*
X88073690Y-110485000D01*
X88764250Y-110485000D01*
X88923000Y-110326250D01*
X88923000Y-109127000D01*
X87723750Y-109127000D01*
X87565000Y-109285750D01*
X85784751Y-109285750D01*
X85785387Y-108557381D01*
X85564871Y-108023691D01*
X87565000Y-108023691D01*
X87565000Y-108714250D01*
X87723750Y-108873000D01*
X88923000Y-108873000D01*
X88923000Y-107673750D01*
X88764250Y-107515000D01*
X88073690Y-107515000D01*
X87840301Y-107611673D01*
X87661673Y-107790302D01*
X87565000Y-108023691D01*
X85564871Y-108023691D01*
X85445845Y-107735628D01*
X84817679Y-107106364D01*
X83996519Y-106765389D01*
X83107381Y-106764613D01*
X82285628Y-107104155D01*
X81656364Y-107732321D01*
X81315389Y-108553481D01*
X81314613Y-109442619D01*
X80710000Y-109442619D01*
X80710000Y-105785750D01*
X86415000Y-105785750D01*
X86415000Y-106876310D01*
X86511673Y-107109699D01*
X86690302Y-107288327D01*
X86923691Y-107385000D01*
X87264250Y-107385000D01*
X87423000Y-107226250D01*
X87423000Y-105627000D01*
X87677000Y-105627000D01*
X87677000Y-107226250D01*
X87835750Y-107385000D01*
X88176309Y-107385000D01*
X88409698Y-107288327D01*
X88588327Y-107109699D01*
X88685000Y-106876310D01*
X88685000Y-105785750D01*
X88526250Y-105627000D01*
X87677000Y-105627000D01*
X87423000Y-105627000D01*
X86573750Y-105627000D01*
X86415000Y-105785750D01*
X80710000Y-105785750D01*
X80710000Y-104123690D01*
X86415000Y-104123690D01*
X86415000Y-105214250D01*
X86573750Y-105373000D01*
X87423000Y-105373000D01*
X87423000Y-105353000D01*
X87677000Y-105353000D01*
X87677000Y-105373000D01*
X88526250Y-105373000D01*
X88685000Y-105214250D01*
X88685000Y-104123690D01*
X88667338Y-104081050D01*
X89402560Y-104816271D01*
X89402560Y-106750000D01*
X89446838Y-106985317D01*
X89541269Y-107132067D01*
X89593785Y-107396077D01*
X89673246Y-107515000D01*
X89335750Y-107515000D01*
X89177000Y-107673750D01*
X89177000Y-108873000D01*
X89197000Y-108873000D01*
X89197000Y-109127000D01*
X89177000Y-109127000D01*
X89177000Y-110326250D01*
X89335750Y-110485000D01*
X90026310Y-110485000D01*
X90259699Y-110388327D01*
X90438327Y-110209698D01*
X90510597Y-110035223D01*
X90539946Y-110079147D01*
X91021715Y-110401054D01*
X91590000Y-110514093D01*
X92158285Y-110401054D01*
X92640054Y-110079147D01*
X92961961Y-109597378D01*
X92992744Y-109442619D01*
X164314613Y-109442619D01*
X164654155Y-110264372D01*
X165282321Y-110893636D01*
X166103481Y-111234611D01*
X166992619Y-111235387D01*
X167814372Y-110895845D01*
X168443636Y-110267679D01*
X168784611Y-109446519D01*
X168785387Y-108557381D01*
X168445845Y-107735628D01*
X167817679Y-107106364D01*
X166996519Y-106765389D01*
X166107381Y-106764613D01*
X165285628Y-107104155D01*
X164656364Y-107732321D01*
X164315389Y-108553481D01*
X164314613Y-109442619D01*
X92992744Y-109442619D01*
X93075000Y-109029093D01*
X93075000Y-108970907D01*
X92961961Y-108402622D01*
X92640054Y-107920853D01*
X92595361Y-107890990D01*
X92546215Y-107643923D01*
X92321856Y-107308144D01*
X92321853Y-107308142D01*
X92023711Y-107010000D01*
X92971614Y-107010000D01*
X93098110Y-107096431D01*
X93350000Y-107147440D01*
X94250000Y-107147440D01*
X94485317Y-107103162D01*
X94701441Y-106964090D01*
X94846431Y-106751890D01*
X94897440Y-106500000D01*
X94897440Y-106000000D01*
X94853162Y-105764683D01*
X94714090Y-105548559D01*
X94657657Y-105510000D01*
X95212721Y-105510000D01*
X95290000Y-105630095D01*
X95290000Y-105802069D01*
X95198559Y-105860910D01*
X95053569Y-106073110D01*
X95002560Y-106325000D01*
X95002560Y-107075000D01*
X95046838Y-107310317D01*
X95185910Y-107526441D01*
X95398110Y-107671431D01*
X95650000Y-107722440D01*
X96022638Y-107722440D01*
X96737599Y-108437401D01*
X96984160Y-108602148D01*
X97275000Y-108660000D01*
X115124264Y-108660000D01*
X115236523Y-108637670D01*
X115350335Y-108625597D01*
X115380935Y-108608945D01*
X115415103Y-108602148D01*
X115510269Y-108538561D01*
X115610800Y-108483851D01*
X115632698Y-108456756D01*
X115661665Y-108437401D01*
X115725252Y-108342237D01*
X115797195Y-108253219D01*
X117761531Y-104510883D01*
X117771394Y-104477469D01*
X117790748Y-104448503D01*
X117813077Y-104336248D01*
X117845478Y-104226476D01*
X117841803Y-104191834D01*
X117848600Y-104157664D01*
X117848600Y-103733400D01*
X117821027Y-103594780D01*
X117796038Y-103455675D01*
X116129279Y-99210000D01*
X118519993Y-99210000D01*
X118346047Y-99281873D01*
X118082798Y-99544663D01*
X117940152Y-99888191D01*
X117939828Y-100260157D01*
X118081873Y-100603933D01*
X118114990Y-100637108D01*
X118114990Y-101311401D01*
X118172842Y-101602240D01*
X118337589Y-101848802D01*
X119526210Y-103037423D01*
X119772772Y-103202170D01*
X120063611Y-103260022D01*
X127195767Y-103260022D01*
X127306883Y-103528943D01*
X127569673Y-103792192D01*
X127913201Y-103934838D01*
X127960077Y-103934879D01*
X129262599Y-105237401D01*
X129509161Y-105402148D01*
X129800000Y-105460000D01*
X140100000Y-105460000D01*
X140390839Y-105402148D01*
X140637401Y-105237401D01*
X141137401Y-104737401D01*
X141212560Y-104624917D01*
X141212560Y-107120000D01*
X141256838Y-107355317D01*
X141395910Y-107571441D01*
X141608110Y-107716431D01*
X141860000Y-107767440D01*
X143860000Y-107767440D01*
X144095317Y-107723162D01*
X144311441Y-107584090D01*
X144456431Y-107371890D01*
X144507440Y-107120000D01*
X144507440Y-106155750D01*
X145225000Y-106155750D01*
X145225000Y-107246310D01*
X145321673Y-107479699D01*
X145500302Y-107658327D01*
X145733691Y-107755000D01*
X146574250Y-107755000D01*
X146733000Y-107596250D01*
X146733000Y-105997000D01*
X146987000Y-105997000D01*
X146987000Y-107596250D01*
X147145750Y-107755000D01*
X147986309Y-107755000D01*
X148219698Y-107658327D01*
X148398327Y-107479699D01*
X148495000Y-107246310D01*
X148495000Y-106155750D01*
X148336250Y-105997000D01*
X146987000Y-105997000D01*
X146733000Y-105997000D01*
X145383750Y-105997000D01*
X145225000Y-106155750D01*
X144507440Y-106155750D01*
X144507440Y-104620000D01*
X144483674Y-104493690D01*
X145225000Y-104493690D01*
X145225000Y-105584250D01*
X145383750Y-105743000D01*
X146733000Y-105743000D01*
X146733000Y-104143750D01*
X146987000Y-104143750D01*
X146987000Y-105743000D01*
X148336250Y-105743000D01*
X148495000Y-105584250D01*
X148495000Y-104493690D01*
X148398327Y-104260301D01*
X148219698Y-104081673D01*
X147986309Y-103985000D01*
X147145750Y-103985000D01*
X146987000Y-104143750D01*
X146733000Y-104143750D01*
X146574250Y-103985000D01*
X145733691Y-103985000D01*
X145500302Y-104081673D01*
X145321673Y-104260301D01*
X145225000Y-104493690D01*
X144483674Y-104493690D01*
X144463162Y-104384683D01*
X144324090Y-104168559D01*
X144111890Y-104023569D01*
X144010000Y-104002936D01*
X144010000Y-103907777D01*
X156671828Y-103907777D01*
X156803520Y-104202657D01*
X157511036Y-104474261D01*
X158268632Y-104454436D01*
X158876480Y-104202657D01*
X159008172Y-103907777D01*
X157840000Y-102739605D01*
X156671828Y-103907777D01*
X144010000Y-103907777D01*
X144010000Y-103421486D01*
X144223691Y-103510000D01*
X144464250Y-103510000D01*
X144623000Y-103351250D01*
X144623000Y-102627000D01*
X144877000Y-102627000D01*
X144877000Y-103351250D01*
X145035750Y-103510000D01*
X145276309Y-103510000D01*
X145509698Y-103413327D01*
X145688327Y-103234699D01*
X145785000Y-103001310D01*
X145785000Y-102785750D01*
X145626250Y-102627000D01*
X144877000Y-102627000D01*
X144623000Y-102627000D01*
X144603000Y-102627000D01*
X144603000Y-102373000D01*
X144623000Y-102373000D01*
X144623000Y-101227000D01*
X144877000Y-101227000D01*
X144877000Y-102373000D01*
X145626250Y-102373000D01*
X145768214Y-102231036D01*
X155925739Y-102231036D01*
X155945564Y-102988632D01*
X156197343Y-103596480D01*
X156492223Y-103728172D01*
X157660395Y-102560000D01*
X156492223Y-101391828D01*
X156197343Y-101523520D01*
X155925739Y-102231036D01*
X145768214Y-102231036D01*
X145785000Y-102214250D01*
X145785000Y-101998690D01*
X145702700Y-101800000D01*
X145785000Y-101601310D01*
X145785000Y-101385750D01*
X145626250Y-101227000D01*
X144877000Y-101227000D01*
X144623000Y-101227000D01*
X144603000Y-101227000D01*
X144603000Y-101212223D01*
X156671828Y-101212223D01*
X157840000Y-102380395D01*
X157854143Y-102366253D01*
X158033748Y-102545858D01*
X158019605Y-102560000D01*
X159187777Y-103728172D01*
X159482657Y-103596480D01*
X159754261Y-102888964D01*
X159752710Y-102829683D01*
X160378551Y-103089554D01*
X161396981Y-103090443D01*
X162338229Y-102701528D01*
X163058997Y-101982017D01*
X163449554Y-101041449D01*
X163450443Y-100023019D01*
X163061528Y-99081771D01*
X162342017Y-98361003D01*
X161401449Y-97970446D01*
X160383019Y-97969557D01*
X159441771Y-98358472D01*
X158721003Y-99077983D01*
X158330446Y-100018551D01*
X158329845Y-100707498D01*
X158168964Y-100645739D01*
X157411368Y-100665564D01*
X156803520Y-100917343D01*
X156671828Y-101212223D01*
X144603000Y-101212223D01*
X144603000Y-100973000D01*
X144623000Y-100973000D01*
X144623000Y-100248750D01*
X144877000Y-100248750D01*
X144877000Y-100973000D01*
X145626250Y-100973000D01*
X145785000Y-100814250D01*
X145785000Y-100598690D01*
X145688327Y-100365301D01*
X145509698Y-100186673D01*
X145276309Y-100090000D01*
X145035750Y-100090000D01*
X144877000Y-100248750D01*
X144623000Y-100248750D01*
X144464250Y-100090000D01*
X144223691Y-100090000D01*
X144010000Y-100178514D01*
X144010000Y-99324901D01*
X144328943Y-99193117D01*
X144592192Y-98930327D01*
X144734838Y-98586799D01*
X144735162Y-98214833D01*
X144671186Y-98060000D01*
X145694400Y-98060000D01*
X145985239Y-98002148D01*
X146231801Y-97837401D01*
X147033801Y-97035401D01*
X147198548Y-96788840D01*
X147256400Y-96498000D01*
X147256400Y-94666502D01*
X147263061Y-94659841D01*
X147263038Y-94686557D01*
X147405083Y-95030333D01*
X147521154Y-95146606D01*
X147660799Y-95355601D01*
X150617347Y-98312149D01*
X150605242Y-98341300D01*
X150604758Y-98896265D01*
X150816687Y-99409172D01*
X151208764Y-99801934D01*
X151721300Y-100014758D01*
X152276265Y-100015242D01*
X152789172Y-99803313D01*
X153132560Y-99460524D01*
X153132560Y-100020000D01*
X153176838Y-100255317D01*
X153315910Y-100471441D01*
X153528110Y-100616431D01*
X153780000Y-100667440D01*
X155300000Y-100667440D01*
X155535317Y-100623162D01*
X155751441Y-100484090D01*
X155896431Y-100271890D01*
X155947440Y-100020000D01*
X155947440Y-99890920D01*
X156087401Y-99797401D01*
X156736601Y-99148201D01*
X156901348Y-98901640D01*
X156921565Y-98800000D01*
X156959200Y-98610800D01*
X156959200Y-96693093D01*
X156984600Y-96565400D01*
X156984600Y-93081700D01*
X156926748Y-92790861D01*
X156762001Y-92544299D01*
X156546101Y-92328399D01*
X156299539Y-92163652D01*
X156008700Y-92105800D01*
X155857067Y-92105800D01*
X155934758Y-91918700D01*
X155935242Y-91363735D01*
X155723313Y-90850828D01*
X155331236Y-90458066D01*
X154818700Y-90245242D01*
X154263735Y-90244758D01*
X153750828Y-90456687D01*
X153387684Y-90819198D01*
X153379341Y-90652951D01*
X153220742Y-90270059D01*
X152978764Y-90200841D01*
X152179605Y-91000000D01*
X152193748Y-91014143D01*
X152014143Y-91193748D01*
X152000000Y-91179605D01*
X151985858Y-91193748D01*
X151806253Y-91014143D01*
X151820395Y-91000000D01*
X151021236Y-90200841D01*
X150779258Y-90270059D01*
X150592845Y-90792780D01*
X150620659Y-91347049D01*
X150687700Y-91508900D01*
X145458702Y-91508900D01*
X144634840Y-90685038D01*
X144635162Y-90314833D01*
X144523000Y-90043380D01*
X144523000Y-89527000D01*
X144777000Y-89527000D01*
X144777000Y-90251250D01*
X144935750Y-90410000D01*
X145176309Y-90410000D01*
X145409698Y-90313327D01*
X145588327Y-90134699D01*
X145635324Y-90021236D01*
X151200841Y-90021236D01*
X152000000Y-90820395D01*
X152799159Y-90021236D01*
X152729941Y-89779258D01*
X152207220Y-89592845D01*
X151652951Y-89620659D01*
X151270059Y-89779258D01*
X151200841Y-90021236D01*
X145635324Y-90021236D01*
X145685000Y-89901310D01*
X145685000Y-89685750D01*
X145526250Y-89527000D01*
X144777000Y-89527000D01*
X144523000Y-89527000D01*
X144503000Y-89527000D01*
X144503000Y-89273000D01*
X144523000Y-89273000D01*
X144523000Y-88127000D01*
X144777000Y-88127000D01*
X144777000Y-89273000D01*
X145526250Y-89273000D01*
X145685000Y-89114250D01*
X145685000Y-88898690D01*
X145602700Y-88700000D01*
X145685000Y-88501310D01*
X145685000Y-88407777D01*
X156671828Y-88407777D01*
X156803520Y-88702657D01*
X157511036Y-88974261D01*
X158268632Y-88954436D01*
X158330140Y-88928958D01*
X158329557Y-89596981D01*
X158718472Y-90538229D01*
X159437983Y-91258997D01*
X160378551Y-91649554D01*
X161396981Y-91650443D01*
X162338229Y-91261528D01*
X163058997Y-90542017D01*
X163449554Y-89601449D01*
X163450443Y-88583019D01*
X163061528Y-87641771D01*
X162342017Y-86921003D01*
X161401449Y-86530446D01*
X160383019Y-86529557D01*
X159738738Y-86795768D01*
X159734436Y-86631368D01*
X159482657Y-86023520D01*
X159187777Y-85891828D01*
X158019605Y-87060000D01*
X158033748Y-87074143D01*
X157854143Y-87253748D01*
X157840000Y-87239605D01*
X156671828Y-88407777D01*
X145685000Y-88407777D01*
X145685000Y-88285750D01*
X145526250Y-88127000D01*
X144777000Y-88127000D01*
X144523000Y-88127000D01*
X144503000Y-88127000D01*
X144503000Y-87873000D01*
X144523000Y-87873000D01*
X144523000Y-87148750D01*
X144777000Y-87148750D01*
X144777000Y-87873000D01*
X145526250Y-87873000D01*
X145685000Y-87714250D01*
X145685000Y-87498690D01*
X145588327Y-87265301D01*
X145409698Y-87086673D01*
X145176309Y-86990000D01*
X144935750Y-86990000D01*
X144777000Y-87148750D01*
X144523000Y-87148750D01*
X144487026Y-87112776D01*
X144839802Y-86760000D01*
X147100000Y-86760000D01*
X147245610Y-86731036D01*
X155925739Y-86731036D01*
X155945564Y-87488632D01*
X156197343Y-88096480D01*
X156492223Y-88228172D01*
X157660395Y-87060000D01*
X156492223Y-85891828D01*
X156197343Y-86023520D01*
X155925739Y-86731036D01*
X147245610Y-86731036D01*
X147390839Y-86702148D01*
X147637401Y-86537401D01*
X148287401Y-85887401D01*
X148404450Y-85712223D01*
X156671828Y-85712223D01*
X157840000Y-86880395D01*
X159008172Y-85712223D01*
X158876480Y-85417343D01*
X158168964Y-85145739D01*
X157411368Y-85165564D01*
X156803520Y-85417343D01*
X156671828Y-85712223D01*
X148404450Y-85712223D01*
X148452148Y-85640839D01*
X148510000Y-85350000D01*
X148510000Y-84828386D01*
X148596431Y-84701890D01*
X148647440Y-84450000D01*
X148647440Y-83550000D01*
X148603162Y-83314683D01*
X148510000Y-83169905D01*
X148510000Y-82828386D01*
X148596431Y-82701890D01*
X148647440Y-82450000D01*
X148647440Y-81550000D01*
X148603162Y-81314683D01*
X148464090Y-81098559D01*
X148251890Y-80953569D01*
X148000000Y-80902560D01*
X147500000Y-80902560D01*
X147264683Y-80946838D01*
X147048559Y-81085910D01*
X147000866Y-81155711D01*
X146964090Y-81098559D01*
X146751890Y-80953569D01*
X146500000Y-80902560D01*
X146000000Y-80902560D01*
X145764683Y-80946838D01*
X145548559Y-81085910D01*
X145443274Y-81240000D01*
X144672931Y-81240000D01*
X144614090Y-81148559D01*
X144401890Y-81003569D01*
X144150000Y-80952560D01*
X143550000Y-80952560D01*
X143314683Y-80996838D01*
X143098559Y-81135910D01*
X142999367Y-81281083D01*
X142914090Y-81148559D01*
X142701890Y-81003569D01*
X142450000Y-80952560D01*
X141850000Y-80952560D01*
X141614683Y-80996838D01*
X141398559Y-81135910D01*
X141327437Y-81240000D01*
X140700000Y-81240000D01*
X140409161Y-81297852D01*
X140162599Y-81462599D01*
X139022440Y-82602758D01*
X139022440Y-82350000D01*
X138978162Y-82114683D01*
X138911671Y-82011354D01*
X138913327Y-82009698D01*
X139010000Y-81776309D01*
X139010000Y-81535750D01*
X138851250Y-81377000D01*
X138127000Y-81377000D01*
X138127000Y-81397000D01*
X137873000Y-81397000D01*
X137873000Y-81377000D01*
X137853000Y-81377000D01*
X137853000Y-81123000D01*
X137873000Y-81123000D01*
X137873000Y-81103000D01*
X138127000Y-81103000D01*
X138127000Y-81123000D01*
X138851250Y-81123000D01*
X139010000Y-80964250D01*
X139010000Y-80723691D01*
X138913327Y-80490302D01*
X138821231Y-80398205D01*
X138837401Y-80387401D01*
X138987401Y-80237401D01*
X139152148Y-79990839D01*
X139173974Y-79881111D01*
X139296431Y-79701890D01*
X139347440Y-79450000D01*
X139347440Y-78550000D01*
X139303162Y-78314683D01*
X139164090Y-78098559D01*
X138951890Y-77953569D01*
X138700000Y-77902560D01*
X138200000Y-77902560D01*
X137964683Y-77946838D01*
X137748559Y-78085910D01*
X137700866Y-78155711D01*
X137664090Y-78098559D01*
X137451890Y-77953569D01*
X137200000Y-77902560D01*
X136700000Y-77902560D01*
X136464683Y-77946838D01*
X136248559Y-78085910D01*
X136143274Y-78240000D01*
X136087440Y-78240000D01*
X136087440Y-77900000D01*
X136043162Y-77664683D01*
X135904090Y-77448559D01*
X135691890Y-77303569D01*
X135440000Y-77252560D01*
X135300000Y-77252560D01*
X135300000Y-77240000D01*
X135242148Y-76949161D01*
X135077401Y-76702599D01*
X134937401Y-76562599D01*
X134757838Y-76442619D01*
X164314613Y-76442619D01*
X164654155Y-77264372D01*
X165282321Y-77893636D01*
X166103481Y-78234611D01*
X166992619Y-78235387D01*
X167814372Y-77895845D01*
X168443636Y-77267679D01*
X168784611Y-76446519D01*
X168785387Y-75557381D01*
X168445845Y-74735628D01*
X167817679Y-74106364D01*
X166996519Y-73765389D01*
X166107381Y-73764613D01*
X165285628Y-74104155D01*
X164656364Y-74732321D01*
X164315389Y-75553481D01*
X164314613Y-76442619D01*
X134757838Y-76442619D01*
X134690839Y-76397852D01*
X134400000Y-76340000D01*
X122025000Y-76340000D01*
X121734160Y-76397852D01*
X121487599Y-76562599D01*
X121061262Y-76988936D01*
X120950327Y-76877808D01*
X120606799Y-76735162D01*
X120234833Y-76734838D01*
X120082331Y-76797851D01*
X119954090Y-76598559D01*
X119741890Y-76453569D01*
X119490000Y-76402560D01*
X118590000Y-76402560D01*
X118354683Y-76446838D01*
X118138559Y-76585910D01*
X117993569Y-76798110D01*
X117942560Y-77050000D01*
X117942560Y-78250000D01*
X117986838Y-78485317D01*
X118125910Y-78701441D01*
X118338110Y-78846431D01*
X118590000Y-78897440D01*
X119152758Y-78897440D01*
X119112599Y-78937599D01*
X119019080Y-79077560D01*
X118870000Y-79077560D01*
X118634683Y-79121838D01*
X118418559Y-79260910D01*
X118273569Y-79473110D01*
X118222560Y-79725000D01*
X118222560Y-80187265D01*
X118026890Y-80053569D01*
X117775000Y-80002560D01*
X117025000Y-80002560D01*
X116789683Y-80046838D01*
X116573559Y-80185910D01*
X116510000Y-80278932D01*
X116510000Y-78798670D01*
X116641441Y-78714090D01*
X116786431Y-78501890D01*
X116837440Y-78250000D01*
X116837440Y-77050000D01*
X116793162Y-76814683D01*
X116654090Y-76598559D01*
X116441890Y-76453569D01*
X116190000Y-76402560D01*
X115290000Y-76402560D01*
X115217860Y-76416134D01*
X115376441Y-76314090D01*
X115521431Y-76101890D01*
X115572440Y-75850000D01*
X115572440Y-74950000D01*
X115528162Y-74714683D01*
X115389090Y-74498559D01*
X115176890Y-74353569D01*
X114925000Y-74302560D01*
X113375000Y-74302560D01*
X113139683Y-74346838D01*
X112923559Y-74485910D01*
X112778569Y-74698110D01*
X112727560Y-74950000D01*
X112727560Y-75850000D01*
X112771838Y-76085317D01*
X112910910Y-76301441D01*
X113123110Y-76446431D01*
X113375000Y-76497440D01*
X114925000Y-76497440D01*
X114997140Y-76483866D01*
X114838559Y-76585910D01*
X114693569Y-76798110D01*
X114642560Y-77050000D01*
X114642560Y-78250000D01*
X114686838Y-78485317D01*
X114825910Y-78701441D01*
X114990000Y-78813559D01*
X114990000Y-78915723D01*
X114925000Y-78902560D01*
X113375000Y-78902560D01*
X113139683Y-78946838D01*
X112923559Y-79085910D01*
X112778569Y-79298110D01*
X112727560Y-79550000D01*
X112727560Y-80450000D01*
X112771838Y-80685317D01*
X112910910Y-80901441D01*
X113123110Y-81046431D01*
X113375000Y-81097440D01*
X114314325Y-81097440D01*
X114280000Y-81270000D01*
X114280000Y-82717537D01*
X114247808Y-82749673D01*
X114105162Y-83093201D01*
X114104838Y-83465167D01*
X114218396Y-83740000D01*
X110364802Y-83740000D01*
X109622242Y-82997440D01*
X109900000Y-82997440D01*
X110135317Y-82953162D01*
X110351441Y-82814090D01*
X110496431Y-82601890D01*
X110547440Y-82350000D01*
X110547440Y-81450000D01*
X110503162Y-81214683D01*
X110405824Y-81063416D01*
X110460317Y-81053162D01*
X110676441Y-80914090D01*
X110821431Y-80701890D01*
X110872440Y-80450000D01*
X110872440Y-79550000D01*
X110828162Y-79314683D01*
X110689090Y-79098559D01*
X110476890Y-78953569D01*
X110225000Y-78902560D01*
X108675000Y-78902560D01*
X108439683Y-78946838D01*
X108223559Y-79085910D01*
X108078569Y-79298110D01*
X108027560Y-79550000D01*
X108027560Y-80450000D01*
X108071838Y-80685317D01*
X108147282Y-80802560D01*
X107900000Y-80802560D01*
X107664683Y-80846838D01*
X107448559Y-80985910D01*
X107343274Y-81140000D01*
X105445000Y-81140000D01*
X105445000Y-81063071D01*
X105362409Y-80647859D01*
X105127211Y-80295860D01*
X104775212Y-80060662D01*
X104360000Y-79978071D01*
X103944788Y-80060662D01*
X103725000Y-80207520D01*
X103505212Y-80060662D01*
X103090000Y-79978071D01*
X102674788Y-80060662D01*
X102455000Y-80207520D01*
X102235212Y-80060662D01*
X101820000Y-79978071D01*
X101404788Y-80060662D01*
X101185000Y-80207520D01*
X100965212Y-80060662D01*
X100550000Y-79978071D01*
X100134788Y-80060662D01*
X99915000Y-80207520D01*
X99695212Y-80060662D01*
X99280000Y-79978071D01*
X98864788Y-80060662D01*
X98645000Y-80207520D01*
X98425212Y-80060662D01*
X98010000Y-79978071D01*
X97594788Y-80060662D01*
X97375000Y-80207520D01*
X97155212Y-80060662D01*
X96740000Y-79978071D01*
X96324788Y-80060662D01*
X96105000Y-80207520D01*
X95885212Y-80060662D01*
X95470000Y-79978071D01*
X95054788Y-80060662D01*
X94835000Y-80207520D01*
X94615212Y-80060662D01*
X94200000Y-79978071D01*
X93784788Y-80060662D01*
X93690000Y-80123997D01*
X93690000Y-79930000D01*
X93632148Y-79639161D01*
X93467401Y-79392599D01*
X93060000Y-78985198D01*
X93060000Y-78763099D01*
X93226310Y-78651974D01*
X93510282Y-78226979D01*
X93610000Y-77725664D01*
X93610000Y-77674336D01*
X93510282Y-77173021D01*
X93226310Y-76748026D01*
X92801315Y-76464054D01*
X92300000Y-76364336D01*
X91798685Y-76464054D01*
X91373690Y-76748026D01*
X91300000Y-76858311D01*
X91226310Y-76748026D01*
X90801315Y-76464054D01*
X90300000Y-76364336D01*
X89798685Y-76464054D01*
X89506986Y-76658961D01*
X89334699Y-76486673D01*
X89101310Y-76390000D01*
X88585750Y-76390000D01*
X88427000Y-76548750D01*
X88427000Y-77573000D01*
X88447000Y-77573000D01*
X88447000Y-77827000D01*
X88427000Y-77827000D01*
X88427000Y-78851250D01*
X88585750Y-79010000D01*
X89101310Y-79010000D01*
X89334699Y-78913327D01*
X89506986Y-78741039D01*
X89577416Y-78788099D01*
X89597852Y-78890839D01*
X89762599Y-79137401D01*
X90656224Y-80031026D01*
X90390000Y-79978071D01*
X89974788Y-80060662D01*
X89755000Y-80207520D01*
X89535212Y-80060662D01*
X89120000Y-79978071D01*
X88704788Y-80060662D01*
X88472259Y-80216032D01*
X88144001Y-80055592D01*
X87977000Y-80182498D01*
X87977000Y-81773000D01*
X87997000Y-81773000D01*
X87997000Y-82027000D01*
X87977000Y-82027000D01*
X87977000Y-83617502D01*
X88144001Y-83744408D01*
X88360000Y-83638836D01*
X88360000Y-83817572D01*
X88307808Y-83869673D01*
X88165162Y-84213201D01*
X88164838Y-84585167D01*
X88306883Y-84928943D01*
X88569673Y-85192192D01*
X88913201Y-85334838D01*
X89285167Y-85335162D01*
X89628943Y-85193117D01*
X89799980Y-85022378D01*
X89869673Y-85092192D01*
X90213201Y-85234838D01*
X90585167Y-85235162D01*
X90928943Y-85093117D01*
X91192192Y-84830327D01*
X91334838Y-84486799D01*
X91335162Y-84114833D01*
X91193117Y-83771057D01*
X91150000Y-83727865D01*
X91150000Y-83676003D01*
X91244788Y-83739338D01*
X91660000Y-83821929D01*
X92075212Y-83739338D01*
X92295000Y-83592480D01*
X92514788Y-83739338D01*
X92930000Y-83821929D01*
X93345212Y-83739338D01*
X93488460Y-83643623D01*
X93497852Y-83690839D01*
X93662599Y-83937401D01*
X96762599Y-87037401D01*
X97009161Y-87202148D01*
X97300000Y-87260000D01*
X99885198Y-87260000D01*
X100740000Y-88114802D01*
X100740000Y-88900000D01*
X100797852Y-89190839D01*
X100962599Y-89437401D01*
X101064878Y-89539680D01*
X101064838Y-89585167D01*
X101206883Y-89928943D01*
X101469673Y-90192192D01*
X101813201Y-90334838D01*
X102185167Y-90335162D01*
X102528943Y-90193117D01*
X102792192Y-89930327D01*
X102934838Y-89586799D01*
X102935162Y-89214833D01*
X102810083Y-88912118D01*
X102992192Y-88730327D01*
X103134838Y-88386799D01*
X103135162Y-88014833D01*
X102993117Y-87671057D01*
X102960000Y-87637882D01*
X102960000Y-87500000D01*
X102902148Y-87209161D01*
X102737401Y-86962599D01*
X101037401Y-85262599D01*
X100790839Y-85097852D01*
X100500000Y-85040000D01*
X98515477Y-85040000D01*
X98628943Y-84993117D01*
X98892192Y-84730327D01*
X99034838Y-84386799D01*
X99035162Y-84014833D01*
X98926393Y-83751592D01*
X99280000Y-83821929D01*
X99695212Y-83739338D01*
X99915000Y-83592480D01*
X100134788Y-83739338D01*
X100550000Y-83821929D01*
X100965212Y-83739338D01*
X101185000Y-83592480D01*
X101404788Y-83739338D01*
X101820000Y-83821929D01*
X102235212Y-83739338D01*
X102455000Y-83592480D01*
X102674788Y-83739338D01*
X103090000Y-83821929D01*
X103505212Y-83739338D01*
X103725000Y-83592480D01*
X103944788Y-83739338D01*
X104360000Y-83821929D01*
X104775212Y-83739338D01*
X105127211Y-83504140D01*
X105362409Y-83152141D01*
X105445000Y-82736929D01*
X105445000Y-82660000D01*
X107344895Y-82660000D01*
X107427456Y-82788303D01*
X107447852Y-82890839D01*
X107612599Y-83137401D01*
X109512599Y-85037401D01*
X109759161Y-85202148D01*
X110050000Y-85260000D01*
X122585198Y-85260000D01*
X122862599Y-85537401D01*
X123109161Y-85702148D01*
X123400000Y-85760000D01*
X123444895Y-85760000D01*
X123471849Y-85801887D01*
X123411569Y-85890110D01*
X123360560Y-86142000D01*
X123360560Y-86414638D01*
X123335080Y-86440118D01*
X123315199Y-86431862D01*
X122943233Y-86431538D01*
X122599457Y-86573583D01*
X122391945Y-86780733D01*
X122279659Y-86668447D01*
X122033097Y-86503700D01*
X121742258Y-86445848D01*
X109384413Y-86445848D01*
X109352277Y-86413656D01*
X109008749Y-86271010D01*
X108636783Y-86270686D01*
X108293007Y-86412731D01*
X108029758Y-86675521D01*
X107887112Y-87019049D01*
X107886788Y-87391015D01*
X108028833Y-87734791D01*
X108291623Y-87998040D01*
X108635151Y-88140686D01*
X109007117Y-88141010D01*
X109350893Y-87998965D01*
X109384068Y-87965848D01*
X109690597Y-87965848D01*
X109690590Y-87974855D01*
X109371057Y-88106883D01*
X109107808Y-88369673D01*
X108965162Y-88713201D01*
X108964838Y-89085167D01*
X109106883Y-89428943D01*
X109369673Y-89692192D01*
X109713201Y-89834838D01*
X109760077Y-89834879D01*
X109890276Y-89965078D01*
X109614833Y-89964838D01*
X109271057Y-90106883D01*
X109007808Y-90369673D01*
X108865162Y-90713201D01*
X108864838Y-91085167D01*
X109006883Y-91428943D01*
X109127622Y-91549893D01*
X109107808Y-91569673D01*
X108965162Y-91913201D01*
X108964838Y-92285167D01*
X109106883Y-92628943D01*
X109369673Y-92892192D01*
X109713201Y-93034838D01*
X109760077Y-93034879D01*
X110662599Y-93937401D01*
X110909161Y-94102148D01*
X111200000Y-94160000D01*
X114340000Y-94160000D01*
X114340000Y-95765078D01*
X114064833Y-95764838D01*
X113721057Y-95906883D01*
X113687882Y-95940000D01*
X108812463Y-95940000D01*
X108780327Y-95907808D01*
X108436799Y-95765162D01*
X108064833Y-95764838D01*
X107721057Y-95906883D01*
X107567114Y-96060558D01*
X107533968Y-95992741D01*
X107689338Y-95760212D01*
X107771929Y-95345000D01*
X107689338Y-94929788D01*
X107542480Y-94710000D01*
X107689338Y-94490212D01*
X107771929Y-94075000D01*
X107689338Y-93659788D01*
X107542480Y-93440000D01*
X107689338Y-93220212D01*
X107771929Y-92805000D01*
X107689338Y-92389788D01*
X107542480Y-92170000D01*
X107689338Y-91950212D01*
X107771929Y-91535000D01*
X107689338Y-91119788D01*
X107542480Y-90900000D01*
X107689338Y-90680212D01*
X107771929Y-90265000D01*
X107689338Y-89849788D01*
X107542480Y-89630000D01*
X107689338Y-89410212D01*
X107771929Y-88995000D01*
X107689338Y-88579788D01*
X107542480Y-88360000D01*
X107689338Y-88140212D01*
X107771929Y-87725000D01*
X107689338Y-87309788D01*
X107542480Y-87090000D01*
X107689338Y-86870212D01*
X107771929Y-86455000D01*
X107689338Y-86039788D01*
X107542480Y-85820000D01*
X107689338Y-85600212D01*
X107771929Y-85185000D01*
X107689338Y-84769788D01*
X107454140Y-84417789D01*
X107102141Y-84182591D01*
X106686929Y-84100000D01*
X105013071Y-84100000D01*
X104597859Y-84182591D01*
X104245860Y-84417789D01*
X104010662Y-84769788D01*
X103928071Y-85185000D01*
X104010662Y-85600212D01*
X104157520Y-85820000D01*
X104010662Y-86039788D01*
X103928071Y-86455000D01*
X104010662Y-86870212D01*
X104157520Y-87090000D01*
X104010662Y-87309788D01*
X103928071Y-87725000D01*
X104010662Y-88140212D01*
X104157520Y-88360000D01*
X104010662Y-88579788D01*
X103928071Y-88995000D01*
X104010662Y-89410212D01*
X104157520Y-89630000D01*
X104010662Y-89849788D01*
X103928071Y-90265000D01*
X104010662Y-90680212D01*
X104157520Y-90900000D01*
X104010662Y-91119788D01*
X103928071Y-91535000D01*
X104010662Y-91950212D01*
X104157520Y-92170000D01*
X104010662Y-92389788D01*
X103928071Y-92805000D01*
X104010662Y-93220212D01*
X104157520Y-93440000D01*
X104010662Y-93659788D01*
X103928071Y-94075000D01*
X104010662Y-94490212D01*
X104157520Y-94710000D01*
X104010662Y-94929788D01*
X103928071Y-95345000D01*
X104010662Y-95760212D01*
X104166032Y-95992741D01*
X104005592Y-96320999D01*
X104132498Y-96488000D01*
X105723000Y-96488000D01*
X105723000Y-96468000D01*
X105977000Y-96468000D01*
X105977000Y-96488000D01*
X105997000Y-96488000D01*
X105997000Y-96742000D01*
X105977000Y-96742000D01*
X105977000Y-96762000D01*
X105723000Y-96762000D01*
X105723000Y-96742000D01*
X104132498Y-96742000D01*
X104005592Y-96909001D01*
X104118496Y-97140000D01*
X103020000Y-97140000D01*
X102729160Y-97197852D01*
X102482599Y-97362599D01*
X101859308Y-97985890D01*
X101820000Y-97978071D01*
X101404788Y-98060662D01*
X101185000Y-98207520D01*
X100965212Y-98060662D01*
X100550000Y-97978071D01*
X100134788Y-98060662D01*
X99915000Y-98207520D01*
X99695212Y-98060662D01*
X99280000Y-97978071D01*
X98864788Y-98060662D01*
X98645000Y-98207520D01*
X98425212Y-98060662D01*
X98010000Y-97978071D01*
X97594788Y-98060662D01*
X97375000Y-98207520D01*
X97155212Y-98060662D01*
X96740000Y-97978071D01*
X96324788Y-98060662D01*
X96105000Y-98207520D01*
X95885212Y-98060662D01*
X95470000Y-97978071D01*
X95054788Y-98060662D01*
X94835000Y-98207520D01*
X94615212Y-98060662D01*
X94200000Y-97978071D01*
X93784788Y-98060662D01*
X93565000Y-98207520D01*
X93345212Y-98060662D01*
X92930000Y-97978071D01*
X92514788Y-98060662D01*
X92295000Y-98207520D01*
X92075212Y-98060662D01*
X91660000Y-97978071D01*
X91244788Y-98060662D01*
X91025000Y-98207520D01*
X90805212Y-98060662D01*
X90390000Y-97978071D01*
X89974788Y-98060662D01*
X89755000Y-98207520D01*
X89535212Y-98060662D01*
X89120000Y-97978071D01*
X88704788Y-98060662D01*
X88472259Y-98216032D01*
X88144001Y-98055592D01*
X87977000Y-98182498D01*
X87977000Y-99773000D01*
X87997000Y-99773000D01*
X87997000Y-100027000D01*
X87977000Y-100027000D01*
X87977000Y-101617502D01*
X88085000Y-101699572D01*
X88085000Y-101890750D01*
X87927000Y-102048750D01*
X87927000Y-102773000D01*
X87947000Y-102773000D01*
X87947000Y-103027000D01*
X87927000Y-103027000D01*
X87927000Y-103047000D01*
X87673000Y-103047000D01*
X87673000Y-103027000D01*
X86923750Y-103027000D01*
X86765000Y-103185750D01*
X86765000Y-103401310D01*
X86861673Y-103634699D01*
X86865908Y-103638934D01*
X86690302Y-103711673D01*
X86511673Y-103890301D01*
X86415000Y-104123690D01*
X80710000Y-104123690D01*
X80710000Y-102398690D01*
X86765000Y-102398690D01*
X86765000Y-102614250D01*
X86923750Y-102773000D01*
X87673000Y-102773000D01*
X87673000Y-102048750D01*
X87514250Y-101890000D01*
X87273691Y-101890000D01*
X87040302Y-101986673D01*
X86861673Y-102165301D01*
X86765000Y-102398690D01*
X80710000Y-102398690D01*
X80710000Y-100227000D01*
X86500000Y-100227000D01*
X86546159Y-100218315D01*
X86588553Y-100191035D01*
X86616994Y-100149410D01*
X86627000Y-100100000D01*
X86627000Y-100027000D01*
X86765000Y-100027000D01*
X86765000Y-100827000D01*
X86896192Y-101232544D01*
X87172592Y-101557013D01*
X87555999Y-101744408D01*
X87723000Y-101617502D01*
X87723000Y-100027000D01*
X86765000Y-100027000D01*
X86627000Y-100027000D01*
X86627000Y-98973000D01*
X86765000Y-98973000D01*
X86765000Y-99773000D01*
X87723000Y-99773000D01*
X87723000Y-98182498D01*
X87555999Y-98055592D01*
X87172592Y-98242987D01*
X86896192Y-98567456D01*
X86765000Y-98973000D01*
X86627000Y-98973000D01*
X86627000Y-92848528D01*
X94125077Y-92848528D01*
X94315364Y-93193271D01*
X95196591Y-93544956D01*
X96145323Y-93532641D01*
X96964636Y-93193271D01*
X97154923Y-92848528D01*
X95640000Y-91333605D01*
X94125077Y-92848528D01*
X86627000Y-92848528D01*
X86627000Y-90710591D01*
X93249044Y-90710591D01*
X93261359Y-91659323D01*
X93600729Y-92478636D01*
X93945472Y-92668923D01*
X95460395Y-91154000D01*
X95819605Y-91154000D01*
X97334528Y-92668923D01*
X97679271Y-92478636D01*
X98030956Y-91597409D01*
X98018641Y-90648677D01*
X97679271Y-89829364D01*
X97334528Y-89639077D01*
X95819605Y-91154000D01*
X95460395Y-91154000D01*
X93945472Y-89639077D01*
X93600729Y-89829364D01*
X93249044Y-90710591D01*
X86627000Y-90710591D01*
X86627000Y-89459472D01*
X94125077Y-89459472D01*
X95640000Y-90974395D01*
X97154923Y-89459472D01*
X96964636Y-89114729D01*
X96083409Y-88763044D01*
X95134677Y-88775359D01*
X94315364Y-89114729D01*
X94125077Y-89459472D01*
X86627000Y-89459472D01*
X86627000Y-82027000D01*
X86765000Y-82027000D01*
X86765000Y-82827000D01*
X86896192Y-83232544D01*
X87172592Y-83557013D01*
X87555999Y-83744408D01*
X87723000Y-83617502D01*
X87723000Y-82027000D01*
X86765000Y-82027000D01*
X86627000Y-82027000D01*
X86627000Y-81600000D01*
X86618315Y-81553841D01*
X86591035Y-81511447D01*
X86549410Y-81483006D01*
X86500000Y-81473000D01*
X80710000Y-81473000D01*
X80710000Y-80973000D01*
X86765000Y-80973000D01*
X86765000Y-81773000D01*
X87723000Y-81773000D01*
X87723000Y-80182498D01*
X87555999Y-80055592D01*
X87172592Y-80242987D01*
X86896192Y-80567456D01*
X86765000Y-80973000D01*
X80710000Y-80973000D01*
X80710000Y-76442619D01*
X81314613Y-76442619D01*
X81654155Y-77264372D01*
X82282321Y-77893636D01*
X83103481Y-78234611D01*
X83992619Y-78235387D01*
X84596785Y-77985750D01*
X86990000Y-77985750D01*
X86990000Y-78501309D01*
X87086673Y-78734698D01*
X87265301Y-78913327D01*
X87498690Y-79010000D01*
X88014250Y-79010000D01*
X88173000Y-78851250D01*
X88173000Y-77827000D01*
X87148750Y-77827000D01*
X86990000Y-77985750D01*
X84596785Y-77985750D01*
X84814372Y-77895845D01*
X85443636Y-77267679D01*
X85596853Y-76898691D01*
X86990000Y-76898691D01*
X86990000Y-77414250D01*
X87148750Y-77573000D01*
X88173000Y-77573000D01*
X88173000Y-76548750D01*
X88014250Y-76390000D01*
X87498690Y-76390000D01*
X87265301Y-76486673D01*
X87086673Y-76665302D01*
X86990000Y-76898691D01*
X85596853Y-76898691D01*
X85784611Y-76446519D01*
X85785274Y-75685750D01*
X108040000Y-75685750D01*
X108040000Y-75976310D01*
X108136673Y-76209699D01*
X108315302Y-76388327D01*
X108548691Y-76485000D01*
X109164250Y-76485000D01*
X109323000Y-76326250D01*
X109323000Y-75527000D01*
X109577000Y-75527000D01*
X109577000Y-76326250D01*
X109735750Y-76485000D01*
X110351309Y-76485000D01*
X110584698Y-76388327D01*
X110763327Y-76209699D01*
X110860000Y-75976310D01*
X110860000Y-75685750D01*
X110701250Y-75527000D01*
X109577000Y-75527000D01*
X109323000Y-75527000D01*
X108198750Y-75527000D01*
X108040000Y-75685750D01*
X85785274Y-75685750D01*
X85785387Y-75557381D01*
X85482232Y-74823690D01*
X108040000Y-74823690D01*
X108040000Y-75114250D01*
X108198750Y-75273000D01*
X109323000Y-75273000D01*
X109323000Y-74473750D01*
X109577000Y-74473750D01*
X109577000Y-75273000D01*
X110701250Y-75273000D01*
X110860000Y-75114250D01*
X110860000Y-74823690D01*
X110763327Y-74590301D01*
X110584698Y-74411673D01*
X110351309Y-74315000D01*
X109735750Y-74315000D01*
X109577000Y-74473750D01*
X109323000Y-74473750D01*
X109164250Y-74315000D01*
X108548691Y-74315000D01*
X108315302Y-74411673D01*
X108136673Y-74590301D01*
X108040000Y-74823690D01*
X85482232Y-74823690D01*
X85445845Y-74735628D01*
X84817679Y-74106364D01*
X83996519Y-73765389D01*
X83107381Y-73764613D01*
X82285628Y-74104155D01*
X81656364Y-74732321D01*
X81315389Y-75553481D01*
X81314613Y-76442619D01*
X80710000Y-76442619D01*
X80710000Y-73210000D01*
X169290000Y-73210000D01*
X169290000Y-111790000D01*
G36*
X102465198Y-107140000D02*
X98585000Y-107140000D01*
X98585000Y-106985750D01*
X98426250Y-106827000D01*
X97677000Y-106827000D01*
X97677000Y-106847000D01*
X97423000Y-106847000D01*
X97423000Y-106827000D01*
X97403000Y-106827000D01*
X97403000Y-106573000D01*
X97423000Y-106573000D01*
X97423000Y-106553000D01*
X97677000Y-106553000D01*
X97677000Y-106573000D01*
X98426250Y-106573000D01*
X98585000Y-106414250D01*
X98585000Y-106198690D01*
X98488327Y-105965301D01*
X98309698Y-105786673D01*
X98205632Y-105743567D01*
X98251441Y-105714090D01*
X98356726Y-105560000D01*
X100885198Y-105560000D01*
X102465198Y-107140000D01*
X102465198Y-107140000D01*
G37*
X102465198Y-107140000D02*
X98585000Y-107140000D01*
X98585000Y-106985750D01*
X98426250Y-106827000D01*
X97677000Y-106827000D01*
X97677000Y-106847000D01*
X97423000Y-106847000D01*
X97423000Y-106827000D01*
X97403000Y-106827000D01*
X97403000Y-106573000D01*
X97423000Y-106573000D01*
X97423000Y-106553000D01*
X97677000Y-106553000D01*
X97677000Y-106573000D01*
X98426250Y-106573000D01*
X98585000Y-106414250D01*
X98585000Y-106198690D01*
X98488327Y-105965301D01*
X98309698Y-105786673D01*
X98205632Y-105743567D01*
X98251441Y-105714090D01*
X98356726Y-105560000D01*
X100885198Y-105560000D01*
X102465198Y-107140000D01*
G36*
X115300837Y-104775699D02*
X115333673Y-104808592D01*
X115677201Y-104951238D01*
X115813660Y-104951357D01*
X115297012Y-105935645D01*
X115176890Y-105853569D01*
X114925000Y-105802560D01*
X113375000Y-105802560D01*
X113139683Y-105846838D01*
X112923559Y-105985910D01*
X112778569Y-106198110D01*
X112727560Y-106450000D01*
X112727560Y-107140000D01*
X110872440Y-107140000D01*
X110872440Y-106450000D01*
X110828162Y-106214683D01*
X110689090Y-105998559D01*
X110476890Y-105853569D01*
X110225000Y-105802560D01*
X108675000Y-105802560D01*
X108439683Y-105846838D01*
X108223559Y-105985910D01*
X108118274Y-106140000D01*
X103614802Y-106140000D01*
X102336101Y-104861299D01*
X102513201Y-104934838D01*
X102885167Y-104935162D01*
X103228943Y-104793117D01*
X103261417Y-104760700D01*
X115300837Y-104775699D01*
X115300837Y-104775699D01*
G37*
X115300837Y-104775699D02*
X115333673Y-104808592D01*
X115677201Y-104951238D01*
X115813660Y-104951357D01*
X115297012Y-105935645D01*
X115176890Y-105853569D01*
X114925000Y-105802560D01*
X113375000Y-105802560D01*
X113139683Y-105846838D01*
X112923559Y-105985910D01*
X112778569Y-106198110D01*
X112727560Y-106450000D01*
X112727560Y-107140000D01*
X110872440Y-107140000D01*
X110872440Y-106450000D01*
X110828162Y-106214683D01*
X110689090Y-105998559D01*
X110476890Y-105853569D01*
X110225000Y-105802560D01*
X108675000Y-105802560D01*
X108439683Y-105846838D01*
X108223559Y-105985910D01*
X108118274Y-106140000D01*
X103614802Y-106140000D01*
X102336101Y-104861299D01*
X102513201Y-104934838D01*
X102885167Y-104935162D01*
X103228943Y-104793117D01*
X103261417Y-104760700D01*
X115300837Y-104775699D01*
G36*
X112254838Y-99235167D02*
X112396883Y-99578943D01*
X112659673Y-99842192D01*
X113003201Y-99984838D01*
X113375167Y-99985162D01*
X113718943Y-99843117D01*
X113752118Y-99810000D01*
X114731893Y-99810000D01*
X115343223Y-101367219D01*
X115176890Y-101253569D01*
X114925000Y-101202560D01*
X113375000Y-101202560D01*
X113139683Y-101246838D01*
X112923559Y-101385910D01*
X112778569Y-101598110D01*
X112727560Y-101850000D01*
X112727560Y-102750000D01*
X112771838Y-102985317D01*
X112910910Y-103201441D01*
X112986098Y-103252814D01*
X110623155Y-103249871D01*
X110763327Y-103109699D01*
X110860000Y-102876310D01*
X110860000Y-102585750D01*
X110701250Y-102427000D01*
X109577000Y-102427000D01*
X109577000Y-102447000D01*
X109323000Y-102447000D01*
X109323000Y-102427000D01*
X109303000Y-102427000D01*
X109303000Y-102173000D01*
X109323000Y-102173000D01*
X109323000Y-101373750D01*
X109577000Y-101373750D01*
X109577000Y-102173000D01*
X110701250Y-102173000D01*
X110860000Y-102014250D01*
X110860000Y-101723690D01*
X110763327Y-101490301D01*
X110584698Y-101311673D01*
X110351309Y-101215000D01*
X109735750Y-101215000D01*
X109577000Y-101373750D01*
X109323000Y-101373750D01*
X109199524Y-101250274D01*
X111264799Y-99184999D01*
X112254882Y-99184999D01*
X112254838Y-99235167D01*
X112254838Y-99235167D01*
G37*
X112254838Y-99235167D02*
X112396883Y-99578943D01*
X112659673Y-99842192D01*
X113003201Y-99984838D01*
X113375167Y-99985162D01*
X113718943Y-99843117D01*
X113752118Y-99810000D01*
X114731893Y-99810000D01*
X115343223Y-101367219D01*
X115176890Y-101253569D01*
X114925000Y-101202560D01*
X113375000Y-101202560D01*
X113139683Y-101246838D01*
X112923559Y-101385910D01*
X112778569Y-101598110D01*
X112727560Y-101850000D01*
X112727560Y-102750000D01*
X112771838Y-102985317D01*
X112910910Y-103201441D01*
X112986098Y-103252814D01*
X110623155Y-103249871D01*
X110763327Y-103109699D01*
X110860000Y-102876310D01*
X110860000Y-102585750D01*
X110701250Y-102427000D01*
X109577000Y-102427000D01*
X109577000Y-102447000D01*
X109323000Y-102447000D01*
X109323000Y-102427000D01*
X109303000Y-102427000D01*
X109303000Y-102173000D01*
X109323000Y-102173000D01*
X109323000Y-101373750D01*
X109577000Y-101373750D01*
X109577000Y-102173000D01*
X110701250Y-102173000D01*
X110860000Y-102014250D01*
X110860000Y-101723690D01*
X110763327Y-101490301D01*
X110584698Y-101311673D01*
X110351309Y-101215000D01*
X109735750Y-101215000D01*
X109577000Y-101373750D01*
X109323000Y-101373750D01*
X109199524Y-101250274D01*
X111264799Y-99184999D01*
X112254882Y-99184999D01*
X112254838Y-99235167D01*
G36*
X107719673Y-97492192D02*
X108063201Y-97634838D01*
X108435167Y-97635162D01*
X108740433Y-97509029D01*
X105428231Y-100821231D01*
X105445000Y-100736929D01*
X105445000Y-99063071D01*
X105364824Y-98660000D01*
X106087537Y-98660000D01*
X106119673Y-98692192D01*
X106463201Y-98834838D01*
X106835167Y-98835162D01*
X107178943Y-98693117D01*
X107442192Y-98430327D01*
X107584838Y-98086799D01*
X107585162Y-97714833D01*
X107443117Y-97371057D01*
X107430051Y-97357968D01*
X107507013Y-97292408D01*
X107511360Y-97283515D01*
X107719673Y-97492192D01*
X107719673Y-97492192D01*
G37*
X107719673Y-97492192D02*
X108063201Y-97634838D01*
X108435167Y-97635162D01*
X108740433Y-97509029D01*
X105428231Y-100821231D01*
X105445000Y-100736929D01*
X105445000Y-99063071D01*
X105364824Y-98660000D01*
X106087537Y-98660000D01*
X106119673Y-98692192D01*
X106463201Y-98834838D01*
X106835167Y-98835162D01*
X107178943Y-98693117D01*
X107442192Y-98430327D01*
X107584838Y-98086799D01*
X107585162Y-97714833D01*
X107443117Y-97371057D01*
X107430051Y-97357968D01*
X107507013Y-97292408D01*
X107511360Y-97283515D01*
X107719673Y-97492192D01*
G36*
X129925000Y-92547440D02*
X130175000Y-92547440D01*
X130238992Y-92535399D01*
X130165162Y-92713201D01*
X130164838Y-93085167D01*
X130306883Y-93428943D01*
X130569673Y-93692192D01*
X130913201Y-93834838D01*
X130960077Y-93834879D01*
X131012599Y-93887401D01*
X131259161Y-94052148D01*
X131354998Y-94071211D01*
X131354998Y-95130002D01*
X131412850Y-95420841D01*
X131563274Y-95645967D01*
X131561057Y-95646883D01*
X131297808Y-95909673D01*
X131155162Y-96253201D01*
X131154838Y-96625167D01*
X131296883Y-96968943D01*
X131330000Y-97002118D01*
X131330000Y-97237555D01*
X131287808Y-97279673D01*
X131145162Y-97623201D01*
X131144838Y-97995167D01*
X131286883Y-98338943D01*
X131549673Y-98602192D01*
X131670972Y-98652560D01*
X131425000Y-98652560D01*
X131295411Y-98676944D01*
X131175000Y-98652560D01*
X130925000Y-98652560D01*
X130795411Y-98676944D01*
X130675000Y-98652560D01*
X130425000Y-98652560D01*
X130295411Y-98676944D01*
X130175000Y-98652560D01*
X129925000Y-98652560D01*
X129795411Y-98676944D01*
X129675000Y-98652560D01*
X129425000Y-98652560D01*
X129295411Y-98676944D01*
X129175000Y-98652560D01*
X128925000Y-98652560D01*
X128795411Y-98676944D01*
X128675000Y-98652560D01*
X128425000Y-98652560D01*
X128295411Y-98676944D01*
X128175000Y-98652560D01*
X127925000Y-98652560D01*
X127795411Y-98676944D01*
X127675000Y-98652560D01*
X127425000Y-98652560D01*
X127295411Y-98676944D01*
X127175000Y-98652560D01*
X126925000Y-98652560D01*
X126703025Y-98694328D01*
X126747440Y-98475000D01*
X126747440Y-98225000D01*
X126727550Y-98119295D01*
X126735000Y-98101310D01*
X126735000Y-98071250D01*
X126714688Y-98050938D01*
X126703162Y-97989683D01*
X126612810Y-97849273D01*
X126696431Y-97726890D01*
X126711558Y-97652192D01*
X126735000Y-97628750D01*
X126735000Y-97598690D01*
X126726532Y-97578247D01*
X126747440Y-97475000D01*
X126747440Y-97225000D01*
X126723056Y-97095411D01*
X126747440Y-96975000D01*
X126747440Y-96725000D01*
X126723056Y-96595411D01*
X126747440Y-96475000D01*
X126747440Y-96225000D01*
X126723056Y-96095411D01*
X126747440Y-95975000D01*
X126747440Y-95725000D01*
X126723056Y-95595411D01*
X126747440Y-95475000D01*
X126747440Y-95225000D01*
X126723056Y-95095411D01*
X126747440Y-94975000D01*
X126747440Y-94725000D01*
X126723056Y-94595411D01*
X126747440Y-94475000D01*
X126747440Y-94225000D01*
X126723056Y-94095411D01*
X126747440Y-93975000D01*
X126747440Y-93807532D01*
X126813201Y-93834838D01*
X127185167Y-93835162D01*
X127528943Y-93693117D01*
X127792192Y-93430327D01*
X127934838Y-93086799D01*
X127935162Y-92714833D01*
X127860609Y-92534400D01*
X127925000Y-92547440D01*
X128175000Y-92547440D01*
X128304589Y-92523056D01*
X128425000Y-92547440D01*
X128675000Y-92547440D01*
X128804589Y-92523056D01*
X128925000Y-92547440D01*
X129175000Y-92547440D01*
X129304589Y-92523056D01*
X129425000Y-92547440D01*
X129675000Y-92547440D01*
X129804589Y-92523056D01*
X129925000Y-92547440D01*
X129925000Y-92547440D01*
G37*
X129925000Y-92547440D02*
X130175000Y-92547440D01*
X130238992Y-92535399D01*
X130165162Y-92713201D01*
X130164838Y-93085167D01*
X130306883Y-93428943D01*
X130569673Y-93692192D01*
X130913201Y-93834838D01*
X130960077Y-93834879D01*
X131012599Y-93887401D01*
X131259161Y-94052148D01*
X131354998Y-94071211D01*
X131354998Y-95130002D01*
X131412850Y-95420841D01*
X131563274Y-95645967D01*
X131561057Y-95646883D01*
X131297808Y-95909673D01*
X131155162Y-96253201D01*
X131154838Y-96625167D01*
X131296883Y-96968943D01*
X131330000Y-97002118D01*
X131330000Y-97237555D01*
X131287808Y-97279673D01*
X131145162Y-97623201D01*
X131144838Y-97995167D01*
X131286883Y-98338943D01*
X131549673Y-98602192D01*
X131670972Y-98652560D01*
X131425000Y-98652560D01*
X131295411Y-98676944D01*
X131175000Y-98652560D01*
X130925000Y-98652560D01*
X130795411Y-98676944D01*
X130675000Y-98652560D01*
X130425000Y-98652560D01*
X130295411Y-98676944D01*
X130175000Y-98652560D01*
X129925000Y-98652560D01*
X129795411Y-98676944D01*
X129675000Y-98652560D01*
X129425000Y-98652560D01*
X129295411Y-98676944D01*
X129175000Y-98652560D01*
X128925000Y-98652560D01*
X128795411Y-98676944D01*
X128675000Y-98652560D01*
X128425000Y-98652560D01*
X128295411Y-98676944D01*
X128175000Y-98652560D01*
X127925000Y-98652560D01*
X127795411Y-98676944D01*
X127675000Y-98652560D01*
X127425000Y-98652560D01*
X127295411Y-98676944D01*
X127175000Y-98652560D01*
X126925000Y-98652560D01*
X126703025Y-98694328D01*
X126747440Y-98475000D01*
X126747440Y-98225000D01*
X126727550Y-98119295D01*
X126735000Y-98101310D01*
X126735000Y-98071250D01*
X126714688Y-98050938D01*
X126703162Y-97989683D01*
X126612810Y-97849273D01*
X126696431Y-97726890D01*
X126711558Y-97652192D01*
X126735000Y-97628750D01*
X126735000Y-97598690D01*
X126726532Y-97578247D01*
X126747440Y-97475000D01*
X126747440Y-97225000D01*
X126723056Y-97095411D01*
X126747440Y-96975000D01*
X126747440Y-96725000D01*
X126723056Y-96595411D01*
X126747440Y-96475000D01*
X126747440Y-96225000D01*
X126723056Y-96095411D01*
X126747440Y-95975000D01*
X126747440Y-95725000D01*
X126723056Y-95595411D01*
X126747440Y-95475000D01*
X126747440Y-95225000D01*
X126723056Y-95095411D01*
X126747440Y-94975000D01*
X126747440Y-94725000D01*
X126723056Y-94595411D01*
X126747440Y-94475000D01*
X126747440Y-94225000D01*
X126723056Y-94095411D01*
X126747440Y-93975000D01*
X126747440Y-93807532D01*
X126813201Y-93834838D01*
X127185167Y-93835162D01*
X127528943Y-93693117D01*
X127792192Y-93430327D01*
X127934838Y-93086799D01*
X127935162Y-92714833D01*
X127860609Y-92534400D01*
X127925000Y-92547440D01*
X128175000Y-92547440D01*
X128304589Y-92523056D01*
X128425000Y-92547440D01*
X128675000Y-92547440D01*
X128804589Y-92523056D01*
X128925000Y-92547440D01*
X129175000Y-92547440D01*
X129304589Y-92523056D01*
X129425000Y-92547440D01*
X129675000Y-92547440D01*
X129804589Y-92523056D01*
X129925000Y-92547440D01*
G36*
X124152560Y-97225000D02*
X124152560Y-97475000D01*
X124172450Y-97580705D01*
X124168600Y-97590000D01*
X123262908Y-97590000D01*
X123310000Y-97476309D01*
X123310000Y-97407377D01*
X123315952Y-97409848D01*
X123687918Y-97410172D01*
X124031694Y-97268127D01*
X124172238Y-97127828D01*
X124152560Y-97225000D01*
X124152560Y-97225000D01*
G37*
X124152560Y-97225000D02*
X124152560Y-97475000D01*
X124172450Y-97580705D01*
X124168600Y-97590000D01*
X123262908Y-97590000D01*
X123310000Y-97476309D01*
X123310000Y-97407377D01*
X123315952Y-97409848D01*
X123687918Y-97410172D01*
X124031694Y-97268127D01*
X124172238Y-97127828D01*
X124152560Y-97225000D01*
G36*
X121027000Y-96823000D02*
X122173000Y-96823000D01*
X122173000Y-96803000D01*
X122427000Y-96803000D01*
X122427000Y-96823000D01*
X122447000Y-96823000D01*
X122447000Y-97077000D01*
X122427000Y-97077000D01*
X122427000Y-97097000D01*
X122173000Y-97097000D01*
X122173000Y-97077000D01*
X121027000Y-97077000D01*
X121027000Y-97097000D01*
X120773000Y-97097000D01*
X120773000Y-97077000D01*
X120753000Y-97077000D01*
X120753000Y-96823000D01*
X120773000Y-96823000D01*
X120773000Y-96803000D01*
X121027000Y-96803000D01*
X121027000Y-96823000D01*
X121027000Y-96823000D01*
G37*
X121027000Y-96823000D02*
X122173000Y-96823000D01*
X122173000Y-96803000D01*
X122427000Y-96803000D01*
X122427000Y-96823000D01*
X122447000Y-96823000D01*
X122447000Y-97077000D01*
X122427000Y-97077000D01*
X122427000Y-97097000D01*
X122173000Y-97097000D01*
X122173000Y-97077000D01*
X121027000Y-97077000D01*
X121027000Y-97097000D01*
X120773000Y-97097000D01*
X120773000Y-97077000D01*
X120753000Y-97077000D01*
X120753000Y-96823000D01*
X120773000Y-96823000D01*
X120773000Y-96803000D01*
X121027000Y-96803000D01*
X121027000Y-96823000D01*
G36*
X143085910Y-84851441D02*
X143298110Y-84996431D01*
X143550000Y-85047440D01*
X144150000Y-85047440D01*
X144385317Y-85003162D01*
X144601441Y-84864090D01*
X144672563Y-84760000D01*
X145444895Y-84760000D01*
X145535910Y-84901441D01*
X145748110Y-85046431D01*
X146000000Y-85097440D01*
X146500000Y-85097440D01*
X146735317Y-85053162D01*
X146951441Y-84914090D01*
X146990000Y-84857657D01*
X146990000Y-85035198D01*
X146785198Y-85240000D01*
X144525000Y-85240000D01*
X144234161Y-85297852D01*
X143987599Y-85462599D01*
X142612599Y-86837599D01*
X142470496Y-87050271D01*
X142298559Y-87160910D01*
X142153569Y-87373110D01*
X142102560Y-87625000D01*
X142102560Y-88375000D01*
X142146838Y-88610317D01*
X142204051Y-88699228D01*
X142153569Y-88773110D01*
X142102560Y-89025000D01*
X142102560Y-89775000D01*
X142146838Y-90010317D01*
X142285910Y-90226441D01*
X142488699Y-90365001D01*
X142374999Y-90365001D01*
X142084159Y-90422853D01*
X141837598Y-90587600D01*
X141322638Y-91102560D01*
X141100000Y-91102560D01*
X140864683Y-91146838D01*
X140648559Y-91285910D01*
X140503569Y-91498110D01*
X140452560Y-91750000D01*
X140452560Y-91972638D01*
X139887601Y-92537597D01*
X139785000Y-92691151D01*
X139785000Y-92685750D01*
X139626250Y-92527000D01*
X138877000Y-92527000D01*
X138877000Y-93673000D01*
X138897000Y-93673000D01*
X138897000Y-93927000D01*
X138877000Y-93927000D01*
X138877000Y-94640542D01*
X138847852Y-94684165D01*
X138790000Y-94975004D01*
X138790000Y-95347000D01*
X138623000Y-95347000D01*
X138623000Y-95327000D01*
X138603000Y-95327000D01*
X138603000Y-95073000D01*
X138623000Y-95073000D01*
X138623000Y-93927000D01*
X138603000Y-93927000D01*
X138603000Y-93673000D01*
X138623000Y-93673000D01*
X138623000Y-92527000D01*
X138603000Y-92527000D01*
X138603000Y-92273000D01*
X138623000Y-92273000D01*
X138623000Y-91127000D01*
X138877000Y-91127000D01*
X138877000Y-92273000D01*
X139626250Y-92273000D01*
X139785000Y-92114250D01*
X139785000Y-91898690D01*
X139702700Y-91700000D01*
X139785000Y-91501310D01*
X139785000Y-91285750D01*
X139626250Y-91127000D01*
X138877000Y-91127000D01*
X138623000Y-91127000D01*
X138603000Y-91127000D01*
X138603000Y-90873000D01*
X138623000Y-90873000D01*
X138623000Y-90148750D01*
X138877000Y-90148750D01*
X138877000Y-90873000D01*
X139626250Y-90873000D01*
X139785000Y-90714250D01*
X139785000Y-90498690D01*
X139688327Y-90265301D01*
X139509698Y-90086673D01*
X139276309Y-89990000D01*
X139035750Y-89990000D01*
X138877000Y-90148750D01*
X138623000Y-90148750D01*
X138464250Y-89990000D01*
X138223691Y-89990000D01*
X137990302Y-90086673D01*
X137988932Y-90088043D01*
X137901890Y-90028569D01*
X137650000Y-89977560D01*
X136850000Y-89977560D01*
X136760000Y-89994495D01*
X136760000Y-89264802D01*
X136787401Y-89237401D01*
X136952148Y-88990840D01*
X136973975Y-88881111D01*
X136997969Y-88845994D01*
X137140302Y-88988327D01*
X137373691Y-89085000D01*
X137466250Y-89085000D01*
X137625000Y-88926250D01*
X137625000Y-88127000D01*
X137875000Y-88127000D01*
X137875000Y-88926250D01*
X138033750Y-89085000D01*
X138126309Y-89085000D01*
X138359698Y-88988327D01*
X138538327Y-88809699D01*
X138635000Y-88576310D01*
X138635000Y-88285750D01*
X138476250Y-88127000D01*
X137875000Y-88127000D01*
X137625000Y-88127000D01*
X137603000Y-88127000D01*
X137603000Y-87873000D01*
X137625000Y-87873000D01*
X137625000Y-87853000D01*
X137875000Y-87853000D01*
X137875000Y-87873000D01*
X138476250Y-87873000D01*
X138635000Y-87714250D01*
X138635000Y-87423690D01*
X138538327Y-87190301D01*
X138359698Y-87011673D01*
X138126309Y-86915000D01*
X138059802Y-86915000D01*
X140214802Y-84760000D01*
X141327069Y-84760000D01*
X141385910Y-84851441D01*
X141598110Y-84996431D01*
X141850000Y-85047440D01*
X142450000Y-85047440D01*
X142685317Y-85003162D01*
X142901441Y-84864090D01*
X143000633Y-84718917D01*
X143085910Y-84851441D01*
X143085910Y-84851441D01*
G37*
X143085910Y-84851441D02*
X143298110Y-84996431D01*
X143550000Y-85047440D01*
X144150000Y-85047440D01*
X144385317Y-85003162D01*
X144601441Y-84864090D01*
X144672563Y-84760000D01*
X145444895Y-84760000D01*
X145535910Y-84901441D01*
X145748110Y-85046431D01*
X146000000Y-85097440D01*
X146500000Y-85097440D01*
X146735317Y-85053162D01*
X146951441Y-84914090D01*
X146990000Y-84857657D01*
X146990000Y-85035198D01*
X146785198Y-85240000D01*
X144525000Y-85240000D01*
X144234161Y-85297852D01*
X143987599Y-85462599D01*
X142612599Y-86837599D01*
X142470496Y-87050271D01*
X142298559Y-87160910D01*
X142153569Y-87373110D01*
X142102560Y-87625000D01*
X142102560Y-88375000D01*
X142146838Y-88610317D01*
X142204051Y-88699228D01*
X142153569Y-88773110D01*
X142102560Y-89025000D01*
X142102560Y-89775000D01*
X142146838Y-90010317D01*
X142285910Y-90226441D01*
X142488699Y-90365001D01*
X142374999Y-90365001D01*
X142084159Y-90422853D01*
X141837598Y-90587600D01*
X141322638Y-91102560D01*
X141100000Y-91102560D01*
X140864683Y-91146838D01*
X140648559Y-91285910D01*
X140503569Y-91498110D01*
X140452560Y-91750000D01*
X140452560Y-91972638D01*
X139887601Y-92537597D01*
X139785000Y-92691151D01*
X139785000Y-92685750D01*
X139626250Y-92527000D01*
X138877000Y-92527000D01*
X138877000Y-93673000D01*
X138897000Y-93673000D01*
X138897000Y-93927000D01*
X138877000Y-93927000D01*
X138877000Y-94640542D01*
X138847852Y-94684165D01*
X138790000Y-94975004D01*
X138790000Y-95347000D01*
X138623000Y-95347000D01*
X138623000Y-95327000D01*
X138603000Y-95327000D01*
X138603000Y-95073000D01*
X138623000Y-95073000D01*
X138623000Y-93927000D01*
X138603000Y-93927000D01*
X138603000Y-93673000D01*
X138623000Y-93673000D01*
X138623000Y-92527000D01*
X138603000Y-92527000D01*
X138603000Y-92273000D01*
X138623000Y-92273000D01*
X138623000Y-91127000D01*
X138877000Y-91127000D01*
X138877000Y-92273000D01*
X139626250Y-92273000D01*
X139785000Y-92114250D01*
X139785000Y-91898690D01*
X139702700Y-91700000D01*
X139785000Y-91501310D01*
X139785000Y-91285750D01*
X139626250Y-91127000D01*
X138877000Y-91127000D01*
X138623000Y-91127000D01*
X138603000Y-91127000D01*
X138603000Y-90873000D01*
X138623000Y-90873000D01*
X138623000Y-90148750D01*
X138877000Y-90148750D01*
X138877000Y-90873000D01*
X139626250Y-90873000D01*
X139785000Y-90714250D01*
X139785000Y-90498690D01*
X139688327Y-90265301D01*
X139509698Y-90086673D01*
X139276309Y-89990000D01*
X139035750Y-89990000D01*
X138877000Y-90148750D01*
X138623000Y-90148750D01*
X138464250Y-89990000D01*
X138223691Y-89990000D01*
X137990302Y-90086673D01*
X137988932Y-90088043D01*
X137901890Y-90028569D01*
X137650000Y-89977560D01*
X136850000Y-89977560D01*
X136760000Y-89994495D01*
X136760000Y-89264802D01*
X136787401Y-89237401D01*
X136952148Y-88990840D01*
X136973975Y-88881111D01*
X136997969Y-88845994D01*
X137140302Y-88988327D01*
X137373691Y-89085000D01*
X137466250Y-89085000D01*
X137625000Y-88926250D01*
X137625000Y-88127000D01*
X137875000Y-88127000D01*
X137875000Y-88926250D01*
X138033750Y-89085000D01*
X138126309Y-89085000D01*
X138359698Y-88988327D01*
X138538327Y-88809699D01*
X138635000Y-88576310D01*
X138635000Y-88285750D01*
X138476250Y-88127000D01*
X137875000Y-88127000D01*
X137625000Y-88127000D01*
X137603000Y-88127000D01*
X137603000Y-87873000D01*
X137625000Y-87873000D01*
X137625000Y-87853000D01*
X137875000Y-87853000D01*
X137875000Y-87873000D01*
X138476250Y-87873000D01*
X138635000Y-87714250D01*
X138635000Y-87423690D01*
X138538327Y-87190301D01*
X138359698Y-87011673D01*
X138126309Y-86915000D01*
X138059802Y-86915000D01*
X140214802Y-84760000D01*
X141327069Y-84760000D01*
X141385910Y-84851441D01*
X141598110Y-84996431D01*
X141850000Y-85047440D01*
X142450000Y-85047440D01*
X142685317Y-85003162D01*
X142901441Y-84864090D01*
X143000633Y-84718917D01*
X143085910Y-84851441D01*
G36*
X111509161Y-91502148D02*
X111800000Y-91560000D01*
X117484171Y-91560000D01*
X117484171Y-95105595D01*
X117386799Y-95065162D01*
X117014833Y-95064838D01*
X116760000Y-95170133D01*
X116760000Y-92800000D01*
X116702148Y-92509161D01*
X116537401Y-92262599D01*
X116337401Y-92062599D01*
X116090839Y-91897852D01*
X115800000Y-91840000D01*
X111814802Y-91840000D01*
X111412088Y-91437286D01*
X111509161Y-91502148D01*
X111509161Y-91502148D01*
G37*
X111509161Y-91502148D02*
X111800000Y-91560000D01*
X117484171Y-91560000D01*
X117484171Y-95105595D01*
X117386799Y-95065162D01*
X117014833Y-95064838D01*
X116760000Y-95170133D01*
X116760000Y-92800000D01*
X116702148Y-92509161D01*
X116537401Y-92262599D01*
X116337401Y-92062599D01*
X116090839Y-91897852D01*
X115800000Y-91840000D01*
X111814802Y-91840000D01*
X111412088Y-91437286D01*
X111509161Y-91502148D01*
G36*
X133969673Y-86767182D02*
X134196288Y-86861281D01*
X134306883Y-87128943D01*
X134569673Y-87392192D01*
X134913201Y-87534838D01*
X135285167Y-87535162D01*
X135361993Y-87503418D01*
X135352560Y-87550000D01*
X135352560Y-88450000D01*
X135371248Y-88549316D01*
X135297852Y-88659161D01*
X135240000Y-88950000D01*
X135240000Y-91585198D01*
X134747638Y-92077560D01*
X133500000Y-92077560D01*
X133278025Y-92119328D01*
X133322440Y-91900000D01*
X133322440Y-90600000D01*
X133278162Y-90364683D01*
X133139090Y-90148559D01*
X132926890Y-90003569D01*
X132816500Y-89981214D01*
X132816500Y-88951502D01*
X132983580Y-88784422D01*
X133029067Y-88784462D01*
X133372843Y-88642417D01*
X133636092Y-88379627D01*
X133778738Y-88036099D01*
X133779062Y-87664133D01*
X133637017Y-87320357D01*
X133395942Y-87078860D01*
X133838761Y-86636041D01*
X133969673Y-86767182D01*
X133969673Y-86767182D01*
G37*
X133969673Y-86767182D02*
X134196288Y-86861281D01*
X134306883Y-87128943D01*
X134569673Y-87392192D01*
X134913201Y-87534838D01*
X135285167Y-87535162D01*
X135361993Y-87503418D01*
X135352560Y-87550000D01*
X135352560Y-88450000D01*
X135371248Y-88549316D01*
X135297852Y-88659161D01*
X135240000Y-88950000D01*
X135240000Y-91585198D01*
X134747638Y-92077560D01*
X133500000Y-92077560D01*
X133278025Y-92119328D01*
X133322440Y-91900000D01*
X133322440Y-90600000D01*
X133278162Y-90364683D01*
X133139090Y-90148559D01*
X132926890Y-90003569D01*
X132816500Y-89981214D01*
X132816500Y-88951502D01*
X132983580Y-88784422D01*
X133029067Y-88784462D01*
X133372843Y-88642417D01*
X133636092Y-88379627D01*
X133778738Y-88036099D01*
X133779062Y-87664133D01*
X133637017Y-87320357D01*
X133395942Y-87078860D01*
X133838761Y-86636041D01*
X133969673Y-86767182D01*
G36*
X125935351Y-90740583D02*
X126278879Y-90883229D01*
X126290000Y-90883239D01*
X126290000Y-90964250D01*
X126448750Y-91123000D01*
X127175000Y-91123000D01*
X127175000Y-91377000D01*
X126448750Y-91377000D01*
X126290000Y-91535750D01*
X126290000Y-92026309D01*
X126316382Y-92090000D01*
X126161431Y-92090000D01*
X126100000Y-92077560D01*
X124800000Y-92077560D01*
X124733887Y-92090000D01*
X124321486Y-92090000D01*
X124410000Y-91876309D01*
X124410000Y-91635750D01*
X124251250Y-91477000D01*
X123527000Y-91477000D01*
X123527000Y-91497000D01*
X123273000Y-91497000D01*
X123273000Y-91477000D01*
X123253000Y-91477000D01*
X123253000Y-91223000D01*
X123273000Y-91223000D01*
X123273000Y-91203000D01*
X123527000Y-91203000D01*
X123527000Y-91223000D01*
X124251250Y-91223000D01*
X124410000Y-91064250D01*
X124410000Y-90823691D01*
X124362241Y-90708391D01*
X125903215Y-90708391D01*
X125935351Y-90740583D01*
X125935351Y-90740583D01*
G37*
X125935351Y-90740583D02*
X126278879Y-90883229D01*
X126290000Y-90883239D01*
X126290000Y-90964250D01*
X126448750Y-91123000D01*
X127175000Y-91123000D01*
X127175000Y-91377000D01*
X126448750Y-91377000D01*
X126290000Y-91535750D01*
X126290000Y-92026309D01*
X126316382Y-92090000D01*
X126161431Y-92090000D01*
X126100000Y-92077560D01*
X124800000Y-92077560D01*
X124733887Y-92090000D01*
X124321486Y-92090000D01*
X124410000Y-91876309D01*
X124410000Y-91635750D01*
X124251250Y-91477000D01*
X123527000Y-91477000D01*
X123527000Y-91497000D01*
X123273000Y-91497000D01*
X123273000Y-91477000D01*
X123253000Y-91477000D01*
X123253000Y-91223000D01*
X123273000Y-91223000D01*
X123273000Y-91203000D01*
X123527000Y-91203000D01*
X123527000Y-91223000D01*
X124251250Y-91223000D01*
X124410000Y-91064250D01*
X124410000Y-90823691D01*
X124362241Y-90708391D01*
X125903215Y-90708391D01*
X125935351Y-90740583D01*
G36*
X127651600Y-89673598D02*
X127512599Y-89812599D01*
X127400651Y-89980141D01*
X127400840Y-89763224D01*
X127258795Y-89419448D01*
X127149538Y-89310000D01*
X127364250Y-89310000D01*
X127523000Y-89151250D01*
X127523000Y-88427000D01*
X126773750Y-88427000D01*
X126750039Y-88450711D01*
X126685410Y-88385970D01*
X126426900Y-88278627D01*
X126452148Y-88240840D01*
X126472164Y-88140212D01*
X126510000Y-87950000D01*
X126510000Y-87432094D01*
X126604431Y-87293890D01*
X126615000Y-87241699D01*
X126615000Y-87401310D01*
X126697300Y-87600000D01*
X126615000Y-87798690D01*
X126615000Y-88014250D01*
X126773750Y-88173000D01*
X127523000Y-88173000D01*
X127523000Y-87027000D01*
X127503000Y-87027000D01*
X127503000Y-86773000D01*
X127523000Y-86773000D01*
X127523000Y-86753000D01*
X127651600Y-86753000D01*
X127651600Y-89673598D01*
X127651600Y-89673598D01*
G37*
X127651600Y-89673598D02*
X127512599Y-89812599D01*
X127400651Y-89980141D01*
X127400840Y-89763224D01*
X127258795Y-89419448D01*
X127149538Y-89310000D01*
X127364250Y-89310000D01*
X127523000Y-89151250D01*
X127523000Y-88427000D01*
X126773750Y-88427000D01*
X126750039Y-88450711D01*
X126685410Y-88385970D01*
X126426900Y-88278627D01*
X126452148Y-88240840D01*
X126472164Y-88140212D01*
X126510000Y-87950000D01*
X126510000Y-87432094D01*
X126604431Y-87293890D01*
X126615000Y-87241699D01*
X126615000Y-87401310D01*
X126697300Y-87600000D01*
X126615000Y-87798690D01*
X126615000Y-88014250D01*
X126773750Y-88173000D01*
X127523000Y-88173000D01*
X127523000Y-87027000D01*
X127503000Y-87027000D01*
X127503000Y-86773000D01*
X127523000Y-86773000D01*
X127523000Y-86753000D01*
X127651600Y-86753000D01*
X127651600Y-89673598D01*
G36*
X122649999Y-89188391D02*
X121076031Y-89188391D01*
X120951890Y-89103569D01*
X120700000Y-89052560D01*
X119800000Y-89052560D01*
X119564683Y-89096838D01*
X119422406Y-89188391D01*
X112830920Y-89188391D01*
X111608377Y-87965848D01*
X121427456Y-87965848D01*
X122649999Y-89188391D01*
X122649999Y-89188391D01*
G37*
X122649999Y-89188391D02*
X121076031Y-89188391D01*
X120951890Y-89103569D01*
X120700000Y-89052560D01*
X119800000Y-89052560D01*
X119564683Y-89096838D01*
X119422406Y-89188391D01*
X112830920Y-89188391D01*
X111608377Y-87965848D01*
X121427456Y-87965848D01*
X122649999Y-89188391D01*
G36*
X127925000Y-78614250D02*
X128083750Y-78773000D01*
X129333000Y-78773000D01*
X129333000Y-78753000D01*
X129587000Y-78753000D01*
X129587000Y-78773000D01*
X130836250Y-78773000D01*
X130995000Y-78614250D01*
X130995000Y-77860000D01*
X133000660Y-77860000D01*
X132992560Y-77900000D01*
X132992560Y-79900000D01*
X133024660Y-80070595D01*
X132819761Y-80111352D01*
X132573199Y-80276099D01*
X131247598Y-81601700D01*
X131082851Y-81848262D01*
X131024999Y-82139101D01*
X131024999Y-84360697D01*
X130956057Y-84389183D01*
X130877084Y-84468018D01*
X130956431Y-84351890D01*
X131007440Y-84100000D01*
X131007440Y-82100000D01*
X130963162Y-81864683D01*
X130824090Y-81648559D01*
X130611890Y-81503569D01*
X130360000Y-81452560D01*
X128560000Y-81452560D01*
X128324683Y-81496838D01*
X128108559Y-81635910D01*
X127963569Y-81848110D01*
X127912560Y-82100000D01*
X127912560Y-84100000D01*
X127953700Y-84318638D01*
X127322660Y-83687598D01*
X127076098Y-83522851D01*
X126785259Y-83464999D01*
X124825001Y-83464999D01*
X124534161Y-83522851D01*
X124287600Y-83687598D01*
X124072638Y-83902560D01*
X124000000Y-83902560D01*
X123764683Y-83946838D01*
X123555954Y-84081152D01*
X123437401Y-83962599D01*
X123190839Y-83797852D01*
X122900000Y-83740000D01*
X121834966Y-83740000D01*
X121835162Y-83514833D01*
X121693117Y-83171057D01*
X121430327Y-82907808D01*
X121366150Y-82881159D01*
X121570000Y-82922440D01*
X123130000Y-82922440D01*
X123365317Y-82878162D01*
X123581441Y-82739090D01*
X123726431Y-82526890D01*
X123777440Y-82275000D01*
X123777440Y-81625000D01*
X123733162Y-81389683D01*
X123594090Y-81173559D01*
X123381890Y-81028569D01*
X123244880Y-81000824D01*
X123365317Y-80978162D01*
X123438778Y-80930891D01*
X123498110Y-80971431D01*
X123750000Y-81022440D01*
X124550000Y-81022440D01*
X124785317Y-80978162D01*
X124888646Y-80911671D01*
X124890302Y-80913327D01*
X125123691Y-81010000D01*
X125364250Y-81010000D01*
X125523000Y-80851250D01*
X125523000Y-80127000D01*
X125777000Y-80127000D01*
X125777000Y-80851250D01*
X125935750Y-81010000D01*
X126176309Y-81010000D01*
X126409698Y-80913327D01*
X126588327Y-80734699D01*
X126685000Y-80501310D01*
X126685000Y-80285750D01*
X126526250Y-80127000D01*
X125777000Y-80127000D01*
X125523000Y-80127000D01*
X125503000Y-80127000D01*
X125503000Y-79873000D01*
X125523000Y-79873000D01*
X125523000Y-79148750D01*
X125777000Y-79148750D01*
X125777000Y-79873000D01*
X126526250Y-79873000D01*
X126685000Y-79714250D01*
X126685000Y-79498690D01*
X126588327Y-79265301D01*
X126508776Y-79185750D01*
X127925000Y-79185750D01*
X127925000Y-80026310D01*
X128021673Y-80259699D01*
X128200302Y-80438327D01*
X128433691Y-80535000D01*
X129174250Y-80535000D01*
X129333000Y-80376250D01*
X129333000Y-79027000D01*
X129587000Y-79027000D01*
X129587000Y-80376250D01*
X129745750Y-80535000D01*
X130486309Y-80535000D01*
X130719698Y-80438327D01*
X130898327Y-80259699D01*
X130995000Y-80026310D01*
X130995000Y-79185750D01*
X130836250Y-79027000D01*
X129587000Y-79027000D01*
X129333000Y-79027000D01*
X128083750Y-79027000D01*
X127925000Y-79185750D01*
X126508776Y-79185750D01*
X126409698Y-79086673D01*
X126176309Y-78990000D01*
X125935750Y-78990000D01*
X125777000Y-79148750D01*
X125523000Y-79148750D01*
X125364250Y-78990000D01*
X125123691Y-78990000D01*
X124910000Y-79078514D01*
X124910000Y-79040000D01*
X124852148Y-78749161D01*
X124687401Y-78502599D01*
X124515122Y-78330320D01*
X124515162Y-78284833D01*
X124373117Y-77941057D01*
X124292201Y-77860000D01*
X127925000Y-77860000D01*
X127925000Y-78614250D01*
X127925000Y-78614250D01*
G37*
X127925000Y-78614250D02*
X128083750Y-78773000D01*
X129333000Y-78773000D01*
X129333000Y-78753000D01*
X129587000Y-78753000D01*
X129587000Y-78773000D01*
X130836250Y-78773000D01*
X130995000Y-78614250D01*
X130995000Y-77860000D01*
X133000660Y-77860000D01*
X132992560Y-77900000D01*
X132992560Y-79900000D01*
X133024660Y-80070595D01*
X132819761Y-80111352D01*
X132573199Y-80276099D01*
X131247598Y-81601700D01*
X131082851Y-81848262D01*
X131024999Y-82139101D01*
X131024999Y-84360697D01*
X130956057Y-84389183D01*
X130877084Y-84468018D01*
X130956431Y-84351890D01*
X131007440Y-84100000D01*
X131007440Y-82100000D01*
X130963162Y-81864683D01*
X130824090Y-81648559D01*
X130611890Y-81503569D01*
X130360000Y-81452560D01*
X128560000Y-81452560D01*
X128324683Y-81496838D01*
X128108559Y-81635910D01*
X127963569Y-81848110D01*
X127912560Y-82100000D01*
X127912560Y-84100000D01*
X127953700Y-84318638D01*
X127322660Y-83687598D01*
X127076098Y-83522851D01*
X126785259Y-83464999D01*
X124825001Y-83464999D01*
X124534161Y-83522851D01*
X124287600Y-83687598D01*
X124072638Y-83902560D01*
X124000000Y-83902560D01*
X123764683Y-83946838D01*
X123555954Y-84081152D01*
X123437401Y-83962599D01*
X123190839Y-83797852D01*
X122900000Y-83740000D01*
X121834966Y-83740000D01*
X121835162Y-83514833D01*
X121693117Y-83171057D01*
X121430327Y-82907808D01*
X121366150Y-82881159D01*
X121570000Y-82922440D01*
X123130000Y-82922440D01*
X123365317Y-82878162D01*
X123581441Y-82739090D01*
X123726431Y-82526890D01*
X123777440Y-82275000D01*
X123777440Y-81625000D01*
X123733162Y-81389683D01*
X123594090Y-81173559D01*
X123381890Y-81028569D01*
X123244880Y-81000824D01*
X123365317Y-80978162D01*
X123438778Y-80930891D01*
X123498110Y-80971431D01*
X123750000Y-81022440D01*
X124550000Y-81022440D01*
X124785317Y-80978162D01*
X124888646Y-80911671D01*
X124890302Y-80913327D01*
X125123691Y-81010000D01*
X125364250Y-81010000D01*
X125523000Y-80851250D01*
X125523000Y-80127000D01*
X125777000Y-80127000D01*
X125777000Y-80851250D01*
X125935750Y-81010000D01*
X126176309Y-81010000D01*
X126409698Y-80913327D01*
X126588327Y-80734699D01*
X126685000Y-80501310D01*
X126685000Y-80285750D01*
X126526250Y-80127000D01*
X125777000Y-80127000D01*
X125523000Y-80127000D01*
X125503000Y-80127000D01*
X125503000Y-79873000D01*
X125523000Y-79873000D01*
X125523000Y-79148750D01*
X125777000Y-79148750D01*
X125777000Y-79873000D01*
X126526250Y-79873000D01*
X126685000Y-79714250D01*
X126685000Y-79498690D01*
X126588327Y-79265301D01*
X126508776Y-79185750D01*
X127925000Y-79185750D01*
X127925000Y-80026310D01*
X128021673Y-80259699D01*
X128200302Y-80438327D01*
X128433691Y-80535000D01*
X129174250Y-80535000D01*
X129333000Y-80376250D01*
X129333000Y-79027000D01*
X129587000Y-79027000D01*
X129587000Y-80376250D01*
X129745750Y-80535000D01*
X130486309Y-80535000D01*
X130719698Y-80438327D01*
X130898327Y-80259699D01*
X130995000Y-80026310D01*
X130995000Y-79185750D01*
X130836250Y-79027000D01*
X129587000Y-79027000D01*
X129333000Y-79027000D01*
X128083750Y-79027000D01*
X127925000Y-79185750D01*
X126508776Y-79185750D01*
X126409698Y-79086673D01*
X126176309Y-78990000D01*
X125935750Y-78990000D01*
X125777000Y-79148750D01*
X125523000Y-79148750D01*
X125364250Y-78990000D01*
X125123691Y-78990000D01*
X124910000Y-79078514D01*
X124910000Y-79040000D01*
X124852148Y-78749161D01*
X124687401Y-78502599D01*
X124515122Y-78330320D01*
X124515162Y-78284833D01*
X124373117Y-77941057D01*
X124292201Y-77860000D01*
X127925000Y-77860000D01*
X127925000Y-78614250D01*
G36*
X119797000Y-82077000D02*
X119777000Y-82077000D01*
X119777000Y-82751250D01*
X119935750Y-82910000D01*
X120367935Y-82910000D01*
X120337882Y-82940000D01*
X118410000Y-82940000D01*
X118410000Y-82835750D01*
X118251252Y-82677002D01*
X118373976Y-82677002D01*
X118510302Y-82813327D01*
X118743691Y-82910000D01*
X119364250Y-82910000D01*
X119523000Y-82751250D01*
X119523000Y-82077000D01*
X119503000Y-82077000D01*
X119503000Y-81972440D01*
X119797000Y-81972440D01*
X119797000Y-82077000D01*
X119797000Y-82077000D01*
G37*
X119797000Y-82077000D02*
X119777000Y-82077000D01*
X119777000Y-82751250D01*
X119935750Y-82910000D01*
X120367935Y-82910000D01*
X120337882Y-82940000D01*
X118410000Y-82940000D01*
X118410000Y-82835750D01*
X118251252Y-82677002D01*
X118373976Y-82677002D01*
X118510302Y-82813327D01*
X118743691Y-82910000D01*
X119364250Y-82910000D01*
X119523000Y-82751250D01*
X119523000Y-82077000D01*
X119503000Y-82077000D01*
X119503000Y-81972440D01*
X119797000Y-81972440D01*
X119797000Y-82077000D01*
G36*
X117527000Y-82423000D02*
X117547000Y-82423000D01*
X117547000Y-82677000D01*
X117527000Y-82677000D01*
X117527000Y-82697000D01*
X117273000Y-82697000D01*
X117273000Y-82677000D01*
X117253000Y-82677000D01*
X117253000Y-82423000D01*
X117273000Y-82423000D01*
X117273000Y-82403000D01*
X117527000Y-82403000D01*
X117527000Y-82423000D01*
X117527000Y-82423000D01*
G37*
X117527000Y-82423000D02*
X117547000Y-82423000D01*
X117547000Y-82677000D01*
X117527000Y-82677000D01*
X117527000Y-82697000D01*
X117273000Y-82697000D01*
X117273000Y-82677000D01*
X117253000Y-82677000D01*
X117253000Y-82423000D01*
X117273000Y-82423000D01*
X117273000Y-82403000D01*
X117527000Y-82403000D01*
X117527000Y-82423000D01*
M02*
