M48
;DRILL file {KiCad 4.0.6} date Sat Oct 21 15:15:08 2017
;FORMAT={-:-/ absolute / inch / decimal}
FMAT,2
INCH,TZ
T1C0.016
T2C0.031
T3C0.039
T4C0.040
T5C0.070
T6C0.079
T7C0.126
T8C0.130
%
G90
G05
M72
T1
X3.2516Y-4.0291
X3.2516Y-4.1291
X3.3516Y-4.0291
X3.3516Y-4.1291
X3.4516Y-3.3291
X3.4516Y-3.4291
X3.4516Y-3.5291
X3.4516Y-3.6291
X3.4516Y-3.7291
X3.4516Y-3.8291
X3.5079Y-3.3228
X3.5516Y-3.4291
X3.5516Y-3.5291
X3.5516Y-3.6291
X3.5516Y-3.7291
X3.5591Y-3.3189
X3.5827Y-4.0157
X3.6811Y-4.0787
X3.7516Y-2.9791
X3.8016Y-4.3291
X3.8622Y-3.315
X3.8937Y-4.2008
X3.9094Y-4.0118
X3.9516Y-2.9791
X3.9567Y-4.0364
X4.0016Y-3.5791
X4.0016Y-3.6791
X4.0016Y-3.7791
X4.0016Y-4.3291
X4.0157Y-3.5197
X4.0236Y-3.4724
X4.0433Y-4.0945
X4.1339Y-4.0118
X4.1516Y-2.9791
X4.1988Y-3.8543
X4.2016Y-4.1378
X4.2066Y-4.3341
X4.2362Y-2.9685
X4.2362Y-3.8583
X4.252Y-4.0276
X4.2618Y-3.8071
X4.2843Y-3.4333
X4.3228Y-3.5787
X4.3268Y-3.5
X4.3268Y-3.626
X4.3553Y-3.4668
X4.3555Y-3.5669
X4.3874Y-4.0618
X4.389Y-4.1378
X4.4016Y-3.7291
X4.4016Y-4.3291
X4.4516Y-3.2791
X4.4563Y-3.8996
X4.498Y-3.8071
X4.5016Y-3.3748
X4.5016Y-3.4791
X4.5291Y-3.2787
X4.5616Y-4.0951
X4.6016Y-4.3291
X4.6138Y-3.6976
X4.6142Y-3.7795
X4.6142Y-3.815
X4.6553Y-3.8279
X4.6801Y-3.94
X4.685Y-3.7795
X4.7008Y-3.2638
X4.7016Y-3.3724
X4.7016Y-3.4791
X4.7047Y-3.9173
X4.7323Y-3.9646
X4.7409Y-3.0579
X4.7441Y-3.7677
X4.7598Y-3.2953
X4.7657Y-3.7362
X4.7911Y-3.6576
X4.8016Y-4.1291
X4.8016Y-4.3291
X4.8142Y-3.5945
X4.8476Y-3.4396
X4.8623Y-3.7982
X4.8654Y-3.0894
X4.878Y-3.8346
X4.878Y-3.9685
X4.9016Y-3.5945
X4.9291Y-3.4843
X4.9667Y-3.511
X4.979Y-3.5413
X5.Y-3.185
X5.Y-3.6575
X5.0016Y-4.1291
X5.0016Y-4.3291
X5.0197Y-3.3898
X5.0358Y-3.7071
X5.0358Y-3.8224
X5.0433Y-4.0551
X5.1035Y-3.514
X5.1237Y-3.5382
X5.128Y-3.4685
X5.1526Y-3.4466
X5.1614Y-3.6575
X5.1744Y-3.7083
X5.1744Y-3.8248
X5.1766Y-3.3536
X5.1946Y-3.4486
X5.2Y-3.8508
X5.2Y-4.0138
X5.2004Y-3.7969
X5.2016Y-4.3291
X5.225Y-3.8228
X5.226Y-3.7335
X5.2301Y-3.4586
X5.2766Y-3.4741
X5.2953Y-3.3848
X5.3189Y-3.4094
X5.3216Y-3.5541
X5.3293Y-3.716
X5.3386Y-3.7461
X5.3622Y-3.7165
X5.3701Y-3.9331
X5.4016Y-4.3291
X5.4921Y-3.8307
X5.5039Y-3.6378
X5.5039Y-3.6929
X5.511Y-3.1984
X5.5161Y-3.376
X5.6016Y-3.0241
X5.6575Y-3.563
X5.6575Y-3.6299
X5.6575Y-3.7087
X5.6614Y-3.7913
X5.6614Y-3.874
X5.6969Y-3.937
X5.7311Y-3.7481
X5.7323Y-3.7906
X5.7362Y-3.5236
X5.7576Y-3.6706
X5.8016Y-3.0241
X5.8346Y-3.7205
X5.9266Y-3.7451
X6.0016Y-3.0241
X6.0016Y-3.2241
X6.0016Y-4.3291
X6.0066Y-3.5041
X6.1772Y-3.5236
X6.1772Y-3.9055
X6.2016Y-3.0241
X6.2016Y-3.3291
X6.2016Y-4.1291
X6.2066Y-4.3291
T2
X3.4764Y-3.0591
X3.5551Y-3.0591
X3.6339Y-3.0591
T3
X3.5059Y-4.2913
X3.6059Y-4.2913
T4
X5.9843Y-3.5827
X5.9843Y-3.6827
X5.9843Y-3.7827
X5.9843Y-3.8827
X6.0843Y-3.6079
X6.0843Y-3.7075
X6.0843Y-3.8075
X6.0843Y-3.9079
T5
X6.2142Y-3.4276
X6.2142Y-4.0378
T6
X3.7654Y-3.5887
T7
X3.2894Y-2.9921
X3.2894Y-4.2913
X6.5571Y-2.9921
X6.5571Y-4.2913
T8
X6.3343Y-3.5075
X6.3343Y-3.9579
T0
M30
