G04 #@! TF.FileFunction,Legend,Top*
%FSLAX46Y46*%
G04 Gerber Fmt 4.6, Leading zero omitted, Abs format (unit mm)*
G04 Created by KiCad (PCBNEW 4.0.6) date Sat Oct 21 15:15:02 2017*
%MOMM*%
%LPD*%
G01*
G04 APERTURE LIST*
%ADD10C,0.100000*%
%ADD11C,0.300000*%
%ADD12C,0.120000*%
%ADD13C,0.150000*%
%ADD14C,0.500000*%
G04 APERTURE END LIST*
D10*
D11*
X93082857Y-75834285D02*
X92511429Y-76234285D01*
X93082857Y-76520000D02*
X91882857Y-76520000D01*
X91882857Y-76062857D01*
X91940000Y-75948571D01*
X91997143Y-75891428D01*
X92111429Y-75834285D01*
X92282857Y-75834285D01*
X92397143Y-75891428D01*
X92454286Y-75948571D01*
X92511429Y-76062857D01*
X92511429Y-76520000D01*
X93082857Y-75434285D02*
X92282857Y-74805714D01*
X92282857Y-75434285D02*
X93082857Y-74805714D01*
X93082857Y-74348571D02*
X91882857Y-74348571D01*
X91882857Y-74062856D01*
X91940000Y-73891428D01*
X92054286Y-73777142D01*
X92168571Y-73719999D01*
X92397143Y-73662856D01*
X92568571Y-73662856D01*
X92797143Y-73719999D01*
X92911429Y-73777142D01*
X93025714Y-73891428D01*
X93082857Y-74062856D01*
X93082857Y-74348571D01*
X89572857Y-76458571D02*
X89572857Y-75772857D01*
X90772857Y-76115714D02*
X89572857Y-76115714D01*
X90772857Y-75487142D02*
X89972857Y-74858571D01*
X89972857Y-75487142D02*
X90772857Y-74858571D01*
X90772857Y-74401428D02*
X89572857Y-74401428D01*
X89572857Y-74115713D01*
X89630000Y-73944285D01*
X89744286Y-73829999D01*
X89858571Y-73772856D01*
X90087143Y-73715713D01*
X90258571Y-73715713D01*
X90487143Y-73772856D01*
X90601429Y-73829999D01*
X90715714Y-73944285D01*
X90772857Y-74115713D01*
X90772857Y-74401428D01*
X93185715Y-108985714D02*
X94100001Y-108985714D01*
X93642858Y-109442857D02*
X93642858Y-108528571D01*
X94557144Y-108242857D02*
X95300001Y-108242857D01*
X94900001Y-108700000D01*
X95071429Y-108700000D01*
X95185715Y-108757143D01*
X95242858Y-108814286D01*
X95300001Y-108928571D01*
X95300001Y-109214286D01*
X95242858Y-109328571D01*
X95185715Y-109385714D01*
X95071429Y-109442857D01*
X94728572Y-109442857D01*
X94614286Y-109385714D01*
X94557144Y-109328571D01*
X95642858Y-108242857D02*
X96042858Y-109442857D01*
X96442858Y-108242857D01*
X96728572Y-108242857D02*
X97471429Y-108242857D01*
X97071429Y-108700000D01*
X97242857Y-108700000D01*
X97357143Y-108757143D01*
X97414286Y-108814286D01*
X97471429Y-108928571D01*
X97471429Y-109214286D01*
X97414286Y-109328571D01*
X97357143Y-109385714D01*
X97242857Y-109442857D01*
X96900000Y-109442857D01*
X96785714Y-109385714D01*
X96728572Y-109328571D01*
X111152381Y-81427143D02*
X110719048Y-81427143D01*
X110719048Y-82108095D02*
X110719048Y-80808095D01*
X111338095Y-80808095D01*
X112452381Y-82108095D02*
X111833334Y-82108095D01*
X111833334Y-80808095D01*
X112823810Y-81736667D02*
X113442858Y-81736667D01*
X112700001Y-82108095D02*
X113133334Y-80808095D01*
X113566667Y-82108095D01*
X113938096Y-82046190D02*
X114123810Y-82108095D01*
X114433334Y-82108095D01*
X114557144Y-82046190D01*
X114619048Y-81984286D01*
X114680953Y-81860476D01*
X114680953Y-81736667D01*
X114619048Y-81612857D01*
X114557144Y-81550952D01*
X114433334Y-81489048D01*
X114185715Y-81427143D01*
X114061906Y-81365238D01*
X114000001Y-81303333D01*
X113938096Y-81179524D01*
X113938096Y-81055714D01*
X114000001Y-80931905D01*
X114061906Y-80870000D01*
X114185715Y-80808095D01*
X114495239Y-80808095D01*
X114680953Y-80870000D01*
X115238096Y-82108095D02*
X115238096Y-80808095D01*
X115238096Y-81427143D02*
X115980953Y-81427143D01*
X115980953Y-82108095D02*
X115980953Y-80808095D01*
X111191906Y-109138095D02*
X110758573Y-108519048D01*
X110449049Y-109138095D02*
X110449049Y-107838095D01*
X110944287Y-107838095D01*
X111068096Y-107900000D01*
X111130001Y-107961905D01*
X111191906Y-108085714D01*
X111191906Y-108271429D01*
X111130001Y-108395238D01*
X111068096Y-108457143D01*
X110944287Y-108519048D01*
X110449049Y-108519048D01*
X111749049Y-108457143D02*
X112182382Y-108457143D01*
X112368096Y-109138095D02*
X111749049Y-109138095D01*
X111749049Y-107838095D01*
X112368096Y-107838095D01*
X112863334Y-109076190D02*
X113049048Y-109138095D01*
X113358572Y-109138095D01*
X113482382Y-109076190D01*
X113544286Y-109014286D01*
X113606191Y-108890476D01*
X113606191Y-108766667D01*
X113544286Y-108642857D01*
X113482382Y-108580952D01*
X113358572Y-108519048D01*
X113110953Y-108457143D01*
X112987144Y-108395238D01*
X112925239Y-108333333D01*
X112863334Y-108209524D01*
X112863334Y-108085714D01*
X112925239Y-107961905D01*
X112987144Y-107900000D01*
X113110953Y-107838095D01*
X113420477Y-107838095D01*
X113606191Y-107900000D01*
X114163334Y-108457143D02*
X114596667Y-108457143D01*
X114782381Y-109138095D02*
X114163334Y-109138095D01*
X114163334Y-107838095D01*
X114782381Y-107838095D01*
X115153810Y-107838095D02*
X115896667Y-107838095D01*
X115525238Y-109138095D02*
X115525238Y-107838095D01*
D12*
X135700000Y-84000000D02*
X135700000Y-84300000D01*
X135700000Y-84300000D02*
X128300000Y-84300000D01*
X128300000Y-84300000D02*
X128300000Y-84000000D01*
X136200000Y-78000000D02*
X135700000Y-78000000D01*
X135700000Y-78000000D02*
X135700000Y-77700000D01*
X135700000Y-77700000D02*
X128300000Y-77700000D01*
X128300000Y-77800000D02*
X128300000Y-78100000D01*
X136200000Y-80100000D02*
X135700000Y-80100000D01*
X135700000Y-80100000D02*
X135700000Y-80700000D01*
X128300000Y-81300000D02*
X128300000Y-80700000D01*
X129787200Y-86156940D02*
X128787200Y-86156940D01*
X128787200Y-84796940D02*
X129787200Y-84796940D01*
X88050000Y-106980000D02*
X90050000Y-106980000D01*
X90050000Y-104020000D02*
X88050000Y-104020000D01*
X88900000Y-103500000D02*
X88200000Y-103500000D01*
X88200000Y-102300000D02*
X88900000Y-102300000D01*
X124550000Y-79400000D02*
X125250000Y-79400000D01*
X125250000Y-80600000D02*
X124550000Y-80600000D01*
X96450000Y-106100000D02*
X97150000Y-106100000D01*
X97150000Y-107300000D02*
X96450000Y-107300000D01*
X118000000Y-81450000D02*
X118000000Y-82150000D01*
X116800000Y-82150000D02*
X116800000Y-81450000D01*
X138600000Y-81650000D02*
X138600000Y-82350000D01*
X137400000Y-82350000D02*
X137400000Y-81650000D01*
X143550000Y-88800000D02*
X144250000Y-88800000D01*
X144250000Y-90000000D02*
X143550000Y-90000000D01*
X143550000Y-87400000D02*
X144250000Y-87400000D01*
X144250000Y-88600000D02*
X143550000Y-88600000D01*
X143650000Y-100500000D02*
X144350000Y-100500000D01*
X144350000Y-101700000D02*
X143650000Y-101700000D01*
X143650000Y-101900000D02*
X144350000Y-101900000D01*
X144350000Y-103100000D02*
X143650000Y-103100000D01*
X121700000Y-98050000D02*
X121700000Y-97350000D01*
X122900000Y-97350000D02*
X122900000Y-98050000D01*
X138350000Y-91600000D02*
X137650000Y-91600000D01*
X137650000Y-90400000D02*
X138350000Y-90400000D01*
X138350000Y-95800000D02*
X137650000Y-95800000D01*
X137650000Y-94600000D02*
X138350000Y-94600000D01*
X124000000Y-91750000D02*
X124000000Y-92450000D01*
X122800000Y-92450000D02*
X122800000Y-91750000D01*
X120300000Y-98050000D02*
X120300000Y-97350000D01*
X121500000Y-97350000D02*
X121500000Y-98050000D01*
X137650000Y-91800000D02*
X138350000Y-91800000D01*
X138350000Y-93000000D02*
X137650000Y-93000000D01*
X128750000Y-88900000D02*
X128050000Y-88900000D01*
X128050000Y-87700000D02*
X128750000Y-87700000D01*
X128750000Y-87500000D02*
X128050000Y-87500000D01*
X128050000Y-86300000D02*
X128750000Y-86300000D01*
X145860000Y-107350000D02*
X143860000Y-107350000D01*
X143860000Y-104390000D02*
X145860000Y-104390000D01*
X141700000Y-81450000D02*
X141700000Y-82550000D01*
X141700000Y-82550000D02*
X143800000Y-82550000D01*
X141700000Y-81450000D02*
X143800000Y-81450000D01*
X141700000Y-83450000D02*
X141700000Y-84550000D01*
X141700000Y-84550000D02*
X143800000Y-84550000D01*
X141700000Y-83450000D02*
X143800000Y-83450000D01*
X90320000Y-110390000D02*
X92980000Y-110390000D01*
X92980000Y-110390000D02*
X92980000Y-107610000D01*
X92980000Y-107610000D02*
X90320000Y-107610000D01*
X90320000Y-107610000D02*
X90320000Y-110390000D01*
X89050000Y-110390000D02*
X87660000Y-110390000D01*
X87660000Y-110390000D02*
X87660000Y-109000000D01*
X89300000Y-78820000D02*
X93420000Y-78820000D01*
X93420000Y-78820000D02*
X93420000Y-76580000D01*
X93420000Y-76580000D02*
X89300000Y-76580000D01*
X89300000Y-76580000D02*
X89300000Y-78820000D01*
X88300000Y-78820000D02*
X87180000Y-78820000D01*
X87180000Y-78820000D02*
X87180000Y-77700000D01*
X137600000Y-101120000D02*
X139600000Y-101120000D01*
X139600000Y-104080000D02*
X137600000Y-104080000D01*
X93120000Y-106000000D02*
X93120000Y-105000000D01*
X94480000Y-105000000D02*
X94480000Y-106000000D01*
X138200000Y-79680000D02*
X137200000Y-79680000D01*
X137200000Y-78320000D02*
X138200000Y-78320000D01*
X97300000Y-105480000D02*
X96300000Y-105480000D01*
X96300000Y-104120000D02*
X97300000Y-104120000D01*
X125500000Y-85680000D02*
X124500000Y-85680000D01*
X124500000Y-84320000D02*
X125500000Y-84320000D01*
X109400000Y-82580000D02*
X108400000Y-82580000D01*
X108400000Y-81220000D02*
X109400000Y-81220000D01*
X142600000Y-99080000D02*
X141600000Y-99080000D01*
X141600000Y-97720000D02*
X142600000Y-97720000D01*
X142600000Y-96980000D02*
X141600000Y-96980000D01*
X141600000Y-95620000D02*
X142600000Y-95620000D01*
X142600000Y-94880000D02*
X141600000Y-94880000D01*
X141600000Y-93520000D02*
X142600000Y-93520000D01*
X142600000Y-92880000D02*
X141600000Y-92880000D01*
X141600000Y-91520000D02*
X142600000Y-91520000D01*
X124508000Y-85912000D02*
X125508000Y-85912000D01*
X125508000Y-87272000D02*
X124508000Y-87272000D01*
X137500000Y-88680000D02*
X136500000Y-88680000D01*
X136500000Y-87320000D02*
X137500000Y-87320000D01*
X146500000Y-81320000D02*
X147500000Y-81320000D01*
X147500000Y-82680000D02*
X146500000Y-82680000D01*
X146500000Y-83320000D02*
X147500000Y-83320000D01*
X147500000Y-84680000D02*
X146500000Y-84680000D01*
D13*
X109200000Y-102000000D02*
X114400000Y-102000000D01*
X114400000Y-102000000D02*
X114400000Y-107200000D01*
X114400000Y-107200000D02*
X109200000Y-107200000D01*
X109200000Y-107200000D02*
X109200000Y-102000000D01*
X109200000Y-75100000D02*
X114400000Y-75100000D01*
X114400000Y-75100000D02*
X114400000Y-80300000D01*
X114400000Y-80300000D02*
X109200000Y-80300000D01*
X109200000Y-80300000D02*
X109200000Y-75100000D01*
D12*
X120100000Y-82610000D02*
X121900000Y-82610000D01*
X121900000Y-79390000D02*
X119450000Y-79390000D01*
D14*
X86779981Y-100806000D02*
G75*
G03X86779981Y-100806000I-283981J0D01*
G01*
D13*
X86350000Y-81900000D02*
X86350000Y-99900000D01*
X80350000Y-99900000D02*
X105850000Y-99900000D01*
X80350000Y-81900000D02*
X105850000Y-81900000D01*
X105850000Y-81900000D02*
X105850000Y-99900000D01*
X80350000Y-81900000D02*
X80350000Y-99900000D01*
X126175000Y-99225000D02*
X126625000Y-99225000D01*
X126175000Y-91975000D02*
X126700000Y-91975000D01*
X133425000Y-91975000D02*
X132900000Y-91975000D01*
X133425000Y-99225000D02*
X132900000Y-99225000D01*
X126175000Y-99225000D02*
X126175000Y-98700000D01*
X133425000Y-99225000D02*
X133425000Y-98700000D01*
X133425000Y-91975000D02*
X133425000Y-92500000D01*
X126175000Y-91975000D02*
X126175000Y-92500000D01*
X126625000Y-99225000D02*
X126625000Y-100600000D01*
D12*
X137650000Y-93200000D02*
X138350000Y-93200000D01*
X138350000Y-94400000D02*
X137650000Y-94400000D01*
X120930000Y-90200000D02*
X120930000Y-91200000D01*
X119570000Y-91200000D02*
X119570000Y-90200000D01*
X134220000Y-102610000D02*
X133220000Y-102610000D01*
X133220000Y-101250000D02*
X134220000Y-101250000D01*
X115140000Y-76650000D02*
X115140000Y-78650000D01*
X115140000Y-78650000D02*
X119040000Y-78650000D01*
X115140000Y-76650000D02*
X119040000Y-76650000D01*
X172070000Y-87060000D02*
X160130000Y-87060000D01*
X147050000Y-87060000D02*
X156350000Y-87060000D01*
X172070000Y-103060000D02*
X160130000Y-103060000D01*
X147050000Y-103060000D02*
X156430000Y-103060000D01*
X147050000Y-87060000D02*
X147050000Y-88080000D01*
X147050000Y-96460000D02*
X147050000Y-93160000D01*
X147050000Y-103060000D02*
X147050000Y-101790000D01*
X172110000Y-103060000D02*
X172110000Y-87060000D01*
D13*
X135120476Y-84647381D02*
X135787143Y-85647381D01*
X135787143Y-84647381D02*
X135120476Y-85647381D01*
X136691905Y-85647381D02*
X136120476Y-85647381D01*
X136406190Y-85647381D02*
X136406190Y-84647381D01*
X136310952Y-84790238D01*
X136215714Y-84885476D01*
X136120476Y-84933095D01*
X131414534Y-86076321D02*
X131081200Y-85600130D01*
X130843105Y-86076321D02*
X130843105Y-85076321D01*
X131224058Y-85076321D01*
X131319296Y-85123940D01*
X131366915Y-85171559D01*
X131414534Y-85266797D01*
X131414534Y-85409654D01*
X131366915Y-85504892D01*
X131319296Y-85552511D01*
X131224058Y-85600130D01*
X130843105Y-85600130D01*
X132271677Y-85409654D02*
X132271677Y-86076321D01*
X132033581Y-85028702D02*
X131795486Y-85742988D01*
X132414534Y-85742988D01*
X86106334Y-105491143D02*
X86058715Y-105538762D01*
X85915858Y-105586381D01*
X85820620Y-105586381D01*
X85677762Y-105538762D01*
X85582524Y-105443524D01*
X85534905Y-105348286D01*
X85487286Y-105157810D01*
X85487286Y-105014952D01*
X85534905Y-104824476D01*
X85582524Y-104729238D01*
X85677762Y-104634000D01*
X85820620Y-104586381D01*
X85915858Y-104586381D01*
X86058715Y-104634000D01*
X86106334Y-104681619D01*
X87058715Y-105586381D02*
X86487286Y-105586381D01*
X86773000Y-105586381D02*
X86773000Y-104586381D01*
X86677762Y-104729238D01*
X86582524Y-104824476D01*
X86487286Y-104872095D01*
X91313334Y-103332143D02*
X91265715Y-103379762D01*
X91122858Y-103427381D01*
X91027620Y-103427381D01*
X90884762Y-103379762D01*
X90789524Y-103284524D01*
X90741905Y-103189286D01*
X90694286Y-102998810D01*
X90694286Y-102855952D01*
X90741905Y-102665476D01*
X90789524Y-102570238D01*
X90884762Y-102475000D01*
X91027620Y-102427381D01*
X91122858Y-102427381D01*
X91265715Y-102475000D01*
X91313334Y-102522619D01*
X91694286Y-102522619D02*
X91741905Y-102475000D01*
X91837143Y-102427381D01*
X92075239Y-102427381D01*
X92170477Y-102475000D01*
X92218096Y-102522619D01*
X92265715Y-102617857D01*
X92265715Y-102713095D01*
X92218096Y-102855952D01*
X91646667Y-103427381D01*
X92265715Y-103427381D01*
X126873334Y-80345143D02*
X126825715Y-80392762D01*
X126682858Y-80440381D01*
X126587620Y-80440381D01*
X126444762Y-80392762D01*
X126349524Y-80297524D01*
X126301905Y-80202286D01*
X126254286Y-80011810D01*
X126254286Y-79868952D01*
X126301905Y-79678476D01*
X126349524Y-79583238D01*
X126444762Y-79488000D01*
X126587620Y-79440381D01*
X126682858Y-79440381D01*
X126825715Y-79488000D01*
X126873334Y-79535619D01*
X127206667Y-79440381D02*
X127825715Y-79440381D01*
X127492381Y-79821333D01*
X127635239Y-79821333D01*
X127730477Y-79868952D01*
X127778096Y-79916571D01*
X127825715Y-80011810D01*
X127825715Y-80249905D01*
X127778096Y-80345143D01*
X127730477Y-80392762D01*
X127635239Y-80440381D01*
X127349524Y-80440381D01*
X127254286Y-80392762D01*
X127206667Y-80345143D01*
X99314334Y-106761143D02*
X99266715Y-106808762D01*
X99123858Y-106856381D01*
X99028620Y-106856381D01*
X98885762Y-106808762D01*
X98790524Y-106713524D01*
X98742905Y-106618286D01*
X98695286Y-106427810D01*
X98695286Y-106284952D01*
X98742905Y-106094476D01*
X98790524Y-105999238D01*
X98885762Y-105904000D01*
X99028620Y-105856381D01*
X99123858Y-105856381D01*
X99266715Y-105904000D01*
X99314334Y-105951619D01*
X100171477Y-106189714D02*
X100171477Y-106856381D01*
X99933381Y-105808762D02*
X99695286Y-106523048D01*
X100314334Y-106523048D01*
X117348334Y-80091143D02*
X117300715Y-80138762D01*
X117157858Y-80186381D01*
X117062620Y-80186381D01*
X116919762Y-80138762D01*
X116824524Y-80043524D01*
X116776905Y-79948286D01*
X116729286Y-79757810D01*
X116729286Y-79614952D01*
X116776905Y-79424476D01*
X116824524Y-79329238D01*
X116919762Y-79234000D01*
X117062620Y-79186381D01*
X117157858Y-79186381D01*
X117300715Y-79234000D01*
X117348334Y-79281619D01*
X118253096Y-79186381D02*
X117776905Y-79186381D01*
X117729286Y-79662571D01*
X117776905Y-79614952D01*
X117872143Y-79567333D01*
X118110239Y-79567333D01*
X118205477Y-79614952D01*
X118253096Y-79662571D01*
X118300715Y-79757810D01*
X118300715Y-79995905D01*
X118253096Y-80091143D01*
X118205477Y-80138762D01*
X118110239Y-80186381D01*
X117872143Y-80186381D01*
X117776905Y-80138762D01*
X117729286Y-80091143D01*
X139333334Y-82357143D02*
X139285715Y-82404762D01*
X139142858Y-82452381D01*
X139047620Y-82452381D01*
X138904762Y-82404762D01*
X138809524Y-82309524D01*
X138761905Y-82214286D01*
X138714286Y-82023810D01*
X138714286Y-81880952D01*
X138761905Y-81690476D01*
X138809524Y-81595238D01*
X138904762Y-81500000D01*
X139047620Y-81452381D01*
X139142858Y-81452381D01*
X139285715Y-81500000D01*
X139333334Y-81547619D01*
X140190477Y-81452381D02*
X140000000Y-81452381D01*
X139904762Y-81500000D01*
X139857143Y-81547619D01*
X139761905Y-81690476D01*
X139714286Y-81880952D01*
X139714286Y-82261905D01*
X139761905Y-82357143D01*
X139809524Y-82404762D01*
X139904762Y-82452381D01*
X140095239Y-82452381D01*
X140190477Y-82404762D01*
X140238096Y-82357143D01*
X140285715Y-82261905D01*
X140285715Y-82023810D01*
X140238096Y-81928571D01*
X140190477Y-81880952D01*
X140095239Y-81833333D01*
X139904762Y-81833333D01*
X139809524Y-81880952D01*
X139761905Y-81928571D01*
X139714286Y-82023810D01*
X146685334Y-89870143D02*
X146637715Y-89917762D01*
X146494858Y-89965381D01*
X146399620Y-89965381D01*
X146256762Y-89917762D01*
X146161524Y-89822524D01*
X146113905Y-89727286D01*
X146066286Y-89536810D01*
X146066286Y-89393952D01*
X146113905Y-89203476D01*
X146161524Y-89108238D01*
X146256762Y-89013000D01*
X146399620Y-88965381D01*
X146494858Y-88965381D01*
X146637715Y-89013000D01*
X146685334Y-89060619D01*
X147161524Y-89965381D02*
X147352000Y-89965381D01*
X147447239Y-89917762D01*
X147494858Y-89870143D01*
X147590096Y-89727286D01*
X147637715Y-89536810D01*
X147637715Y-89155857D01*
X147590096Y-89060619D01*
X147542477Y-89013000D01*
X147447239Y-88965381D01*
X147256762Y-88965381D01*
X147161524Y-89013000D01*
X147113905Y-89060619D01*
X147066286Y-89155857D01*
X147066286Y-89393952D01*
X147113905Y-89489190D01*
X147161524Y-89536810D01*
X147256762Y-89584429D01*
X147447239Y-89584429D01*
X147542477Y-89536810D01*
X147590096Y-89489190D01*
X147637715Y-89393952D01*
X146590143Y-88346143D02*
X146542524Y-88393762D01*
X146399667Y-88441381D01*
X146304429Y-88441381D01*
X146161571Y-88393762D01*
X146066333Y-88298524D01*
X146018714Y-88203286D01*
X145971095Y-88012810D01*
X145971095Y-87869952D01*
X146018714Y-87679476D01*
X146066333Y-87584238D01*
X146161571Y-87489000D01*
X146304429Y-87441381D01*
X146399667Y-87441381D01*
X146542524Y-87489000D01*
X146590143Y-87536619D01*
X147542524Y-88441381D02*
X146971095Y-88441381D01*
X147256809Y-88441381D02*
X147256809Y-87441381D01*
X147161571Y-87584238D01*
X147066333Y-87679476D01*
X146971095Y-87727095D01*
X148161571Y-87441381D02*
X148256810Y-87441381D01*
X148352048Y-87489000D01*
X148399667Y-87536619D01*
X148447286Y-87631857D01*
X148494905Y-87822333D01*
X148494905Y-88060429D01*
X148447286Y-88250905D01*
X148399667Y-88346143D01*
X148352048Y-88393762D01*
X148256810Y-88441381D01*
X148161571Y-88441381D01*
X148066333Y-88393762D01*
X148018714Y-88346143D01*
X147971095Y-88250905D01*
X147923476Y-88060429D01*
X147923476Y-87822333D01*
X147971095Y-87631857D01*
X148018714Y-87536619D01*
X148066333Y-87489000D01*
X148161571Y-87441381D01*
X146336143Y-101554143D02*
X146288524Y-101601762D01*
X146145667Y-101649381D01*
X146050429Y-101649381D01*
X145907571Y-101601762D01*
X145812333Y-101506524D01*
X145764714Y-101411286D01*
X145717095Y-101220810D01*
X145717095Y-101077952D01*
X145764714Y-100887476D01*
X145812333Y-100792238D01*
X145907571Y-100697000D01*
X146050429Y-100649381D01*
X146145667Y-100649381D01*
X146288524Y-100697000D01*
X146336143Y-100744619D01*
X147288524Y-101649381D02*
X146717095Y-101649381D01*
X147002809Y-101649381D02*
X147002809Y-100649381D01*
X146907571Y-100792238D01*
X146812333Y-100887476D01*
X146717095Y-100935095D01*
X148240905Y-101649381D02*
X147669476Y-101649381D01*
X147955190Y-101649381D02*
X147955190Y-100649381D01*
X147859952Y-100792238D01*
X147764714Y-100887476D01*
X147669476Y-100935095D01*
X146463143Y-102951143D02*
X146415524Y-102998762D01*
X146272667Y-103046381D01*
X146177429Y-103046381D01*
X146034571Y-102998762D01*
X145939333Y-102903524D01*
X145891714Y-102808286D01*
X145844095Y-102617810D01*
X145844095Y-102474952D01*
X145891714Y-102284476D01*
X145939333Y-102189238D01*
X146034571Y-102094000D01*
X146177429Y-102046381D01*
X146272667Y-102046381D01*
X146415524Y-102094000D01*
X146463143Y-102141619D01*
X147415524Y-103046381D02*
X146844095Y-103046381D01*
X147129809Y-103046381D02*
X147129809Y-102046381D01*
X147034571Y-102189238D01*
X146939333Y-102284476D01*
X146844095Y-102332095D01*
X147796476Y-102141619D02*
X147844095Y-102094000D01*
X147939333Y-102046381D01*
X148177429Y-102046381D01*
X148272667Y-102094000D01*
X148320286Y-102141619D01*
X148367905Y-102236857D01*
X148367905Y-102332095D01*
X148320286Y-102474952D01*
X147748857Y-103046381D01*
X148367905Y-103046381D01*
X122460143Y-100157143D02*
X122412524Y-100204762D01*
X122269667Y-100252381D01*
X122174429Y-100252381D01*
X122031571Y-100204762D01*
X121936333Y-100109524D01*
X121888714Y-100014286D01*
X121841095Y-99823810D01*
X121841095Y-99680952D01*
X121888714Y-99490476D01*
X121936333Y-99395238D01*
X122031571Y-99300000D01*
X122174429Y-99252381D01*
X122269667Y-99252381D01*
X122412524Y-99300000D01*
X122460143Y-99347619D01*
X123412524Y-100252381D02*
X122841095Y-100252381D01*
X123126809Y-100252381D02*
X123126809Y-99252381D01*
X123031571Y-99395238D01*
X122936333Y-99490476D01*
X122841095Y-99538095D01*
X123745857Y-99252381D02*
X124364905Y-99252381D01*
X124031571Y-99633333D01*
X124174429Y-99633333D01*
X124269667Y-99680952D01*
X124317286Y-99728571D01*
X124364905Y-99823810D01*
X124364905Y-100061905D01*
X124317286Y-100157143D01*
X124269667Y-100204762D01*
X124174429Y-100252381D01*
X123888714Y-100252381D01*
X123793476Y-100204762D01*
X123745857Y-100157143D01*
X139859143Y-91394143D02*
X139811524Y-91441762D01*
X139668667Y-91489381D01*
X139573429Y-91489381D01*
X139430571Y-91441762D01*
X139335333Y-91346524D01*
X139287714Y-91251286D01*
X139240095Y-91060810D01*
X139240095Y-90917952D01*
X139287714Y-90727476D01*
X139335333Y-90632238D01*
X139430571Y-90537000D01*
X139573429Y-90489381D01*
X139668667Y-90489381D01*
X139811524Y-90537000D01*
X139859143Y-90584619D01*
X140811524Y-91489381D02*
X140240095Y-91489381D01*
X140525809Y-91489381D02*
X140525809Y-90489381D01*
X140430571Y-90632238D01*
X140335333Y-90727476D01*
X140240095Y-90775095D01*
X141668667Y-90822714D02*
X141668667Y-91489381D01*
X141430571Y-90441762D02*
X141192476Y-91156048D01*
X141811524Y-91156048D01*
X139732143Y-95585143D02*
X139684524Y-95632762D01*
X139541667Y-95680381D01*
X139446429Y-95680381D01*
X139303571Y-95632762D01*
X139208333Y-95537524D01*
X139160714Y-95442286D01*
X139113095Y-95251810D01*
X139113095Y-95108952D01*
X139160714Y-94918476D01*
X139208333Y-94823238D01*
X139303571Y-94728000D01*
X139446429Y-94680381D01*
X139541667Y-94680381D01*
X139684524Y-94728000D01*
X139732143Y-94775619D01*
X140684524Y-95680381D02*
X140113095Y-95680381D01*
X140398809Y-95680381D02*
X140398809Y-94680381D01*
X140303571Y-94823238D01*
X140208333Y-94918476D01*
X140113095Y-94966095D01*
X141589286Y-94680381D02*
X141113095Y-94680381D01*
X141065476Y-95156571D01*
X141113095Y-95108952D01*
X141208333Y-95061333D01*
X141446429Y-95061333D01*
X141541667Y-95108952D01*
X141589286Y-95156571D01*
X141636905Y-95251810D01*
X141636905Y-95489905D01*
X141589286Y-95585143D01*
X141541667Y-95632762D01*
X141446429Y-95680381D01*
X141208333Y-95680381D01*
X141113095Y-95632762D01*
X141065476Y-95585143D01*
X122683663Y-94348163D02*
X122636044Y-94395782D01*
X122493187Y-94443401D01*
X122397949Y-94443401D01*
X122255091Y-94395782D01*
X122159853Y-94300544D01*
X122112234Y-94205306D01*
X122064615Y-94014830D01*
X122064615Y-93871972D01*
X122112234Y-93681496D01*
X122159853Y-93586258D01*
X122255091Y-93491020D01*
X122397949Y-93443401D01*
X122493187Y-93443401D01*
X122636044Y-93491020D01*
X122683663Y-93538639D01*
X123636044Y-94443401D02*
X123064615Y-94443401D01*
X123350329Y-94443401D02*
X123350329Y-93443401D01*
X123255091Y-93586258D01*
X123159853Y-93681496D01*
X123064615Y-93729115D01*
X124493187Y-93443401D02*
X124302710Y-93443401D01*
X124207472Y-93491020D01*
X124159853Y-93538639D01*
X124064615Y-93681496D01*
X124016996Y-93871972D01*
X124016996Y-94252925D01*
X124064615Y-94348163D01*
X124112234Y-94395782D01*
X124207472Y-94443401D01*
X124397949Y-94443401D01*
X124493187Y-94395782D01*
X124540806Y-94348163D01*
X124588425Y-94252925D01*
X124588425Y-94014830D01*
X124540806Y-93919591D01*
X124493187Y-93871972D01*
X124397949Y-93824353D01*
X124207472Y-93824353D01*
X124112234Y-93871972D01*
X124064615Y-93919591D01*
X124016996Y-94014830D01*
X119793143Y-100157143D02*
X119745524Y-100204762D01*
X119602667Y-100252381D01*
X119507429Y-100252381D01*
X119364571Y-100204762D01*
X119269333Y-100109524D01*
X119221714Y-100014286D01*
X119174095Y-99823810D01*
X119174095Y-99680952D01*
X119221714Y-99490476D01*
X119269333Y-99395238D01*
X119364571Y-99300000D01*
X119507429Y-99252381D01*
X119602667Y-99252381D01*
X119745524Y-99300000D01*
X119793143Y-99347619D01*
X120745524Y-100252381D02*
X120174095Y-100252381D01*
X120459809Y-100252381D02*
X120459809Y-99252381D01*
X120364571Y-99395238D01*
X120269333Y-99490476D01*
X120174095Y-99538095D01*
X121078857Y-99252381D02*
X121745524Y-99252381D01*
X121316952Y-100252381D01*
X139478143Y-92791143D02*
X139430524Y-92838762D01*
X139287667Y-92886381D01*
X139192429Y-92886381D01*
X139049571Y-92838762D01*
X138954333Y-92743524D01*
X138906714Y-92648286D01*
X138859095Y-92457810D01*
X138859095Y-92314952D01*
X138906714Y-92124476D01*
X138954333Y-92029238D01*
X139049571Y-91934000D01*
X139192429Y-91886381D01*
X139287667Y-91886381D01*
X139430524Y-91934000D01*
X139478143Y-91981619D01*
X140430524Y-92886381D02*
X139859095Y-92886381D01*
X140144809Y-92886381D02*
X140144809Y-91886381D01*
X140049571Y-92029238D01*
X139954333Y-92124476D01*
X139859095Y-92172095D01*
X141001952Y-92314952D02*
X140906714Y-92267333D01*
X140859095Y-92219714D01*
X140811476Y-92124476D01*
X140811476Y-92076857D01*
X140859095Y-91981619D01*
X140906714Y-91934000D01*
X141001952Y-91886381D01*
X141192429Y-91886381D01*
X141287667Y-91934000D01*
X141335286Y-91981619D01*
X141382905Y-92076857D01*
X141382905Y-92124476D01*
X141335286Y-92219714D01*
X141287667Y-92267333D01*
X141192429Y-92314952D01*
X141001952Y-92314952D01*
X140906714Y-92362571D01*
X140859095Y-92410190D01*
X140811476Y-92505429D01*
X140811476Y-92695905D01*
X140859095Y-92791143D01*
X140906714Y-92838762D01*
X141001952Y-92886381D01*
X141192429Y-92886381D01*
X141287667Y-92838762D01*
X141335286Y-92791143D01*
X141382905Y-92695905D01*
X141382905Y-92505429D01*
X141335286Y-92410190D01*
X141287667Y-92362571D01*
X141192429Y-92314952D01*
X130407143Y-89057143D02*
X130359524Y-89104762D01*
X130216667Y-89152381D01*
X130121429Y-89152381D01*
X129978571Y-89104762D01*
X129883333Y-89009524D01*
X129835714Y-88914286D01*
X129788095Y-88723810D01*
X129788095Y-88580952D01*
X129835714Y-88390476D01*
X129883333Y-88295238D01*
X129978571Y-88200000D01*
X130121429Y-88152381D01*
X130216667Y-88152381D01*
X130359524Y-88200000D01*
X130407143Y-88247619D01*
X131359524Y-89152381D02*
X130788095Y-89152381D01*
X131073809Y-89152381D02*
X131073809Y-88152381D01*
X130978571Y-88295238D01*
X130883333Y-88390476D01*
X130788095Y-88438095D01*
X131835714Y-89152381D02*
X132026190Y-89152381D01*
X132121429Y-89104762D01*
X132169048Y-89057143D01*
X132264286Y-88914286D01*
X132311905Y-88723810D01*
X132311905Y-88342857D01*
X132264286Y-88247619D01*
X132216667Y-88200000D01*
X132121429Y-88152381D01*
X131930952Y-88152381D01*
X131835714Y-88200000D01*
X131788095Y-88247619D01*
X131740476Y-88342857D01*
X131740476Y-88580952D01*
X131788095Y-88676190D01*
X131835714Y-88723810D01*
X131930952Y-88771429D01*
X132121429Y-88771429D01*
X132216667Y-88723810D01*
X132264286Y-88676190D01*
X132311905Y-88580952D01*
X130607143Y-87257143D02*
X130559524Y-87304762D01*
X130416667Y-87352381D01*
X130321429Y-87352381D01*
X130178571Y-87304762D01*
X130083333Y-87209524D01*
X130035714Y-87114286D01*
X129988095Y-86923810D01*
X129988095Y-86780952D01*
X130035714Y-86590476D01*
X130083333Y-86495238D01*
X130178571Y-86400000D01*
X130321429Y-86352381D01*
X130416667Y-86352381D01*
X130559524Y-86400000D01*
X130607143Y-86447619D01*
X130988095Y-86447619D02*
X131035714Y-86400000D01*
X131130952Y-86352381D01*
X131369048Y-86352381D01*
X131464286Y-86400000D01*
X131511905Y-86447619D01*
X131559524Y-86542857D01*
X131559524Y-86638095D01*
X131511905Y-86780952D01*
X130940476Y-87352381D01*
X131559524Y-87352381D01*
X132511905Y-87352381D02*
X131940476Y-87352381D01*
X132226190Y-87352381D02*
X132226190Y-86352381D01*
X132130952Y-86495238D01*
X132035714Y-86590476D01*
X131940476Y-86638095D01*
X149263143Y-106255143D02*
X149215524Y-106302762D01*
X149072667Y-106350381D01*
X148977429Y-106350381D01*
X148834571Y-106302762D01*
X148739333Y-106207524D01*
X148691714Y-106112286D01*
X148644095Y-105921810D01*
X148644095Y-105778952D01*
X148691714Y-105588476D01*
X148739333Y-105493238D01*
X148834571Y-105398000D01*
X148977429Y-105350381D01*
X149072667Y-105350381D01*
X149215524Y-105398000D01*
X149263143Y-105445619D01*
X149644095Y-105445619D02*
X149691714Y-105398000D01*
X149786952Y-105350381D01*
X150025048Y-105350381D01*
X150120286Y-105398000D01*
X150167905Y-105445619D01*
X150215524Y-105540857D01*
X150215524Y-105636095D01*
X150167905Y-105778952D01*
X149596476Y-106350381D01*
X150215524Y-106350381D01*
X150596476Y-105445619D02*
X150644095Y-105398000D01*
X150739333Y-105350381D01*
X150977429Y-105350381D01*
X151072667Y-105398000D01*
X151120286Y-105445619D01*
X151167905Y-105540857D01*
X151167905Y-105636095D01*
X151120286Y-105778952D01*
X150548857Y-106350381D01*
X151167905Y-106350381D01*
X142430905Y-81075381D02*
X142430905Y-80075381D01*
X142669000Y-80075381D01*
X142811858Y-80123000D01*
X142907096Y-80218238D01*
X142954715Y-80313476D01*
X143002334Y-80503952D01*
X143002334Y-80646810D01*
X142954715Y-80837286D01*
X142907096Y-80932524D01*
X142811858Y-81027762D01*
X142669000Y-81075381D01*
X142430905Y-81075381D01*
X143954715Y-81075381D02*
X143383286Y-81075381D01*
X143669000Y-81075381D02*
X143669000Y-80075381D01*
X143573762Y-80218238D01*
X143478524Y-80313476D01*
X143383286Y-80361095D01*
X142261905Y-85952381D02*
X142261905Y-84952381D01*
X142500000Y-84952381D01*
X142642858Y-85000000D01*
X142738096Y-85095238D01*
X142785715Y-85190476D01*
X142833334Y-85380952D01*
X142833334Y-85523810D01*
X142785715Y-85714286D01*
X142738096Y-85809524D01*
X142642858Y-85904762D01*
X142500000Y-85952381D01*
X142261905Y-85952381D01*
X143214286Y-85047619D02*
X143261905Y-85000000D01*
X143357143Y-84952381D01*
X143595239Y-84952381D01*
X143690477Y-85000000D01*
X143738096Y-85047619D01*
X143785715Y-85142857D01*
X143785715Y-85238095D01*
X143738096Y-85380952D01*
X143166667Y-85952381D01*
X143785715Y-85952381D01*
X93686667Y-108396381D02*
X93686667Y-109110667D01*
X93639047Y-109253524D01*
X93543809Y-109348762D01*
X93400952Y-109396381D01*
X93305714Y-109396381D01*
X94686667Y-109396381D02*
X94115238Y-109396381D01*
X94400952Y-109396381D02*
X94400952Y-108396381D01*
X94305714Y-108539238D01*
X94210476Y-108634476D01*
X94115238Y-108682095D01*
X94067667Y-77154381D02*
X94067667Y-77868667D01*
X94020047Y-78011524D01*
X93924809Y-78106762D01*
X93781952Y-78154381D01*
X93686714Y-78154381D01*
X94448619Y-77154381D02*
X95067667Y-77154381D01*
X94734333Y-77535333D01*
X94877191Y-77535333D01*
X94972429Y-77582952D01*
X95020048Y-77630571D01*
X95067667Y-77725810D01*
X95067667Y-77963905D01*
X95020048Y-78059143D01*
X94972429Y-78106762D01*
X94877191Y-78154381D01*
X94591476Y-78154381D01*
X94496238Y-78106762D01*
X94448619Y-78059143D01*
X138433334Y-105352381D02*
X137957143Y-105352381D01*
X137957143Y-104352381D01*
X139290477Y-105352381D02*
X138719048Y-105352381D01*
X139004762Y-105352381D02*
X139004762Y-104352381D01*
X138909524Y-104495238D01*
X138814286Y-104590476D01*
X138719048Y-104638095D01*
X95083334Y-105952381D02*
X94750000Y-105476190D01*
X94511905Y-105952381D02*
X94511905Y-104952381D01*
X94892858Y-104952381D01*
X94988096Y-105000000D01*
X95035715Y-105047619D01*
X95083334Y-105142857D01*
X95083334Y-105285714D01*
X95035715Y-105380952D01*
X94988096Y-105428571D01*
X94892858Y-105476190D01*
X94511905Y-105476190D01*
X96035715Y-105952381D02*
X95464286Y-105952381D01*
X95750000Y-105952381D02*
X95750000Y-104952381D01*
X95654762Y-105095238D01*
X95559524Y-105190476D01*
X95464286Y-105238095D01*
X139573334Y-79424381D02*
X139240000Y-78948190D01*
X139001905Y-79424381D02*
X139001905Y-78424381D01*
X139382858Y-78424381D01*
X139478096Y-78472000D01*
X139525715Y-78519619D01*
X139573334Y-78614857D01*
X139573334Y-78757714D01*
X139525715Y-78852952D01*
X139478096Y-78900571D01*
X139382858Y-78948190D01*
X139001905Y-78948190D01*
X139954286Y-78519619D02*
X140001905Y-78472000D01*
X140097143Y-78424381D01*
X140335239Y-78424381D01*
X140430477Y-78472000D01*
X140478096Y-78519619D01*
X140525715Y-78614857D01*
X140525715Y-78710095D01*
X140478096Y-78852952D01*
X139906667Y-79424381D01*
X140525715Y-79424381D01*
X99187334Y-105332381D02*
X98854000Y-104856190D01*
X98615905Y-105332381D02*
X98615905Y-104332381D01*
X98996858Y-104332381D01*
X99092096Y-104380000D01*
X99139715Y-104427619D01*
X99187334Y-104522857D01*
X99187334Y-104665714D01*
X99139715Y-104760952D01*
X99092096Y-104808571D01*
X98996858Y-104856190D01*
X98615905Y-104856190D01*
X99520667Y-104332381D02*
X100139715Y-104332381D01*
X99806381Y-104713333D01*
X99949239Y-104713333D01*
X100044477Y-104760952D01*
X100092096Y-104808571D01*
X100139715Y-104903810D01*
X100139715Y-105141905D01*
X100092096Y-105237143D01*
X100044477Y-105284762D01*
X99949239Y-105332381D01*
X99663524Y-105332381D01*
X99568286Y-105284762D01*
X99520667Y-105237143D01*
X122483334Y-85552381D02*
X122150000Y-85076190D01*
X121911905Y-85552381D02*
X121911905Y-84552381D01*
X122292858Y-84552381D01*
X122388096Y-84600000D01*
X122435715Y-84647619D01*
X122483334Y-84742857D01*
X122483334Y-84885714D01*
X122435715Y-84980952D01*
X122388096Y-85028571D01*
X122292858Y-85076190D01*
X121911905Y-85076190D01*
X123388096Y-84552381D02*
X122911905Y-84552381D01*
X122864286Y-85028571D01*
X122911905Y-84980952D01*
X123007143Y-84933333D01*
X123245239Y-84933333D01*
X123340477Y-84980952D01*
X123388096Y-85028571D01*
X123435715Y-85123810D01*
X123435715Y-85361905D01*
X123388096Y-85457143D01*
X123340477Y-85504762D01*
X123245239Y-85552381D01*
X123007143Y-85552381D01*
X122911905Y-85504762D01*
X122864286Y-85457143D01*
X108733334Y-80902381D02*
X108400000Y-80426190D01*
X108161905Y-80902381D02*
X108161905Y-79902381D01*
X108542858Y-79902381D01*
X108638096Y-79950000D01*
X108685715Y-79997619D01*
X108733334Y-80092857D01*
X108733334Y-80235714D01*
X108685715Y-80330952D01*
X108638096Y-80378571D01*
X108542858Y-80426190D01*
X108161905Y-80426190D01*
X109590477Y-79902381D02*
X109400000Y-79902381D01*
X109304762Y-79950000D01*
X109257143Y-79997619D01*
X109161905Y-80140476D01*
X109114286Y-80330952D01*
X109114286Y-80711905D01*
X109161905Y-80807143D01*
X109209524Y-80854762D01*
X109304762Y-80902381D01*
X109495239Y-80902381D01*
X109590477Y-80854762D01*
X109638096Y-80807143D01*
X109685715Y-80711905D01*
X109685715Y-80473810D01*
X109638096Y-80378571D01*
X109590477Y-80330952D01*
X109495239Y-80283333D01*
X109304762Y-80283333D01*
X109209524Y-80330952D01*
X109161905Y-80378571D01*
X109114286Y-80473810D01*
X145288334Y-98855381D02*
X144955000Y-98379190D01*
X144716905Y-98855381D02*
X144716905Y-97855381D01*
X145097858Y-97855381D01*
X145193096Y-97903000D01*
X145240715Y-97950619D01*
X145288334Y-98045857D01*
X145288334Y-98188714D01*
X145240715Y-98283952D01*
X145193096Y-98331571D01*
X145097858Y-98379190D01*
X144716905Y-98379190D01*
X145621667Y-97855381D02*
X146288334Y-97855381D01*
X145859762Y-98855381D01*
X145288334Y-96696381D02*
X144955000Y-96220190D01*
X144716905Y-96696381D02*
X144716905Y-95696381D01*
X145097858Y-95696381D01*
X145193096Y-95744000D01*
X145240715Y-95791619D01*
X145288334Y-95886857D01*
X145288334Y-96029714D01*
X145240715Y-96124952D01*
X145193096Y-96172571D01*
X145097858Y-96220190D01*
X144716905Y-96220190D01*
X145859762Y-96124952D02*
X145764524Y-96077333D01*
X145716905Y-96029714D01*
X145669286Y-95934476D01*
X145669286Y-95886857D01*
X145716905Y-95791619D01*
X145764524Y-95744000D01*
X145859762Y-95696381D01*
X146050239Y-95696381D01*
X146145477Y-95744000D01*
X146193096Y-95791619D01*
X146240715Y-95886857D01*
X146240715Y-95934476D01*
X146193096Y-96029714D01*
X146145477Y-96077333D01*
X146050239Y-96124952D01*
X145859762Y-96124952D01*
X145764524Y-96172571D01*
X145716905Y-96220190D01*
X145669286Y-96315429D01*
X145669286Y-96505905D01*
X145716905Y-96601143D01*
X145764524Y-96648762D01*
X145859762Y-96696381D01*
X146050239Y-96696381D01*
X146145477Y-96648762D01*
X146193096Y-96601143D01*
X146240715Y-96505905D01*
X146240715Y-96315429D01*
X146193096Y-96220190D01*
X146145477Y-96172571D01*
X146050239Y-96124952D01*
X145288334Y-94664381D02*
X144955000Y-94188190D01*
X144716905Y-94664381D02*
X144716905Y-93664381D01*
X145097858Y-93664381D01*
X145193096Y-93712000D01*
X145240715Y-93759619D01*
X145288334Y-93854857D01*
X145288334Y-93997714D01*
X145240715Y-94092952D01*
X145193096Y-94140571D01*
X145097858Y-94188190D01*
X144716905Y-94188190D01*
X145764524Y-94664381D02*
X145955000Y-94664381D01*
X146050239Y-94616762D01*
X146097858Y-94569143D01*
X146193096Y-94426286D01*
X146240715Y-94235810D01*
X146240715Y-93854857D01*
X146193096Y-93759619D01*
X146145477Y-93712000D01*
X146050239Y-93664381D01*
X145859762Y-93664381D01*
X145764524Y-93712000D01*
X145716905Y-93759619D01*
X145669286Y-93854857D01*
X145669286Y-94092952D01*
X145716905Y-94188190D01*
X145764524Y-94235810D01*
X145859762Y-94283429D01*
X146050239Y-94283429D01*
X146145477Y-94235810D01*
X146193096Y-94188190D01*
X146240715Y-94092952D01*
X145193143Y-92886381D02*
X144859809Y-92410190D01*
X144621714Y-92886381D02*
X144621714Y-91886381D01*
X145002667Y-91886381D01*
X145097905Y-91934000D01*
X145145524Y-91981619D01*
X145193143Y-92076857D01*
X145193143Y-92219714D01*
X145145524Y-92314952D01*
X145097905Y-92362571D01*
X145002667Y-92410190D01*
X144621714Y-92410190D01*
X146145524Y-92886381D02*
X145574095Y-92886381D01*
X145859809Y-92886381D02*
X145859809Y-91886381D01*
X145764571Y-92029238D01*
X145669333Y-92124476D01*
X145574095Y-92172095D01*
X146764571Y-91886381D02*
X146859810Y-91886381D01*
X146955048Y-91934000D01*
X147002667Y-91981619D01*
X147050286Y-92076857D01*
X147097905Y-92267333D01*
X147097905Y-92505429D01*
X147050286Y-92695905D01*
X147002667Y-92791143D01*
X146955048Y-92838762D01*
X146859810Y-92886381D01*
X146764571Y-92886381D01*
X146669333Y-92838762D01*
X146621714Y-92791143D01*
X146574095Y-92695905D01*
X146526476Y-92505429D01*
X146526476Y-92267333D01*
X146574095Y-92076857D01*
X146621714Y-91981619D01*
X146669333Y-91934000D01*
X146764571Y-91886381D01*
X124365143Y-88494381D02*
X124031809Y-88018190D01*
X123793714Y-88494381D02*
X123793714Y-87494381D01*
X124174667Y-87494381D01*
X124269905Y-87542000D01*
X124317524Y-87589619D01*
X124365143Y-87684857D01*
X124365143Y-87827714D01*
X124317524Y-87922952D01*
X124269905Y-87970571D01*
X124174667Y-88018190D01*
X123793714Y-88018190D01*
X125317524Y-88494381D02*
X124746095Y-88494381D01*
X125031809Y-88494381D02*
X125031809Y-87494381D01*
X124936571Y-87637238D01*
X124841333Y-87732476D01*
X124746095Y-87780095D01*
X126269905Y-88494381D02*
X125698476Y-88494381D01*
X125984190Y-88494381D02*
X125984190Y-87494381D01*
X125888952Y-87637238D01*
X125793714Y-87732476D01*
X125698476Y-87780095D01*
X136357143Y-87002381D02*
X136023809Y-86526190D01*
X135785714Y-87002381D02*
X135785714Y-86002381D01*
X136166667Y-86002381D01*
X136261905Y-86050000D01*
X136309524Y-86097619D01*
X136357143Y-86192857D01*
X136357143Y-86335714D01*
X136309524Y-86430952D01*
X136261905Y-86478571D01*
X136166667Y-86526190D01*
X135785714Y-86526190D01*
X137309524Y-87002381D02*
X136738095Y-87002381D01*
X137023809Y-87002381D02*
X137023809Y-86002381D01*
X136928571Y-86145238D01*
X136833333Y-86240476D01*
X136738095Y-86288095D01*
X137690476Y-86097619D02*
X137738095Y-86050000D01*
X137833333Y-86002381D01*
X138071429Y-86002381D01*
X138166667Y-86050000D01*
X138214286Y-86097619D01*
X138261905Y-86192857D01*
X138261905Y-86288095D01*
X138214286Y-86430952D01*
X137642857Y-87002381D01*
X138261905Y-87002381D01*
X149257143Y-82599381D02*
X148923809Y-82123190D01*
X148685714Y-82599381D02*
X148685714Y-81599381D01*
X149066667Y-81599381D01*
X149161905Y-81647000D01*
X149209524Y-81694619D01*
X149257143Y-81789857D01*
X149257143Y-81932714D01*
X149209524Y-82027952D01*
X149161905Y-82075571D01*
X149066667Y-82123190D01*
X148685714Y-82123190D01*
X150209524Y-82599381D02*
X149638095Y-82599381D01*
X149923809Y-82599381D02*
X149923809Y-81599381D01*
X149828571Y-81742238D01*
X149733333Y-81837476D01*
X149638095Y-81885095D01*
X150542857Y-81599381D02*
X151161905Y-81599381D01*
X150828571Y-81980333D01*
X150971429Y-81980333D01*
X151066667Y-82027952D01*
X151114286Y-82075571D01*
X151161905Y-82170810D01*
X151161905Y-82408905D01*
X151114286Y-82504143D01*
X151066667Y-82551762D01*
X150971429Y-82599381D01*
X150685714Y-82599381D01*
X150590476Y-82551762D01*
X150542857Y-82504143D01*
X149384143Y-84377381D02*
X149050809Y-83901190D01*
X148812714Y-84377381D02*
X148812714Y-83377381D01*
X149193667Y-83377381D01*
X149288905Y-83425000D01*
X149336524Y-83472619D01*
X149384143Y-83567857D01*
X149384143Y-83710714D01*
X149336524Y-83805952D01*
X149288905Y-83853571D01*
X149193667Y-83901190D01*
X148812714Y-83901190D01*
X150336524Y-84377381D02*
X149765095Y-84377381D01*
X150050809Y-84377381D02*
X150050809Y-83377381D01*
X149955571Y-83520238D01*
X149860333Y-83615476D01*
X149765095Y-83663095D01*
X151193667Y-83710714D02*
X151193667Y-84377381D01*
X150955571Y-83329762D02*
X150717476Y-84044048D01*
X151336524Y-84044048D01*
X110466667Y-105504762D02*
X110609524Y-105552381D01*
X110847620Y-105552381D01*
X110942858Y-105504762D01*
X110990477Y-105457143D01*
X111038096Y-105361905D01*
X111038096Y-105266667D01*
X110990477Y-105171429D01*
X110942858Y-105123810D01*
X110847620Y-105076190D01*
X110657143Y-105028571D01*
X110561905Y-104980952D01*
X110514286Y-104933333D01*
X110466667Y-104838095D01*
X110466667Y-104742857D01*
X110514286Y-104647619D01*
X110561905Y-104600000D01*
X110657143Y-104552381D01*
X110895239Y-104552381D01*
X111038096Y-104600000D01*
X111371429Y-104552381D02*
X111609524Y-105552381D01*
X111800001Y-104838095D01*
X111990477Y-105552381D01*
X112228572Y-104552381D01*
X113133334Y-105552381D02*
X112561905Y-105552381D01*
X112847619Y-105552381D02*
X112847619Y-104552381D01*
X112752381Y-104695238D01*
X112657143Y-104790476D01*
X112561905Y-104838095D01*
X110466667Y-78604762D02*
X110609524Y-78652381D01*
X110847620Y-78652381D01*
X110942858Y-78604762D01*
X110990477Y-78557143D01*
X111038096Y-78461905D01*
X111038096Y-78366667D01*
X110990477Y-78271429D01*
X110942858Y-78223810D01*
X110847620Y-78176190D01*
X110657143Y-78128571D01*
X110561905Y-78080952D01*
X110514286Y-78033333D01*
X110466667Y-77938095D01*
X110466667Y-77842857D01*
X110514286Y-77747619D01*
X110561905Y-77700000D01*
X110657143Y-77652381D01*
X110895239Y-77652381D01*
X111038096Y-77700000D01*
X111371429Y-77652381D02*
X111609524Y-78652381D01*
X111800001Y-77938095D01*
X111990477Y-78652381D01*
X112228572Y-77652381D01*
X112561905Y-77747619D02*
X112609524Y-77700000D01*
X112704762Y-77652381D01*
X112942858Y-77652381D01*
X113038096Y-77700000D01*
X113085715Y-77747619D01*
X113133334Y-77842857D01*
X113133334Y-77938095D01*
X113085715Y-78080952D01*
X112514286Y-78652381D01*
X113133334Y-78652381D01*
X120238095Y-77552381D02*
X120238095Y-78361905D01*
X120285714Y-78457143D01*
X120333333Y-78504762D01*
X120428571Y-78552381D01*
X120619048Y-78552381D01*
X120714286Y-78504762D01*
X120761905Y-78457143D01*
X120809524Y-78361905D01*
X120809524Y-77552381D01*
X121809524Y-78552381D02*
X121238095Y-78552381D01*
X121523809Y-78552381D02*
X121523809Y-77552381D01*
X121428571Y-77695238D01*
X121333333Y-77790476D01*
X121238095Y-77838095D01*
X95925095Y-78551381D02*
X95925095Y-79360905D01*
X95972714Y-79456143D01*
X96020333Y-79503762D01*
X96115571Y-79551381D01*
X96306048Y-79551381D01*
X96401286Y-79503762D01*
X96448905Y-79456143D01*
X96496524Y-79360905D01*
X96496524Y-78551381D01*
X96925095Y-78646619D02*
X96972714Y-78599000D01*
X97067952Y-78551381D01*
X97306048Y-78551381D01*
X97401286Y-78599000D01*
X97448905Y-78646619D01*
X97496524Y-78741857D01*
X97496524Y-78837095D01*
X97448905Y-78979952D01*
X96877476Y-79551381D01*
X97496524Y-79551381D01*
X123038095Y-95052381D02*
X123038095Y-95861905D01*
X123085714Y-95957143D01*
X123133333Y-96004762D01*
X123228571Y-96052381D01*
X123419048Y-96052381D01*
X123514286Y-96004762D01*
X123561905Y-95957143D01*
X123609524Y-95861905D01*
X123609524Y-95052381D01*
X123990476Y-95052381D02*
X124609524Y-95052381D01*
X124276190Y-95433333D01*
X124419048Y-95433333D01*
X124514286Y-95480952D01*
X124561905Y-95528571D01*
X124609524Y-95623810D01*
X124609524Y-95861905D01*
X124561905Y-95957143D01*
X124514286Y-96004762D01*
X124419048Y-96052381D01*
X124133333Y-96052381D01*
X124038095Y-96004762D01*
X123990476Y-95957143D01*
X139478143Y-94188143D02*
X139430524Y-94235762D01*
X139287667Y-94283381D01*
X139192429Y-94283381D01*
X139049571Y-94235762D01*
X138954333Y-94140524D01*
X138906714Y-94045286D01*
X138859095Y-93854810D01*
X138859095Y-93711952D01*
X138906714Y-93521476D01*
X138954333Y-93426238D01*
X139049571Y-93331000D01*
X139192429Y-93283381D01*
X139287667Y-93283381D01*
X139430524Y-93331000D01*
X139478143Y-93378619D01*
X139859095Y-93378619D02*
X139906714Y-93331000D01*
X140001952Y-93283381D01*
X140240048Y-93283381D01*
X140335286Y-93331000D01*
X140382905Y-93378619D01*
X140430524Y-93473857D01*
X140430524Y-93569095D01*
X140382905Y-93711952D01*
X139811476Y-94283381D01*
X140430524Y-94283381D01*
X141049571Y-93283381D02*
X141144810Y-93283381D01*
X141240048Y-93331000D01*
X141287667Y-93378619D01*
X141335286Y-93473857D01*
X141382905Y-93664333D01*
X141382905Y-93902429D01*
X141335286Y-94092905D01*
X141287667Y-94188143D01*
X141240048Y-94235762D01*
X141144810Y-94283381D01*
X141049571Y-94283381D01*
X140954333Y-94235762D01*
X140906714Y-94188143D01*
X140859095Y-94092905D01*
X140811476Y-93902429D01*
X140811476Y-93664333D01*
X140859095Y-93473857D01*
X140906714Y-93378619D01*
X140954333Y-93331000D01*
X141049571Y-93283381D01*
X119607143Y-92952381D02*
X119273809Y-92476190D01*
X119035714Y-92952381D02*
X119035714Y-91952381D01*
X119416667Y-91952381D01*
X119511905Y-92000000D01*
X119559524Y-92047619D01*
X119607143Y-92142857D01*
X119607143Y-92285714D01*
X119559524Y-92380952D01*
X119511905Y-92428571D01*
X119416667Y-92476190D01*
X119035714Y-92476190D01*
X120559524Y-92952381D02*
X119988095Y-92952381D01*
X120273809Y-92952381D02*
X120273809Y-91952381D01*
X120178571Y-92095238D01*
X120083333Y-92190476D01*
X119988095Y-92238095D01*
X121416667Y-91952381D02*
X121226190Y-91952381D01*
X121130952Y-92000000D01*
X121083333Y-92047619D01*
X120988095Y-92190476D01*
X120940476Y-92380952D01*
X120940476Y-92761905D01*
X120988095Y-92857143D01*
X121035714Y-92904762D01*
X121130952Y-92952381D01*
X121321429Y-92952381D01*
X121416667Y-92904762D01*
X121464286Y-92857143D01*
X121511905Y-92761905D01*
X121511905Y-92523810D01*
X121464286Y-92428571D01*
X121416667Y-92380952D01*
X121321429Y-92333333D01*
X121130952Y-92333333D01*
X121035714Y-92380952D01*
X120988095Y-92428571D01*
X120940476Y-92523810D01*
X133077143Y-100932381D02*
X132743809Y-100456190D01*
X132505714Y-100932381D02*
X132505714Y-99932381D01*
X132886667Y-99932381D01*
X132981905Y-99980000D01*
X133029524Y-100027619D01*
X133077143Y-100122857D01*
X133077143Y-100265714D01*
X133029524Y-100360952D01*
X132981905Y-100408571D01*
X132886667Y-100456190D01*
X132505714Y-100456190D01*
X134029524Y-100932381D02*
X133458095Y-100932381D01*
X133743809Y-100932381D02*
X133743809Y-99932381D01*
X133648571Y-100075238D01*
X133553333Y-100170476D01*
X133458095Y-100218095D01*
X134362857Y-99932381D02*
X135029524Y-99932381D01*
X134600952Y-100932381D01*
X116651905Y-76102381D02*
X116651905Y-75102381D01*
X116890000Y-75102381D01*
X117032858Y-75150000D01*
X117128096Y-75245238D01*
X117175715Y-75340476D01*
X117223334Y-75530952D01*
X117223334Y-75673810D01*
X117175715Y-75864286D01*
X117128096Y-75959524D01*
X117032858Y-76054762D01*
X116890000Y-76102381D01*
X116651905Y-76102381D01*
X117556667Y-75102381D02*
X118175715Y-75102381D01*
X117842381Y-75483333D01*
X117985239Y-75483333D01*
X118080477Y-75530952D01*
X118128096Y-75578571D01*
X118175715Y-75673810D01*
X118175715Y-75911905D01*
X118128096Y-76007143D01*
X118080477Y-76054762D01*
X117985239Y-76102381D01*
X117699524Y-76102381D01*
X117604286Y-76054762D01*
X117556667Y-76007143D01*
X166692381Y-95143333D02*
X167406667Y-95143333D01*
X167549524Y-95190953D01*
X167644762Y-95286191D01*
X167692381Y-95429048D01*
X167692381Y-95524286D01*
X166787619Y-94714762D02*
X166740000Y-94667143D01*
X166692381Y-94571905D01*
X166692381Y-94333809D01*
X166740000Y-94238571D01*
X166787619Y-94190952D01*
X166882857Y-94143333D01*
X166978095Y-94143333D01*
X167120952Y-94190952D01*
X167692381Y-94762381D01*
X167692381Y-94143333D01*
M02*
