G04 #@! TF.FileFunction,Copper,L2,Bot,Signal*
%FSLAX46Y46*%
G04 Gerber Fmt 4.6, Leading zero omitted, Abs format (unit mm)*
G04 Created by KiCad (PCBNEW 4.0.6) date Sat Oct 21 15:15:02 2017*
%MOMM*%
%LPD*%
G01*
G04 APERTURE LIST*
%ADD10C,0.100000*%
%ADD11C,3.200000*%
%ADD12R,0.750000X0.800000*%
%ADD13R,1.700000X1.700000*%
%ADD14O,1.700000X1.700000*%
%ADD15R,1.350000X1.350000*%
%ADD16O,1.350000X1.350000*%
%ADD17C,3.500000*%
%ADD18C,3.850000*%
%ADD19R,1.520000X1.520000*%
%ADD20C,1.520000*%
%ADD21C,2.540000*%
%ADD22C,0.600000*%
%ADD23C,0.250000*%
%ADD24C,0.254000*%
G04 APERTURE END LIST*
D10*
D11*
X83550000Y-76000000D03*
D12*
X149330000Y-96200000D03*
X149330000Y-97700000D03*
X147910000Y-96200000D03*
X147910000Y-97700000D03*
D13*
X89050000Y-109000000D03*
D14*
X91590000Y-109000000D03*
D15*
X88300000Y-77700000D03*
D16*
X90300000Y-77700000D03*
X92300000Y-77700000D03*
D17*
X95640000Y-91154000D03*
D11*
X166550000Y-76000000D03*
X166550000Y-109000000D03*
X83550000Y-109000000D03*
D18*
X160890000Y-89090000D03*
X160890000Y-100530000D03*
D19*
X154540000Y-99260000D03*
D20*
X152000000Y-98620000D03*
X154540000Y-96710000D03*
X152000000Y-96080000D03*
X154540000Y-94170000D03*
X152000000Y-93540000D03*
X154540000Y-91640000D03*
D21*
X157840000Y-87060000D03*
X157840000Y-102560000D03*
D20*
X152000000Y-91000000D03*
D22*
X122280210Y-91300000D03*
X145600000Y-96280000D03*
X130250000Y-88100000D03*
X128100000Y-103000000D03*
X123900000Y-100800000D03*
X120900000Y-83700000D03*
X125200000Y-88500000D03*
X143700000Y-94200000D03*
X143700000Y-90500000D03*
X143700000Y-92200000D03*
X143800000Y-96300000D03*
X143800000Y-98400000D03*
X152567000Y-89005000D03*
X134025000Y-88243000D03*
X135168000Y-90275000D03*
X132715010Y-97100000D03*
X117190000Y-93920000D03*
X110630000Y-90600000D03*
X142280000Y-76813000D03*
X147360000Y-76813000D03*
X152440000Y-81893000D03*
X152440000Y-76813000D03*
X157520000Y-76813000D03*
X157520000Y-84560000D03*
X139980000Y-81240000D03*
X140110000Y-85750000D03*
X106720000Y-105100000D03*
X111480000Y-105100000D03*
X111440000Y-103170000D03*
X114340000Y-85720000D03*
X119420000Y-85660000D03*
X127910000Y-97090000D03*
X123900000Y-97400000D03*
X127910000Y-94160000D03*
X131430000Y-94190000D03*
X131430000Y-97150000D03*
X127500000Y-86101950D03*
X111800000Y-94720000D03*
X113070000Y-83290000D03*
X114340000Y-88370000D03*
X119420000Y-88370000D03*
X105450000Y-75670000D03*
X100370000Y-75670000D03*
X95290000Y-75670000D03*
X152440000Y-109960000D03*
X157647000Y-109960000D03*
X157520000Y-104880000D03*
X137200000Y-109960000D03*
X132120000Y-109960000D03*
X127040000Y-109960000D03*
X127040000Y-104880000D03*
X121960000Y-104880000D03*
X121960000Y-109960000D03*
X116880000Y-109960000D03*
X111800000Y-109960000D03*
X96560000Y-109960000D03*
X101640000Y-109960000D03*
X106847000Y-110087000D03*
X101640000Y-90910000D03*
X101640000Y-93450000D03*
X101640000Y-95990000D03*
X85130000Y-104880000D03*
X82590000Y-104880000D03*
X82590000Y-102340000D03*
X85130000Y-102340000D03*
X87670000Y-97260000D03*
X87670000Y-94720000D03*
X90210000Y-94720000D03*
X90210000Y-92180000D03*
X87670000Y-92180000D03*
X87670000Y-89640000D03*
X90210000Y-89640000D03*
X90210000Y-87100000D03*
X87670000Y-87100000D03*
X87670000Y-84560000D03*
X107600000Y-75400000D03*
X119400000Y-82900000D03*
X124500000Y-91300000D03*
X127000000Y-80900000D03*
X139500000Y-97300000D03*
X135600000Y-95149967D03*
X108000000Y-102300000D03*
X107600000Y-98000000D03*
X98900000Y-106700000D03*
X145700000Y-89500000D03*
X144700000Y-100000000D03*
X139800000Y-92400000D03*
X139800000Y-93800000D03*
X135364717Y-94385335D03*
X156900000Y-99200000D03*
X156900000Y-89500000D03*
X123580000Y-78470000D03*
X120420000Y-77670000D03*
X113190000Y-99050000D03*
X115040000Y-83280000D03*
X93500000Y-103600000D03*
X91000000Y-102000000D03*
X131100000Y-92900000D03*
X127000000Y-92900000D03*
X136400000Y-99900000D03*
X136200000Y-94400000D03*
X131942200Y-87595300D03*
X134500000Y-85974990D03*
X132843900Y-87849300D03*
X135100000Y-86600000D03*
X150535000Y-95126400D03*
X145569300Y-95202600D03*
X123128400Y-87366700D03*
X121693300Y-92903900D03*
X129628635Y-89256094D03*
X108821950Y-87205848D03*
X126155083Y-89178162D03*
X89100000Y-84400000D03*
X118874990Y-100074990D03*
X118244171Y-97228069D03*
X109900000Y-88900000D03*
X90400000Y-84300000D03*
X120200000Y-100700000D03*
X117200000Y-96900000D03*
X109900000Y-92100000D03*
X102000000Y-89400000D03*
X102200000Y-88200000D03*
X109800000Y-90900000D03*
X117200000Y-96000000D03*
X119500000Y-99500000D03*
X121050000Y-94900000D03*
X114250000Y-96700000D03*
X108250000Y-96700000D03*
X106650000Y-97900000D03*
X123502751Y-96475010D03*
X100500000Y-102525010D03*
X102700000Y-104000000D03*
X115864000Y-104016400D03*
X120500000Y-95700000D03*
X119000000Y-96000000D03*
X105000000Y-101900000D03*
X99300000Y-101900000D03*
X130142110Y-89869577D03*
X126465678Y-89948391D03*
X110625518Y-88057791D03*
X98100000Y-84200000D03*
X148198200Y-94501390D03*
X146242400Y-93234100D03*
X132080000Y-101950000D03*
X132080000Y-97810000D03*
X132090000Y-96440000D03*
X132740000Y-94830000D03*
X131485000Y-85182300D03*
X130875001Y-87544899D03*
D23*
X125200000Y-88500000D02*
X122400000Y-91300000D01*
X122400000Y-91300000D02*
X122280210Y-91300000D01*
X152000000Y-96080000D02*
X153730000Y-94350000D01*
X153730000Y-94350000D02*
X154360000Y-94350000D01*
X154360000Y-94350000D02*
X154540000Y-94170000D01*
X147910000Y-96200000D02*
X145680000Y-96200000D01*
X145680000Y-96200000D02*
X145600000Y-96280000D01*
X147910000Y-96200000D02*
X149330000Y-96200000D01*
X149330000Y-96200000D02*
X149410000Y-96280000D01*
X149410000Y-96280000D02*
X151800000Y-96280000D01*
X151800000Y-96280000D02*
X152000000Y-96080000D01*
X91590000Y-109000000D02*
X91590000Y-108720000D01*
X91590000Y-108720000D02*
X91170000Y-108300000D01*
X91170000Y-108300000D02*
X91170000Y-107600000D01*
X125200000Y-88100000D02*
X130250000Y-88100000D01*
X121698380Y-83919920D02*
X121478460Y-83700000D01*
X121478460Y-83700000D02*
X120900000Y-83700000D01*
X121698380Y-85878260D02*
X121698380Y-83919920D01*
X122061600Y-86241480D02*
X121698380Y-85878260D01*
X123441480Y-86241480D02*
X122061600Y-86241480D01*
X125200000Y-88500000D02*
X125200000Y-88100000D01*
X125200000Y-88100000D02*
X125200000Y-88000000D01*
X125200000Y-88000000D02*
X123441480Y-86241480D01*
X123900000Y-100800000D02*
X125900000Y-100800000D01*
X125900000Y-100800000D02*
X128100000Y-103000000D01*
X143700000Y-92200000D02*
X143700000Y-94200000D01*
X143700000Y-94200000D02*
X143700000Y-96200000D01*
X143700000Y-96200000D02*
X143800000Y-96300000D01*
X143700000Y-92200000D02*
X143700000Y-90500000D01*
X143800000Y-98400000D02*
X143800000Y-96300000D01*
X152567000Y-89005000D02*
X153062000Y-89500000D01*
X153062000Y-89500000D02*
X156900000Y-89500000D01*
X139740000Y-88243000D02*
X139740000Y-86120000D01*
X139740000Y-86120000D02*
X140110000Y-85750000D01*
X134025000Y-88243000D02*
X139740000Y-88243000D01*
X135190325Y-90462398D02*
X135190325Y-90297325D01*
X135190325Y-90297325D02*
X135168000Y-90275000D01*
X133139274Y-97100000D02*
X132715010Y-97100000D01*
X131460000Y-97100000D02*
X132715010Y-97100000D01*
X133649967Y-97100000D02*
X133139274Y-97100000D01*
X135600000Y-95149967D02*
X133649967Y-97100000D01*
X144700000Y-100000000D02*
X144700000Y-91280000D01*
X145700000Y-90280000D02*
X145700000Y-89500000D01*
X144700000Y-91280000D02*
X145700000Y-90280000D01*
X144700000Y-100000000D02*
X145610000Y-100000000D01*
X145610000Y-100000000D02*
X147910000Y-97700000D01*
X147910000Y-97700000D02*
X149330000Y-97700000D01*
X117170000Y-93475736D02*
X117170000Y-90620000D01*
X117170000Y-90620000D02*
X119420000Y-88370000D01*
X117190000Y-93920000D02*
X117190000Y-93495736D01*
X117190000Y-93495736D02*
X117170000Y-93475736D01*
X114340000Y-91600000D02*
X114340000Y-92180000D01*
X114340000Y-88370000D02*
X114340000Y-91600000D01*
X114340000Y-91600000D02*
X111630000Y-91600000D01*
X111630000Y-91600000D02*
X110630000Y-90600000D01*
X142280000Y-76813000D02*
X142280000Y-76890000D01*
X152440000Y-81893000D02*
X147360000Y-76813000D01*
X157520000Y-76813000D02*
X152440000Y-76813000D01*
X157840000Y-87060000D02*
X157840000Y-84880000D01*
X157840000Y-84880000D02*
X157520000Y-84560000D01*
X139980000Y-79190000D02*
X139980000Y-81240000D01*
X142280000Y-76890000D02*
X139980000Y-79190000D01*
X139980000Y-85620000D02*
X139980000Y-81240000D01*
X140110000Y-85750000D02*
X139980000Y-85620000D01*
X106720000Y-105100000D02*
X106720000Y-109960000D01*
X106720000Y-109960000D02*
X106847000Y-110087000D01*
X111480000Y-103210000D02*
X111480000Y-105100000D01*
X111440000Y-103170000D02*
X111480000Y-103210000D01*
X119400000Y-85660000D02*
X119420000Y-85660000D01*
X119400000Y-85660000D02*
X119470000Y-85660000D01*
X119470000Y-85660000D02*
X119400000Y-85660000D01*
X124200000Y-97100000D02*
X127900000Y-97100000D01*
X127900000Y-97100000D02*
X127910000Y-97090000D01*
X123900000Y-97400000D02*
X124200000Y-97100000D01*
X131460000Y-97120000D02*
X131460000Y-97100000D01*
X127910000Y-94160000D02*
X127940000Y-94190000D01*
X127940000Y-94190000D02*
X131430000Y-94190000D01*
X131430000Y-97150000D02*
X131430000Y-97100000D01*
X131430000Y-97100000D02*
X131450000Y-97120000D01*
X131450000Y-97120000D02*
X131460000Y-97120000D01*
X127000000Y-82900000D02*
X127000000Y-85601950D01*
X127000000Y-85601950D02*
X127200001Y-85801951D01*
X127200001Y-85801951D02*
X127500000Y-86101950D01*
X114340000Y-92180000D02*
X111800000Y-94720000D01*
X114340000Y-84560000D02*
X113070000Y-83290000D01*
X114340000Y-85720000D02*
X114340000Y-84560000D01*
X114340000Y-88370000D02*
X114340000Y-85720000D01*
X119400000Y-82900000D02*
X119400000Y-85660000D01*
X119400000Y-85660000D02*
X119400000Y-88350000D01*
X119400000Y-88350000D02*
X119420000Y-88370000D01*
X100370000Y-75670000D02*
X105450000Y-75670000D01*
X88300000Y-77700000D02*
X88300000Y-76775000D01*
X88300000Y-76775000D02*
X89405000Y-75670000D01*
X89405000Y-75670000D02*
X95290000Y-75670000D01*
X157520000Y-104880000D02*
X157520000Y-102880000D01*
X152440000Y-109960000D02*
X157647000Y-109960000D01*
X157520000Y-102880000D02*
X157840000Y-102560000D01*
X111673000Y-110087000D02*
X111800000Y-109960000D01*
X106847000Y-110087000D02*
X111673000Y-110087000D01*
X132120000Y-109960000D02*
X137200000Y-109960000D01*
X127040000Y-104880000D02*
X127040000Y-109960000D01*
X121960000Y-109960000D02*
X121960000Y-104880000D01*
X96560000Y-109960000D02*
X101640000Y-109960000D01*
X101640000Y-90910000D02*
X95884000Y-90910000D01*
X95884000Y-90910000D02*
X95640000Y-91154000D01*
X101640000Y-95990000D02*
X101640000Y-93450000D01*
X82590000Y-104880000D02*
X85130000Y-104880000D01*
X85130000Y-102340000D02*
X82590000Y-102340000D01*
X87670000Y-94720000D02*
X87670000Y-97260000D01*
X90210000Y-92180000D02*
X90210000Y-94720000D01*
X87670000Y-89640000D02*
X87670000Y-92180000D01*
X90210000Y-87100000D02*
X90210000Y-89640000D01*
X87670000Y-84560000D02*
X87670000Y-87100000D01*
X131460000Y-97100000D02*
X130200000Y-97100000D01*
X130200000Y-97100000D02*
X130200000Y-105100000D01*
X130200000Y-105100000D02*
X108500000Y-105100000D01*
X108500000Y-105100000D02*
X108000000Y-104600000D01*
X108000000Y-104600000D02*
X108000000Y-102300000D01*
X112100000Y-81900000D02*
X118400000Y-81900000D01*
X118400000Y-81900000D02*
X119400000Y-82900000D01*
X112100000Y-78200000D02*
X112100000Y-81900000D01*
X111800000Y-77900000D02*
X112100000Y-78200000D01*
X109675736Y-77900000D02*
X111800000Y-77900000D01*
X107600000Y-75400000D02*
X107600000Y-75824264D01*
X107600000Y-75824264D02*
X109675736Y-77900000D01*
X127000000Y-82900000D02*
X127000000Y-80900000D01*
X119400000Y-82900000D02*
X127000000Y-82900000D01*
X124500000Y-91300000D02*
X124800000Y-91300000D01*
X140500000Y-99700000D02*
X140500000Y-97300000D01*
X140500000Y-97300000D02*
X140500000Y-94500000D01*
X139500000Y-97300000D02*
X140500000Y-97300000D01*
X101500000Y-106700000D02*
X107000000Y-101200000D01*
X107000000Y-101200000D02*
X107600000Y-100600000D01*
X108000000Y-102300000D02*
X107000000Y-101300000D01*
X107000000Y-101300000D02*
X107000000Y-101200000D01*
X107600000Y-100600000D02*
X107600000Y-98000000D01*
X98900000Y-106700000D02*
X101500000Y-106700000D01*
X139800000Y-91100000D02*
X141400000Y-89500000D01*
X139800000Y-92400000D02*
X139800000Y-91100000D01*
X141400000Y-89500000D02*
X145700000Y-89500000D01*
X140500000Y-94500000D02*
X139800000Y-93800000D01*
X144400000Y-99700000D02*
X140500000Y-99700000D01*
X144700000Y-100000000D02*
X144400000Y-99700000D01*
X139800000Y-93800000D02*
X139800000Y-92400000D01*
X135190325Y-94210943D02*
X135364717Y-94385335D01*
X135190325Y-90462398D02*
X135190325Y-94210943D01*
X156900000Y-89500000D02*
X156900000Y-99200000D01*
X120420000Y-77670000D02*
X121220000Y-78470000D01*
X121220000Y-78470000D02*
X123580000Y-78470000D01*
X113190000Y-95560000D02*
X113190000Y-99050000D01*
X115040000Y-93710000D02*
X113190000Y-95560000D01*
X115040000Y-83280000D02*
X115040000Y-93710000D01*
X92600000Y-103600000D02*
X93500000Y-103600000D01*
X91000000Y-102000000D02*
X92600000Y-103600000D01*
X127000000Y-92900000D02*
X131100000Y-92900000D01*
X136499999Y-95325003D02*
X136400000Y-95425002D01*
X136400000Y-95425002D02*
X136400000Y-99475736D01*
X136200000Y-94400000D02*
X136499999Y-94699999D01*
X136400000Y-99475736D02*
X136400000Y-99900000D01*
X136499999Y-94699999D02*
X136499999Y-95325003D01*
X131942200Y-87595300D02*
X132242199Y-87295301D01*
X132473408Y-85974990D02*
X134075736Y-85974990D01*
X132242199Y-87295301D02*
X132242199Y-86206199D01*
X134075736Y-85974990D02*
X134500000Y-85974990D01*
X132242199Y-86206199D02*
X132473408Y-85974990D01*
X132843900Y-87849300D02*
X132843900Y-86856100D01*
X132843900Y-86856100D02*
X133100000Y-86600000D01*
X133100000Y-86600000D02*
X135100000Y-86600000D01*
X145569300Y-95202600D02*
X150458800Y-95202600D01*
X150458800Y-95202600D02*
X150535000Y-95126400D01*
X121655200Y-92441536D02*
X121655200Y-88839900D01*
X121655200Y-88839900D02*
X123128400Y-87366700D01*
X121693300Y-92903900D02*
X121693300Y-92479636D01*
X121693300Y-92479636D02*
X121655200Y-92441536D01*
X129550703Y-89178162D02*
X129628635Y-89256094D01*
X126155083Y-89178162D02*
X129550703Y-89178162D01*
X89100000Y-84400000D02*
X91905848Y-87205848D01*
X108397686Y-87205848D02*
X108821950Y-87205848D01*
X91905848Y-87205848D02*
X108397686Y-87205848D01*
X118244171Y-97228069D02*
X118244171Y-99444171D01*
X118574991Y-99774991D02*
X118874990Y-100074990D01*
X118244171Y-99444171D02*
X118574991Y-99774991D01*
X109500000Y-86500000D02*
X109900000Y-86900000D01*
X109900000Y-86900000D02*
X109900000Y-88900000D01*
X92600000Y-86500000D02*
X109500000Y-86500000D01*
X90400000Y-84300000D02*
X92600000Y-86500000D01*
X117200000Y-99800000D02*
X118100000Y-100700000D01*
X118100000Y-100700000D02*
X120200000Y-100700000D01*
X117200000Y-96900000D02*
X117200000Y-99800000D01*
X107100000Y-89400000D02*
X109800000Y-92100000D01*
X109800000Y-92100000D02*
X109900000Y-92100000D01*
X102000000Y-89400000D02*
X107100000Y-89400000D01*
X109800000Y-90900000D02*
X107100000Y-88200000D01*
X107100000Y-88200000D02*
X102200000Y-88200000D01*
X119200000Y-97300000D02*
X117900000Y-96000000D01*
X117900000Y-96000000D02*
X117200000Y-96000000D01*
X119200000Y-98775736D02*
X119200000Y-97300000D01*
X119500000Y-99500000D02*
X119500000Y-99075736D01*
X119500000Y-99075736D02*
X119200000Y-98775736D01*
X115050000Y-96700000D02*
X116850000Y-94900000D01*
X116850000Y-94900000D02*
X121050000Y-94900000D01*
X114250000Y-96700000D02*
X115050000Y-96700000D01*
X106949999Y-97600001D02*
X107850000Y-96700000D01*
X107850000Y-96700000D02*
X108250000Y-96700000D01*
X106650000Y-97900000D02*
X106949999Y-97600001D01*
X123202752Y-96775009D02*
X123502751Y-96475010D01*
X121900000Y-98077761D02*
X123202752Y-96775009D01*
X121900000Y-102200000D02*
X121900000Y-98077761D01*
X115864000Y-104016400D02*
X120100000Y-104000000D01*
X120100000Y-104000000D02*
X121900000Y-102200000D01*
X100799999Y-102825009D02*
X100500000Y-102525010D01*
X101974990Y-104000000D02*
X100799999Y-102825009D01*
X102700000Y-104000000D02*
X101974990Y-104000000D01*
X119300000Y-95700000D02*
X120500000Y-95700000D01*
X119000000Y-96000000D02*
X119300000Y-95700000D01*
X99300000Y-101900000D02*
X105000000Y-101900000D01*
X126465678Y-89948391D02*
X130063296Y-89948391D01*
X130063296Y-89948391D02*
X130142110Y-89869577D01*
X110625518Y-86989107D02*
X110625518Y-87633527D01*
X107836411Y-84200000D02*
X110625518Y-86989107D01*
X98100000Y-84200000D02*
X107836411Y-84200000D01*
X110625518Y-87633527D02*
X110625518Y-88057791D01*
X147509690Y-94501390D02*
X147773936Y-94501390D01*
X147773936Y-94501390D02*
X148198200Y-94501390D01*
X146242400Y-93234100D02*
X147509690Y-94501390D01*
X132080000Y-97810000D02*
X132080000Y-101950000D01*
X132740000Y-94830000D02*
X132740000Y-95790000D01*
X132740000Y-95790000D02*
X132090000Y-96440000D01*
X130875001Y-87544899D02*
X130875001Y-85792299D01*
X130875001Y-85792299D02*
X131485000Y-85182300D01*
D24*
G36*
X169290000Y-111790000D02*
X80710000Y-111790000D01*
X80710000Y-109442619D01*
X81314613Y-109442619D01*
X81654155Y-110264372D01*
X82282321Y-110893636D01*
X83103481Y-111234611D01*
X83992619Y-111235387D01*
X84814372Y-110895845D01*
X85443636Y-110267679D01*
X85784611Y-109446519D01*
X85784751Y-109285750D01*
X87565000Y-109285750D01*
X87565000Y-109976309D01*
X87661673Y-110209698D01*
X87840301Y-110388327D01*
X88073690Y-110485000D01*
X88764250Y-110485000D01*
X88923000Y-110326250D01*
X88923000Y-109127000D01*
X87723750Y-109127000D01*
X87565000Y-109285750D01*
X85784751Y-109285750D01*
X85785387Y-108557381D01*
X85564871Y-108023691D01*
X87565000Y-108023691D01*
X87565000Y-108714250D01*
X87723750Y-108873000D01*
X88923000Y-108873000D01*
X88923000Y-107673750D01*
X89177000Y-107673750D01*
X89177000Y-108873000D01*
X89197000Y-108873000D01*
X89197000Y-109127000D01*
X89177000Y-109127000D01*
X89177000Y-110326250D01*
X89335750Y-110485000D01*
X90026310Y-110485000D01*
X90259699Y-110388327D01*
X90438327Y-110209698D01*
X90510597Y-110035223D01*
X90539946Y-110079147D01*
X91021715Y-110401054D01*
X91590000Y-110514093D01*
X92158285Y-110401054D01*
X92640054Y-110079147D01*
X92961961Y-109597378D01*
X92992744Y-109442619D01*
X164314613Y-109442619D01*
X164654155Y-110264372D01*
X165282321Y-110893636D01*
X166103481Y-111234611D01*
X166992619Y-111235387D01*
X167814372Y-110895845D01*
X168443636Y-110267679D01*
X168784611Y-109446519D01*
X168785387Y-108557381D01*
X168445845Y-107735628D01*
X167817679Y-107106364D01*
X166996519Y-106765389D01*
X166107381Y-106764613D01*
X165285628Y-107104155D01*
X164656364Y-107732321D01*
X164315389Y-108553481D01*
X164314613Y-109442619D01*
X92992744Y-109442619D01*
X93075000Y-109029093D01*
X93075000Y-108970907D01*
X92961961Y-108402622D01*
X92640054Y-107920853D01*
X92158285Y-107598946D01*
X91920377Y-107551623D01*
X91872148Y-107309161D01*
X91707401Y-107062599D01*
X91460839Y-106897852D01*
X91170000Y-106840000D01*
X90879161Y-106897852D01*
X90632599Y-107062599D01*
X90467852Y-107309161D01*
X90410000Y-107600000D01*
X90410000Y-107761975D01*
X90259699Y-107611673D01*
X90026310Y-107515000D01*
X89335750Y-107515000D01*
X89177000Y-107673750D01*
X88923000Y-107673750D01*
X88764250Y-107515000D01*
X88073690Y-107515000D01*
X87840301Y-107611673D01*
X87661673Y-107790302D01*
X87565000Y-108023691D01*
X85564871Y-108023691D01*
X85445845Y-107735628D01*
X84817679Y-107106364D01*
X83996519Y-106765389D01*
X83107381Y-106764613D01*
X82285628Y-107104155D01*
X81656364Y-107732321D01*
X81315389Y-108553481D01*
X81314613Y-109442619D01*
X80710000Y-109442619D01*
X80710000Y-102185167D01*
X90064838Y-102185167D01*
X90206883Y-102528943D01*
X90469673Y-102792192D01*
X90813201Y-102934838D01*
X90860077Y-102934879D01*
X92062599Y-104137401D01*
X92309161Y-104302148D01*
X92600000Y-104360000D01*
X92937537Y-104360000D01*
X92969673Y-104392192D01*
X93313201Y-104534838D01*
X93685167Y-104535162D01*
X94028943Y-104393117D01*
X94292192Y-104130327D01*
X94434838Y-103786799D01*
X94435162Y-103414833D01*
X94293117Y-103071057D01*
X94030327Y-102807808D01*
X93686799Y-102665162D01*
X93314833Y-102664838D01*
X92971057Y-102806883D01*
X92937882Y-102840000D01*
X92914802Y-102840000D01*
X92159969Y-102085167D01*
X98364838Y-102085167D01*
X98506883Y-102428943D01*
X98769673Y-102692192D01*
X99113201Y-102834838D01*
X99485167Y-102835162D01*
X99597331Y-102788817D01*
X99706883Y-103053953D01*
X99969673Y-103317202D01*
X100313201Y-103459848D01*
X100360077Y-103459889D01*
X101437589Y-104537401D01*
X101684150Y-104702148D01*
X101974990Y-104760000D01*
X102137537Y-104760000D01*
X102169673Y-104792192D01*
X102513201Y-104934838D01*
X102885167Y-104935162D01*
X103228943Y-104793117D01*
X103492192Y-104530327D01*
X103628705Y-104201567D01*
X114928838Y-104201567D01*
X115070883Y-104545343D01*
X115333673Y-104808592D01*
X115677201Y-104951238D01*
X116049167Y-104951562D01*
X116392943Y-104809517D01*
X116428301Y-104774221D01*
X120102943Y-104759994D01*
X120246840Y-104730791D01*
X120390839Y-104702148D01*
X120392085Y-104701315D01*
X120393555Y-104701017D01*
X120515321Y-104618972D01*
X120637401Y-104537401D01*
X122437401Y-102737401D01*
X122602148Y-102490840D01*
X122632183Y-102339843D01*
X122660000Y-102200000D01*
X122660000Y-100985167D01*
X122964838Y-100985167D01*
X123106883Y-101328943D01*
X123369673Y-101592192D01*
X123713201Y-101734838D01*
X124085167Y-101735162D01*
X124428943Y-101593117D01*
X124462118Y-101560000D01*
X125585198Y-101560000D01*
X127164878Y-103139680D01*
X127164838Y-103185167D01*
X127306883Y-103528943D01*
X127569673Y-103792192D01*
X127913201Y-103934838D01*
X128285167Y-103935162D01*
X128351443Y-103907777D01*
X156671828Y-103907777D01*
X156803520Y-104202657D01*
X157511036Y-104474261D01*
X158268632Y-104454436D01*
X158876480Y-104202657D01*
X159008172Y-103907777D01*
X157840000Y-102739605D01*
X156671828Y-103907777D01*
X128351443Y-103907777D01*
X128628943Y-103793117D01*
X128892192Y-103530327D01*
X129034838Y-103186799D01*
X129035162Y-102814833D01*
X128893117Y-102471057D01*
X128630327Y-102207808D01*
X128286799Y-102065162D01*
X128239923Y-102065121D01*
X126437401Y-100262599D01*
X126190839Y-100097852D01*
X125900000Y-100040000D01*
X124462463Y-100040000D01*
X124430327Y-100007808D01*
X124086799Y-99865162D01*
X123714833Y-99864838D01*
X123371057Y-100006883D01*
X123107808Y-100269673D01*
X122965162Y-100613201D01*
X122964838Y-100985167D01*
X122660000Y-100985167D01*
X122660000Y-98392563D01*
X123057396Y-97995167D01*
X131144838Y-97995167D01*
X131286883Y-98338943D01*
X131320000Y-98372118D01*
X131320000Y-101387537D01*
X131287808Y-101419673D01*
X131145162Y-101763201D01*
X131144838Y-102135167D01*
X131286883Y-102478943D01*
X131549673Y-102742192D01*
X131893201Y-102884838D01*
X132265167Y-102885162D01*
X132608943Y-102743117D01*
X132872192Y-102480327D01*
X132975707Y-102231036D01*
X155925739Y-102231036D01*
X155945564Y-102988632D01*
X156197343Y-103596480D01*
X156492223Y-103728172D01*
X157660395Y-102560000D01*
X156492223Y-101391828D01*
X156197343Y-101523520D01*
X155925739Y-102231036D01*
X132975707Y-102231036D01*
X133014838Y-102136799D01*
X133015162Y-101764833D01*
X132873117Y-101421057D01*
X132840000Y-101387882D01*
X132840000Y-101212223D01*
X156671828Y-101212223D01*
X157840000Y-102380395D01*
X157854143Y-102366253D01*
X158033748Y-102545858D01*
X158019605Y-102560000D01*
X159187777Y-103728172D01*
X159482657Y-103596480D01*
X159754261Y-102888964D01*
X159752710Y-102829683D01*
X160378551Y-103089554D01*
X161396981Y-103090443D01*
X162338229Y-102701528D01*
X163058997Y-101982017D01*
X163449554Y-101041449D01*
X163450443Y-100023019D01*
X163061528Y-99081771D01*
X162342017Y-98361003D01*
X161401449Y-97970446D01*
X160383019Y-97969557D01*
X159441771Y-98358472D01*
X158721003Y-99077983D01*
X158330446Y-100018551D01*
X158329845Y-100707498D01*
X158168964Y-100645739D01*
X157411368Y-100665564D01*
X156803520Y-100917343D01*
X156671828Y-101212223D01*
X132840000Y-101212223D01*
X132840000Y-98372463D01*
X132872192Y-98340327D01*
X133014838Y-97996799D01*
X133015162Y-97624833D01*
X132873117Y-97281057D01*
X132722282Y-97129958D01*
X132882192Y-96970327D01*
X133024838Y-96626799D01*
X133024879Y-96579923D01*
X133277401Y-96327401D01*
X133442148Y-96080839D01*
X133500000Y-95790000D01*
X133500000Y-95392463D01*
X133532192Y-95360327D01*
X133674838Y-95016799D01*
X133675162Y-94644833D01*
X133650509Y-94585167D01*
X135264838Y-94585167D01*
X135406883Y-94928943D01*
X135669673Y-95192192D01*
X135685040Y-95198573D01*
X135640000Y-95425002D01*
X135640000Y-99337537D01*
X135607808Y-99369673D01*
X135465162Y-99713201D01*
X135464838Y-100085167D01*
X135606883Y-100428943D01*
X135869673Y-100692192D01*
X136213201Y-100834838D01*
X136585167Y-100835162D01*
X136928943Y-100693117D01*
X137192192Y-100430327D01*
X137334838Y-100086799D01*
X137335162Y-99714833D01*
X137193117Y-99371057D01*
X137160000Y-99337882D01*
X137160000Y-95678920D01*
X137202147Y-95615842D01*
X137259999Y-95325003D01*
X137259999Y-94699999D01*
X137202147Y-94409160D01*
X137135080Y-94308787D01*
X137135162Y-94214833D01*
X136993117Y-93871057D01*
X136730327Y-93607808D01*
X136386799Y-93465162D01*
X136014833Y-93464838D01*
X135671057Y-93606883D01*
X135407808Y-93869673D01*
X135265162Y-94213201D01*
X135264838Y-94585167D01*
X133650509Y-94585167D01*
X133533117Y-94301057D01*
X133270327Y-94037808D01*
X132926799Y-93895162D01*
X132554833Y-93894838D01*
X132211057Y-94036883D01*
X131947808Y-94299673D01*
X131805162Y-94643201D01*
X131804838Y-95015167D01*
X131946883Y-95358943D01*
X131980000Y-95392118D01*
X131980000Y-95475198D01*
X131950320Y-95504878D01*
X131904833Y-95504838D01*
X131561057Y-95646883D01*
X131297808Y-95909673D01*
X131155162Y-96253201D01*
X131154838Y-96625167D01*
X131296883Y-96968943D01*
X131447718Y-97120042D01*
X131287808Y-97279673D01*
X131145162Y-97623201D01*
X131144838Y-97995167D01*
X123057396Y-97995167D01*
X123642431Y-97410132D01*
X123687918Y-97410172D01*
X124031694Y-97268127D01*
X124294943Y-97005337D01*
X124437589Y-96661809D01*
X124437913Y-96289843D01*
X124295868Y-95946067D01*
X124033078Y-95682818D01*
X123689550Y-95540172D01*
X123317584Y-95539848D01*
X122973808Y-95681893D01*
X122710559Y-95944683D01*
X122567913Y-96288211D01*
X122567872Y-96335087D01*
X121362599Y-97540360D01*
X121197852Y-97786922D01*
X121140000Y-98077761D01*
X121140000Y-101885198D01*
X119783980Y-103241218D01*
X116424292Y-103254225D01*
X116394327Y-103224208D01*
X116050799Y-103081562D01*
X115678833Y-103081238D01*
X115335057Y-103223283D01*
X115071808Y-103486073D01*
X114929162Y-103829601D01*
X114928838Y-104201567D01*
X103628705Y-104201567D01*
X103634838Y-104186799D01*
X103635162Y-103814833D01*
X103493117Y-103471057D01*
X103230327Y-103207808D01*
X102886799Y-103065162D01*
X102514833Y-103064838D01*
X102231642Y-103181850D01*
X101709792Y-102660000D01*
X104437537Y-102660000D01*
X104469673Y-102692192D01*
X104813201Y-102834838D01*
X105185167Y-102835162D01*
X105528943Y-102693117D01*
X105792192Y-102430327D01*
X105934838Y-102086799D01*
X105935162Y-101714833D01*
X105793117Y-101371057D01*
X105530327Y-101107808D01*
X105186799Y-100965162D01*
X104814833Y-100964838D01*
X104471057Y-101106883D01*
X104437882Y-101140000D01*
X99862463Y-101140000D01*
X99830327Y-101107808D01*
X99486799Y-100965162D01*
X99114833Y-100964838D01*
X98771057Y-101106883D01*
X98507808Y-101369673D01*
X98365162Y-101713201D01*
X98364838Y-102085167D01*
X92159969Y-102085167D01*
X91935122Y-101860320D01*
X91935162Y-101814833D01*
X91793117Y-101471057D01*
X91530327Y-101207808D01*
X91186799Y-101065162D01*
X90814833Y-101064838D01*
X90471057Y-101206883D01*
X90207808Y-101469673D01*
X90065162Y-101813201D01*
X90064838Y-102185167D01*
X80710000Y-102185167D01*
X80710000Y-100227000D01*
X86500000Y-100227000D01*
X86546159Y-100218315D01*
X86588553Y-100191035D01*
X86616994Y-100149410D01*
X86627000Y-100100000D01*
X86627000Y-99235167D01*
X112254838Y-99235167D01*
X112396883Y-99578943D01*
X112659673Y-99842192D01*
X113003201Y-99984838D01*
X113375167Y-99985162D01*
X113718943Y-99843117D01*
X113982192Y-99580327D01*
X114124838Y-99236799D01*
X114125162Y-98864833D01*
X113983117Y-98521057D01*
X113950000Y-98487882D01*
X113950000Y-97587833D01*
X114063201Y-97634838D01*
X114435167Y-97635162D01*
X114778943Y-97493117D01*
X114812118Y-97460000D01*
X115050000Y-97460000D01*
X115340839Y-97402148D01*
X115587401Y-97237401D01*
X116374205Y-96450597D01*
X116265162Y-96713201D01*
X116264838Y-97085167D01*
X116406883Y-97428943D01*
X116440000Y-97462118D01*
X116440000Y-99800000D01*
X116497852Y-100090839D01*
X116662599Y-100337401D01*
X117562599Y-101237401D01*
X117809160Y-101402148D01*
X118100000Y-101460000D01*
X119637537Y-101460000D01*
X119669673Y-101492192D01*
X120013201Y-101634838D01*
X120385167Y-101635162D01*
X120728943Y-101493117D01*
X120992192Y-101230327D01*
X121134838Y-100886799D01*
X121135162Y-100514833D01*
X120993117Y-100171057D01*
X120730327Y-99907808D01*
X120400019Y-99770652D01*
X120434838Y-99686799D01*
X120435162Y-99314833D01*
X120293117Y-98971057D01*
X120225755Y-98903578D01*
X120202148Y-98784897D01*
X120037401Y-98538335D01*
X119960000Y-98460934D01*
X119960000Y-97300000D01*
X119902148Y-97009161D01*
X119737401Y-96762599D01*
X119648535Y-96673733D01*
X119792192Y-96530327D01*
X119821394Y-96460000D01*
X119937537Y-96460000D01*
X119969673Y-96492192D01*
X120313201Y-96634838D01*
X120685167Y-96635162D01*
X121028943Y-96493117D01*
X121292192Y-96230327D01*
X121434838Y-95886799D01*
X121434955Y-95752612D01*
X121578943Y-95693117D01*
X121842192Y-95430327D01*
X121984838Y-95086799D01*
X121985162Y-94714833D01*
X121843117Y-94371057D01*
X121580327Y-94107808D01*
X121236799Y-93965162D01*
X120864833Y-93964838D01*
X120521057Y-94106883D01*
X120487882Y-94140000D01*
X116850000Y-94140000D01*
X116607414Y-94188254D01*
X116559160Y-94197852D01*
X116312599Y-94362599D01*
X114771186Y-95904012D01*
X114436799Y-95765162D01*
X114064833Y-95764838D01*
X114056536Y-95768266D01*
X115577401Y-94247401D01*
X115742148Y-94000839D01*
X115800000Y-93710000D01*
X115800000Y-83885167D01*
X119964838Y-83885167D01*
X120106883Y-84228943D01*
X120369673Y-84492192D01*
X120713201Y-84634838D01*
X120938380Y-84635034D01*
X120938380Y-85878260D01*
X120996232Y-86169099D01*
X121160979Y-86415661D01*
X121524199Y-86778881D01*
X121770761Y-86943628D01*
X122061600Y-87001480D01*
X122267649Y-87001480D01*
X122193562Y-87179901D01*
X122193521Y-87226777D01*
X121117799Y-88302499D01*
X120953052Y-88549061D01*
X120895200Y-88839900D01*
X120895200Y-92387801D01*
X120758462Y-92717101D01*
X120758138Y-93089067D01*
X120900183Y-93432843D01*
X121162973Y-93696092D01*
X121506501Y-93838738D01*
X121878467Y-93839062D01*
X122222243Y-93697017D01*
X122485492Y-93434227D01*
X122628138Y-93090699D01*
X122628142Y-93085167D01*
X126064838Y-93085167D01*
X126206883Y-93428943D01*
X126469673Y-93692192D01*
X126813201Y-93834838D01*
X127185167Y-93835162D01*
X127528943Y-93693117D01*
X127562118Y-93660000D01*
X130537537Y-93660000D01*
X130569673Y-93692192D01*
X130913201Y-93834838D01*
X131285167Y-93835162D01*
X131628943Y-93693117D01*
X131892192Y-93430327D01*
X132034838Y-93086799D01*
X132035162Y-92714833D01*
X131893117Y-92371057D01*
X131630327Y-92107808D01*
X131286799Y-91965162D01*
X130914833Y-91964838D01*
X130571057Y-92106883D01*
X130537882Y-92140000D01*
X127562463Y-92140000D01*
X127530327Y-92107808D01*
X127186799Y-91965162D01*
X126814833Y-91964838D01*
X126471057Y-92106883D01*
X126207808Y-92369673D01*
X126065162Y-92713201D01*
X126064838Y-93085167D01*
X122628142Y-93085167D01*
X122628462Y-92718733D01*
X122486417Y-92374957D01*
X122419055Y-92307478D01*
X122415200Y-92288096D01*
X122415200Y-92235118D01*
X122465377Y-92235162D01*
X122809153Y-92093117D01*
X123072402Y-91830327D01*
X123163243Y-91611559D01*
X125275927Y-89498875D01*
X125361966Y-89707105D01*
X125530740Y-89876174D01*
X125530516Y-90133558D01*
X125672561Y-90477334D01*
X125935351Y-90740583D01*
X126278879Y-90883229D01*
X126650845Y-90883553D01*
X126994621Y-90741508D01*
X127027796Y-90708391D01*
X129724061Y-90708391D01*
X129955311Y-90804415D01*
X130327277Y-90804739D01*
X130616664Y-90685167D01*
X142764838Y-90685167D01*
X142906883Y-91028943D01*
X142940000Y-91062118D01*
X142940000Y-91637537D01*
X142907808Y-91669673D01*
X142765162Y-92013201D01*
X142764838Y-92385167D01*
X142906883Y-92728943D01*
X142940000Y-92762118D01*
X142940000Y-93637537D01*
X142907808Y-93669673D01*
X142765162Y-94013201D01*
X142764838Y-94385167D01*
X142906883Y-94728943D01*
X142940000Y-94762118D01*
X142940000Y-95932972D01*
X142865162Y-96113201D01*
X142864838Y-96485167D01*
X143006883Y-96828943D01*
X143040000Y-96862118D01*
X143040000Y-97837537D01*
X143007808Y-97869673D01*
X142865162Y-98213201D01*
X142864838Y-98585167D01*
X143006883Y-98928943D01*
X143269673Y-99192192D01*
X143613201Y-99334838D01*
X143985167Y-99335162D01*
X144328943Y-99193117D01*
X144592192Y-98930327D01*
X144734838Y-98586799D01*
X144735162Y-98214833D01*
X144640508Y-97985750D01*
X146900000Y-97985750D01*
X146900000Y-98226309D01*
X146996673Y-98459698D01*
X147175301Y-98638327D01*
X147408690Y-98735000D01*
X147624250Y-98735000D01*
X147783000Y-98576250D01*
X147783000Y-97827000D01*
X148037000Y-97827000D01*
X148037000Y-98576250D01*
X148195750Y-98735000D01*
X148411310Y-98735000D01*
X148620000Y-98648558D01*
X148828690Y-98735000D01*
X149044250Y-98735000D01*
X149203000Y-98576250D01*
X149203000Y-97827000D01*
X149457000Y-97827000D01*
X149457000Y-98576250D01*
X149615750Y-98735000D01*
X149831310Y-98735000D01*
X150064699Y-98638327D01*
X150243327Y-98459698D01*
X150340000Y-98226309D01*
X150340000Y-97985750D01*
X150181250Y-97827000D01*
X149457000Y-97827000D01*
X149203000Y-97827000D01*
X148037000Y-97827000D01*
X147783000Y-97827000D01*
X147058750Y-97827000D01*
X146900000Y-97985750D01*
X144640508Y-97985750D01*
X144593117Y-97871057D01*
X144560000Y-97837882D01*
X144560000Y-96862463D01*
X144592192Y-96830327D01*
X144704232Y-96560507D01*
X144806883Y-96808943D01*
X145069673Y-97072192D01*
X145413201Y-97214838D01*
X145785167Y-97215162D01*
X146128943Y-97073117D01*
X146242258Y-96960000D01*
X146988514Y-96960000D01*
X146900000Y-97173691D01*
X146900000Y-97414250D01*
X147058750Y-97573000D01*
X147783000Y-97573000D01*
X147783000Y-97553000D01*
X148037000Y-97553000D01*
X148037000Y-97573000D01*
X149203000Y-97573000D01*
X149203000Y-97553000D01*
X149457000Y-97553000D01*
X149457000Y-97573000D01*
X150181250Y-97573000D01*
X150340000Y-97414250D01*
X150340000Y-97173691D01*
X150284623Y-97040000D01*
X150987217Y-97040000D01*
X151208764Y-97261934D01*
X151420738Y-97349954D01*
X151210828Y-97436687D01*
X150818066Y-97828764D01*
X150605242Y-98341300D01*
X150604758Y-98896265D01*
X150816687Y-99409172D01*
X151208764Y-99801934D01*
X151721300Y-100014758D01*
X152276265Y-100015242D01*
X152789172Y-99803313D01*
X153132560Y-99460524D01*
X153132560Y-100020000D01*
X153176838Y-100255317D01*
X153315910Y-100471441D01*
X153528110Y-100616431D01*
X153780000Y-100667440D01*
X155300000Y-100667440D01*
X155535317Y-100623162D01*
X155751441Y-100484090D01*
X155896431Y-100271890D01*
X155947440Y-100020000D01*
X155947440Y-98500000D01*
X155903162Y-98264683D01*
X155764090Y-98048559D01*
X155551890Y-97903569D01*
X155358192Y-97864344D01*
X155721934Y-97501236D01*
X155934758Y-96988700D01*
X155935242Y-96433735D01*
X155723313Y-95920828D01*
X155331236Y-95528066D01*
X155119262Y-95440046D01*
X155329172Y-95353313D01*
X155721934Y-94961236D01*
X155934758Y-94448700D01*
X155935242Y-93893735D01*
X155723313Y-93380828D01*
X155331236Y-92988066D01*
X155131333Y-92905059D01*
X155329172Y-92823313D01*
X155721934Y-92431236D01*
X155934758Y-91918700D01*
X155935242Y-91363735D01*
X155723313Y-90850828D01*
X155331236Y-90458066D01*
X154818700Y-90245242D01*
X154263735Y-90244758D01*
X153750828Y-90456687D01*
X153387684Y-90819198D01*
X153379341Y-90652951D01*
X153220742Y-90270059D01*
X152978764Y-90200841D01*
X152179605Y-91000000D01*
X152978764Y-91799159D01*
X153144902Y-91751635D01*
X153144758Y-91916265D01*
X153356687Y-92429172D01*
X153748764Y-92821934D01*
X153948667Y-92904941D01*
X153750828Y-92986687D01*
X153395174Y-93341721D01*
X153395242Y-93263735D01*
X153183313Y-92750828D01*
X152791236Y-92358066D01*
X152595066Y-92276609D01*
X152729941Y-92220742D01*
X152799159Y-91978764D01*
X152000000Y-91179605D01*
X151200841Y-91978764D01*
X151270059Y-92220742D01*
X151414862Y-92272382D01*
X151210828Y-92356687D01*
X150818066Y-92748764D01*
X150605242Y-93261300D01*
X150604758Y-93816265D01*
X150767704Y-94210623D01*
X150721799Y-94191562D01*
X150349833Y-94191238D01*
X150006057Y-94333283D01*
X149896549Y-94442600D01*
X149133252Y-94442600D01*
X149133362Y-94316223D01*
X148991317Y-93972447D01*
X148728527Y-93709198D01*
X148384999Y-93566552D01*
X148013033Y-93566228D01*
X147755670Y-93672568D01*
X147177522Y-93094420D01*
X147177562Y-93048933D01*
X147035517Y-92705157D01*
X146772727Y-92441908D01*
X146429199Y-92299262D01*
X146057233Y-92298938D01*
X145713457Y-92440983D01*
X145450208Y-92703773D01*
X145307562Y-93047301D01*
X145307238Y-93419267D01*
X145449283Y-93763043D01*
X145712073Y-94026292D01*
X146055601Y-94168938D01*
X146102477Y-94168979D01*
X146376098Y-94442600D01*
X146131763Y-94442600D01*
X146099627Y-94410408D01*
X145756099Y-94267762D01*
X145384133Y-94267438D01*
X145040357Y-94409483D01*
X144777108Y-94672273D01*
X144634462Y-95015801D01*
X144634138Y-95387767D01*
X144776183Y-95731543D01*
X144803834Y-95759243D01*
X144695768Y-96019493D01*
X144593117Y-95771057D01*
X144460000Y-95637707D01*
X144460000Y-94762463D01*
X144492192Y-94730327D01*
X144634838Y-94386799D01*
X144635162Y-94014833D01*
X144493117Y-93671057D01*
X144460000Y-93637882D01*
X144460000Y-92762463D01*
X144492192Y-92730327D01*
X144634838Y-92386799D01*
X144635162Y-92014833D01*
X144493117Y-91671057D01*
X144460000Y-91637882D01*
X144460000Y-91062463D01*
X144492192Y-91030327D01*
X144590830Y-90792780D01*
X150592845Y-90792780D01*
X150620659Y-91347049D01*
X150779258Y-91729941D01*
X151021236Y-91799159D01*
X151820395Y-91000000D01*
X151021236Y-90200841D01*
X150779258Y-90270059D01*
X150592845Y-90792780D01*
X144590830Y-90792780D01*
X144634838Y-90686799D01*
X144635162Y-90314833D01*
X144513851Y-90021236D01*
X151200841Y-90021236D01*
X152000000Y-90820395D01*
X152799159Y-90021236D01*
X152729941Y-89779258D01*
X152207220Y-89592845D01*
X151652951Y-89620659D01*
X151270059Y-89779258D01*
X151200841Y-90021236D01*
X144513851Y-90021236D01*
X144493117Y-89971057D01*
X144230327Y-89707808D01*
X143886799Y-89565162D01*
X143514833Y-89564838D01*
X143171057Y-89706883D01*
X142907808Y-89969673D01*
X142765162Y-90313201D01*
X142764838Y-90685167D01*
X130616664Y-90685167D01*
X130671053Y-90662694D01*
X130934302Y-90399904D01*
X131076948Y-90056376D01*
X131077272Y-89684410D01*
X130935227Y-89340634D01*
X130672437Y-89077385D01*
X130544518Y-89024268D01*
X130532416Y-88994980D01*
X130778943Y-88893117D01*
X131042192Y-88630327D01*
X131113788Y-88457906D01*
X131374591Y-88350145D01*
X131411873Y-88387492D01*
X131755401Y-88530138D01*
X132127367Y-88530462D01*
X132180727Y-88508414D01*
X132313573Y-88641492D01*
X132657101Y-88784138D01*
X133029067Y-88784462D01*
X133372843Y-88642417D01*
X133607892Y-88407777D01*
X156671828Y-88407777D01*
X156803520Y-88702657D01*
X157511036Y-88974261D01*
X158268632Y-88954436D01*
X158330140Y-88928958D01*
X158329557Y-89596981D01*
X158718472Y-90538229D01*
X159437983Y-91258997D01*
X160378551Y-91649554D01*
X161396981Y-91650443D01*
X162338229Y-91261528D01*
X163058997Y-90542017D01*
X163449554Y-89601449D01*
X163450443Y-88583019D01*
X163061528Y-87641771D01*
X162342017Y-86921003D01*
X161401449Y-86530446D01*
X160383019Y-86529557D01*
X159738738Y-86795768D01*
X159734436Y-86631368D01*
X159482657Y-86023520D01*
X159187777Y-85891828D01*
X158019605Y-87060000D01*
X158033748Y-87074143D01*
X157854143Y-87253748D01*
X157840000Y-87239605D01*
X156671828Y-88407777D01*
X133607892Y-88407777D01*
X133636092Y-88379627D01*
X133778738Y-88036099D01*
X133779062Y-87664133D01*
X133653397Y-87360000D01*
X134537537Y-87360000D01*
X134569673Y-87392192D01*
X134913201Y-87534838D01*
X135285167Y-87535162D01*
X135628943Y-87393117D01*
X135892192Y-87130327D01*
X136034838Y-86786799D01*
X136034886Y-86731036D01*
X155925739Y-86731036D01*
X155945564Y-87488632D01*
X156197343Y-88096480D01*
X156492223Y-88228172D01*
X157660395Y-87060000D01*
X156492223Y-85891828D01*
X156197343Y-86023520D01*
X155925739Y-86731036D01*
X136034886Y-86731036D01*
X136035162Y-86414833D01*
X135893117Y-86071057D01*
X135630327Y-85807808D01*
X135403712Y-85713709D01*
X135403099Y-85712223D01*
X156671828Y-85712223D01*
X157840000Y-86880395D01*
X159008172Y-85712223D01*
X158876480Y-85417343D01*
X158168964Y-85145739D01*
X157411368Y-85165564D01*
X156803520Y-85417343D01*
X156671828Y-85712223D01*
X135403099Y-85712223D01*
X135293117Y-85446047D01*
X135030327Y-85182798D01*
X134686799Y-85040152D01*
X134314833Y-85039828D01*
X133971057Y-85181873D01*
X133937882Y-85214990D01*
X132473408Y-85214990D01*
X132419963Y-85225621D01*
X132420162Y-84997133D01*
X132278117Y-84653357D01*
X132015327Y-84390108D01*
X131671799Y-84247462D01*
X131299833Y-84247138D01*
X130956057Y-84389183D01*
X130692808Y-84651973D01*
X130550162Y-84995501D01*
X130550121Y-85042377D01*
X130337600Y-85254898D01*
X130172853Y-85501460D01*
X130115001Y-85792299D01*
X130115001Y-86982436D01*
X130082809Y-87014572D01*
X130011213Y-87186993D01*
X129721057Y-87306883D01*
X129687882Y-87340000D01*
X125614802Y-87340000D01*
X123978881Y-85704079D01*
X123732319Y-85539332D01*
X123441480Y-85481480D01*
X122458380Y-85481480D01*
X122458380Y-83919920D01*
X122400528Y-83629081D01*
X122235781Y-83382519D01*
X122015861Y-83162599D01*
X121769299Y-82997852D01*
X121478460Y-82940000D01*
X121462463Y-82940000D01*
X121430327Y-82907808D01*
X121086799Y-82765162D01*
X120714833Y-82764838D01*
X120371057Y-82906883D01*
X120107808Y-83169673D01*
X119965162Y-83513201D01*
X119964838Y-83885167D01*
X115800000Y-83885167D01*
X115800000Y-83842463D01*
X115832192Y-83810327D01*
X115974838Y-83466799D01*
X115975162Y-83094833D01*
X115833117Y-82751057D01*
X115570327Y-82487808D01*
X115226799Y-82345162D01*
X114854833Y-82344838D01*
X114511057Y-82486883D01*
X114247808Y-82749673D01*
X114105162Y-83093201D01*
X114104838Y-83465167D01*
X114246883Y-83808943D01*
X114280000Y-83842118D01*
X114280000Y-93395198D01*
X112652599Y-95022599D01*
X112487852Y-95269161D01*
X112430000Y-95560000D01*
X112430000Y-98487537D01*
X112397808Y-98519673D01*
X112255162Y-98863201D01*
X112254838Y-99235167D01*
X86627000Y-99235167D01*
X86627000Y-98085167D01*
X105714838Y-98085167D01*
X105856883Y-98428943D01*
X106119673Y-98692192D01*
X106463201Y-98834838D01*
X106835167Y-98835162D01*
X107178943Y-98693117D01*
X107442192Y-98430327D01*
X107584838Y-98086799D01*
X107584879Y-98039923D01*
X108011452Y-97613350D01*
X108063201Y-97634838D01*
X108435167Y-97635162D01*
X108778943Y-97493117D01*
X109042192Y-97230327D01*
X109184838Y-96886799D01*
X109185162Y-96514833D01*
X109043117Y-96171057D01*
X108780327Y-95907808D01*
X108436799Y-95765162D01*
X108064833Y-95764838D01*
X107721057Y-95906883D01*
X107647540Y-95980272D01*
X107559161Y-95997852D01*
X107312599Y-96162599D01*
X106510320Y-96964878D01*
X106464833Y-96964838D01*
X106121057Y-97106883D01*
X105857808Y-97369673D01*
X105715162Y-97713201D01*
X105714838Y-98085167D01*
X86627000Y-98085167D01*
X86627000Y-92848528D01*
X94125077Y-92848528D01*
X94315364Y-93193271D01*
X95196591Y-93544956D01*
X96145323Y-93532641D01*
X96964636Y-93193271D01*
X97154923Y-92848528D01*
X95640000Y-91333605D01*
X94125077Y-92848528D01*
X86627000Y-92848528D01*
X86627000Y-90710591D01*
X93249044Y-90710591D01*
X93261359Y-91659323D01*
X93600729Y-92478636D01*
X93945472Y-92668923D01*
X95460395Y-91154000D01*
X95819605Y-91154000D01*
X97334528Y-92668923D01*
X97679271Y-92478636D01*
X98030956Y-91597409D01*
X98018641Y-90648677D01*
X97679271Y-89829364D01*
X97334528Y-89639077D01*
X95819605Y-91154000D01*
X95460395Y-91154000D01*
X93945472Y-89639077D01*
X93600729Y-89829364D01*
X93249044Y-90710591D01*
X86627000Y-90710591D01*
X86627000Y-89459472D01*
X94125077Y-89459472D01*
X95640000Y-90974395D01*
X97154923Y-89459472D01*
X96964636Y-89114729D01*
X96083409Y-88763044D01*
X95134677Y-88775359D01*
X94315364Y-89114729D01*
X94125077Y-89459472D01*
X86627000Y-89459472D01*
X86627000Y-84585167D01*
X88164838Y-84585167D01*
X88306883Y-84928943D01*
X88569673Y-85192192D01*
X88913201Y-85334838D01*
X88960077Y-85334879D01*
X91368447Y-87743249D01*
X91615008Y-87907996D01*
X91905848Y-87965848D01*
X101284825Y-87965848D01*
X101265162Y-88013201D01*
X101264838Y-88385167D01*
X101389917Y-88687882D01*
X101207808Y-88869673D01*
X101065162Y-89213201D01*
X101064838Y-89585167D01*
X101206883Y-89928943D01*
X101469673Y-90192192D01*
X101813201Y-90334838D01*
X102185167Y-90335162D01*
X102528943Y-90193117D01*
X102562118Y-90160000D01*
X106785198Y-90160000D01*
X109003194Y-92377996D01*
X109106883Y-92628943D01*
X109369673Y-92892192D01*
X109713201Y-93034838D01*
X110085167Y-93035162D01*
X110428943Y-92893117D01*
X110692192Y-92630327D01*
X110834838Y-92286799D01*
X110835162Y-91914833D01*
X110693117Y-91571057D01*
X110572378Y-91450107D01*
X110592192Y-91430327D01*
X110734838Y-91086799D01*
X110735162Y-90714833D01*
X110593117Y-90371057D01*
X110330327Y-90107808D01*
X109986799Y-89965162D01*
X109939923Y-89965121D01*
X109809724Y-89834922D01*
X110085167Y-89835162D01*
X110428943Y-89693117D01*
X110692192Y-89430327D01*
X110834838Y-89086799D01*
X110834928Y-88982936D01*
X111154461Y-88850908D01*
X111417710Y-88588118D01*
X111560356Y-88244590D01*
X111560680Y-87872624D01*
X111418635Y-87528848D01*
X111385518Y-87495673D01*
X111385518Y-86989107D01*
X111327666Y-86698268D01*
X111162919Y-86451706D01*
X108373812Y-83662599D01*
X108127250Y-83497852D01*
X107836411Y-83440000D01*
X98662463Y-83440000D01*
X98630327Y-83407808D01*
X98286799Y-83265162D01*
X97914833Y-83264838D01*
X97571057Y-83406883D01*
X97307808Y-83669673D01*
X97165162Y-84013201D01*
X97164838Y-84385167D01*
X97306883Y-84728943D01*
X97569673Y-84992192D01*
X97913201Y-85134838D01*
X98285167Y-85135162D01*
X98628943Y-84993117D01*
X98662118Y-84960000D01*
X107521609Y-84960000D01*
X108301609Y-85740000D01*
X92914802Y-85740000D01*
X91335122Y-84160320D01*
X91335162Y-84114833D01*
X91193117Y-83771057D01*
X90930327Y-83507808D01*
X90586799Y-83365162D01*
X90214833Y-83364838D01*
X89871057Y-83506883D01*
X89700020Y-83677622D01*
X89630327Y-83607808D01*
X89286799Y-83465162D01*
X88914833Y-83464838D01*
X88571057Y-83606883D01*
X88307808Y-83869673D01*
X88165162Y-84213201D01*
X88164838Y-84585167D01*
X86627000Y-84585167D01*
X86627000Y-81650000D01*
X86618315Y-81603841D01*
X86591035Y-81561447D01*
X86549410Y-81533006D01*
X86500000Y-81523000D01*
X80710000Y-81523000D01*
X80710000Y-76442619D01*
X81314613Y-76442619D01*
X81654155Y-77264372D01*
X82282321Y-77893636D01*
X83103481Y-78234611D01*
X83992619Y-78235387D01*
X84596785Y-77985750D01*
X86990000Y-77985750D01*
X86990000Y-78501309D01*
X87086673Y-78734698D01*
X87265301Y-78913327D01*
X87498690Y-79010000D01*
X88014250Y-79010000D01*
X88173000Y-78851250D01*
X88173000Y-77827000D01*
X87148750Y-77827000D01*
X86990000Y-77985750D01*
X84596785Y-77985750D01*
X84814372Y-77895845D01*
X85443636Y-77267679D01*
X85596853Y-76898691D01*
X86990000Y-76898691D01*
X86990000Y-77414250D01*
X87148750Y-77573000D01*
X88173000Y-77573000D01*
X88173000Y-76548750D01*
X88427000Y-76548750D01*
X88427000Y-77573000D01*
X88447000Y-77573000D01*
X88447000Y-77827000D01*
X88427000Y-77827000D01*
X88427000Y-78851250D01*
X88585750Y-79010000D01*
X89101310Y-79010000D01*
X89334699Y-78913327D01*
X89506986Y-78741039D01*
X89798685Y-78935946D01*
X90300000Y-79035664D01*
X90801315Y-78935946D01*
X91226310Y-78651974D01*
X91300000Y-78541689D01*
X91373690Y-78651974D01*
X91798685Y-78935946D01*
X92300000Y-79035664D01*
X92801315Y-78935946D01*
X93226310Y-78651974D01*
X93510282Y-78226979D01*
X93584240Y-77855167D01*
X119484838Y-77855167D01*
X119626883Y-78198943D01*
X119889673Y-78462192D01*
X120233201Y-78604838D01*
X120280077Y-78604879D01*
X120682599Y-79007401D01*
X120929161Y-79172148D01*
X121220000Y-79230000D01*
X123017537Y-79230000D01*
X123049673Y-79262192D01*
X123393201Y-79404838D01*
X123765167Y-79405162D01*
X124108943Y-79263117D01*
X124372192Y-79000327D01*
X124514838Y-78656799D01*
X124515162Y-78284833D01*
X124373117Y-77941057D01*
X124110327Y-77677808D01*
X123766799Y-77535162D01*
X123394833Y-77534838D01*
X123051057Y-77676883D01*
X123017882Y-77710000D01*
X121534802Y-77710000D01*
X121355122Y-77530320D01*
X121355162Y-77484833D01*
X121213117Y-77141057D01*
X120950327Y-76877808D01*
X120606799Y-76735162D01*
X120234833Y-76734838D01*
X119891057Y-76876883D01*
X119627808Y-77139673D01*
X119485162Y-77483201D01*
X119484838Y-77855167D01*
X93584240Y-77855167D01*
X93610000Y-77725664D01*
X93610000Y-77674336D01*
X93510282Y-77173021D01*
X93226310Y-76748026D01*
X92801315Y-76464054D01*
X92693555Y-76442619D01*
X164314613Y-76442619D01*
X164654155Y-77264372D01*
X165282321Y-77893636D01*
X166103481Y-78234611D01*
X166992619Y-78235387D01*
X167814372Y-77895845D01*
X168443636Y-77267679D01*
X168784611Y-76446519D01*
X168785387Y-75557381D01*
X168445845Y-74735628D01*
X167817679Y-74106364D01*
X166996519Y-73765389D01*
X166107381Y-73764613D01*
X165285628Y-74104155D01*
X164656364Y-74732321D01*
X164315389Y-75553481D01*
X164314613Y-76442619D01*
X92693555Y-76442619D01*
X92300000Y-76364336D01*
X91798685Y-76464054D01*
X91373690Y-76748026D01*
X91300000Y-76858311D01*
X91226310Y-76748026D01*
X90801315Y-76464054D01*
X90300000Y-76364336D01*
X89798685Y-76464054D01*
X89506986Y-76658961D01*
X89334699Y-76486673D01*
X89101310Y-76390000D01*
X88585750Y-76390000D01*
X88427000Y-76548750D01*
X88173000Y-76548750D01*
X88014250Y-76390000D01*
X87498690Y-76390000D01*
X87265301Y-76486673D01*
X87086673Y-76665302D01*
X86990000Y-76898691D01*
X85596853Y-76898691D01*
X85784611Y-76446519D01*
X85785387Y-75557381D01*
X85445845Y-74735628D01*
X84817679Y-74106364D01*
X83996519Y-73765389D01*
X83107381Y-73764613D01*
X82285628Y-74104155D01*
X81656364Y-74732321D01*
X81315389Y-75553481D01*
X81314613Y-76442619D01*
X80710000Y-76442619D01*
X80710000Y-73210000D01*
X169290000Y-73210000D01*
X169290000Y-111790000D01*
X169290000Y-111790000D01*
G37*
X169290000Y-111790000D02*
X80710000Y-111790000D01*
X80710000Y-109442619D01*
X81314613Y-109442619D01*
X81654155Y-110264372D01*
X82282321Y-110893636D01*
X83103481Y-111234611D01*
X83992619Y-111235387D01*
X84814372Y-110895845D01*
X85443636Y-110267679D01*
X85784611Y-109446519D01*
X85784751Y-109285750D01*
X87565000Y-109285750D01*
X87565000Y-109976309D01*
X87661673Y-110209698D01*
X87840301Y-110388327D01*
X88073690Y-110485000D01*
X88764250Y-110485000D01*
X88923000Y-110326250D01*
X88923000Y-109127000D01*
X87723750Y-109127000D01*
X87565000Y-109285750D01*
X85784751Y-109285750D01*
X85785387Y-108557381D01*
X85564871Y-108023691D01*
X87565000Y-108023691D01*
X87565000Y-108714250D01*
X87723750Y-108873000D01*
X88923000Y-108873000D01*
X88923000Y-107673750D01*
X89177000Y-107673750D01*
X89177000Y-108873000D01*
X89197000Y-108873000D01*
X89197000Y-109127000D01*
X89177000Y-109127000D01*
X89177000Y-110326250D01*
X89335750Y-110485000D01*
X90026310Y-110485000D01*
X90259699Y-110388327D01*
X90438327Y-110209698D01*
X90510597Y-110035223D01*
X90539946Y-110079147D01*
X91021715Y-110401054D01*
X91590000Y-110514093D01*
X92158285Y-110401054D01*
X92640054Y-110079147D01*
X92961961Y-109597378D01*
X92992744Y-109442619D01*
X164314613Y-109442619D01*
X164654155Y-110264372D01*
X165282321Y-110893636D01*
X166103481Y-111234611D01*
X166992619Y-111235387D01*
X167814372Y-110895845D01*
X168443636Y-110267679D01*
X168784611Y-109446519D01*
X168785387Y-108557381D01*
X168445845Y-107735628D01*
X167817679Y-107106364D01*
X166996519Y-106765389D01*
X166107381Y-106764613D01*
X165285628Y-107104155D01*
X164656364Y-107732321D01*
X164315389Y-108553481D01*
X164314613Y-109442619D01*
X92992744Y-109442619D01*
X93075000Y-109029093D01*
X93075000Y-108970907D01*
X92961961Y-108402622D01*
X92640054Y-107920853D01*
X92158285Y-107598946D01*
X91920377Y-107551623D01*
X91872148Y-107309161D01*
X91707401Y-107062599D01*
X91460839Y-106897852D01*
X91170000Y-106840000D01*
X90879161Y-106897852D01*
X90632599Y-107062599D01*
X90467852Y-107309161D01*
X90410000Y-107600000D01*
X90410000Y-107761975D01*
X90259699Y-107611673D01*
X90026310Y-107515000D01*
X89335750Y-107515000D01*
X89177000Y-107673750D01*
X88923000Y-107673750D01*
X88764250Y-107515000D01*
X88073690Y-107515000D01*
X87840301Y-107611673D01*
X87661673Y-107790302D01*
X87565000Y-108023691D01*
X85564871Y-108023691D01*
X85445845Y-107735628D01*
X84817679Y-107106364D01*
X83996519Y-106765389D01*
X83107381Y-106764613D01*
X82285628Y-107104155D01*
X81656364Y-107732321D01*
X81315389Y-108553481D01*
X81314613Y-109442619D01*
X80710000Y-109442619D01*
X80710000Y-102185167D01*
X90064838Y-102185167D01*
X90206883Y-102528943D01*
X90469673Y-102792192D01*
X90813201Y-102934838D01*
X90860077Y-102934879D01*
X92062599Y-104137401D01*
X92309161Y-104302148D01*
X92600000Y-104360000D01*
X92937537Y-104360000D01*
X92969673Y-104392192D01*
X93313201Y-104534838D01*
X93685167Y-104535162D01*
X94028943Y-104393117D01*
X94292192Y-104130327D01*
X94434838Y-103786799D01*
X94435162Y-103414833D01*
X94293117Y-103071057D01*
X94030327Y-102807808D01*
X93686799Y-102665162D01*
X93314833Y-102664838D01*
X92971057Y-102806883D01*
X92937882Y-102840000D01*
X92914802Y-102840000D01*
X92159969Y-102085167D01*
X98364838Y-102085167D01*
X98506883Y-102428943D01*
X98769673Y-102692192D01*
X99113201Y-102834838D01*
X99485167Y-102835162D01*
X99597331Y-102788817D01*
X99706883Y-103053953D01*
X99969673Y-103317202D01*
X100313201Y-103459848D01*
X100360077Y-103459889D01*
X101437589Y-104537401D01*
X101684150Y-104702148D01*
X101974990Y-104760000D01*
X102137537Y-104760000D01*
X102169673Y-104792192D01*
X102513201Y-104934838D01*
X102885167Y-104935162D01*
X103228943Y-104793117D01*
X103492192Y-104530327D01*
X103628705Y-104201567D01*
X114928838Y-104201567D01*
X115070883Y-104545343D01*
X115333673Y-104808592D01*
X115677201Y-104951238D01*
X116049167Y-104951562D01*
X116392943Y-104809517D01*
X116428301Y-104774221D01*
X120102943Y-104759994D01*
X120246840Y-104730791D01*
X120390839Y-104702148D01*
X120392085Y-104701315D01*
X120393555Y-104701017D01*
X120515321Y-104618972D01*
X120637401Y-104537401D01*
X122437401Y-102737401D01*
X122602148Y-102490840D01*
X122632183Y-102339843D01*
X122660000Y-102200000D01*
X122660000Y-100985167D01*
X122964838Y-100985167D01*
X123106883Y-101328943D01*
X123369673Y-101592192D01*
X123713201Y-101734838D01*
X124085167Y-101735162D01*
X124428943Y-101593117D01*
X124462118Y-101560000D01*
X125585198Y-101560000D01*
X127164878Y-103139680D01*
X127164838Y-103185167D01*
X127306883Y-103528943D01*
X127569673Y-103792192D01*
X127913201Y-103934838D01*
X128285167Y-103935162D01*
X128351443Y-103907777D01*
X156671828Y-103907777D01*
X156803520Y-104202657D01*
X157511036Y-104474261D01*
X158268632Y-104454436D01*
X158876480Y-104202657D01*
X159008172Y-103907777D01*
X157840000Y-102739605D01*
X156671828Y-103907777D01*
X128351443Y-103907777D01*
X128628943Y-103793117D01*
X128892192Y-103530327D01*
X129034838Y-103186799D01*
X129035162Y-102814833D01*
X128893117Y-102471057D01*
X128630327Y-102207808D01*
X128286799Y-102065162D01*
X128239923Y-102065121D01*
X126437401Y-100262599D01*
X126190839Y-100097852D01*
X125900000Y-100040000D01*
X124462463Y-100040000D01*
X124430327Y-100007808D01*
X124086799Y-99865162D01*
X123714833Y-99864838D01*
X123371057Y-100006883D01*
X123107808Y-100269673D01*
X122965162Y-100613201D01*
X122964838Y-100985167D01*
X122660000Y-100985167D01*
X122660000Y-98392563D01*
X123057396Y-97995167D01*
X131144838Y-97995167D01*
X131286883Y-98338943D01*
X131320000Y-98372118D01*
X131320000Y-101387537D01*
X131287808Y-101419673D01*
X131145162Y-101763201D01*
X131144838Y-102135167D01*
X131286883Y-102478943D01*
X131549673Y-102742192D01*
X131893201Y-102884838D01*
X132265167Y-102885162D01*
X132608943Y-102743117D01*
X132872192Y-102480327D01*
X132975707Y-102231036D01*
X155925739Y-102231036D01*
X155945564Y-102988632D01*
X156197343Y-103596480D01*
X156492223Y-103728172D01*
X157660395Y-102560000D01*
X156492223Y-101391828D01*
X156197343Y-101523520D01*
X155925739Y-102231036D01*
X132975707Y-102231036D01*
X133014838Y-102136799D01*
X133015162Y-101764833D01*
X132873117Y-101421057D01*
X132840000Y-101387882D01*
X132840000Y-101212223D01*
X156671828Y-101212223D01*
X157840000Y-102380395D01*
X157854143Y-102366253D01*
X158033748Y-102545858D01*
X158019605Y-102560000D01*
X159187777Y-103728172D01*
X159482657Y-103596480D01*
X159754261Y-102888964D01*
X159752710Y-102829683D01*
X160378551Y-103089554D01*
X161396981Y-103090443D01*
X162338229Y-102701528D01*
X163058997Y-101982017D01*
X163449554Y-101041449D01*
X163450443Y-100023019D01*
X163061528Y-99081771D01*
X162342017Y-98361003D01*
X161401449Y-97970446D01*
X160383019Y-97969557D01*
X159441771Y-98358472D01*
X158721003Y-99077983D01*
X158330446Y-100018551D01*
X158329845Y-100707498D01*
X158168964Y-100645739D01*
X157411368Y-100665564D01*
X156803520Y-100917343D01*
X156671828Y-101212223D01*
X132840000Y-101212223D01*
X132840000Y-98372463D01*
X132872192Y-98340327D01*
X133014838Y-97996799D01*
X133015162Y-97624833D01*
X132873117Y-97281057D01*
X132722282Y-97129958D01*
X132882192Y-96970327D01*
X133024838Y-96626799D01*
X133024879Y-96579923D01*
X133277401Y-96327401D01*
X133442148Y-96080839D01*
X133500000Y-95790000D01*
X133500000Y-95392463D01*
X133532192Y-95360327D01*
X133674838Y-95016799D01*
X133675162Y-94644833D01*
X133650509Y-94585167D01*
X135264838Y-94585167D01*
X135406883Y-94928943D01*
X135669673Y-95192192D01*
X135685040Y-95198573D01*
X135640000Y-95425002D01*
X135640000Y-99337537D01*
X135607808Y-99369673D01*
X135465162Y-99713201D01*
X135464838Y-100085167D01*
X135606883Y-100428943D01*
X135869673Y-100692192D01*
X136213201Y-100834838D01*
X136585167Y-100835162D01*
X136928943Y-100693117D01*
X137192192Y-100430327D01*
X137334838Y-100086799D01*
X137335162Y-99714833D01*
X137193117Y-99371057D01*
X137160000Y-99337882D01*
X137160000Y-95678920D01*
X137202147Y-95615842D01*
X137259999Y-95325003D01*
X137259999Y-94699999D01*
X137202147Y-94409160D01*
X137135080Y-94308787D01*
X137135162Y-94214833D01*
X136993117Y-93871057D01*
X136730327Y-93607808D01*
X136386799Y-93465162D01*
X136014833Y-93464838D01*
X135671057Y-93606883D01*
X135407808Y-93869673D01*
X135265162Y-94213201D01*
X135264838Y-94585167D01*
X133650509Y-94585167D01*
X133533117Y-94301057D01*
X133270327Y-94037808D01*
X132926799Y-93895162D01*
X132554833Y-93894838D01*
X132211057Y-94036883D01*
X131947808Y-94299673D01*
X131805162Y-94643201D01*
X131804838Y-95015167D01*
X131946883Y-95358943D01*
X131980000Y-95392118D01*
X131980000Y-95475198D01*
X131950320Y-95504878D01*
X131904833Y-95504838D01*
X131561057Y-95646883D01*
X131297808Y-95909673D01*
X131155162Y-96253201D01*
X131154838Y-96625167D01*
X131296883Y-96968943D01*
X131447718Y-97120042D01*
X131287808Y-97279673D01*
X131145162Y-97623201D01*
X131144838Y-97995167D01*
X123057396Y-97995167D01*
X123642431Y-97410132D01*
X123687918Y-97410172D01*
X124031694Y-97268127D01*
X124294943Y-97005337D01*
X124437589Y-96661809D01*
X124437913Y-96289843D01*
X124295868Y-95946067D01*
X124033078Y-95682818D01*
X123689550Y-95540172D01*
X123317584Y-95539848D01*
X122973808Y-95681893D01*
X122710559Y-95944683D01*
X122567913Y-96288211D01*
X122567872Y-96335087D01*
X121362599Y-97540360D01*
X121197852Y-97786922D01*
X121140000Y-98077761D01*
X121140000Y-101885198D01*
X119783980Y-103241218D01*
X116424292Y-103254225D01*
X116394327Y-103224208D01*
X116050799Y-103081562D01*
X115678833Y-103081238D01*
X115335057Y-103223283D01*
X115071808Y-103486073D01*
X114929162Y-103829601D01*
X114928838Y-104201567D01*
X103628705Y-104201567D01*
X103634838Y-104186799D01*
X103635162Y-103814833D01*
X103493117Y-103471057D01*
X103230327Y-103207808D01*
X102886799Y-103065162D01*
X102514833Y-103064838D01*
X102231642Y-103181850D01*
X101709792Y-102660000D01*
X104437537Y-102660000D01*
X104469673Y-102692192D01*
X104813201Y-102834838D01*
X105185167Y-102835162D01*
X105528943Y-102693117D01*
X105792192Y-102430327D01*
X105934838Y-102086799D01*
X105935162Y-101714833D01*
X105793117Y-101371057D01*
X105530327Y-101107808D01*
X105186799Y-100965162D01*
X104814833Y-100964838D01*
X104471057Y-101106883D01*
X104437882Y-101140000D01*
X99862463Y-101140000D01*
X99830327Y-101107808D01*
X99486799Y-100965162D01*
X99114833Y-100964838D01*
X98771057Y-101106883D01*
X98507808Y-101369673D01*
X98365162Y-101713201D01*
X98364838Y-102085167D01*
X92159969Y-102085167D01*
X91935122Y-101860320D01*
X91935162Y-101814833D01*
X91793117Y-101471057D01*
X91530327Y-101207808D01*
X91186799Y-101065162D01*
X90814833Y-101064838D01*
X90471057Y-101206883D01*
X90207808Y-101469673D01*
X90065162Y-101813201D01*
X90064838Y-102185167D01*
X80710000Y-102185167D01*
X80710000Y-100227000D01*
X86500000Y-100227000D01*
X86546159Y-100218315D01*
X86588553Y-100191035D01*
X86616994Y-100149410D01*
X86627000Y-100100000D01*
X86627000Y-99235167D01*
X112254838Y-99235167D01*
X112396883Y-99578943D01*
X112659673Y-99842192D01*
X113003201Y-99984838D01*
X113375167Y-99985162D01*
X113718943Y-99843117D01*
X113982192Y-99580327D01*
X114124838Y-99236799D01*
X114125162Y-98864833D01*
X113983117Y-98521057D01*
X113950000Y-98487882D01*
X113950000Y-97587833D01*
X114063201Y-97634838D01*
X114435167Y-97635162D01*
X114778943Y-97493117D01*
X114812118Y-97460000D01*
X115050000Y-97460000D01*
X115340839Y-97402148D01*
X115587401Y-97237401D01*
X116374205Y-96450597D01*
X116265162Y-96713201D01*
X116264838Y-97085167D01*
X116406883Y-97428943D01*
X116440000Y-97462118D01*
X116440000Y-99800000D01*
X116497852Y-100090839D01*
X116662599Y-100337401D01*
X117562599Y-101237401D01*
X117809160Y-101402148D01*
X118100000Y-101460000D01*
X119637537Y-101460000D01*
X119669673Y-101492192D01*
X120013201Y-101634838D01*
X120385167Y-101635162D01*
X120728943Y-101493117D01*
X120992192Y-101230327D01*
X121134838Y-100886799D01*
X121135162Y-100514833D01*
X120993117Y-100171057D01*
X120730327Y-99907808D01*
X120400019Y-99770652D01*
X120434838Y-99686799D01*
X120435162Y-99314833D01*
X120293117Y-98971057D01*
X120225755Y-98903578D01*
X120202148Y-98784897D01*
X120037401Y-98538335D01*
X119960000Y-98460934D01*
X119960000Y-97300000D01*
X119902148Y-97009161D01*
X119737401Y-96762599D01*
X119648535Y-96673733D01*
X119792192Y-96530327D01*
X119821394Y-96460000D01*
X119937537Y-96460000D01*
X119969673Y-96492192D01*
X120313201Y-96634838D01*
X120685167Y-96635162D01*
X121028943Y-96493117D01*
X121292192Y-96230327D01*
X121434838Y-95886799D01*
X121434955Y-95752612D01*
X121578943Y-95693117D01*
X121842192Y-95430327D01*
X121984838Y-95086799D01*
X121985162Y-94714833D01*
X121843117Y-94371057D01*
X121580327Y-94107808D01*
X121236799Y-93965162D01*
X120864833Y-93964838D01*
X120521057Y-94106883D01*
X120487882Y-94140000D01*
X116850000Y-94140000D01*
X116607414Y-94188254D01*
X116559160Y-94197852D01*
X116312599Y-94362599D01*
X114771186Y-95904012D01*
X114436799Y-95765162D01*
X114064833Y-95764838D01*
X114056536Y-95768266D01*
X115577401Y-94247401D01*
X115742148Y-94000839D01*
X115800000Y-93710000D01*
X115800000Y-83885167D01*
X119964838Y-83885167D01*
X120106883Y-84228943D01*
X120369673Y-84492192D01*
X120713201Y-84634838D01*
X120938380Y-84635034D01*
X120938380Y-85878260D01*
X120996232Y-86169099D01*
X121160979Y-86415661D01*
X121524199Y-86778881D01*
X121770761Y-86943628D01*
X122061600Y-87001480D01*
X122267649Y-87001480D01*
X122193562Y-87179901D01*
X122193521Y-87226777D01*
X121117799Y-88302499D01*
X120953052Y-88549061D01*
X120895200Y-88839900D01*
X120895200Y-92387801D01*
X120758462Y-92717101D01*
X120758138Y-93089067D01*
X120900183Y-93432843D01*
X121162973Y-93696092D01*
X121506501Y-93838738D01*
X121878467Y-93839062D01*
X122222243Y-93697017D01*
X122485492Y-93434227D01*
X122628138Y-93090699D01*
X122628142Y-93085167D01*
X126064838Y-93085167D01*
X126206883Y-93428943D01*
X126469673Y-93692192D01*
X126813201Y-93834838D01*
X127185167Y-93835162D01*
X127528943Y-93693117D01*
X127562118Y-93660000D01*
X130537537Y-93660000D01*
X130569673Y-93692192D01*
X130913201Y-93834838D01*
X131285167Y-93835162D01*
X131628943Y-93693117D01*
X131892192Y-93430327D01*
X132034838Y-93086799D01*
X132035162Y-92714833D01*
X131893117Y-92371057D01*
X131630327Y-92107808D01*
X131286799Y-91965162D01*
X130914833Y-91964838D01*
X130571057Y-92106883D01*
X130537882Y-92140000D01*
X127562463Y-92140000D01*
X127530327Y-92107808D01*
X127186799Y-91965162D01*
X126814833Y-91964838D01*
X126471057Y-92106883D01*
X126207808Y-92369673D01*
X126065162Y-92713201D01*
X126064838Y-93085167D01*
X122628142Y-93085167D01*
X122628462Y-92718733D01*
X122486417Y-92374957D01*
X122419055Y-92307478D01*
X122415200Y-92288096D01*
X122415200Y-92235118D01*
X122465377Y-92235162D01*
X122809153Y-92093117D01*
X123072402Y-91830327D01*
X123163243Y-91611559D01*
X125275927Y-89498875D01*
X125361966Y-89707105D01*
X125530740Y-89876174D01*
X125530516Y-90133558D01*
X125672561Y-90477334D01*
X125935351Y-90740583D01*
X126278879Y-90883229D01*
X126650845Y-90883553D01*
X126994621Y-90741508D01*
X127027796Y-90708391D01*
X129724061Y-90708391D01*
X129955311Y-90804415D01*
X130327277Y-90804739D01*
X130616664Y-90685167D01*
X142764838Y-90685167D01*
X142906883Y-91028943D01*
X142940000Y-91062118D01*
X142940000Y-91637537D01*
X142907808Y-91669673D01*
X142765162Y-92013201D01*
X142764838Y-92385167D01*
X142906883Y-92728943D01*
X142940000Y-92762118D01*
X142940000Y-93637537D01*
X142907808Y-93669673D01*
X142765162Y-94013201D01*
X142764838Y-94385167D01*
X142906883Y-94728943D01*
X142940000Y-94762118D01*
X142940000Y-95932972D01*
X142865162Y-96113201D01*
X142864838Y-96485167D01*
X143006883Y-96828943D01*
X143040000Y-96862118D01*
X143040000Y-97837537D01*
X143007808Y-97869673D01*
X142865162Y-98213201D01*
X142864838Y-98585167D01*
X143006883Y-98928943D01*
X143269673Y-99192192D01*
X143613201Y-99334838D01*
X143985167Y-99335162D01*
X144328943Y-99193117D01*
X144592192Y-98930327D01*
X144734838Y-98586799D01*
X144735162Y-98214833D01*
X144640508Y-97985750D01*
X146900000Y-97985750D01*
X146900000Y-98226309D01*
X146996673Y-98459698D01*
X147175301Y-98638327D01*
X147408690Y-98735000D01*
X147624250Y-98735000D01*
X147783000Y-98576250D01*
X147783000Y-97827000D01*
X148037000Y-97827000D01*
X148037000Y-98576250D01*
X148195750Y-98735000D01*
X148411310Y-98735000D01*
X148620000Y-98648558D01*
X148828690Y-98735000D01*
X149044250Y-98735000D01*
X149203000Y-98576250D01*
X149203000Y-97827000D01*
X149457000Y-97827000D01*
X149457000Y-98576250D01*
X149615750Y-98735000D01*
X149831310Y-98735000D01*
X150064699Y-98638327D01*
X150243327Y-98459698D01*
X150340000Y-98226309D01*
X150340000Y-97985750D01*
X150181250Y-97827000D01*
X149457000Y-97827000D01*
X149203000Y-97827000D01*
X148037000Y-97827000D01*
X147783000Y-97827000D01*
X147058750Y-97827000D01*
X146900000Y-97985750D01*
X144640508Y-97985750D01*
X144593117Y-97871057D01*
X144560000Y-97837882D01*
X144560000Y-96862463D01*
X144592192Y-96830327D01*
X144704232Y-96560507D01*
X144806883Y-96808943D01*
X145069673Y-97072192D01*
X145413201Y-97214838D01*
X145785167Y-97215162D01*
X146128943Y-97073117D01*
X146242258Y-96960000D01*
X146988514Y-96960000D01*
X146900000Y-97173691D01*
X146900000Y-97414250D01*
X147058750Y-97573000D01*
X147783000Y-97573000D01*
X147783000Y-97553000D01*
X148037000Y-97553000D01*
X148037000Y-97573000D01*
X149203000Y-97573000D01*
X149203000Y-97553000D01*
X149457000Y-97553000D01*
X149457000Y-97573000D01*
X150181250Y-97573000D01*
X150340000Y-97414250D01*
X150340000Y-97173691D01*
X150284623Y-97040000D01*
X150987217Y-97040000D01*
X151208764Y-97261934D01*
X151420738Y-97349954D01*
X151210828Y-97436687D01*
X150818066Y-97828764D01*
X150605242Y-98341300D01*
X150604758Y-98896265D01*
X150816687Y-99409172D01*
X151208764Y-99801934D01*
X151721300Y-100014758D01*
X152276265Y-100015242D01*
X152789172Y-99803313D01*
X153132560Y-99460524D01*
X153132560Y-100020000D01*
X153176838Y-100255317D01*
X153315910Y-100471441D01*
X153528110Y-100616431D01*
X153780000Y-100667440D01*
X155300000Y-100667440D01*
X155535317Y-100623162D01*
X155751441Y-100484090D01*
X155896431Y-100271890D01*
X155947440Y-100020000D01*
X155947440Y-98500000D01*
X155903162Y-98264683D01*
X155764090Y-98048559D01*
X155551890Y-97903569D01*
X155358192Y-97864344D01*
X155721934Y-97501236D01*
X155934758Y-96988700D01*
X155935242Y-96433735D01*
X155723313Y-95920828D01*
X155331236Y-95528066D01*
X155119262Y-95440046D01*
X155329172Y-95353313D01*
X155721934Y-94961236D01*
X155934758Y-94448700D01*
X155935242Y-93893735D01*
X155723313Y-93380828D01*
X155331236Y-92988066D01*
X155131333Y-92905059D01*
X155329172Y-92823313D01*
X155721934Y-92431236D01*
X155934758Y-91918700D01*
X155935242Y-91363735D01*
X155723313Y-90850828D01*
X155331236Y-90458066D01*
X154818700Y-90245242D01*
X154263735Y-90244758D01*
X153750828Y-90456687D01*
X153387684Y-90819198D01*
X153379341Y-90652951D01*
X153220742Y-90270059D01*
X152978764Y-90200841D01*
X152179605Y-91000000D01*
X152978764Y-91799159D01*
X153144902Y-91751635D01*
X153144758Y-91916265D01*
X153356687Y-92429172D01*
X153748764Y-92821934D01*
X153948667Y-92904941D01*
X153750828Y-92986687D01*
X153395174Y-93341721D01*
X153395242Y-93263735D01*
X153183313Y-92750828D01*
X152791236Y-92358066D01*
X152595066Y-92276609D01*
X152729941Y-92220742D01*
X152799159Y-91978764D01*
X152000000Y-91179605D01*
X151200841Y-91978764D01*
X151270059Y-92220742D01*
X151414862Y-92272382D01*
X151210828Y-92356687D01*
X150818066Y-92748764D01*
X150605242Y-93261300D01*
X150604758Y-93816265D01*
X150767704Y-94210623D01*
X150721799Y-94191562D01*
X150349833Y-94191238D01*
X150006057Y-94333283D01*
X149896549Y-94442600D01*
X149133252Y-94442600D01*
X149133362Y-94316223D01*
X148991317Y-93972447D01*
X148728527Y-93709198D01*
X148384999Y-93566552D01*
X148013033Y-93566228D01*
X147755670Y-93672568D01*
X147177522Y-93094420D01*
X147177562Y-93048933D01*
X147035517Y-92705157D01*
X146772727Y-92441908D01*
X146429199Y-92299262D01*
X146057233Y-92298938D01*
X145713457Y-92440983D01*
X145450208Y-92703773D01*
X145307562Y-93047301D01*
X145307238Y-93419267D01*
X145449283Y-93763043D01*
X145712073Y-94026292D01*
X146055601Y-94168938D01*
X146102477Y-94168979D01*
X146376098Y-94442600D01*
X146131763Y-94442600D01*
X146099627Y-94410408D01*
X145756099Y-94267762D01*
X145384133Y-94267438D01*
X145040357Y-94409483D01*
X144777108Y-94672273D01*
X144634462Y-95015801D01*
X144634138Y-95387767D01*
X144776183Y-95731543D01*
X144803834Y-95759243D01*
X144695768Y-96019493D01*
X144593117Y-95771057D01*
X144460000Y-95637707D01*
X144460000Y-94762463D01*
X144492192Y-94730327D01*
X144634838Y-94386799D01*
X144635162Y-94014833D01*
X144493117Y-93671057D01*
X144460000Y-93637882D01*
X144460000Y-92762463D01*
X144492192Y-92730327D01*
X144634838Y-92386799D01*
X144635162Y-92014833D01*
X144493117Y-91671057D01*
X144460000Y-91637882D01*
X144460000Y-91062463D01*
X144492192Y-91030327D01*
X144590830Y-90792780D01*
X150592845Y-90792780D01*
X150620659Y-91347049D01*
X150779258Y-91729941D01*
X151021236Y-91799159D01*
X151820395Y-91000000D01*
X151021236Y-90200841D01*
X150779258Y-90270059D01*
X150592845Y-90792780D01*
X144590830Y-90792780D01*
X144634838Y-90686799D01*
X144635162Y-90314833D01*
X144513851Y-90021236D01*
X151200841Y-90021236D01*
X152000000Y-90820395D01*
X152799159Y-90021236D01*
X152729941Y-89779258D01*
X152207220Y-89592845D01*
X151652951Y-89620659D01*
X151270059Y-89779258D01*
X151200841Y-90021236D01*
X144513851Y-90021236D01*
X144493117Y-89971057D01*
X144230327Y-89707808D01*
X143886799Y-89565162D01*
X143514833Y-89564838D01*
X143171057Y-89706883D01*
X142907808Y-89969673D01*
X142765162Y-90313201D01*
X142764838Y-90685167D01*
X130616664Y-90685167D01*
X130671053Y-90662694D01*
X130934302Y-90399904D01*
X131076948Y-90056376D01*
X131077272Y-89684410D01*
X130935227Y-89340634D01*
X130672437Y-89077385D01*
X130544518Y-89024268D01*
X130532416Y-88994980D01*
X130778943Y-88893117D01*
X131042192Y-88630327D01*
X131113788Y-88457906D01*
X131374591Y-88350145D01*
X131411873Y-88387492D01*
X131755401Y-88530138D01*
X132127367Y-88530462D01*
X132180727Y-88508414D01*
X132313573Y-88641492D01*
X132657101Y-88784138D01*
X133029067Y-88784462D01*
X133372843Y-88642417D01*
X133607892Y-88407777D01*
X156671828Y-88407777D01*
X156803520Y-88702657D01*
X157511036Y-88974261D01*
X158268632Y-88954436D01*
X158330140Y-88928958D01*
X158329557Y-89596981D01*
X158718472Y-90538229D01*
X159437983Y-91258997D01*
X160378551Y-91649554D01*
X161396981Y-91650443D01*
X162338229Y-91261528D01*
X163058997Y-90542017D01*
X163449554Y-89601449D01*
X163450443Y-88583019D01*
X163061528Y-87641771D01*
X162342017Y-86921003D01*
X161401449Y-86530446D01*
X160383019Y-86529557D01*
X159738738Y-86795768D01*
X159734436Y-86631368D01*
X159482657Y-86023520D01*
X159187777Y-85891828D01*
X158019605Y-87060000D01*
X158033748Y-87074143D01*
X157854143Y-87253748D01*
X157840000Y-87239605D01*
X156671828Y-88407777D01*
X133607892Y-88407777D01*
X133636092Y-88379627D01*
X133778738Y-88036099D01*
X133779062Y-87664133D01*
X133653397Y-87360000D01*
X134537537Y-87360000D01*
X134569673Y-87392192D01*
X134913201Y-87534838D01*
X135285167Y-87535162D01*
X135628943Y-87393117D01*
X135892192Y-87130327D01*
X136034838Y-86786799D01*
X136034886Y-86731036D01*
X155925739Y-86731036D01*
X155945564Y-87488632D01*
X156197343Y-88096480D01*
X156492223Y-88228172D01*
X157660395Y-87060000D01*
X156492223Y-85891828D01*
X156197343Y-86023520D01*
X155925739Y-86731036D01*
X136034886Y-86731036D01*
X136035162Y-86414833D01*
X135893117Y-86071057D01*
X135630327Y-85807808D01*
X135403712Y-85713709D01*
X135403099Y-85712223D01*
X156671828Y-85712223D01*
X157840000Y-86880395D01*
X159008172Y-85712223D01*
X158876480Y-85417343D01*
X158168964Y-85145739D01*
X157411368Y-85165564D01*
X156803520Y-85417343D01*
X156671828Y-85712223D01*
X135403099Y-85712223D01*
X135293117Y-85446047D01*
X135030327Y-85182798D01*
X134686799Y-85040152D01*
X134314833Y-85039828D01*
X133971057Y-85181873D01*
X133937882Y-85214990D01*
X132473408Y-85214990D01*
X132419963Y-85225621D01*
X132420162Y-84997133D01*
X132278117Y-84653357D01*
X132015327Y-84390108D01*
X131671799Y-84247462D01*
X131299833Y-84247138D01*
X130956057Y-84389183D01*
X130692808Y-84651973D01*
X130550162Y-84995501D01*
X130550121Y-85042377D01*
X130337600Y-85254898D01*
X130172853Y-85501460D01*
X130115001Y-85792299D01*
X130115001Y-86982436D01*
X130082809Y-87014572D01*
X130011213Y-87186993D01*
X129721057Y-87306883D01*
X129687882Y-87340000D01*
X125614802Y-87340000D01*
X123978881Y-85704079D01*
X123732319Y-85539332D01*
X123441480Y-85481480D01*
X122458380Y-85481480D01*
X122458380Y-83919920D01*
X122400528Y-83629081D01*
X122235781Y-83382519D01*
X122015861Y-83162599D01*
X121769299Y-82997852D01*
X121478460Y-82940000D01*
X121462463Y-82940000D01*
X121430327Y-82907808D01*
X121086799Y-82765162D01*
X120714833Y-82764838D01*
X120371057Y-82906883D01*
X120107808Y-83169673D01*
X119965162Y-83513201D01*
X119964838Y-83885167D01*
X115800000Y-83885167D01*
X115800000Y-83842463D01*
X115832192Y-83810327D01*
X115974838Y-83466799D01*
X115975162Y-83094833D01*
X115833117Y-82751057D01*
X115570327Y-82487808D01*
X115226799Y-82345162D01*
X114854833Y-82344838D01*
X114511057Y-82486883D01*
X114247808Y-82749673D01*
X114105162Y-83093201D01*
X114104838Y-83465167D01*
X114246883Y-83808943D01*
X114280000Y-83842118D01*
X114280000Y-93395198D01*
X112652599Y-95022599D01*
X112487852Y-95269161D01*
X112430000Y-95560000D01*
X112430000Y-98487537D01*
X112397808Y-98519673D01*
X112255162Y-98863201D01*
X112254838Y-99235167D01*
X86627000Y-99235167D01*
X86627000Y-98085167D01*
X105714838Y-98085167D01*
X105856883Y-98428943D01*
X106119673Y-98692192D01*
X106463201Y-98834838D01*
X106835167Y-98835162D01*
X107178943Y-98693117D01*
X107442192Y-98430327D01*
X107584838Y-98086799D01*
X107584879Y-98039923D01*
X108011452Y-97613350D01*
X108063201Y-97634838D01*
X108435167Y-97635162D01*
X108778943Y-97493117D01*
X109042192Y-97230327D01*
X109184838Y-96886799D01*
X109185162Y-96514833D01*
X109043117Y-96171057D01*
X108780327Y-95907808D01*
X108436799Y-95765162D01*
X108064833Y-95764838D01*
X107721057Y-95906883D01*
X107647540Y-95980272D01*
X107559161Y-95997852D01*
X107312599Y-96162599D01*
X106510320Y-96964878D01*
X106464833Y-96964838D01*
X106121057Y-97106883D01*
X105857808Y-97369673D01*
X105715162Y-97713201D01*
X105714838Y-98085167D01*
X86627000Y-98085167D01*
X86627000Y-92848528D01*
X94125077Y-92848528D01*
X94315364Y-93193271D01*
X95196591Y-93544956D01*
X96145323Y-93532641D01*
X96964636Y-93193271D01*
X97154923Y-92848528D01*
X95640000Y-91333605D01*
X94125077Y-92848528D01*
X86627000Y-92848528D01*
X86627000Y-90710591D01*
X93249044Y-90710591D01*
X93261359Y-91659323D01*
X93600729Y-92478636D01*
X93945472Y-92668923D01*
X95460395Y-91154000D01*
X95819605Y-91154000D01*
X97334528Y-92668923D01*
X97679271Y-92478636D01*
X98030956Y-91597409D01*
X98018641Y-90648677D01*
X97679271Y-89829364D01*
X97334528Y-89639077D01*
X95819605Y-91154000D01*
X95460395Y-91154000D01*
X93945472Y-89639077D01*
X93600729Y-89829364D01*
X93249044Y-90710591D01*
X86627000Y-90710591D01*
X86627000Y-89459472D01*
X94125077Y-89459472D01*
X95640000Y-90974395D01*
X97154923Y-89459472D01*
X96964636Y-89114729D01*
X96083409Y-88763044D01*
X95134677Y-88775359D01*
X94315364Y-89114729D01*
X94125077Y-89459472D01*
X86627000Y-89459472D01*
X86627000Y-84585167D01*
X88164838Y-84585167D01*
X88306883Y-84928943D01*
X88569673Y-85192192D01*
X88913201Y-85334838D01*
X88960077Y-85334879D01*
X91368447Y-87743249D01*
X91615008Y-87907996D01*
X91905848Y-87965848D01*
X101284825Y-87965848D01*
X101265162Y-88013201D01*
X101264838Y-88385167D01*
X101389917Y-88687882D01*
X101207808Y-88869673D01*
X101065162Y-89213201D01*
X101064838Y-89585167D01*
X101206883Y-89928943D01*
X101469673Y-90192192D01*
X101813201Y-90334838D01*
X102185167Y-90335162D01*
X102528943Y-90193117D01*
X102562118Y-90160000D01*
X106785198Y-90160000D01*
X109003194Y-92377996D01*
X109106883Y-92628943D01*
X109369673Y-92892192D01*
X109713201Y-93034838D01*
X110085167Y-93035162D01*
X110428943Y-92893117D01*
X110692192Y-92630327D01*
X110834838Y-92286799D01*
X110835162Y-91914833D01*
X110693117Y-91571057D01*
X110572378Y-91450107D01*
X110592192Y-91430327D01*
X110734838Y-91086799D01*
X110735162Y-90714833D01*
X110593117Y-90371057D01*
X110330327Y-90107808D01*
X109986799Y-89965162D01*
X109939923Y-89965121D01*
X109809724Y-89834922D01*
X110085167Y-89835162D01*
X110428943Y-89693117D01*
X110692192Y-89430327D01*
X110834838Y-89086799D01*
X110834928Y-88982936D01*
X111154461Y-88850908D01*
X111417710Y-88588118D01*
X111560356Y-88244590D01*
X111560680Y-87872624D01*
X111418635Y-87528848D01*
X111385518Y-87495673D01*
X111385518Y-86989107D01*
X111327666Y-86698268D01*
X111162919Y-86451706D01*
X108373812Y-83662599D01*
X108127250Y-83497852D01*
X107836411Y-83440000D01*
X98662463Y-83440000D01*
X98630327Y-83407808D01*
X98286799Y-83265162D01*
X97914833Y-83264838D01*
X97571057Y-83406883D01*
X97307808Y-83669673D01*
X97165162Y-84013201D01*
X97164838Y-84385167D01*
X97306883Y-84728943D01*
X97569673Y-84992192D01*
X97913201Y-85134838D01*
X98285167Y-85135162D01*
X98628943Y-84993117D01*
X98662118Y-84960000D01*
X107521609Y-84960000D01*
X108301609Y-85740000D01*
X92914802Y-85740000D01*
X91335122Y-84160320D01*
X91335162Y-84114833D01*
X91193117Y-83771057D01*
X90930327Y-83507808D01*
X90586799Y-83365162D01*
X90214833Y-83364838D01*
X89871057Y-83506883D01*
X89700020Y-83677622D01*
X89630327Y-83607808D01*
X89286799Y-83465162D01*
X88914833Y-83464838D01*
X88571057Y-83606883D01*
X88307808Y-83869673D01*
X88165162Y-84213201D01*
X88164838Y-84585167D01*
X86627000Y-84585167D01*
X86627000Y-81650000D01*
X86618315Y-81603841D01*
X86591035Y-81561447D01*
X86549410Y-81533006D01*
X86500000Y-81523000D01*
X80710000Y-81523000D01*
X80710000Y-76442619D01*
X81314613Y-76442619D01*
X81654155Y-77264372D01*
X82282321Y-77893636D01*
X83103481Y-78234611D01*
X83992619Y-78235387D01*
X84596785Y-77985750D01*
X86990000Y-77985750D01*
X86990000Y-78501309D01*
X87086673Y-78734698D01*
X87265301Y-78913327D01*
X87498690Y-79010000D01*
X88014250Y-79010000D01*
X88173000Y-78851250D01*
X88173000Y-77827000D01*
X87148750Y-77827000D01*
X86990000Y-77985750D01*
X84596785Y-77985750D01*
X84814372Y-77895845D01*
X85443636Y-77267679D01*
X85596853Y-76898691D01*
X86990000Y-76898691D01*
X86990000Y-77414250D01*
X87148750Y-77573000D01*
X88173000Y-77573000D01*
X88173000Y-76548750D01*
X88427000Y-76548750D01*
X88427000Y-77573000D01*
X88447000Y-77573000D01*
X88447000Y-77827000D01*
X88427000Y-77827000D01*
X88427000Y-78851250D01*
X88585750Y-79010000D01*
X89101310Y-79010000D01*
X89334699Y-78913327D01*
X89506986Y-78741039D01*
X89798685Y-78935946D01*
X90300000Y-79035664D01*
X90801315Y-78935946D01*
X91226310Y-78651974D01*
X91300000Y-78541689D01*
X91373690Y-78651974D01*
X91798685Y-78935946D01*
X92300000Y-79035664D01*
X92801315Y-78935946D01*
X93226310Y-78651974D01*
X93510282Y-78226979D01*
X93584240Y-77855167D01*
X119484838Y-77855167D01*
X119626883Y-78198943D01*
X119889673Y-78462192D01*
X120233201Y-78604838D01*
X120280077Y-78604879D01*
X120682599Y-79007401D01*
X120929161Y-79172148D01*
X121220000Y-79230000D01*
X123017537Y-79230000D01*
X123049673Y-79262192D01*
X123393201Y-79404838D01*
X123765167Y-79405162D01*
X124108943Y-79263117D01*
X124372192Y-79000327D01*
X124514838Y-78656799D01*
X124515162Y-78284833D01*
X124373117Y-77941057D01*
X124110327Y-77677808D01*
X123766799Y-77535162D01*
X123394833Y-77534838D01*
X123051057Y-77676883D01*
X123017882Y-77710000D01*
X121534802Y-77710000D01*
X121355122Y-77530320D01*
X121355162Y-77484833D01*
X121213117Y-77141057D01*
X120950327Y-76877808D01*
X120606799Y-76735162D01*
X120234833Y-76734838D01*
X119891057Y-76876883D01*
X119627808Y-77139673D01*
X119485162Y-77483201D01*
X119484838Y-77855167D01*
X93584240Y-77855167D01*
X93610000Y-77725664D01*
X93610000Y-77674336D01*
X93510282Y-77173021D01*
X93226310Y-76748026D01*
X92801315Y-76464054D01*
X92693555Y-76442619D01*
X164314613Y-76442619D01*
X164654155Y-77264372D01*
X165282321Y-77893636D01*
X166103481Y-78234611D01*
X166992619Y-78235387D01*
X167814372Y-77895845D01*
X168443636Y-77267679D01*
X168784611Y-76446519D01*
X168785387Y-75557381D01*
X168445845Y-74735628D01*
X167817679Y-74106364D01*
X166996519Y-73765389D01*
X166107381Y-73764613D01*
X165285628Y-74104155D01*
X164656364Y-74732321D01*
X164315389Y-75553481D01*
X164314613Y-76442619D01*
X92693555Y-76442619D01*
X92300000Y-76364336D01*
X91798685Y-76464054D01*
X91373690Y-76748026D01*
X91300000Y-76858311D01*
X91226310Y-76748026D01*
X90801315Y-76464054D01*
X90300000Y-76364336D01*
X89798685Y-76464054D01*
X89506986Y-76658961D01*
X89334699Y-76486673D01*
X89101310Y-76390000D01*
X88585750Y-76390000D01*
X88427000Y-76548750D01*
X88173000Y-76548750D01*
X88014250Y-76390000D01*
X87498690Y-76390000D01*
X87265301Y-76486673D01*
X87086673Y-76665302D01*
X86990000Y-76898691D01*
X85596853Y-76898691D01*
X85784611Y-76446519D01*
X85785387Y-75557381D01*
X85445845Y-74735628D01*
X84817679Y-74106364D01*
X83996519Y-73765389D01*
X83107381Y-73764613D01*
X82285628Y-74104155D01*
X81656364Y-74732321D01*
X81315389Y-75553481D01*
X81314613Y-76442619D01*
X80710000Y-76442619D01*
X80710000Y-73210000D01*
X169290000Y-73210000D01*
X169290000Y-111790000D01*
M02*
