G04 #@! TF.FileFunction,Legend,Bot*
%FSLAX46Y46*%
G04 Gerber Fmt 4.6, Leading zero omitted, Abs format (unit mm)*
G04 Created by KiCad (PCBNEW 4.0.6) date Sat Oct 21 15:15:02 2017*
%MOMM*%
%LPD*%
G01*
G04 APERTURE LIST*
%ADD10C,0.100000*%
%ADD11C,0.300000*%
%ADD12C,0.120000*%
%ADD13C,0.010000*%
%ADD14C,0.150000*%
G04 APERTURE END LIST*
D10*
D11*
X160769571Y-75308857D02*
X160269571Y-75308857D01*
X160055285Y-76094571D02*
X160769571Y-76094571D01*
X160769571Y-74594571D01*
X160055285Y-74594571D01*
X159483857Y-76023143D02*
X159269571Y-76094571D01*
X158912428Y-76094571D01*
X158769571Y-76023143D01*
X158698142Y-75951714D01*
X158626714Y-75808857D01*
X158626714Y-75666000D01*
X158698142Y-75523143D01*
X158769571Y-75451714D01*
X158912428Y-75380286D01*
X159198142Y-75308857D01*
X159341000Y-75237429D01*
X159412428Y-75166000D01*
X159483857Y-75023143D01*
X159483857Y-74880286D01*
X159412428Y-74737429D01*
X159341000Y-74666000D01*
X159198142Y-74594571D01*
X158841000Y-74594571D01*
X158626714Y-74666000D01*
X157983857Y-76094571D02*
X157983857Y-74594571D01*
X157412429Y-74594571D01*
X157269571Y-74666000D01*
X157198143Y-74737429D01*
X157126714Y-74880286D01*
X157126714Y-75094571D01*
X157198143Y-75237429D01*
X157269571Y-75308857D01*
X157412429Y-75380286D01*
X157983857Y-75380286D01*
X156626714Y-74594571D02*
X155698143Y-74594571D01*
X156198143Y-75166000D01*
X155983857Y-75166000D01*
X155841000Y-75237429D01*
X155769571Y-75308857D01*
X155698143Y-75451714D01*
X155698143Y-75808857D01*
X155769571Y-75951714D01*
X155841000Y-76023143D01*
X155983857Y-76094571D01*
X156412429Y-76094571D01*
X156555286Y-76023143D01*
X156626714Y-75951714D01*
X155126715Y-74737429D02*
X155055286Y-74666000D01*
X154912429Y-74594571D01*
X154555286Y-74594571D01*
X154412429Y-74666000D01*
X154341000Y-74737429D01*
X154269572Y-74880286D01*
X154269572Y-75023143D01*
X154341000Y-75237429D01*
X155198143Y-76094571D01*
X154269572Y-76094571D01*
X153626715Y-75308857D02*
X153126715Y-75308857D01*
X152912429Y-76094571D02*
X153626715Y-76094571D01*
X153626715Y-74594571D01*
X152912429Y-74594571D01*
X152483858Y-74594571D02*
X151626715Y-74594571D01*
X152055286Y-76094571D02*
X152055286Y-74594571D01*
X151126715Y-76094571D02*
X151126715Y-74594571D01*
X151126715Y-75308857D02*
X150269572Y-75308857D01*
X150269572Y-76094571D02*
X150269572Y-74594571D01*
X149555286Y-75308857D02*
X149055286Y-75308857D01*
X148841000Y-76094571D02*
X149555286Y-76094571D01*
X149555286Y-74594571D01*
X148841000Y-74594571D01*
X147341000Y-76094571D02*
X147841000Y-75380286D01*
X148198143Y-76094571D02*
X148198143Y-74594571D01*
X147626715Y-74594571D01*
X147483857Y-74666000D01*
X147412429Y-74737429D01*
X147341000Y-74880286D01*
X147341000Y-75094571D01*
X147412429Y-75237429D01*
X147483857Y-75308857D01*
X147626715Y-75380286D01*
X148198143Y-75380286D01*
D12*
X148730000Y-96600000D02*
X148730000Y-97300000D01*
X149930000Y-97300000D02*
X149930000Y-96600000D01*
X147310000Y-96600000D02*
X147310000Y-97300000D01*
X148510000Y-97300000D02*
X148510000Y-96600000D01*
D13*
G36*
X131891371Y-110959066D02*
X131851889Y-110959467D01*
X131736200Y-110962259D01*
X131639311Y-110970550D01*
X131557919Y-110985232D01*
X131488723Y-111007193D01*
X131428420Y-111037322D01*
X131373708Y-111076510D01*
X131354167Y-111093532D01*
X131321750Y-111133363D01*
X131292520Y-111187413D01*
X131269991Y-111247323D01*
X131257679Y-111304739D01*
X131256400Y-111325956D01*
X131264417Y-111384769D01*
X131285899Y-111449013D01*
X131316999Y-111509821D01*
X131353866Y-111558330D01*
X131359854Y-111564182D01*
X131410579Y-111605321D01*
X131466125Y-111637435D01*
X131529696Y-111661365D01*
X131604494Y-111677953D01*
X131693722Y-111688041D01*
X131800582Y-111692469D01*
X131849528Y-111692845D01*
X131911762Y-111692545D01*
X131955528Y-111691292D01*
X131984931Y-111688554D01*
X132004079Y-111683801D01*
X132017077Y-111676501D01*
X132024045Y-111670267D01*
X132030626Y-111662694D01*
X132035788Y-111652924D01*
X132039703Y-111638340D01*
X132042543Y-111616326D01*
X132044480Y-111584264D01*
X132045684Y-111539536D01*
X132046328Y-111479526D01*
X132046583Y-111401617D01*
X132046622Y-111325956D01*
X132046870Y-111225041D01*
X132046817Y-111144427D01*
X132045857Y-111105822D01*
X131899867Y-111105822D01*
X131899867Y-111546089D01*
X131806734Y-111546004D01*
X131750693Y-111544396D01*
X131691999Y-111540256D01*
X131643028Y-111534464D01*
X131641538Y-111534226D01*
X131562392Y-111515090D01*
X131501002Y-111485287D01*
X131454305Y-111442878D01*
X131424635Y-111396961D01*
X131406353Y-111346026D01*
X131407771Y-111298200D01*
X131428988Y-111246933D01*
X131470489Y-111193899D01*
X131527998Y-111154600D01*
X131602750Y-111128331D01*
X131652708Y-111119035D01*
X131709416Y-111112507D01*
X131769519Y-111107782D01*
X131820639Y-111105817D01*
X131823667Y-111105808D01*
X131899867Y-111105822D01*
X132045857Y-111105822D01*
X132045260Y-111081851D01*
X132040998Y-111035055D01*
X132032830Y-111001778D01*
X132019556Y-110979759D01*
X131999974Y-110966739D01*
X131972883Y-110960457D01*
X131937082Y-110958653D01*
X131891371Y-110959066D01*
X131891371Y-110959066D01*
G37*
X131891371Y-110959066D02*
X131851889Y-110959467D01*
X131736200Y-110962259D01*
X131639311Y-110970550D01*
X131557919Y-110985232D01*
X131488723Y-111007193D01*
X131428420Y-111037322D01*
X131373708Y-111076510D01*
X131354167Y-111093532D01*
X131321750Y-111133363D01*
X131292520Y-111187413D01*
X131269991Y-111247323D01*
X131257679Y-111304739D01*
X131256400Y-111325956D01*
X131264417Y-111384769D01*
X131285899Y-111449013D01*
X131316999Y-111509821D01*
X131353866Y-111558330D01*
X131359854Y-111564182D01*
X131410579Y-111605321D01*
X131466125Y-111637435D01*
X131529696Y-111661365D01*
X131604494Y-111677953D01*
X131693722Y-111688041D01*
X131800582Y-111692469D01*
X131849528Y-111692845D01*
X131911762Y-111692545D01*
X131955528Y-111691292D01*
X131984931Y-111688554D01*
X132004079Y-111683801D01*
X132017077Y-111676501D01*
X132024045Y-111670267D01*
X132030626Y-111662694D01*
X132035788Y-111652924D01*
X132039703Y-111638340D01*
X132042543Y-111616326D01*
X132044480Y-111584264D01*
X132045684Y-111539536D01*
X132046328Y-111479526D01*
X132046583Y-111401617D01*
X132046622Y-111325956D01*
X132046870Y-111225041D01*
X132046817Y-111144427D01*
X132045857Y-111105822D01*
X131899867Y-111105822D01*
X131899867Y-111546089D01*
X131806734Y-111546004D01*
X131750693Y-111544396D01*
X131691999Y-111540256D01*
X131643028Y-111534464D01*
X131641538Y-111534226D01*
X131562392Y-111515090D01*
X131501002Y-111485287D01*
X131454305Y-111442878D01*
X131424635Y-111396961D01*
X131406353Y-111346026D01*
X131407771Y-111298200D01*
X131428988Y-111246933D01*
X131470489Y-111193899D01*
X131527998Y-111154600D01*
X131602750Y-111128331D01*
X131652708Y-111119035D01*
X131709416Y-111112507D01*
X131769519Y-111107782D01*
X131820639Y-111105817D01*
X131823667Y-111105808D01*
X131899867Y-111105822D01*
X132045857Y-111105822D01*
X132045260Y-111081851D01*
X132040998Y-111035055D01*
X132032830Y-111001778D01*
X132019556Y-110979759D01*
X131999974Y-110966739D01*
X131972883Y-110960457D01*
X131937082Y-110958653D01*
X131891371Y-110959066D01*
G36*
X130482794Y-110959146D02*
X130413386Y-110959518D01*
X130360997Y-110960385D01*
X130322847Y-110961946D01*
X130296159Y-110964403D01*
X130278153Y-110967957D01*
X130266049Y-110972810D01*
X130257069Y-110979161D01*
X130253818Y-110982084D01*
X130234043Y-111013142D01*
X130230482Y-111048828D01*
X130243491Y-111080510D01*
X130249506Y-111086913D01*
X130259235Y-111093121D01*
X130274901Y-111097910D01*
X130299408Y-111101514D01*
X130335661Y-111104164D01*
X130386565Y-111106095D01*
X130455026Y-111107539D01*
X130517617Y-111108418D01*
X130765334Y-111111467D01*
X130768719Y-111176378D01*
X130772105Y-111241289D01*
X130603958Y-111241289D01*
X130530959Y-111241919D01*
X130477517Y-111244553D01*
X130440628Y-111250309D01*
X130417288Y-111260304D01*
X130404494Y-111275656D01*
X130399242Y-111297482D01*
X130398445Y-111317738D01*
X130400923Y-111342592D01*
X130410277Y-111360906D01*
X130429383Y-111373637D01*
X130461118Y-111381741D01*
X130508359Y-111386176D01*
X130573983Y-111387899D01*
X130609801Y-111388045D01*
X130770978Y-111388045D01*
X130770978Y-111546089D01*
X130522622Y-111546089D01*
X130441213Y-111546202D01*
X130379342Y-111546712D01*
X130333968Y-111547870D01*
X130302054Y-111549930D01*
X130280559Y-111553146D01*
X130266443Y-111557772D01*
X130256668Y-111564059D01*
X130251689Y-111568667D01*
X130234610Y-111595560D01*
X130229111Y-111619467D01*
X130236963Y-111648667D01*
X130251689Y-111670267D01*
X130259546Y-111677066D01*
X130269688Y-111682346D01*
X130284844Y-111686298D01*
X130307741Y-111689113D01*
X130341109Y-111690982D01*
X130387675Y-111692098D01*
X130450167Y-111692651D01*
X130531314Y-111692833D01*
X130573422Y-111692845D01*
X130663598Y-111692765D01*
X130733924Y-111692398D01*
X130787129Y-111691552D01*
X130825940Y-111690036D01*
X130853087Y-111687659D01*
X130871298Y-111684229D01*
X130883300Y-111679554D01*
X130891822Y-111673444D01*
X130895156Y-111670267D01*
X130901755Y-111662670D01*
X130906927Y-111652870D01*
X130910846Y-111638239D01*
X130913684Y-111616152D01*
X130915615Y-111583982D01*
X130916812Y-111539103D01*
X130917448Y-111478889D01*
X130917697Y-111400713D01*
X130917734Y-111327923D01*
X130917700Y-111234707D01*
X130917465Y-111161431D01*
X130916830Y-111105458D01*
X130915594Y-111064151D01*
X130913556Y-111034872D01*
X130910517Y-111014984D01*
X130906277Y-111001850D01*
X130900635Y-110992832D01*
X130893391Y-110985293D01*
X130891606Y-110983612D01*
X130882945Y-110976172D01*
X130872882Y-110970409D01*
X130858625Y-110966112D01*
X130837383Y-110963064D01*
X130806364Y-110961051D01*
X130762777Y-110959860D01*
X130703831Y-110959275D01*
X130626734Y-110959083D01*
X130572001Y-110959067D01*
X130482794Y-110959146D01*
X130482794Y-110959146D01*
G37*
X130482794Y-110959146D02*
X130413386Y-110959518D01*
X130360997Y-110960385D01*
X130322847Y-110961946D01*
X130296159Y-110964403D01*
X130278153Y-110967957D01*
X130266049Y-110972810D01*
X130257069Y-110979161D01*
X130253818Y-110982084D01*
X130234043Y-111013142D01*
X130230482Y-111048828D01*
X130243491Y-111080510D01*
X130249506Y-111086913D01*
X130259235Y-111093121D01*
X130274901Y-111097910D01*
X130299408Y-111101514D01*
X130335661Y-111104164D01*
X130386565Y-111106095D01*
X130455026Y-111107539D01*
X130517617Y-111108418D01*
X130765334Y-111111467D01*
X130768719Y-111176378D01*
X130772105Y-111241289D01*
X130603958Y-111241289D01*
X130530959Y-111241919D01*
X130477517Y-111244553D01*
X130440628Y-111250309D01*
X130417288Y-111260304D01*
X130404494Y-111275656D01*
X130399242Y-111297482D01*
X130398445Y-111317738D01*
X130400923Y-111342592D01*
X130410277Y-111360906D01*
X130429383Y-111373637D01*
X130461118Y-111381741D01*
X130508359Y-111386176D01*
X130573983Y-111387899D01*
X130609801Y-111388045D01*
X130770978Y-111388045D01*
X130770978Y-111546089D01*
X130522622Y-111546089D01*
X130441213Y-111546202D01*
X130379342Y-111546712D01*
X130333968Y-111547870D01*
X130302054Y-111549930D01*
X130280559Y-111553146D01*
X130266443Y-111557772D01*
X130256668Y-111564059D01*
X130251689Y-111568667D01*
X130234610Y-111595560D01*
X130229111Y-111619467D01*
X130236963Y-111648667D01*
X130251689Y-111670267D01*
X130259546Y-111677066D01*
X130269688Y-111682346D01*
X130284844Y-111686298D01*
X130307741Y-111689113D01*
X130341109Y-111690982D01*
X130387675Y-111692098D01*
X130450167Y-111692651D01*
X130531314Y-111692833D01*
X130573422Y-111692845D01*
X130663598Y-111692765D01*
X130733924Y-111692398D01*
X130787129Y-111691552D01*
X130825940Y-111690036D01*
X130853087Y-111687659D01*
X130871298Y-111684229D01*
X130883300Y-111679554D01*
X130891822Y-111673444D01*
X130895156Y-111670267D01*
X130901755Y-111662670D01*
X130906927Y-111652870D01*
X130910846Y-111638239D01*
X130913684Y-111616152D01*
X130915615Y-111583982D01*
X130916812Y-111539103D01*
X130917448Y-111478889D01*
X130917697Y-111400713D01*
X130917734Y-111327923D01*
X130917700Y-111234707D01*
X130917465Y-111161431D01*
X130916830Y-111105458D01*
X130915594Y-111064151D01*
X130913556Y-111034872D01*
X130910517Y-111014984D01*
X130906277Y-111001850D01*
X130900635Y-110992832D01*
X130893391Y-110985293D01*
X130891606Y-110983612D01*
X130882945Y-110976172D01*
X130872882Y-110970409D01*
X130858625Y-110966112D01*
X130837383Y-110963064D01*
X130806364Y-110961051D01*
X130762777Y-110959860D01*
X130703831Y-110959275D01*
X130626734Y-110959083D01*
X130572001Y-110959067D01*
X130482794Y-110959146D01*
G36*
X129461703Y-110960351D02*
X129386888Y-110965581D01*
X129317306Y-110973750D01*
X129257002Y-110984550D01*
X129210020Y-110997673D01*
X129180406Y-111012813D01*
X129175860Y-111017269D01*
X129160054Y-111051850D01*
X129164847Y-111087351D01*
X129189364Y-111117725D01*
X129190534Y-111118596D01*
X129204954Y-111127954D01*
X129220008Y-111132876D01*
X129241005Y-111133473D01*
X129273257Y-111129861D01*
X129322073Y-111122154D01*
X129326000Y-111121505D01*
X129398739Y-111112569D01*
X129477217Y-111108161D01*
X129555927Y-111108119D01*
X129629361Y-111112279D01*
X129692011Y-111120479D01*
X129738370Y-111132557D01*
X129741416Y-111133771D01*
X129775048Y-111152615D01*
X129786864Y-111171685D01*
X129777614Y-111190439D01*
X129748047Y-111208337D01*
X129698911Y-111224837D01*
X129630957Y-111239396D01*
X129585645Y-111246406D01*
X129491456Y-111259889D01*
X129416544Y-111272214D01*
X129357717Y-111284449D01*
X129311785Y-111297661D01*
X129275555Y-111312917D01*
X129245838Y-111331285D01*
X129219442Y-111353831D01*
X129198230Y-111375971D01*
X129173065Y-111406819D01*
X129160681Y-111433345D01*
X129156808Y-111466026D01*
X129156667Y-111477995D01*
X129159576Y-111517712D01*
X129171202Y-111547259D01*
X129191323Y-111573486D01*
X129232216Y-111613576D01*
X129277817Y-111644149D01*
X129331513Y-111666203D01*
X129396692Y-111680735D01*
X129476744Y-111688741D01*
X129575057Y-111691218D01*
X129591289Y-111691177D01*
X129656849Y-111689818D01*
X129721866Y-111686730D01*
X129779252Y-111682356D01*
X129821922Y-111677140D01*
X129825372Y-111676541D01*
X129867796Y-111666491D01*
X129903780Y-111653796D01*
X129924150Y-111642190D01*
X129943107Y-111611572D01*
X129944427Y-111575918D01*
X129928085Y-111544144D01*
X129924429Y-111540551D01*
X129909315Y-111529876D01*
X129890415Y-111525276D01*
X129861162Y-111526059D01*
X129825651Y-111530127D01*
X129785970Y-111533762D01*
X129730345Y-111536828D01*
X129665406Y-111539053D01*
X129597785Y-111540164D01*
X129580000Y-111540237D01*
X129512128Y-111539964D01*
X129462454Y-111538646D01*
X129426610Y-111535827D01*
X129400224Y-111531050D01*
X129378926Y-111523857D01*
X129366126Y-111517867D01*
X129338000Y-111501233D01*
X129320068Y-111486168D01*
X129317447Y-111481897D01*
X129322976Y-111464263D01*
X129349260Y-111447192D01*
X129394478Y-111431458D01*
X129456808Y-111417838D01*
X129475171Y-111414804D01*
X129571090Y-111399738D01*
X129647641Y-111387146D01*
X129707780Y-111376111D01*
X129754460Y-111365720D01*
X129790637Y-111355056D01*
X129819265Y-111343205D01*
X129843298Y-111329251D01*
X129865692Y-111312281D01*
X129889402Y-111291378D01*
X129897380Y-111284049D01*
X129925353Y-111256699D01*
X129940160Y-111235029D01*
X129945952Y-111210232D01*
X129946889Y-111178983D01*
X129936575Y-111117705D01*
X129905752Y-111065640D01*
X129854595Y-111022958D01*
X129783283Y-110989825D01*
X129732400Y-110974964D01*
X129677100Y-110965366D01*
X129610853Y-110959936D01*
X129537706Y-110958367D01*
X129461703Y-110960351D01*
X129461703Y-110960351D01*
G37*
X129461703Y-110960351D02*
X129386888Y-110965581D01*
X129317306Y-110973750D01*
X129257002Y-110984550D01*
X129210020Y-110997673D01*
X129180406Y-111012813D01*
X129175860Y-111017269D01*
X129160054Y-111051850D01*
X129164847Y-111087351D01*
X129189364Y-111117725D01*
X129190534Y-111118596D01*
X129204954Y-111127954D01*
X129220008Y-111132876D01*
X129241005Y-111133473D01*
X129273257Y-111129861D01*
X129322073Y-111122154D01*
X129326000Y-111121505D01*
X129398739Y-111112569D01*
X129477217Y-111108161D01*
X129555927Y-111108119D01*
X129629361Y-111112279D01*
X129692011Y-111120479D01*
X129738370Y-111132557D01*
X129741416Y-111133771D01*
X129775048Y-111152615D01*
X129786864Y-111171685D01*
X129777614Y-111190439D01*
X129748047Y-111208337D01*
X129698911Y-111224837D01*
X129630957Y-111239396D01*
X129585645Y-111246406D01*
X129491456Y-111259889D01*
X129416544Y-111272214D01*
X129357717Y-111284449D01*
X129311785Y-111297661D01*
X129275555Y-111312917D01*
X129245838Y-111331285D01*
X129219442Y-111353831D01*
X129198230Y-111375971D01*
X129173065Y-111406819D01*
X129160681Y-111433345D01*
X129156808Y-111466026D01*
X129156667Y-111477995D01*
X129159576Y-111517712D01*
X129171202Y-111547259D01*
X129191323Y-111573486D01*
X129232216Y-111613576D01*
X129277817Y-111644149D01*
X129331513Y-111666203D01*
X129396692Y-111680735D01*
X129476744Y-111688741D01*
X129575057Y-111691218D01*
X129591289Y-111691177D01*
X129656849Y-111689818D01*
X129721866Y-111686730D01*
X129779252Y-111682356D01*
X129821922Y-111677140D01*
X129825372Y-111676541D01*
X129867796Y-111666491D01*
X129903780Y-111653796D01*
X129924150Y-111642190D01*
X129943107Y-111611572D01*
X129944427Y-111575918D01*
X129928085Y-111544144D01*
X129924429Y-111540551D01*
X129909315Y-111529876D01*
X129890415Y-111525276D01*
X129861162Y-111526059D01*
X129825651Y-111530127D01*
X129785970Y-111533762D01*
X129730345Y-111536828D01*
X129665406Y-111539053D01*
X129597785Y-111540164D01*
X129580000Y-111540237D01*
X129512128Y-111539964D01*
X129462454Y-111538646D01*
X129426610Y-111535827D01*
X129400224Y-111531050D01*
X129378926Y-111523857D01*
X129366126Y-111517867D01*
X129338000Y-111501233D01*
X129320068Y-111486168D01*
X129317447Y-111481897D01*
X129322976Y-111464263D01*
X129349260Y-111447192D01*
X129394478Y-111431458D01*
X129456808Y-111417838D01*
X129475171Y-111414804D01*
X129571090Y-111399738D01*
X129647641Y-111387146D01*
X129707780Y-111376111D01*
X129754460Y-111365720D01*
X129790637Y-111355056D01*
X129819265Y-111343205D01*
X129843298Y-111329251D01*
X129865692Y-111312281D01*
X129889402Y-111291378D01*
X129897380Y-111284049D01*
X129925353Y-111256699D01*
X129940160Y-111235029D01*
X129945952Y-111210232D01*
X129946889Y-111178983D01*
X129936575Y-111117705D01*
X129905752Y-111065640D01*
X129854595Y-111022958D01*
X129783283Y-110989825D01*
X129732400Y-110974964D01*
X129677100Y-110965366D01*
X129610853Y-110959936D01*
X129537706Y-110958367D01*
X129461703Y-110960351D01*
G36*
X128693822Y-110981645D02*
X128687242Y-110989218D01*
X128682079Y-110998987D01*
X128678164Y-111013571D01*
X128675324Y-111035585D01*
X128673387Y-111067648D01*
X128672183Y-111112375D01*
X128671539Y-111172385D01*
X128671284Y-111250294D01*
X128671245Y-111325956D01*
X128671314Y-111419802D01*
X128671638Y-111493689D01*
X128672386Y-111550232D01*
X128673732Y-111592049D01*
X128675846Y-111621757D01*
X128678900Y-111641973D01*
X128683066Y-111655314D01*
X128688516Y-111664398D01*
X128693822Y-111670267D01*
X128726826Y-111689947D01*
X128761991Y-111688181D01*
X128793455Y-111666717D01*
X128800684Y-111658337D01*
X128806334Y-111648614D01*
X128810599Y-111634861D01*
X128813673Y-111614389D01*
X128815752Y-111584512D01*
X128817030Y-111542541D01*
X128817701Y-111485789D01*
X128817959Y-111411567D01*
X128818000Y-111327537D01*
X128818000Y-111014485D01*
X128790291Y-110986776D01*
X128756137Y-110963463D01*
X128723006Y-110962623D01*
X128693822Y-110981645D01*
X128693822Y-110981645D01*
G37*
X128693822Y-110981645D02*
X128687242Y-110989218D01*
X128682079Y-110998987D01*
X128678164Y-111013571D01*
X128675324Y-111035585D01*
X128673387Y-111067648D01*
X128672183Y-111112375D01*
X128671539Y-111172385D01*
X128671284Y-111250294D01*
X128671245Y-111325956D01*
X128671314Y-111419802D01*
X128671638Y-111493689D01*
X128672386Y-111550232D01*
X128673732Y-111592049D01*
X128675846Y-111621757D01*
X128678900Y-111641973D01*
X128683066Y-111655314D01*
X128688516Y-111664398D01*
X128693822Y-111670267D01*
X128726826Y-111689947D01*
X128761991Y-111688181D01*
X128793455Y-111666717D01*
X128800684Y-111658337D01*
X128806334Y-111648614D01*
X128810599Y-111634861D01*
X128813673Y-111614389D01*
X128815752Y-111584512D01*
X128817030Y-111542541D01*
X128817701Y-111485789D01*
X128817959Y-111411567D01*
X128818000Y-111327537D01*
X128818000Y-111014485D01*
X128790291Y-110986776D01*
X128756137Y-110963463D01*
X128723006Y-110962623D01*
X128693822Y-110981645D01*
G36*
X127720081Y-110964599D02*
X127651565Y-110976095D01*
X127598943Y-110993967D01*
X127564708Y-111017499D01*
X127555379Y-111030924D01*
X127545893Y-111062148D01*
X127552277Y-111090395D01*
X127572430Y-111117182D01*
X127603745Y-111129713D01*
X127649183Y-111128696D01*
X127684326Y-111121906D01*
X127762419Y-111108971D01*
X127842226Y-111107742D01*
X127931555Y-111118241D01*
X127956229Y-111122690D01*
X128039291Y-111146108D01*
X128104273Y-111180945D01*
X128150461Y-111226604D01*
X128177145Y-111282494D01*
X128182663Y-111311388D01*
X128179051Y-111370012D01*
X128155729Y-111421879D01*
X128114824Y-111465978D01*
X128058459Y-111501299D01*
X127988760Y-111526829D01*
X127907852Y-111541559D01*
X127817860Y-111544478D01*
X127720910Y-111534575D01*
X127715436Y-111533641D01*
X127676875Y-111526459D01*
X127655494Y-111519521D01*
X127646227Y-111509227D01*
X127644006Y-111491976D01*
X127643956Y-111482841D01*
X127643956Y-111444489D01*
X127712431Y-111444489D01*
X127772900Y-111440347D01*
X127814165Y-111427147D01*
X127838175Y-111403730D01*
X127846877Y-111368936D01*
X127846983Y-111364394D01*
X127841892Y-111334654D01*
X127824433Y-111313419D01*
X127791939Y-111299366D01*
X127741743Y-111291173D01*
X127693123Y-111288161D01*
X127622456Y-111286433D01*
X127571198Y-111289070D01*
X127536239Y-111298800D01*
X127514470Y-111318353D01*
X127502780Y-111350456D01*
X127498060Y-111397838D01*
X127497200Y-111460071D01*
X127498609Y-111529535D01*
X127502848Y-111576786D01*
X127509936Y-111602012D01*
X127511311Y-111603988D01*
X127550228Y-111635508D01*
X127607286Y-111660470D01*
X127678869Y-111678340D01*
X127761358Y-111688586D01*
X127851139Y-111690673D01*
X127944592Y-111684068D01*
X127999556Y-111675956D01*
X128085766Y-111651554D01*
X128165892Y-111611662D01*
X128232977Y-111559887D01*
X128243173Y-111549539D01*
X128276302Y-111506035D01*
X128306194Y-111452118D01*
X128329357Y-111395592D01*
X128342298Y-111344259D01*
X128343858Y-111324544D01*
X128337218Y-111283419D01*
X128319568Y-111232252D01*
X128294297Y-111178394D01*
X128264789Y-111129195D01*
X128238719Y-111096334D01*
X128177765Y-111047452D01*
X128098969Y-111008545D01*
X128005157Y-110980494D01*
X127899150Y-110964179D01*
X127802000Y-110960192D01*
X127720081Y-110964599D01*
X127720081Y-110964599D01*
G37*
X127720081Y-110964599D02*
X127651565Y-110976095D01*
X127598943Y-110993967D01*
X127564708Y-111017499D01*
X127555379Y-111030924D01*
X127545893Y-111062148D01*
X127552277Y-111090395D01*
X127572430Y-111117182D01*
X127603745Y-111129713D01*
X127649183Y-111128696D01*
X127684326Y-111121906D01*
X127762419Y-111108971D01*
X127842226Y-111107742D01*
X127931555Y-111118241D01*
X127956229Y-111122690D01*
X128039291Y-111146108D01*
X128104273Y-111180945D01*
X128150461Y-111226604D01*
X128177145Y-111282494D01*
X128182663Y-111311388D01*
X128179051Y-111370012D01*
X128155729Y-111421879D01*
X128114824Y-111465978D01*
X128058459Y-111501299D01*
X127988760Y-111526829D01*
X127907852Y-111541559D01*
X127817860Y-111544478D01*
X127720910Y-111534575D01*
X127715436Y-111533641D01*
X127676875Y-111526459D01*
X127655494Y-111519521D01*
X127646227Y-111509227D01*
X127644006Y-111491976D01*
X127643956Y-111482841D01*
X127643956Y-111444489D01*
X127712431Y-111444489D01*
X127772900Y-111440347D01*
X127814165Y-111427147D01*
X127838175Y-111403730D01*
X127846877Y-111368936D01*
X127846983Y-111364394D01*
X127841892Y-111334654D01*
X127824433Y-111313419D01*
X127791939Y-111299366D01*
X127741743Y-111291173D01*
X127693123Y-111288161D01*
X127622456Y-111286433D01*
X127571198Y-111289070D01*
X127536239Y-111298800D01*
X127514470Y-111318353D01*
X127502780Y-111350456D01*
X127498060Y-111397838D01*
X127497200Y-111460071D01*
X127498609Y-111529535D01*
X127502848Y-111576786D01*
X127509936Y-111602012D01*
X127511311Y-111603988D01*
X127550228Y-111635508D01*
X127607286Y-111660470D01*
X127678869Y-111678340D01*
X127761358Y-111688586D01*
X127851139Y-111690673D01*
X127944592Y-111684068D01*
X127999556Y-111675956D01*
X128085766Y-111651554D01*
X128165892Y-111611662D01*
X128232977Y-111559887D01*
X128243173Y-111549539D01*
X128276302Y-111506035D01*
X128306194Y-111452118D01*
X128329357Y-111395592D01*
X128342298Y-111344259D01*
X128343858Y-111324544D01*
X128337218Y-111283419D01*
X128319568Y-111232252D01*
X128294297Y-111178394D01*
X128264789Y-111129195D01*
X128238719Y-111096334D01*
X128177765Y-111047452D01*
X128098969Y-111008545D01*
X128005157Y-110980494D01*
X127899150Y-110964179D01*
X127802000Y-110960192D01*
X127720081Y-110964599D01*
G36*
X127070114Y-110963448D02*
X127046548Y-110977273D01*
X127015735Y-110999881D01*
X126976078Y-111032338D01*
X126925980Y-111075708D01*
X126863843Y-111131058D01*
X126788072Y-111199451D01*
X126701334Y-111278084D01*
X126520711Y-111441878D01*
X126515067Y-111222029D01*
X126513029Y-111146351D01*
X126511063Y-111089994D01*
X126508734Y-111049706D01*
X126505606Y-111022235D01*
X126501245Y-111004329D01*
X126495216Y-110992737D01*
X126487084Y-110984208D01*
X126482772Y-110980623D01*
X126448241Y-110961670D01*
X126415383Y-110964441D01*
X126389318Y-110980633D01*
X126362667Y-111002199D01*
X126359352Y-111317151D01*
X126358435Y-111409779D01*
X126357968Y-111482544D01*
X126358113Y-111538161D01*
X126359032Y-111579342D01*
X126360887Y-111608803D01*
X126363839Y-111629255D01*
X126368050Y-111643413D01*
X126373682Y-111653991D01*
X126379927Y-111662474D01*
X126393439Y-111678207D01*
X126406883Y-111688636D01*
X126422124Y-111692639D01*
X126441026Y-111689094D01*
X126465455Y-111676879D01*
X126497273Y-111654871D01*
X126538348Y-111621949D01*
X126590542Y-111576991D01*
X126655722Y-111518875D01*
X126729556Y-111452099D01*
X126994845Y-111211458D01*
X127000489Y-111430589D01*
X127002531Y-111506128D01*
X127004502Y-111562354D01*
X127006839Y-111602524D01*
X127009981Y-111629896D01*
X127014364Y-111647728D01*
X127020424Y-111659279D01*
X127028600Y-111667807D01*
X127032784Y-111671282D01*
X127069765Y-111690372D01*
X127104708Y-111687493D01*
X127135136Y-111663100D01*
X127142097Y-111653286D01*
X127147523Y-111641826D01*
X127151603Y-111625968D01*
X127154529Y-111602963D01*
X127156492Y-111570062D01*
X127157683Y-111524516D01*
X127158292Y-111463573D01*
X127158511Y-111384486D01*
X127158534Y-111325956D01*
X127158460Y-111234407D01*
X127158113Y-111162687D01*
X127157301Y-111108045D01*
X127155833Y-111067732D01*
X127153519Y-111038998D01*
X127150167Y-111019093D01*
X127145588Y-111005268D01*
X127139589Y-110994772D01*
X127135136Y-110988811D01*
X127123850Y-110974691D01*
X127113301Y-110964029D01*
X127101893Y-110957892D01*
X127088030Y-110957343D01*
X127070114Y-110963448D01*
X127070114Y-110963448D01*
G37*
X127070114Y-110963448D02*
X127046548Y-110977273D01*
X127015735Y-110999881D01*
X126976078Y-111032338D01*
X126925980Y-111075708D01*
X126863843Y-111131058D01*
X126788072Y-111199451D01*
X126701334Y-111278084D01*
X126520711Y-111441878D01*
X126515067Y-111222029D01*
X126513029Y-111146351D01*
X126511063Y-111089994D01*
X126508734Y-111049706D01*
X126505606Y-111022235D01*
X126501245Y-111004329D01*
X126495216Y-110992737D01*
X126487084Y-110984208D01*
X126482772Y-110980623D01*
X126448241Y-110961670D01*
X126415383Y-110964441D01*
X126389318Y-110980633D01*
X126362667Y-111002199D01*
X126359352Y-111317151D01*
X126358435Y-111409779D01*
X126357968Y-111482544D01*
X126358113Y-111538161D01*
X126359032Y-111579342D01*
X126360887Y-111608803D01*
X126363839Y-111629255D01*
X126368050Y-111643413D01*
X126373682Y-111653991D01*
X126379927Y-111662474D01*
X126393439Y-111678207D01*
X126406883Y-111688636D01*
X126422124Y-111692639D01*
X126441026Y-111689094D01*
X126465455Y-111676879D01*
X126497273Y-111654871D01*
X126538348Y-111621949D01*
X126590542Y-111576991D01*
X126655722Y-111518875D01*
X126729556Y-111452099D01*
X126994845Y-111211458D01*
X127000489Y-111430589D01*
X127002531Y-111506128D01*
X127004502Y-111562354D01*
X127006839Y-111602524D01*
X127009981Y-111629896D01*
X127014364Y-111647728D01*
X127020424Y-111659279D01*
X127028600Y-111667807D01*
X127032784Y-111671282D01*
X127069765Y-111690372D01*
X127104708Y-111687493D01*
X127135136Y-111663100D01*
X127142097Y-111653286D01*
X127147523Y-111641826D01*
X127151603Y-111625968D01*
X127154529Y-111602963D01*
X127156492Y-111570062D01*
X127157683Y-111524516D01*
X127158292Y-111463573D01*
X127158511Y-111384486D01*
X127158534Y-111325956D01*
X127158460Y-111234407D01*
X127158113Y-111162687D01*
X127157301Y-111108045D01*
X127155833Y-111067732D01*
X127153519Y-111038998D01*
X127150167Y-111019093D01*
X127145588Y-111005268D01*
X127139589Y-110994772D01*
X127135136Y-110988811D01*
X127123850Y-110974691D01*
X127113301Y-110964029D01*
X127101893Y-110957892D01*
X127088030Y-110957343D01*
X127070114Y-110963448D01*
G36*
X125539657Y-110959260D02*
X125463299Y-110960174D01*
X125404783Y-110962311D01*
X125361745Y-110966175D01*
X125331817Y-110972267D01*
X125312632Y-110981090D01*
X125301824Y-110993146D01*
X125297027Y-111008939D01*
X125295873Y-111028970D01*
X125295867Y-111031335D01*
X125296869Y-111053992D01*
X125301604Y-111071503D01*
X125312667Y-111084574D01*
X125332652Y-111093913D01*
X125364154Y-111100227D01*
X125409768Y-111104222D01*
X125472087Y-111106606D01*
X125553707Y-111108086D01*
X125578723Y-111108414D01*
X125820800Y-111111467D01*
X125824186Y-111176378D01*
X125827571Y-111241289D01*
X125659424Y-111241289D01*
X125593734Y-111241531D01*
X125546828Y-111242556D01*
X125514917Y-111244811D01*
X125494209Y-111248742D01*
X125480916Y-111254798D01*
X125471245Y-111263424D01*
X125471183Y-111263493D01*
X125453644Y-111297112D01*
X125454278Y-111333448D01*
X125472686Y-111364423D01*
X125476329Y-111367607D01*
X125489259Y-111375812D01*
X125506976Y-111381521D01*
X125533430Y-111385162D01*
X125572568Y-111387167D01*
X125628338Y-111387964D01*
X125664006Y-111388045D01*
X125826445Y-111388045D01*
X125826445Y-111546089D01*
X125579839Y-111546089D01*
X125498420Y-111546231D01*
X125436590Y-111546814D01*
X125391363Y-111548068D01*
X125359752Y-111550227D01*
X125338769Y-111553523D01*
X125325427Y-111558189D01*
X125316739Y-111564457D01*
X125314550Y-111566733D01*
X125298386Y-111598280D01*
X125297203Y-111634168D01*
X125310464Y-111665285D01*
X125320957Y-111675271D01*
X125331871Y-111680769D01*
X125348783Y-111685022D01*
X125374367Y-111688180D01*
X125411299Y-111690392D01*
X125462254Y-111691806D01*
X125529906Y-111692572D01*
X125616931Y-111692838D01*
X125636606Y-111692845D01*
X125725089Y-111692787D01*
X125793773Y-111692467D01*
X125845436Y-111691667D01*
X125882855Y-111690167D01*
X125908810Y-111687749D01*
X125926078Y-111684194D01*
X125937438Y-111679282D01*
X125945668Y-111672795D01*
X125950183Y-111668138D01*
X125956979Y-111659889D01*
X125962288Y-111649669D01*
X125966294Y-111634800D01*
X125969179Y-111612602D01*
X125971126Y-111580393D01*
X125972319Y-111535496D01*
X125972939Y-111475228D01*
X125973171Y-111396911D01*
X125973200Y-111330994D01*
X125973129Y-111238628D01*
X125972792Y-111166117D01*
X125972002Y-111110737D01*
X125970574Y-111069765D01*
X125968321Y-111040478D01*
X125965057Y-111020153D01*
X125960596Y-111006066D01*
X125954752Y-110995495D01*
X125949803Y-110988811D01*
X125926406Y-110959067D01*
X125636226Y-110959067D01*
X125539657Y-110959260D01*
X125539657Y-110959260D01*
G37*
X125539657Y-110959260D02*
X125463299Y-110960174D01*
X125404783Y-110962311D01*
X125361745Y-110966175D01*
X125331817Y-110972267D01*
X125312632Y-110981090D01*
X125301824Y-110993146D01*
X125297027Y-111008939D01*
X125295873Y-111028970D01*
X125295867Y-111031335D01*
X125296869Y-111053992D01*
X125301604Y-111071503D01*
X125312667Y-111084574D01*
X125332652Y-111093913D01*
X125364154Y-111100227D01*
X125409768Y-111104222D01*
X125472087Y-111106606D01*
X125553707Y-111108086D01*
X125578723Y-111108414D01*
X125820800Y-111111467D01*
X125824186Y-111176378D01*
X125827571Y-111241289D01*
X125659424Y-111241289D01*
X125593734Y-111241531D01*
X125546828Y-111242556D01*
X125514917Y-111244811D01*
X125494209Y-111248742D01*
X125480916Y-111254798D01*
X125471245Y-111263424D01*
X125471183Y-111263493D01*
X125453644Y-111297112D01*
X125454278Y-111333448D01*
X125472686Y-111364423D01*
X125476329Y-111367607D01*
X125489259Y-111375812D01*
X125506976Y-111381521D01*
X125533430Y-111385162D01*
X125572568Y-111387167D01*
X125628338Y-111387964D01*
X125664006Y-111388045D01*
X125826445Y-111388045D01*
X125826445Y-111546089D01*
X125579839Y-111546089D01*
X125498420Y-111546231D01*
X125436590Y-111546814D01*
X125391363Y-111548068D01*
X125359752Y-111550227D01*
X125338769Y-111553523D01*
X125325427Y-111558189D01*
X125316739Y-111564457D01*
X125314550Y-111566733D01*
X125298386Y-111598280D01*
X125297203Y-111634168D01*
X125310464Y-111665285D01*
X125320957Y-111675271D01*
X125331871Y-111680769D01*
X125348783Y-111685022D01*
X125374367Y-111688180D01*
X125411299Y-111690392D01*
X125462254Y-111691806D01*
X125529906Y-111692572D01*
X125616931Y-111692838D01*
X125636606Y-111692845D01*
X125725089Y-111692787D01*
X125793773Y-111692467D01*
X125845436Y-111691667D01*
X125882855Y-111690167D01*
X125908810Y-111687749D01*
X125926078Y-111684194D01*
X125937438Y-111679282D01*
X125945668Y-111672795D01*
X125950183Y-111668138D01*
X125956979Y-111659889D01*
X125962288Y-111649669D01*
X125966294Y-111634800D01*
X125969179Y-111612602D01*
X125971126Y-111580393D01*
X125972319Y-111535496D01*
X125972939Y-111475228D01*
X125973171Y-111396911D01*
X125973200Y-111330994D01*
X125973129Y-111238628D01*
X125972792Y-111166117D01*
X125972002Y-111110737D01*
X125970574Y-111069765D01*
X125968321Y-111040478D01*
X125965057Y-111020153D01*
X125960596Y-111006066D01*
X125954752Y-110995495D01*
X125949803Y-110988811D01*
X125926406Y-110959067D01*
X125636226Y-110959067D01*
X125539657Y-110959260D01*
G36*
X124751691Y-110959275D02*
X124622712Y-110963636D01*
X124513009Y-110976861D01*
X124420774Y-110999741D01*
X124344198Y-111033070D01*
X124281473Y-111077638D01*
X124230788Y-111134236D01*
X124190337Y-111203658D01*
X124189541Y-111205351D01*
X124165399Y-111267483D01*
X124156797Y-111322509D01*
X124163769Y-111377887D01*
X124186346Y-111441073D01*
X124190628Y-111450689D01*
X124219828Y-111506966D01*
X124252644Y-111550451D01*
X124294998Y-111587417D01*
X124352810Y-111624135D01*
X124356169Y-111626052D01*
X124406496Y-111650227D01*
X124463379Y-111668282D01*
X124530473Y-111680839D01*
X124611435Y-111688522D01*
X124709918Y-111691953D01*
X124744714Y-111692251D01*
X124910406Y-111692845D01*
X124933803Y-111663100D01*
X124940743Y-111653319D01*
X124946158Y-111641897D01*
X124950235Y-111626095D01*
X124953163Y-111603175D01*
X124955133Y-111570396D01*
X124955775Y-111546089D01*
X124799156Y-111546089D01*
X124705274Y-111546089D01*
X124650336Y-111544483D01*
X124593940Y-111540255D01*
X124547655Y-111534292D01*
X124544861Y-111533790D01*
X124462652Y-111511736D01*
X124398886Y-111478600D01*
X124351548Y-111432847D01*
X124318618Y-111372939D01*
X124312892Y-111357061D01*
X124307279Y-111332333D01*
X124309709Y-111307902D01*
X124321533Y-111275400D01*
X124328660Y-111259434D01*
X124352000Y-111217006D01*
X124380120Y-111187240D01*
X124411060Y-111166511D01*
X124473034Y-111139537D01*
X124552349Y-111119998D01*
X124644747Y-111108746D01*
X124711667Y-111106270D01*
X124799156Y-111105822D01*
X124799156Y-111546089D01*
X124955775Y-111546089D01*
X124956332Y-111525021D01*
X124956950Y-111464311D01*
X124957175Y-111385526D01*
X124957200Y-111323920D01*
X124957200Y-111014485D01*
X124929491Y-110986776D01*
X124917194Y-110975544D01*
X124903897Y-110967853D01*
X124885328Y-110963040D01*
X124857214Y-110960446D01*
X124815283Y-110959410D01*
X124755263Y-110959270D01*
X124751691Y-110959275D01*
X124751691Y-110959275D01*
G37*
X124751691Y-110959275D02*
X124622712Y-110963636D01*
X124513009Y-110976861D01*
X124420774Y-110999741D01*
X124344198Y-111033070D01*
X124281473Y-111077638D01*
X124230788Y-111134236D01*
X124190337Y-111203658D01*
X124189541Y-111205351D01*
X124165399Y-111267483D01*
X124156797Y-111322509D01*
X124163769Y-111377887D01*
X124186346Y-111441073D01*
X124190628Y-111450689D01*
X124219828Y-111506966D01*
X124252644Y-111550451D01*
X124294998Y-111587417D01*
X124352810Y-111624135D01*
X124356169Y-111626052D01*
X124406496Y-111650227D01*
X124463379Y-111668282D01*
X124530473Y-111680839D01*
X124611435Y-111688522D01*
X124709918Y-111691953D01*
X124744714Y-111692251D01*
X124910406Y-111692845D01*
X124933803Y-111663100D01*
X124940743Y-111653319D01*
X124946158Y-111641897D01*
X124950235Y-111626095D01*
X124953163Y-111603175D01*
X124955133Y-111570396D01*
X124955775Y-111546089D01*
X124799156Y-111546089D01*
X124705274Y-111546089D01*
X124650336Y-111544483D01*
X124593940Y-111540255D01*
X124547655Y-111534292D01*
X124544861Y-111533790D01*
X124462652Y-111511736D01*
X124398886Y-111478600D01*
X124351548Y-111432847D01*
X124318618Y-111372939D01*
X124312892Y-111357061D01*
X124307279Y-111332333D01*
X124309709Y-111307902D01*
X124321533Y-111275400D01*
X124328660Y-111259434D01*
X124352000Y-111217006D01*
X124380120Y-111187240D01*
X124411060Y-111166511D01*
X124473034Y-111139537D01*
X124552349Y-111119998D01*
X124644747Y-111108746D01*
X124711667Y-111106270D01*
X124799156Y-111105822D01*
X124799156Y-111546089D01*
X124955775Y-111546089D01*
X124956332Y-111525021D01*
X124956950Y-111464311D01*
X124957175Y-111385526D01*
X124957200Y-111323920D01*
X124957200Y-111014485D01*
X124929491Y-110986776D01*
X124917194Y-110975544D01*
X124903897Y-110967853D01*
X124885328Y-110963040D01*
X124857214Y-110960446D01*
X124815283Y-110959410D01*
X124755263Y-110959270D01*
X124751691Y-110959275D01*
G36*
X122025335Y-110961034D02*
X122005745Y-110968035D01*
X122004990Y-110968377D01*
X121978387Y-110988678D01*
X121963730Y-111009561D01*
X121960862Y-111019352D01*
X121961004Y-111032361D01*
X121965039Y-111050895D01*
X121973854Y-111077257D01*
X121988331Y-111113752D01*
X122009355Y-111162687D01*
X122037812Y-111226365D01*
X122074585Y-111307093D01*
X122094825Y-111351216D01*
X122131375Y-111429985D01*
X122165685Y-111502423D01*
X122196448Y-111565880D01*
X122222352Y-111617708D01*
X122242090Y-111655259D01*
X122254350Y-111675884D01*
X122256776Y-111678733D01*
X122287817Y-111691302D01*
X122322879Y-111689619D01*
X122351000Y-111674332D01*
X122352146Y-111673089D01*
X122363332Y-111656154D01*
X122382096Y-111623170D01*
X122406125Y-111578380D01*
X122433103Y-111526032D01*
X122442799Y-111506742D01*
X122515986Y-111360150D01*
X122595760Y-111519393D01*
X122624233Y-111574415D01*
X122650650Y-111622132D01*
X122672852Y-111658893D01*
X122688681Y-111681044D01*
X122694046Y-111685741D01*
X122735743Y-111692102D01*
X122770151Y-111678733D01*
X122780272Y-111664446D01*
X122797786Y-111632692D01*
X122821265Y-111586597D01*
X122849280Y-111529285D01*
X122880401Y-111463880D01*
X122913201Y-111393507D01*
X122946250Y-111321291D01*
X122978119Y-111250355D01*
X123007381Y-111183825D01*
X123032605Y-111124826D01*
X123052364Y-111076481D01*
X123065228Y-111041915D01*
X123069769Y-111024253D01*
X123069723Y-111023613D01*
X123058674Y-111001388D01*
X123036590Y-110978753D01*
X123035290Y-110977768D01*
X123008147Y-110962425D01*
X122983042Y-110962574D01*
X122973632Y-110965466D01*
X122962166Y-110971718D01*
X122949990Y-110984014D01*
X122935643Y-111004908D01*
X122917664Y-111036949D01*
X122894593Y-111082688D01*
X122864970Y-111144677D01*
X122838255Y-111201898D01*
X122807520Y-111268226D01*
X122779979Y-111327874D01*
X122757062Y-111377725D01*
X122740202Y-111414664D01*
X122730827Y-111435573D01*
X122729460Y-111438845D01*
X122723311Y-111433497D01*
X122709178Y-111411109D01*
X122688943Y-111374946D01*
X122664485Y-111328277D01*
X122654752Y-111309022D01*
X122621783Y-111244004D01*
X122596357Y-111196654D01*
X122576388Y-111164219D01*
X122559790Y-111143946D01*
X122544476Y-111133082D01*
X122528360Y-111128875D01*
X122517857Y-111128400D01*
X122499330Y-111130042D01*
X122483096Y-111136831D01*
X122466965Y-111151566D01*
X122448749Y-111177044D01*
X122426261Y-111216061D01*
X122397311Y-111271414D01*
X122381338Y-111302903D01*
X122355430Y-111353087D01*
X122332833Y-111394704D01*
X122315542Y-111424242D01*
X122305550Y-111438189D01*
X122304191Y-111438770D01*
X122297739Y-111427793D01*
X122283292Y-111399290D01*
X122262297Y-111356244D01*
X122236203Y-111301638D01*
X122206454Y-111238454D01*
X122191820Y-111207071D01*
X122153750Y-111126078D01*
X122123095Y-111063756D01*
X122098263Y-111018071D01*
X122077663Y-110986989D01*
X122059702Y-110968478D01*
X122042790Y-110960504D01*
X122025335Y-110961034D01*
X122025335Y-110961034D01*
G37*
X122025335Y-110961034D02*
X122005745Y-110968035D01*
X122004990Y-110968377D01*
X121978387Y-110988678D01*
X121963730Y-111009561D01*
X121960862Y-111019352D01*
X121961004Y-111032361D01*
X121965039Y-111050895D01*
X121973854Y-111077257D01*
X121988331Y-111113752D01*
X122009355Y-111162687D01*
X122037812Y-111226365D01*
X122074585Y-111307093D01*
X122094825Y-111351216D01*
X122131375Y-111429985D01*
X122165685Y-111502423D01*
X122196448Y-111565880D01*
X122222352Y-111617708D01*
X122242090Y-111655259D01*
X122254350Y-111675884D01*
X122256776Y-111678733D01*
X122287817Y-111691302D01*
X122322879Y-111689619D01*
X122351000Y-111674332D01*
X122352146Y-111673089D01*
X122363332Y-111656154D01*
X122382096Y-111623170D01*
X122406125Y-111578380D01*
X122433103Y-111526032D01*
X122442799Y-111506742D01*
X122515986Y-111360150D01*
X122595760Y-111519393D01*
X122624233Y-111574415D01*
X122650650Y-111622132D01*
X122672852Y-111658893D01*
X122688681Y-111681044D01*
X122694046Y-111685741D01*
X122735743Y-111692102D01*
X122770151Y-111678733D01*
X122780272Y-111664446D01*
X122797786Y-111632692D01*
X122821265Y-111586597D01*
X122849280Y-111529285D01*
X122880401Y-111463880D01*
X122913201Y-111393507D01*
X122946250Y-111321291D01*
X122978119Y-111250355D01*
X123007381Y-111183825D01*
X123032605Y-111124826D01*
X123052364Y-111076481D01*
X123065228Y-111041915D01*
X123069769Y-111024253D01*
X123069723Y-111023613D01*
X123058674Y-111001388D01*
X123036590Y-110978753D01*
X123035290Y-110977768D01*
X123008147Y-110962425D01*
X122983042Y-110962574D01*
X122973632Y-110965466D01*
X122962166Y-110971718D01*
X122949990Y-110984014D01*
X122935643Y-111004908D01*
X122917664Y-111036949D01*
X122894593Y-111082688D01*
X122864970Y-111144677D01*
X122838255Y-111201898D01*
X122807520Y-111268226D01*
X122779979Y-111327874D01*
X122757062Y-111377725D01*
X122740202Y-111414664D01*
X122730827Y-111435573D01*
X122729460Y-111438845D01*
X122723311Y-111433497D01*
X122709178Y-111411109D01*
X122688943Y-111374946D01*
X122664485Y-111328277D01*
X122654752Y-111309022D01*
X122621783Y-111244004D01*
X122596357Y-111196654D01*
X122576388Y-111164219D01*
X122559790Y-111143946D01*
X122544476Y-111133082D01*
X122528360Y-111128875D01*
X122517857Y-111128400D01*
X122499330Y-111130042D01*
X122483096Y-111136831D01*
X122466965Y-111151566D01*
X122448749Y-111177044D01*
X122426261Y-111216061D01*
X122397311Y-111271414D01*
X122381338Y-111302903D01*
X122355430Y-111353087D01*
X122332833Y-111394704D01*
X122315542Y-111424242D01*
X122305550Y-111438189D01*
X122304191Y-111438770D01*
X122297739Y-111427793D01*
X122283292Y-111399290D01*
X122262297Y-111356244D01*
X122236203Y-111301638D01*
X122206454Y-111238454D01*
X122191820Y-111207071D01*
X122153750Y-111126078D01*
X122123095Y-111063756D01*
X122098263Y-111018071D01*
X122077663Y-110986989D01*
X122059702Y-110968478D01*
X122042790Y-110960504D01*
X122025335Y-110961034D01*
G36*
X121581386Y-110965877D02*
X121557673Y-110980647D01*
X121531022Y-111002227D01*
X121531022Y-111323773D01*
X121531107Y-111417830D01*
X121531471Y-111491932D01*
X121532276Y-111548704D01*
X121533687Y-111590768D01*
X121535867Y-111620748D01*
X121538979Y-111641267D01*
X121543186Y-111654949D01*
X121548652Y-111664416D01*
X121552528Y-111669082D01*
X121583966Y-111689575D01*
X121619767Y-111688739D01*
X121651127Y-111671264D01*
X121677778Y-111649684D01*
X121677778Y-111002227D01*
X121651127Y-110980647D01*
X121625406Y-110964949D01*
X121604400Y-110959067D01*
X121581386Y-110965877D01*
X121581386Y-110965877D01*
G37*
X121581386Y-110965877D02*
X121557673Y-110980647D01*
X121531022Y-111002227D01*
X121531022Y-111323773D01*
X121531107Y-111417830D01*
X121531471Y-111491932D01*
X121532276Y-111548704D01*
X121533687Y-111590768D01*
X121535867Y-111620748D01*
X121538979Y-111641267D01*
X121543186Y-111654949D01*
X121548652Y-111664416D01*
X121552528Y-111669082D01*
X121583966Y-111689575D01*
X121619767Y-111688739D01*
X121651127Y-111671264D01*
X121677778Y-111649684D01*
X121677778Y-111002227D01*
X121651127Y-110980647D01*
X121625406Y-110964949D01*
X121604400Y-110959067D01*
X121581386Y-110965877D01*
G36*
X120806935Y-110959163D02*
X120728228Y-110959542D01*
X120667137Y-110960333D01*
X120621183Y-110961670D01*
X120587886Y-110963683D01*
X120564764Y-110966506D01*
X120549338Y-110970269D01*
X120539129Y-110975105D01*
X120534187Y-110978822D01*
X120508543Y-111011358D01*
X120505441Y-111045138D01*
X120521289Y-111075826D01*
X120531652Y-111088089D01*
X120542804Y-111096450D01*
X120558965Y-111101657D01*
X120584358Y-111104457D01*
X120623202Y-111105596D01*
X120679720Y-111105821D01*
X120690820Y-111105822D01*
X120836756Y-111105822D01*
X120836756Y-111376756D01*
X120836852Y-111462154D01*
X120837289Y-111527864D01*
X120838288Y-111576774D01*
X120840072Y-111611773D01*
X120842863Y-111635749D01*
X120846883Y-111651593D01*
X120852355Y-111662191D01*
X120859334Y-111670267D01*
X120892266Y-111690112D01*
X120926646Y-111688548D01*
X120957824Y-111665906D01*
X120960114Y-111663100D01*
X120967571Y-111652492D01*
X120973253Y-111640081D01*
X120977399Y-111622850D01*
X120980250Y-111597784D01*
X120982046Y-111561867D01*
X120983028Y-111512083D01*
X120983436Y-111445417D01*
X120983511Y-111369589D01*
X120983511Y-111105822D01*
X121122873Y-111105822D01*
X121182678Y-111105418D01*
X121224082Y-111103840D01*
X121251252Y-111100547D01*
X121268354Y-111094992D01*
X121279557Y-111086631D01*
X121280917Y-111085178D01*
X121297275Y-111051939D01*
X121295828Y-111014362D01*
X121277022Y-110981645D01*
X121269750Y-110975298D01*
X121260373Y-110970266D01*
X121246391Y-110966396D01*
X121225304Y-110963537D01*
X121194611Y-110961535D01*
X121151811Y-110960239D01*
X121094405Y-110959498D01*
X121019890Y-110959158D01*
X120925767Y-110959068D01*
X120905740Y-110959067D01*
X120806935Y-110959163D01*
X120806935Y-110959163D01*
G37*
X120806935Y-110959163D02*
X120728228Y-110959542D01*
X120667137Y-110960333D01*
X120621183Y-110961670D01*
X120587886Y-110963683D01*
X120564764Y-110966506D01*
X120549338Y-110970269D01*
X120539129Y-110975105D01*
X120534187Y-110978822D01*
X120508543Y-111011358D01*
X120505441Y-111045138D01*
X120521289Y-111075826D01*
X120531652Y-111088089D01*
X120542804Y-111096450D01*
X120558965Y-111101657D01*
X120584358Y-111104457D01*
X120623202Y-111105596D01*
X120679720Y-111105821D01*
X120690820Y-111105822D01*
X120836756Y-111105822D01*
X120836756Y-111376756D01*
X120836852Y-111462154D01*
X120837289Y-111527864D01*
X120838288Y-111576774D01*
X120840072Y-111611773D01*
X120842863Y-111635749D01*
X120846883Y-111651593D01*
X120852355Y-111662191D01*
X120859334Y-111670267D01*
X120892266Y-111690112D01*
X120926646Y-111688548D01*
X120957824Y-111665906D01*
X120960114Y-111663100D01*
X120967571Y-111652492D01*
X120973253Y-111640081D01*
X120977399Y-111622850D01*
X120980250Y-111597784D01*
X120982046Y-111561867D01*
X120983028Y-111512083D01*
X120983436Y-111445417D01*
X120983511Y-111369589D01*
X120983511Y-111105822D01*
X121122873Y-111105822D01*
X121182678Y-111105418D01*
X121224082Y-111103840D01*
X121251252Y-111100547D01*
X121268354Y-111094992D01*
X121279557Y-111086631D01*
X121280917Y-111085178D01*
X121297275Y-111051939D01*
X121295828Y-111014362D01*
X121277022Y-110981645D01*
X121269750Y-110975298D01*
X121260373Y-110970266D01*
X121246391Y-110966396D01*
X121225304Y-110963537D01*
X121194611Y-110961535D01*
X121151811Y-110960239D01*
X121094405Y-110959498D01*
X121019890Y-110959158D01*
X120925767Y-110959068D01*
X120905740Y-110959067D01*
X120806935Y-110959163D01*
G36*
X119541177Y-110964533D02*
X119509798Y-110986776D01*
X119482089Y-111014485D01*
X119482089Y-111323920D01*
X119482162Y-111415799D01*
X119482505Y-111487840D01*
X119483308Y-111542780D01*
X119484759Y-111583360D01*
X119487048Y-111612317D01*
X119490364Y-111632391D01*
X119494895Y-111646321D01*
X119500831Y-111656845D01*
X119505486Y-111663100D01*
X119536217Y-111687673D01*
X119571504Y-111690341D01*
X119603755Y-111675271D01*
X119614412Y-111666374D01*
X119621536Y-111654557D01*
X119625833Y-111635526D01*
X119628009Y-111604992D01*
X119628772Y-111558662D01*
X119628845Y-111522871D01*
X119628845Y-111388045D01*
X120125556Y-111388045D01*
X120125556Y-111510700D01*
X120126069Y-111566787D01*
X120128124Y-111605333D01*
X120132492Y-111631361D01*
X120139944Y-111649897D01*
X120148953Y-111663100D01*
X120179856Y-111687604D01*
X120214804Y-111690506D01*
X120248262Y-111673089D01*
X120257396Y-111663959D01*
X120263848Y-111651855D01*
X120268103Y-111633001D01*
X120270648Y-111603620D01*
X120271971Y-111559937D01*
X120272557Y-111498175D01*
X120272625Y-111484000D01*
X120273109Y-111367631D01*
X120273359Y-111271727D01*
X120273277Y-111194177D01*
X120272769Y-111132869D01*
X120271738Y-111085690D01*
X120270087Y-111050530D01*
X120267721Y-111025276D01*
X120264543Y-111007817D01*
X120260456Y-110996041D01*
X120255366Y-110987835D01*
X120249734Y-110981645D01*
X120217872Y-110961844D01*
X120184643Y-110964533D01*
X120153265Y-110986776D01*
X120140567Y-111001126D01*
X120132474Y-111016978D01*
X120127958Y-111039554D01*
X120125994Y-111074078D01*
X120125556Y-111125776D01*
X120125556Y-111241289D01*
X119628845Y-111241289D01*
X119628845Y-111122756D01*
X119628338Y-111068148D01*
X119626302Y-111031275D01*
X119621965Y-111007307D01*
X119614553Y-110991415D01*
X119606267Y-110981645D01*
X119574406Y-110961844D01*
X119541177Y-110964533D01*
X119541177Y-110964533D01*
G37*
X119541177Y-110964533D02*
X119509798Y-110986776D01*
X119482089Y-111014485D01*
X119482089Y-111323920D01*
X119482162Y-111415799D01*
X119482505Y-111487840D01*
X119483308Y-111542780D01*
X119484759Y-111583360D01*
X119487048Y-111612317D01*
X119490364Y-111632391D01*
X119494895Y-111646321D01*
X119500831Y-111656845D01*
X119505486Y-111663100D01*
X119536217Y-111687673D01*
X119571504Y-111690341D01*
X119603755Y-111675271D01*
X119614412Y-111666374D01*
X119621536Y-111654557D01*
X119625833Y-111635526D01*
X119628009Y-111604992D01*
X119628772Y-111558662D01*
X119628845Y-111522871D01*
X119628845Y-111388045D01*
X120125556Y-111388045D01*
X120125556Y-111510700D01*
X120126069Y-111566787D01*
X120128124Y-111605333D01*
X120132492Y-111631361D01*
X120139944Y-111649897D01*
X120148953Y-111663100D01*
X120179856Y-111687604D01*
X120214804Y-111690506D01*
X120248262Y-111673089D01*
X120257396Y-111663959D01*
X120263848Y-111651855D01*
X120268103Y-111633001D01*
X120270648Y-111603620D01*
X120271971Y-111559937D01*
X120272557Y-111498175D01*
X120272625Y-111484000D01*
X120273109Y-111367631D01*
X120273359Y-111271727D01*
X120273277Y-111194177D01*
X120272769Y-111132869D01*
X120271738Y-111085690D01*
X120270087Y-111050530D01*
X120267721Y-111025276D01*
X120264543Y-111007817D01*
X120260456Y-110996041D01*
X120255366Y-110987835D01*
X120249734Y-110981645D01*
X120217872Y-110961844D01*
X120184643Y-110964533D01*
X120153265Y-110986776D01*
X120140567Y-111001126D01*
X120132474Y-111016978D01*
X120127958Y-111039554D01*
X120125994Y-111074078D01*
X120125556Y-111125776D01*
X120125556Y-111241289D01*
X119628845Y-111241289D01*
X119628845Y-111122756D01*
X119628338Y-111068148D01*
X119626302Y-111031275D01*
X119621965Y-111007307D01*
X119614553Y-110991415D01*
X119606267Y-110981645D01*
X119574406Y-110961844D01*
X119541177Y-110964533D01*
G36*
X128716400Y-106179054D02*
X128705535Y-106292993D01*
X128673918Y-106400616D01*
X128623015Y-106499615D01*
X128554293Y-106587684D01*
X128469219Y-106662516D01*
X128372232Y-106720384D01*
X128265964Y-106760005D01*
X128158950Y-106778573D01*
X128053300Y-106777434D01*
X127951125Y-106757930D01*
X127854534Y-106721406D01*
X127765638Y-106669205D01*
X127686546Y-106602673D01*
X127619369Y-106523152D01*
X127566217Y-106431987D01*
X127529199Y-106330523D01*
X127510427Y-106220102D01*
X127508489Y-106170206D01*
X127508489Y-106082267D01*
X127456560Y-106082267D01*
X127420253Y-106085111D01*
X127393355Y-106096911D01*
X127366249Y-106120649D01*
X127327867Y-106159031D01*
X127327867Y-108350602D01*
X127327876Y-108612739D01*
X127327908Y-108853241D01*
X127327972Y-109073048D01*
X127328076Y-109273101D01*
X127328227Y-109454344D01*
X127328434Y-109617716D01*
X127328706Y-109764160D01*
X127329050Y-109894617D01*
X127329474Y-110010029D01*
X127329987Y-110111338D01*
X127330597Y-110199484D01*
X127331312Y-110275410D01*
X127332140Y-110340057D01*
X127333089Y-110394367D01*
X127334167Y-110439280D01*
X127335383Y-110475740D01*
X127336745Y-110504687D01*
X127338261Y-110527063D01*
X127339938Y-110543809D01*
X127341786Y-110555868D01*
X127343813Y-110564180D01*
X127346025Y-110569687D01*
X127347108Y-110571537D01*
X127351271Y-110578549D01*
X127354805Y-110584996D01*
X127358635Y-110590900D01*
X127363682Y-110596286D01*
X127370871Y-110601178D01*
X127381123Y-110605598D01*
X127395364Y-110609572D01*
X127414514Y-110613121D01*
X127439499Y-110616270D01*
X127471240Y-110619042D01*
X127510662Y-110621461D01*
X127558686Y-110623551D01*
X127616237Y-110625335D01*
X127684237Y-110626837D01*
X127763610Y-110628080D01*
X127855279Y-110629089D01*
X127960166Y-110629885D01*
X128079196Y-110630494D01*
X128213290Y-110630939D01*
X128363373Y-110631243D01*
X128530367Y-110631430D01*
X128715196Y-110631524D01*
X128918783Y-110631548D01*
X129142050Y-110631525D01*
X129385922Y-110631480D01*
X129651321Y-110631437D01*
X129689704Y-110631432D01*
X129956682Y-110631389D01*
X130202002Y-110631318D01*
X130426583Y-110631213D01*
X130631345Y-110631066D01*
X130817206Y-110630869D01*
X130985088Y-110630616D01*
X131135908Y-110630300D01*
X131270587Y-110629913D01*
X131390044Y-110629447D01*
X131495199Y-110628897D01*
X131586971Y-110628253D01*
X131666279Y-110627511D01*
X131734043Y-110626661D01*
X131791182Y-110625697D01*
X131838617Y-110624611D01*
X131877266Y-110623397D01*
X131908049Y-110622047D01*
X131931885Y-110620555D01*
X131949694Y-110618911D01*
X131962395Y-110617111D01*
X131970908Y-110615145D01*
X131975266Y-110613477D01*
X131983728Y-110609906D01*
X131991497Y-110607270D01*
X131998602Y-110604634D01*
X132005073Y-110601062D01*
X132010939Y-110595621D01*
X132016229Y-110587375D01*
X132020974Y-110575390D01*
X132025202Y-110558731D01*
X132028943Y-110536463D01*
X132032227Y-110507652D01*
X132035083Y-110471363D01*
X132037540Y-110426661D01*
X132039629Y-110372611D01*
X132041378Y-110308279D01*
X132042817Y-110232730D01*
X132043976Y-110145030D01*
X132044883Y-110044243D01*
X132045569Y-109929434D01*
X132046063Y-109799670D01*
X132046395Y-109654015D01*
X132046593Y-109491535D01*
X132046687Y-109311295D01*
X132046708Y-109112360D01*
X132046685Y-108893796D01*
X132046646Y-108654668D01*
X132046622Y-108394040D01*
X132046622Y-108351889D01*
X132046636Y-108088992D01*
X132046661Y-107847732D01*
X132046671Y-107627165D01*
X132046642Y-107426352D01*
X132046548Y-107244349D01*
X132046362Y-107080216D01*
X132046059Y-106933011D01*
X132045614Y-106801792D01*
X132045034Y-106691867D01*
X131742197Y-106691867D01*
X131702407Y-106749711D01*
X131691236Y-106765479D01*
X131681166Y-106779441D01*
X131672138Y-106792784D01*
X131664097Y-106806693D01*
X131656986Y-106822356D01*
X131650747Y-106840958D01*
X131645325Y-106863686D01*
X131640662Y-106891727D01*
X131636701Y-106926267D01*
X131633385Y-106968492D01*
X131630659Y-107019589D01*
X131628464Y-107080744D01*
X131626745Y-107153144D01*
X131625444Y-107237975D01*
X131624505Y-107336422D01*
X131623870Y-107449674D01*
X131623484Y-107578916D01*
X131623288Y-107725334D01*
X131623227Y-107890116D01*
X131623243Y-108074447D01*
X131623280Y-108279513D01*
X131623289Y-108402133D01*
X131623265Y-108619082D01*
X131623231Y-108814642D01*
X131623243Y-108989999D01*
X131623358Y-109146341D01*
X131623630Y-109284857D01*
X131624118Y-109406734D01*
X131624876Y-109513160D01*
X131625962Y-109605322D01*
X131627431Y-109684409D01*
X131629340Y-109751608D01*
X131631744Y-109808107D01*
X131634701Y-109855093D01*
X131638266Y-109893755D01*
X131642495Y-109925280D01*
X131647446Y-109950855D01*
X131653173Y-109971670D01*
X131659733Y-109988911D01*
X131667183Y-110003765D01*
X131675579Y-110017422D01*
X131684976Y-110031069D01*
X131695432Y-110045893D01*
X131701523Y-110054783D01*
X131740296Y-110112400D01*
X131208732Y-110112400D01*
X131085483Y-110112365D01*
X130982987Y-110112215D01*
X130899420Y-110111878D01*
X130832956Y-110111286D01*
X130781771Y-110110367D01*
X130744041Y-110109051D01*
X130717940Y-110107269D01*
X130701644Y-110104951D01*
X130693328Y-110102026D01*
X130691168Y-110098424D01*
X130693339Y-110094075D01*
X130694535Y-110092645D01*
X130719685Y-110055573D01*
X130745583Y-110002772D01*
X130769192Y-109940770D01*
X130777461Y-109914357D01*
X130782078Y-109896416D01*
X130785979Y-109875355D01*
X130789248Y-109849089D01*
X130791966Y-109815532D01*
X130794215Y-109772599D01*
X130796077Y-109718204D01*
X130797636Y-109650262D01*
X130798972Y-109566688D01*
X130800169Y-109465395D01*
X130801308Y-109344300D01*
X130801685Y-109299600D01*
X130802702Y-109174449D01*
X130803460Y-109070082D01*
X130803903Y-108984707D01*
X130803970Y-108916533D01*
X130803605Y-108863765D01*
X130802748Y-108824614D01*
X130801341Y-108797285D01*
X130799325Y-108779986D01*
X130796643Y-108770926D01*
X130793236Y-108768312D01*
X130789044Y-108770351D01*
X130784571Y-108774667D01*
X130774216Y-108787602D01*
X130752158Y-108816676D01*
X130719957Y-108859759D01*
X130679174Y-108914718D01*
X130631370Y-108979423D01*
X130578105Y-109051742D01*
X130520940Y-109129544D01*
X130461437Y-109210698D01*
X130401155Y-109293072D01*
X130341655Y-109374536D01*
X130284498Y-109452957D01*
X130231245Y-109526204D01*
X130183457Y-109592147D01*
X130142693Y-109648654D01*
X130110516Y-109693593D01*
X130088485Y-109724834D01*
X130083917Y-109731466D01*
X130060996Y-109768369D01*
X130034188Y-109816359D01*
X130008789Y-109865897D01*
X130005568Y-109872577D01*
X129983890Y-109920772D01*
X129971304Y-109958334D01*
X129965574Y-109994160D01*
X129964456Y-110036200D01*
X129965090Y-110112400D01*
X128810651Y-110112400D01*
X128901815Y-110018669D01*
X128948612Y-109968775D01*
X128998899Y-109912295D01*
X129044944Y-109858026D01*
X129065369Y-109832673D01*
X129095807Y-109793128D01*
X129135862Y-109739916D01*
X129184361Y-109674667D01*
X129240135Y-109599011D01*
X129302011Y-109514577D01*
X129368819Y-109422994D01*
X129439387Y-109325892D01*
X129512545Y-109224901D01*
X129587121Y-109121650D01*
X129661944Y-109017768D01*
X129735843Y-108914885D01*
X129807646Y-108814631D01*
X129876184Y-108718636D01*
X129940284Y-108628527D01*
X129998775Y-108545936D01*
X130050486Y-108472492D01*
X130094247Y-108409824D01*
X130128885Y-108359561D01*
X130153230Y-108323334D01*
X130166111Y-108302771D01*
X130167869Y-108298668D01*
X130159910Y-108287342D01*
X130139115Y-108260162D01*
X130106847Y-108218829D01*
X130064470Y-108165044D01*
X130013347Y-108100506D01*
X129954841Y-108026918D01*
X129890314Y-107945978D01*
X129821131Y-107859388D01*
X129748653Y-107768848D01*
X129674246Y-107676060D01*
X129614517Y-107601702D01*
X128603511Y-107601702D01*
X128597602Y-107614659D01*
X128583272Y-107636908D01*
X128582225Y-107638391D01*
X128563438Y-107668544D01*
X128543791Y-107705375D01*
X128539892Y-107713511D01*
X128536356Y-107721940D01*
X128533230Y-107732059D01*
X128530486Y-107745260D01*
X128528092Y-107762938D01*
X128526019Y-107786484D01*
X128524235Y-107817293D01*
X128522712Y-107856757D01*
X128521419Y-107906269D01*
X128520326Y-107967223D01*
X128519403Y-108041011D01*
X128518619Y-108129028D01*
X128517945Y-108232665D01*
X128517350Y-108353316D01*
X128516805Y-108492374D01*
X128516279Y-108651232D01*
X128515745Y-108830089D01*
X128515206Y-109015207D01*
X128514772Y-109179145D01*
X128514509Y-109323303D01*
X128514484Y-109449079D01*
X128514765Y-109557871D01*
X128515419Y-109651077D01*
X128516514Y-109730097D01*
X128518118Y-109796328D01*
X128520297Y-109851170D01*
X128523119Y-109896021D01*
X128526651Y-109932278D01*
X128530961Y-109961341D01*
X128536117Y-109984609D01*
X128542185Y-110003479D01*
X128549233Y-110019351D01*
X128557329Y-110033622D01*
X128566540Y-110047691D01*
X128575040Y-110060158D01*
X128592176Y-110086452D01*
X128602322Y-110104037D01*
X128603511Y-110107257D01*
X128592604Y-110108334D01*
X128561411Y-110109335D01*
X128512223Y-110110235D01*
X128447333Y-110111010D01*
X128369030Y-110111637D01*
X128279607Y-110112091D01*
X128181356Y-110112349D01*
X128112445Y-110112400D01*
X128007452Y-110112180D01*
X127910610Y-110111548D01*
X127824107Y-110110549D01*
X127750132Y-110109227D01*
X127690874Y-110107626D01*
X127648520Y-110105791D01*
X127625260Y-110103765D01*
X127621378Y-110102493D01*
X127629076Y-110087591D01*
X127637074Y-110079560D01*
X127650246Y-110062434D01*
X127667485Y-110032183D01*
X127679407Y-110007622D01*
X127706045Y-109948711D01*
X127709120Y-108771845D01*
X127712195Y-107594978D01*
X128157853Y-107594978D01*
X128255670Y-107595142D01*
X128346064Y-107595611D01*
X128426630Y-107596347D01*
X128494962Y-107597316D01*
X128548656Y-107598480D01*
X128585305Y-107599803D01*
X128602504Y-107601249D01*
X128603511Y-107601702D01*
X129614517Y-107601702D01*
X129599270Y-107582722D01*
X129525090Y-107490537D01*
X129453069Y-107401204D01*
X129384569Y-107316424D01*
X129320955Y-107237898D01*
X129263588Y-107167326D01*
X129213833Y-107106409D01*
X129173052Y-107056847D01*
X129155888Y-107036178D01*
X129069596Y-106935516D01*
X128992997Y-106852259D01*
X128924183Y-106784438D01*
X128861248Y-106730089D01*
X128851867Y-106722722D01*
X128812356Y-106692117D01*
X129944116Y-106691867D01*
X129938827Y-106739844D01*
X129942130Y-106797188D01*
X129963661Y-106865463D01*
X130003635Y-106945212D01*
X130048943Y-107017495D01*
X130065161Y-107040140D01*
X130093214Y-107077696D01*
X130131430Y-107128021D01*
X130178137Y-107188973D01*
X130231661Y-107258411D01*
X130290331Y-107334194D01*
X130352475Y-107414180D01*
X130416421Y-107496228D01*
X130480495Y-107578196D01*
X130543027Y-107657943D01*
X130602343Y-107733327D01*
X130656771Y-107802207D01*
X130704639Y-107862442D01*
X130744275Y-107911889D01*
X130774006Y-107948408D01*
X130792161Y-107969858D01*
X130795220Y-107973156D01*
X130798079Y-107965149D01*
X130800293Y-107934855D01*
X130801857Y-107882556D01*
X130802767Y-107808531D01*
X130803020Y-107713063D01*
X130802613Y-107596434D01*
X130801704Y-107476445D01*
X130800382Y-107344333D01*
X130798857Y-107232594D01*
X130796881Y-107139025D01*
X130794206Y-107061419D01*
X130790582Y-106997574D01*
X130785761Y-106945283D01*
X130779494Y-106902344D01*
X130771532Y-106866551D01*
X130761627Y-106835700D01*
X130749531Y-106807586D01*
X130734993Y-106780005D01*
X130720311Y-106754966D01*
X130682314Y-106691867D01*
X131742197Y-106691867D01*
X132045034Y-106691867D01*
X132045001Y-106685617D01*
X132044195Y-106583544D01*
X132043170Y-106494633D01*
X132041900Y-106417941D01*
X132040360Y-106352527D01*
X132038524Y-106297449D01*
X132036367Y-106251765D01*
X132033863Y-106214534D01*
X132030987Y-106184813D01*
X132027713Y-106161662D01*
X132024015Y-106144139D01*
X132019869Y-106131301D01*
X132015247Y-106122208D01*
X132010126Y-106115918D01*
X132004478Y-106111488D01*
X131998279Y-106107978D01*
X131991504Y-106104445D01*
X131985508Y-106100876D01*
X131980275Y-106098300D01*
X131972099Y-106095972D01*
X131959886Y-106093878D01*
X131942541Y-106092007D01*
X131918969Y-106090347D01*
X131888077Y-106088884D01*
X131848768Y-106087608D01*
X131799950Y-106086504D01*
X131740527Y-106085561D01*
X131669404Y-106084767D01*
X131585488Y-106084109D01*
X131487683Y-106083575D01*
X131374894Y-106083153D01*
X131246029Y-106082829D01*
X131099991Y-106082592D01*
X130935686Y-106082430D01*
X130752020Y-106082330D01*
X130547897Y-106082280D01*
X130336753Y-106082267D01*
X128716400Y-106082267D01*
X128716400Y-106179054D01*
X128716400Y-106179054D01*
G37*
X128716400Y-106179054D02*
X128705535Y-106292993D01*
X128673918Y-106400616D01*
X128623015Y-106499615D01*
X128554293Y-106587684D01*
X128469219Y-106662516D01*
X128372232Y-106720384D01*
X128265964Y-106760005D01*
X128158950Y-106778573D01*
X128053300Y-106777434D01*
X127951125Y-106757930D01*
X127854534Y-106721406D01*
X127765638Y-106669205D01*
X127686546Y-106602673D01*
X127619369Y-106523152D01*
X127566217Y-106431987D01*
X127529199Y-106330523D01*
X127510427Y-106220102D01*
X127508489Y-106170206D01*
X127508489Y-106082267D01*
X127456560Y-106082267D01*
X127420253Y-106085111D01*
X127393355Y-106096911D01*
X127366249Y-106120649D01*
X127327867Y-106159031D01*
X127327867Y-108350602D01*
X127327876Y-108612739D01*
X127327908Y-108853241D01*
X127327972Y-109073048D01*
X127328076Y-109273101D01*
X127328227Y-109454344D01*
X127328434Y-109617716D01*
X127328706Y-109764160D01*
X127329050Y-109894617D01*
X127329474Y-110010029D01*
X127329987Y-110111338D01*
X127330597Y-110199484D01*
X127331312Y-110275410D01*
X127332140Y-110340057D01*
X127333089Y-110394367D01*
X127334167Y-110439280D01*
X127335383Y-110475740D01*
X127336745Y-110504687D01*
X127338261Y-110527063D01*
X127339938Y-110543809D01*
X127341786Y-110555868D01*
X127343813Y-110564180D01*
X127346025Y-110569687D01*
X127347108Y-110571537D01*
X127351271Y-110578549D01*
X127354805Y-110584996D01*
X127358635Y-110590900D01*
X127363682Y-110596286D01*
X127370871Y-110601178D01*
X127381123Y-110605598D01*
X127395364Y-110609572D01*
X127414514Y-110613121D01*
X127439499Y-110616270D01*
X127471240Y-110619042D01*
X127510662Y-110621461D01*
X127558686Y-110623551D01*
X127616237Y-110625335D01*
X127684237Y-110626837D01*
X127763610Y-110628080D01*
X127855279Y-110629089D01*
X127960166Y-110629885D01*
X128079196Y-110630494D01*
X128213290Y-110630939D01*
X128363373Y-110631243D01*
X128530367Y-110631430D01*
X128715196Y-110631524D01*
X128918783Y-110631548D01*
X129142050Y-110631525D01*
X129385922Y-110631480D01*
X129651321Y-110631437D01*
X129689704Y-110631432D01*
X129956682Y-110631389D01*
X130202002Y-110631318D01*
X130426583Y-110631213D01*
X130631345Y-110631066D01*
X130817206Y-110630869D01*
X130985088Y-110630616D01*
X131135908Y-110630300D01*
X131270587Y-110629913D01*
X131390044Y-110629447D01*
X131495199Y-110628897D01*
X131586971Y-110628253D01*
X131666279Y-110627511D01*
X131734043Y-110626661D01*
X131791182Y-110625697D01*
X131838617Y-110624611D01*
X131877266Y-110623397D01*
X131908049Y-110622047D01*
X131931885Y-110620555D01*
X131949694Y-110618911D01*
X131962395Y-110617111D01*
X131970908Y-110615145D01*
X131975266Y-110613477D01*
X131983728Y-110609906D01*
X131991497Y-110607270D01*
X131998602Y-110604634D01*
X132005073Y-110601062D01*
X132010939Y-110595621D01*
X132016229Y-110587375D01*
X132020974Y-110575390D01*
X132025202Y-110558731D01*
X132028943Y-110536463D01*
X132032227Y-110507652D01*
X132035083Y-110471363D01*
X132037540Y-110426661D01*
X132039629Y-110372611D01*
X132041378Y-110308279D01*
X132042817Y-110232730D01*
X132043976Y-110145030D01*
X132044883Y-110044243D01*
X132045569Y-109929434D01*
X132046063Y-109799670D01*
X132046395Y-109654015D01*
X132046593Y-109491535D01*
X132046687Y-109311295D01*
X132046708Y-109112360D01*
X132046685Y-108893796D01*
X132046646Y-108654668D01*
X132046622Y-108394040D01*
X132046622Y-108351889D01*
X132046636Y-108088992D01*
X132046661Y-107847732D01*
X132046671Y-107627165D01*
X132046642Y-107426352D01*
X132046548Y-107244349D01*
X132046362Y-107080216D01*
X132046059Y-106933011D01*
X132045614Y-106801792D01*
X132045034Y-106691867D01*
X131742197Y-106691867D01*
X131702407Y-106749711D01*
X131691236Y-106765479D01*
X131681166Y-106779441D01*
X131672138Y-106792784D01*
X131664097Y-106806693D01*
X131656986Y-106822356D01*
X131650747Y-106840958D01*
X131645325Y-106863686D01*
X131640662Y-106891727D01*
X131636701Y-106926267D01*
X131633385Y-106968492D01*
X131630659Y-107019589D01*
X131628464Y-107080744D01*
X131626745Y-107153144D01*
X131625444Y-107237975D01*
X131624505Y-107336422D01*
X131623870Y-107449674D01*
X131623484Y-107578916D01*
X131623288Y-107725334D01*
X131623227Y-107890116D01*
X131623243Y-108074447D01*
X131623280Y-108279513D01*
X131623289Y-108402133D01*
X131623265Y-108619082D01*
X131623231Y-108814642D01*
X131623243Y-108989999D01*
X131623358Y-109146341D01*
X131623630Y-109284857D01*
X131624118Y-109406734D01*
X131624876Y-109513160D01*
X131625962Y-109605322D01*
X131627431Y-109684409D01*
X131629340Y-109751608D01*
X131631744Y-109808107D01*
X131634701Y-109855093D01*
X131638266Y-109893755D01*
X131642495Y-109925280D01*
X131647446Y-109950855D01*
X131653173Y-109971670D01*
X131659733Y-109988911D01*
X131667183Y-110003765D01*
X131675579Y-110017422D01*
X131684976Y-110031069D01*
X131695432Y-110045893D01*
X131701523Y-110054783D01*
X131740296Y-110112400D01*
X131208732Y-110112400D01*
X131085483Y-110112365D01*
X130982987Y-110112215D01*
X130899420Y-110111878D01*
X130832956Y-110111286D01*
X130781771Y-110110367D01*
X130744041Y-110109051D01*
X130717940Y-110107269D01*
X130701644Y-110104951D01*
X130693328Y-110102026D01*
X130691168Y-110098424D01*
X130693339Y-110094075D01*
X130694535Y-110092645D01*
X130719685Y-110055573D01*
X130745583Y-110002772D01*
X130769192Y-109940770D01*
X130777461Y-109914357D01*
X130782078Y-109896416D01*
X130785979Y-109875355D01*
X130789248Y-109849089D01*
X130791966Y-109815532D01*
X130794215Y-109772599D01*
X130796077Y-109718204D01*
X130797636Y-109650262D01*
X130798972Y-109566688D01*
X130800169Y-109465395D01*
X130801308Y-109344300D01*
X130801685Y-109299600D01*
X130802702Y-109174449D01*
X130803460Y-109070082D01*
X130803903Y-108984707D01*
X130803970Y-108916533D01*
X130803605Y-108863765D01*
X130802748Y-108824614D01*
X130801341Y-108797285D01*
X130799325Y-108779986D01*
X130796643Y-108770926D01*
X130793236Y-108768312D01*
X130789044Y-108770351D01*
X130784571Y-108774667D01*
X130774216Y-108787602D01*
X130752158Y-108816676D01*
X130719957Y-108859759D01*
X130679174Y-108914718D01*
X130631370Y-108979423D01*
X130578105Y-109051742D01*
X130520940Y-109129544D01*
X130461437Y-109210698D01*
X130401155Y-109293072D01*
X130341655Y-109374536D01*
X130284498Y-109452957D01*
X130231245Y-109526204D01*
X130183457Y-109592147D01*
X130142693Y-109648654D01*
X130110516Y-109693593D01*
X130088485Y-109724834D01*
X130083917Y-109731466D01*
X130060996Y-109768369D01*
X130034188Y-109816359D01*
X130008789Y-109865897D01*
X130005568Y-109872577D01*
X129983890Y-109920772D01*
X129971304Y-109958334D01*
X129965574Y-109994160D01*
X129964456Y-110036200D01*
X129965090Y-110112400D01*
X128810651Y-110112400D01*
X128901815Y-110018669D01*
X128948612Y-109968775D01*
X128998899Y-109912295D01*
X129044944Y-109858026D01*
X129065369Y-109832673D01*
X129095807Y-109793128D01*
X129135862Y-109739916D01*
X129184361Y-109674667D01*
X129240135Y-109599011D01*
X129302011Y-109514577D01*
X129368819Y-109422994D01*
X129439387Y-109325892D01*
X129512545Y-109224901D01*
X129587121Y-109121650D01*
X129661944Y-109017768D01*
X129735843Y-108914885D01*
X129807646Y-108814631D01*
X129876184Y-108718636D01*
X129940284Y-108628527D01*
X129998775Y-108545936D01*
X130050486Y-108472492D01*
X130094247Y-108409824D01*
X130128885Y-108359561D01*
X130153230Y-108323334D01*
X130166111Y-108302771D01*
X130167869Y-108298668D01*
X130159910Y-108287342D01*
X130139115Y-108260162D01*
X130106847Y-108218829D01*
X130064470Y-108165044D01*
X130013347Y-108100506D01*
X129954841Y-108026918D01*
X129890314Y-107945978D01*
X129821131Y-107859388D01*
X129748653Y-107768848D01*
X129674246Y-107676060D01*
X129614517Y-107601702D01*
X128603511Y-107601702D01*
X128597602Y-107614659D01*
X128583272Y-107636908D01*
X128582225Y-107638391D01*
X128563438Y-107668544D01*
X128543791Y-107705375D01*
X128539892Y-107713511D01*
X128536356Y-107721940D01*
X128533230Y-107732059D01*
X128530486Y-107745260D01*
X128528092Y-107762938D01*
X128526019Y-107786484D01*
X128524235Y-107817293D01*
X128522712Y-107856757D01*
X128521419Y-107906269D01*
X128520326Y-107967223D01*
X128519403Y-108041011D01*
X128518619Y-108129028D01*
X128517945Y-108232665D01*
X128517350Y-108353316D01*
X128516805Y-108492374D01*
X128516279Y-108651232D01*
X128515745Y-108830089D01*
X128515206Y-109015207D01*
X128514772Y-109179145D01*
X128514509Y-109323303D01*
X128514484Y-109449079D01*
X128514765Y-109557871D01*
X128515419Y-109651077D01*
X128516514Y-109730097D01*
X128518118Y-109796328D01*
X128520297Y-109851170D01*
X128523119Y-109896021D01*
X128526651Y-109932278D01*
X128530961Y-109961341D01*
X128536117Y-109984609D01*
X128542185Y-110003479D01*
X128549233Y-110019351D01*
X128557329Y-110033622D01*
X128566540Y-110047691D01*
X128575040Y-110060158D01*
X128592176Y-110086452D01*
X128602322Y-110104037D01*
X128603511Y-110107257D01*
X128592604Y-110108334D01*
X128561411Y-110109335D01*
X128512223Y-110110235D01*
X128447333Y-110111010D01*
X128369030Y-110111637D01*
X128279607Y-110112091D01*
X128181356Y-110112349D01*
X128112445Y-110112400D01*
X128007452Y-110112180D01*
X127910610Y-110111548D01*
X127824107Y-110110549D01*
X127750132Y-110109227D01*
X127690874Y-110107626D01*
X127648520Y-110105791D01*
X127625260Y-110103765D01*
X127621378Y-110102493D01*
X127629076Y-110087591D01*
X127637074Y-110079560D01*
X127650246Y-110062434D01*
X127667485Y-110032183D01*
X127679407Y-110007622D01*
X127706045Y-109948711D01*
X127709120Y-108771845D01*
X127712195Y-107594978D01*
X128157853Y-107594978D01*
X128255670Y-107595142D01*
X128346064Y-107595611D01*
X128426630Y-107596347D01*
X128494962Y-107597316D01*
X128548656Y-107598480D01*
X128585305Y-107599803D01*
X128602504Y-107601249D01*
X128603511Y-107601702D01*
X129614517Y-107601702D01*
X129599270Y-107582722D01*
X129525090Y-107490537D01*
X129453069Y-107401204D01*
X129384569Y-107316424D01*
X129320955Y-107237898D01*
X129263588Y-107167326D01*
X129213833Y-107106409D01*
X129173052Y-107056847D01*
X129155888Y-107036178D01*
X129069596Y-106935516D01*
X128992997Y-106852259D01*
X128924183Y-106784438D01*
X128861248Y-106730089D01*
X128851867Y-106722722D01*
X128812356Y-106692117D01*
X129944116Y-106691867D01*
X129938827Y-106739844D01*
X129942130Y-106797188D01*
X129963661Y-106865463D01*
X130003635Y-106945212D01*
X130048943Y-107017495D01*
X130065161Y-107040140D01*
X130093214Y-107077696D01*
X130131430Y-107128021D01*
X130178137Y-107188973D01*
X130231661Y-107258411D01*
X130290331Y-107334194D01*
X130352475Y-107414180D01*
X130416421Y-107496228D01*
X130480495Y-107578196D01*
X130543027Y-107657943D01*
X130602343Y-107733327D01*
X130656771Y-107802207D01*
X130704639Y-107862442D01*
X130744275Y-107911889D01*
X130774006Y-107948408D01*
X130792161Y-107969858D01*
X130795220Y-107973156D01*
X130798079Y-107965149D01*
X130800293Y-107934855D01*
X130801857Y-107882556D01*
X130802767Y-107808531D01*
X130803020Y-107713063D01*
X130802613Y-107596434D01*
X130801704Y-107476445D01*
X130800382Y-107344333D01*
X130798857Y-107232594D01*
X130796881Y-107139025D01*
X130794206Y-107061419D01*
X130790582Y-106997574D01*
X130785761Y-106945283D01*
X130779494Y-106902344D01*
X130771532Y-106866551D01*
X130761627Y-106835700D01*
X130749531Y-106807586D01*
X130734993Y-106780005D01*
X130720311Y-106754966D01*
X130682314Y-106691867D01*
X131742197Y-106691867D01*
X132045034Y-106691867D01*
X132045001Y-106685617D01*
X132044195Y-106583544D01*
X132043170Y-106494633D01*
X132041900Y-106417941D01*
X132040360Y-106352527D01*
X132038524Y-106297449D01*
X132036367Y-106251765D01*
X132033863Y-106214534D01*
X132030987Y-106184813D01*
X132027713Y-106161662D01*
X132024015Y-106144139D01*
X132019869Y-106131301D01*
X132015247Y-106122208D01*
X132010126Y-106115918D01*
X132004478Y-106111488D01*
X131998279Y-106107978D01*
X131991504Y-106104445D01*
X131985508Y-106100876D01*
X131980275Y-106098300D01*
X131972099Y-106095972D01*
X131959886Y-106093878D01*
X131942541Y-106092007D01*
X131918969Y-106090347D01*
X131888077Y-106088884D01*
X131848768Y-106087608D01*
X131799950Y-106086504D01*
X131740527Y-106085561D01*
X131669404Y-106084767D01*
X131585488Y-106084109D01*
X131487683Y-106083575D01*
X131374894Y-106083153D01*
X131246029Y-106082829D01*
X131099991Y-106082592D01*
X130935686Y-106082430D01*
X130752020Y-106082330D01*
X130547897Y-106082280D01*
X130336753Y-106082267D01*
X128716400Y-106082267D01*
X128716400Y-106179054D01*
G36*
X125441571Y-106639071D02*
X125281430Y-106660245D01*
X125117490Y-106700385D01*
X124947687Y-106759889D01*
X124769957Y-106839154D01*
X124758690Y-106844699D01*
X124700995Y-106872725D01*
X124649448Y-106896802D01*
X124607809Y-106915249D01*
X124579838Y-106926386D01*
X124570267Y-106928933D01*
X124551050Y-106933941D01*
X124546439Y-106938147D01*
X124551542Y-106948580D01*
X124567582Y-106974868D01*
X124592712Y-107014257D01*
X124625086Y-107063991D01*
X124662857Y-107121315D01*
X124704178Y-107183476D01*
X124747202Y-107247718D01*
X124790083Y-107311285D01*
X124830974Y-107371425D01*
X124868029Y-107425380D01*
X124899400Y-107470397D01*
X124923241Y-107503721D01*
X124937706Y-107522597D01*
X124939691Y-107524787D01*
X124949809Y-107520138D01*
X124972150Y-107502962D01*
X125002720Y-107476440D01*
X125018464Y-107461964D01*
X125114953Y-107386682D01*
X125221664Y-107331241D01*
X125337168Y-107296141D01*
X125460038Y-107281880D01*
X125529439Y-107283051D01*
X125650577Y-107300212D01*
X125759795Y-107336094D01*
X125857418Y-107390959D01*
X125943772Y-107465070D01*
X126019185Y-107558688D01*
X126083982Y-107672076D01*
X126121399Y-107758667D01*
X126165252Y-107894366D01*
X126197572Y-108041850D01*
X126218443Y-108197314D01*
X126227949Y-108356956D01*
X126226173Y-108516973D01*
X126213197Y-108673561D01*
X126189106Y-108822918D01*
X126153982Y-108961240D01*
X126107908Y-109084724D01*
X126091627Y-109118978D01*
X126023380Y-109233064D01*
X125942921Y-109329557D01*
X125851430Y-109407670D01*
X125750089Y-109466617D01*
X125640080Y-109505612D01*
X125522585Y-109523868D01*
X125481117Y-109525211D01*
X125359559Y-109514290D01*
X125239122Y-109481474D01*
X125121334Y-109427439D01*
X125007723Y-109352865D01*
X124916315Y-109274539D01*
X124869785Y-109230008D01*
X124688517Y-109527271D01*
X124643420Y-109601433D01*
X124602181Y-109669646D01*
X124566265Y-109729459D01*
X124537134Y-109778420D01*
X124516250Y-109814079D01*
X124505076Y-109833984D01*
X124503625Y-109837079D01*
X124511854Y-109846718D01*
X124537433Y-109863999D01*
X124577127Y-109887283D01*
X124627703Y-109914934D01*
X124685926Y-109945315D01*
X124748563Y-109976790D01*
X124812379Y-110007722D01*
X124874140Y-110036473D01*
X124930612Y-110061408D01*
X124978562Y-110080889D01*
X125002014Y-110089318D01*
X125135779Y-110127133D01*
X125273673Y-110152136D01*
X125421378Y-110165140D01*
X125548167Y-110167468D01*
X125616122Y-110166373D01*
X125681723Y-110164275D01*
X125739153Y-110161434D01*
X125782597Y-110158106D01*
X125796702Y-110156422D01*
X125935716Y-110127587D01*
X126077243Y-110082468D01*
X126214725Y-110023750D01*
X126341606Y-109954120D01*
X126419111Y-109901441D01*
X126546519Y-109793239D01*
X126664822Y-109666671D01*
X126771828Y-109524866D01*
X126865348Y-109370951D01*
X126943190Y-109208053D01*
X126987044Y-109090756D01*
X127037292Y-108907128D01*
X127070791Y-108712581D01*
X127087551Y-108511325D01*
X127087584Y-108307568D01*
X127070899Y-108105521D01*
X127037507Y-107909392D01*
X126987420Y-107723391D01*
X126983603Y-107711803D01*
X126920719Y-107549750D01*
X126843972Y-107401832D01*
X126750758Y-107263865D01*
X126638473Y-107131661D01*
X126594608Y-107086399D01*
X126458466Y-106962457D01*
X126318509Y-106859915D01*
X126172589Y-106777656D01*
X126018558Y-106714564D01*
X125854268Y-106669523D01*
X125758711Y-106652033D01*
X125599977Y-106636466D01*
X125441571Y-106639071D01*
X125441571Y-106639071D01*
G37*
X125441571Y-106639071D02*
X125281430Y-106660245D01*
X125117490Y-106700385D01*
X124947687Y-106759889D01*
X124769957Y-106839154D01*
X124758690Y-106844699D01*
X124700995Y-106872725D01*
X124649448Y-106896802D01*
X124607809Y-106915249D01*
X124579838Y-106926386D01*
X124570267Y-106928933D01*
X124551050Y-106933941D01*
X124546439Y-106938147D01*
X124551542Y-106948580D01*
X124567582Y-106974868D01*
X124592712Y-107014257D01*
X124625086Y-107063991D01*
X124662857Y-107121315D01*
X124704178Y-107183476D01*
X124747202Y-107247718D01*
X124790083Y-107311285D01*
X124830974Y-107371425D01*
X124868029Y-107425380D01*
X124899400Y-107470397D01*
X124923241Y-107503721D01*
X124937706Y-107522597D01*
X124939691Y-107524787D01*
X124949809Y-107520138D01*
X124972150Y-107502962D01*
X125002720Y-107476440D01*
X125018464Y-107461964D01*
X125114953Y-107386682D01*
X125221664Y-107331241D01*
X125337168Y-107296141D01*
X125460038Y-107281880D01*
X125529439Y-107283051D01*
X125650577Y-107300212D01*
X125759795Y-107336094D01*
X125857418Y-107390959D01*
X125943772Y-107465070D01*
X126019185Y-107558688D01*
X126083982Y-107672076D01*
X126121399Y-107758667D01*
X126165252Y-107894366D01*
X126197572Y-108041850D01*
X126218443Y-108197314D01*
X126227949Y-108356956D01*
X126226173Y-108516973D01*
X126213197Y-108673561D01*
X126189106Y-108822918D01*
X126153982Y-108961240D01*
X126107908Y-109084724D01*
X126091627Y-109118978D01*
X126023380Y-109233064D01*
X125942921Y-109329557D01*
X125851430Y-109407670D01*
X125750089Y-109466617D01*
X125640080Y-109505612D01*
X125522585Y-109523868D01*
X125481117Y-109525211D01*
X125359559Y-109514290D01*
X125239122Y-109481474D01*
X125121334Y-109427439D01*
X125007723Y-109352865D01*
X124916315Y-109274539D01*
X124869785Y-109230008D01*
X124688517Y-109527271D01*
X124643420Y-109601433D01*
X124602181Y-109669646D01*
X124566265Y-109729459D01*
X124537134Y-109778420D01*
X124516250Y-109814079D01*
X124505076Y-109833984D01*
X124503625Y-109837079D01*
X124511854Y-109846718D01*
X124537433Y-109863999D01*
X124577127Y-109887283D01*
X124627703Y-109914934D01*
X124685926Y-109945315D01*
X124748563Y-109976790D01*
X124812379Y-110007722D01*
X124874140Y-110036473D01*
X124930612Y-110061408D01*
X124978562Y-110080889D01*
X125002014Y-110089318D01*
X125135779Y-110127133D01*
X125273673Y-110152136D01*
X125421378Y-110165140D01*
X125548167Y-110167468D01*
X125616122Y-110166373D01*
X125681723Y-110164275D01*
X125739153Y-110161434D01*
X125782597Y-110158106D01*
X125796702Y-110156422D01*
X125935716Y-110127587D01*
X126077243Y-110082468D01*
X126214725Y-110023750D01*
X126341606Y-109954120D01*
X126419111Y-109901441D01*
X126546519Y-109793239D01*
X126664822Y-109666671D01*
X126771828Y-109524866D01*
X126865348Y-109370951D01*
X126943190Y-109208053D01*
X126987044Y-109090756D01*
X127037292Y-108907128D01*
X127070791Y-108712581D01*
X127087551Y-108511325D01*
X127087584Y-108307568D01*
X127070899Y-108105521D01*
X127037507Y-107909392D01*
X126987420Y-107723391D01*
X126983603Y-107711803D01*
X126920719Y-107549750D01*
X126843972Y-107401832D01*
X126750758Y-107263865D01*
X126638473Y-107131661D01*
X126594608Y-107086399D01*
X126458466Y-106962457D01*
X126318509Y-106859915D01*
X126172589Y-106777656D01*
X126018558Y-106714564D01*
X125854268Y-106669523D01*
X125758711Y-106652033D01*
X125599977Y-106636466D01*
X125441571Y-106639071D01*
G36*
X123096426Y-107556552D02*
X122944508Y-107576567D01*
X122809244Y-107610202D01*
X122689761Y-107657725D01*
X122585185Y-107719405D01*
X122507576Y-107782965D01*
X122438735Y-107857099D01*
X122384994Y-107936871D01*
X122342090Y-108029091D01*
X122326616Y-108072161D01*
X122313756Y-108111142D01*
X122302554Y-108147289D01*
X122292880Y-108182434D01*
X122284604Y-108218410D01*
X122277597Y-108257050D01*
X122271728Y-108300185D01*
X122266869Y-108349649D01*
X122262890Y-108407273D01*
X122259660Y-108474891D01*
X122257051Y-108554334D01*
X122254933Y-108647436D01*
X122253176Y-108756027D01*
X122251651Y-108881942D01*
X122250228Y-109027012D01*
X122248975Y-109169778D01*
X122247649Y-109325968D01*
X122246444Y-109461239D01*
X122245234Y-109577246D01*
X122243894Y-109675645D01*
X122242300Y-109758093D01*
X122240325Y-109826246D01*
X122237844Y-109881760D01*
X122234731Y-109926292D01*
X122230862Y-109961498D01*
X122226111Y-109989034D01*
X122220352Y-110010556D01*
X122213461Y-110027722D01*
X122205311Y-110042186D01*
X122195777Y-110055606D01*
X122184734Y-110069638D01*
X122180434Y-110075071D01*
X122164614Y-110097910D01*
X122157578Y-110113463D01*
X122157556Y-110113922D01*
X122168433Y-110116121D01*
X122199418Y-110118147D01*
X122248043Y-110119942D01*
X122311837Y-110121451D01*
X122388331Y-110122616D01*
X122475056Y-110123380D01*
X122569543Y-110123686D01*
X122580450Y-110123689D01*
X123003343Y-110123689D01*
X123006605Y-110027622D01*
X123009867Y-109931556D01*
X123071956Y-109982543D01*
X123169286Y-110050057D01*
X123279187Y-110104749D01*
X123365651Y-110134978D01*
X123434722Y-110149666D01*
X123518075Y-110159659D01*
X123607841Y-110164646D01*
X123696155Y-110164313D01*
X123775149Y-110158351D01*
X123811378Y-110152638D01*
X123951397Y-110114776D01*
X124077822Y-110059932D01*
X124189740Y-109988924D01*
X124286238Y-109902568D01*
X124366400Y-109801679D01*
X124429313Y-109687076D01*
X124473688Y-109560984D01*
X124486022Y-109504401D01*
X124493632Y-109442202D01*
X124497261Y-109367363D01*
X124497755Y-109333467D01*
X124497690Y-109330282D01*
X123737752Y-109330282D01*
X123728459Y-109405333D01*
X123700272Y-109469160D01*
X123651803Y-109524798D01*
X123646746Y-109529211D01*
X123598452Y-109564037D01*
X123546743Y-109586620D01*
X123486011Y-109598540D01*
X123410648Y-109601383D01*
X123392541Y-109600978D01*
X123338722Y-109598325D01*
X123298692Y-109592909D01*
X123263676Y-109582745D01*
X123224897Y-109565850D01*
X123214255Y-109560672D01*
X123153604Y-109524844D01*
X123106785Y-109482212D01*
X123094048Y-109466973D01*
X123049378Y-109410462D01*
X123049378Y-109214586D01*
X123049914Y-109135939D01*
X123051604Y-109077988D01*
X123054572Y-109038875D01*
X123058943Y-109016741D01*
X123063028Y-109010274D01*
X123078953Y-109007111D01*
X123112736Y-109004488D01*
X123159660Y-109002655D01*
X123215007Y-109001857D01*
X123223894Y-109001842D01*
X123344670Y-109007096D01*
X123447340Y-109023263D01*
X123533894Y-109050961D01*
X123606319Y-109090808D01*
X123661249Y-109137758D01*
X123705796Y-109195645D01*
X123730520Y-109258693D01*
X123737752Y-109330282D01*
X124497690Y-109330282D01*
X124495822Y-109239712D01*
X124487478Y-109160812D01*
X124471232Y-109089590D01*
X124445595Y-109018864D01*
X124421599Y-108966493D01*
X124362980Y-108871196D01*
X124284883Y-108783170D01*
X124189685Y-108704017D01*
X124079762Y-108635340D01*
X123957490Y-108578741D01*
X123825245Y-108535821D01*
X123760578Y-108520882D01*
X123624396Y-108498777D01*
X123475951Y-108484194D01*
X123324495Y-108477813D01*
X123197936Y-108479445D01*
X123036050Y-108486224D01*
X123043470Y-108427245D01*
X123062762Y-108328092D01*
X123093896Y-108247372D01*
X123137731Y-108184466D01*
X123195129Y-108138756D01*
X123266952Y-108109622D01*
X123354059Y-108096447D01*
X123457314Y-108098611D01*
X123495289Y-108102612D01*
X123636480Y-108127780D01*
X123773293Y-108168814D01*
X123867822Y-108206815D01*
X123912982Y-108226190D01*
X123951415Y-108241760D01*
X123977766Y-108251405D01*
X123985454Y-108253452D01*
X123995198Y-108244374D01*
X124011917Y-108215405D01*
X124035768Y-108166217D01*
X124066907Y-108096484D01*
X124105493Y-108005879D01*
X124112090Y-107990089D01*
X124142147Y-107917772D01*
X124169126Y-107852425D01*
X124191864Y-107796906D01*
X124209194Y-107754072D01*
X124219952Y-107726781D01*
X124223059Y-107717942D01*
X124213060Y-107713187D01*
X124186783Y-107707910D01*
X124158511Y-107704231D01*
X124128354Y-107699474D01*
X124080567Y-107690028D01*
X124019388Y-107676820D01*
X123949054Y-107660776D01*
X123873806Y-107642820D01*
X123845245Y-107635797D01*
X123740184Y-107610209D01*
X123652520Y-107590147D01*
X123577932Y-107574969D01*
X123512097Y-107564035D01*
X123450693Y-107556704D01*
X123389398Y-107552335D01*
X123323890Y-107550287D01*
X123265872Y-107549889D01*
X123096426Y-107556552D01*
X123096426Y-107556552D01*
G37*
X123096426Y-107556552D02*
X122944508Y-107576567D01*
X122809244Y-107610202D01*
X122689761Y-107657725D01*
X122585185Y-107719405D01*
X122507576Y-107782965D01*
X122438735Y-107857099D01*
X122384994Y-107936871D01*
X122342090Y-108029091D01*
X122326616Y-108072161D01*
X122313756Y-108111142D01*
X122302554Y-108147289D01*
X122292880Y-108182434D01*
X122284604Y-108218410D01*
X122277597Y-108257050D01*
X122271728Y-108300185D01*
X122266869Y-108349649D01*
X122262890Y-108407273D01*
X122259660Y-108474891D01*
X122257051Y-108554334D01*
X122254933Y-108647436D01*
X122253176Y-108756027D01*
X122251651Y-108881942D01*
X122250228Y-109027012D01*
X122248975Y-109169778D01*
X122247649Y-109325968D01*
X122246444Y-109461239D01*
X122245234Y-109577246D01*
X122243894Y-109675645D01*
X122242300Y-109758093D01*
X122240325Y-109826246D01*
X122237844Y-109881760D01*
X122234731Y-109926292D01*
X122230862Y-109961498D01*
X122226111Y-109989034D01*
X122220352Y-110010556D01*
X122213461Y-110027722D01*
X122205311Y-110042186D01*
X122195777Y-110055606D01*
X122184734Y-110069638D01*
X122180434Y-110075071D01*
X122164614Y-110097910D01*
X122157578Y-110113463D01*
X122157556Y-110113922D01*
X122168433Y-110116121D01*
X122199418Y-110118147D01*
X122248043Y-110119942D01*
X122311837Y-110121451D01*
X122388331Y-110122616D01*
X122475056Y-110123380D01*
X122569543Y-110123686D01*
X122580450Y-110123689D01*
X123003343Y-110123689D01*
X123006605Y-110027622D01*
X123009867Y-109931556D01*
X123071956Y-109982543D01*
X123169286Y-110050057D01*
X123279187Y-110104749D01*
X123365651Y-110134978D01*
X123434722Y-110149666D01*
X123518075Y-110159659D01*
X123607841Y-110164646D01*
X123696155Y-110164313D01*
X123775149Y-110158351D01*
X123811378Y-110152638D01*
X123951397Y-110114776D01*
X124077822Y-110059932D01*
X124189740Y-109988924D01*
X124286238Y-109902568D01*
X124366400Y-109801679D01*
X124429313Y-109687076D01*
X124473688Y-109560984D01*
X124486022Y-109504401D01*
X124493632Y-109442202D01*
X124497261Y-109367363D01*
X124497755Y-109333467D01*
X124497690Y-109330282D01*
X123737752Y-109330282D01*
X123728459Y-109405333D01*
X123700272Y-109469160D01*
X123651803Y-109524798D01*
X123646746Y-109529211D01*
X123598452Y-109564037D01*
X123546743Y-109586620D01*
X123486011Y-109598540D01*
X123410648Y-109601383D01*
X123392541Y-109600978D01*
X123338722Y-109598325D01*
X123298692Y-109592909D01*
X123263676Y-109582745D01*
X123224897Y-109565850D01*
X123214255Y-109560672D01*
X123153604Y-109524844D01*
X123106785Y-109482212D01*
X123094048Y-109466973D01*
X123049378Y-109410462D01*
X123049378Y-109214586D01*
X123049914Y-109135939D01*
X123051604Y-109077988D01*
X123054572Y-109038875D01*
X123058943Y-109016741D01*
X123063028Y-109010274D01*
X123078953Y-109007111D01*
X123112736Y-109004488D01*
X123159660Y-109002655D01*
X123215007Y-109001857D01*
X123223894Y-109001842D01*
X123344670Y-109007096D01*
X123447340Y-109023263D01*
X123533894Y-109050961D01*
X123606319Y-109090808D01*
X123661249Y-109137758D01*
X123705796Y-109195645D01*
X123730520Y-109258693D01*
X123737752Y-109330282D01*
X124497690Y-109330282D01*
X124495822Y-109239712D01*
X124487478Y-109160812D01*
X124471232Y-109089590D01*
X124445595Y-109018864D01*
X124421599Y-108966493D01*
X124362980Y-108871196D01*
X124284883Y-108783170D01*
X124189685Y-108704017D01*
X124079762Y-108635340D01*
X123957490Y-108578741D01*
X123825245Y-108535821D01*
X123760578Y-108520882D01*
X123624396Y-108498777D01*
X123475951Y-108484194D01*
X123324495Y-108477813D01*
X123197936Y-108479445D01*
X123036050Y-108486224D01*
X123043470Y-108427245D01*
X123062762Y-108328092D01*
X123093896Y-108247372D01*
X123137731Y-108184466D01*
X123195129Y-108138756D01*
X123266952Y-108109622D01*
X123354059Y-108096447D01*
X123457314Y-108098611D01*
X123495289Y-108102612D01*
X123636480Y-108127780D01*
X123773293Y-108168814D01*
X123867822Y-108206815D01*
X123912982Y-108226190D01*
X123951415Y-108241760D01*
X123977766Y-108251405D01*
X123985454Y-108253452D01*
X123995198Y-108244374D01*
X124011917Y-108215405D01*
X124035768Y-108166217D01*
X124066907Y-108096484D01*
X124105493Y-108005879D01*
X124112090Y-107990089D01*
X124142147Y-107917772D01*
X124169126Y-107852425D01*
X124191864Y-107796906D01*
X124209194Y-107754072D01*
X124219952Y-107726781D01*
X124223059Y-107717942D01*
X124213060Y-107713187D01*
X124186783Y-107707910D01*
X124158511Y-107704231D01*
X124128354Y-107699474D01*
X124080567Y-107690028D01*
X124019388Y-107676820D01*
X123949054Y-107660776D01*
X123873806Y-107642820D01*
X123845245Y-107635797D01*
X123740184Y-107610209D01*
X123652520Y-107590147D01*
X123577932Y-107574969D01*
X123512097Y-107564035D01*
X123450693Y-107556704D01*
X123389398Y-107552335D01*
X123323890Y-107550287D01*
X123265872Y-107549889D01*
X123096426Y-107556552D01*
G36*
X119583493Y-108162245D02*
X119583474Y-108396662D01*
X119583448Y-108609603D01*
X119583375Y-108802168D01*
X119583218Y-108975459D01*
X119582936Y-109130576D01*
X119582491Y-109268620D01*
X119581844Y-109390692D01*
X119580955Y-109497894D01*
X119579787Y-109591326D01*
X119578299Y-109672090D01*
X119576454Y-109741286D01*
X119574211Y-109800015D01*
X119571531Y-109849379D01*
X119568377Y-109890478D01*
X119564708Y-109924413D01*
X119560487Y-109952286D01*
X119555673Y-109975198D01*
X119550227Y-109994249D01*
X119544112Y-110010540D01*
X119537288Y-110025173D01*
X119529715Y-110039249D01*
X119521355Y-110053868D01*
X119516161Y-110062974D01*
X119481896Y-110123689D01*
X120340045Y-110123689D01*
X120340045Y-110027733D01*
X120340776Y-109984370D01*
X120342728Y-109951205D01*
X120345537Y-109933424D01*
X120346779Y-109931778D01*
X120358201Y-109938662D01*
X120380916Y-109956505D01*
X120403615Y-109975879D01*
X120458200Y-110016614D01*
X120527679Y-110057617D01*
X120604730Y-110095123D01*
X120682035Y-110125364D01*
X120712887Y-110135012D01*
X120781384Y-110149578D01*
X120864236Y-110159539D01*
X120953629Y-110164583D01*
X121041752Y-110164396D01*
X121120793Y-110158666D01*
X121158489Y-110152858D01*
X121296586Y-110114797D01*
X121423887Y-110057073D01*
X121539708Y-109980211D01*
X121643363Y-109884739D01*
X121734167Y-109771179D01*
X121800969Y-109660381D01*
X121855836Y-109543625D01*
X121897837Y-109424276D01*
X121927833Y-109298283D01*
X121946689Y-109161594D01*
X121955268Y-109010158D01*
X121955994Y-108932711D01*
X121953900Y-108875934D01*
X121124783Y-108875934D01*
X121124576Y-108969002D01*
X121121663Y-109056692D01*
X121116000Y-109133772D01*
X121107545Y-109195009D01*
X121104962Y-109207350D01*
X121073160Y-109314633D01*
X121031502Y-109401658D01*
X120979637Y-109468642D01*
X120917219Y-109515805D01*
X120843900Y-109543365D01*
X120759331Y-109551541D01*
X120663165Y-109540551D01*
X120599689Y-109524829D01*
X120550546Y-109506639D01*
X120496417Y-109480791D01*
X120455756Y-109457089D01*
X120385200Y-109410721D01*
X120385200Y-108260530D01*
X120452608Y-108216962D01*
X120531133Y-108176040D01*
X120615319Y-108149389D01*
X120700443Y-108137465D01*
X120781784Y-108140722D01*
X120854620Y-108159615D01*
X120886574Y-108175184D01*
X120944499Y-108218181D01*
X120993456Y-108274953D01*
X121034610Y-108347575D01*
X121069126Y-108438121D01*
X121098167Y-108548666D01*
X121099448Y-108554533D01*
X121109619Y-108616788D01*
X121117261Y-108694594D01*
X121122330Y-108782720D01*
X121124783Y-108875934D01*
X121953900Y-108875934D01*
X121948143Y-108719895D01*
X121926198Y-108524059D01*
X121890214Y-108345332D01*
X121840241Y-108183845D01*
X121776332Y-108039726D01*
X121698538Y-107913106D01*
X121606911Y-107804115D01*
X121501503Y-107712883D01*
X121456338Y-107681932D01*
X121355389Y-107625785D01*
X121252099Y-107586174D01*
X121142011Y-107562014D01*
X121020670Y-107552219D01*
X120928164Y-107553265D01*
X120798510Y-107564231D01*
X120685916Y-107586046D01*
X120587125Y-107619714D01*
X120498879Y-107666236D01*
X120450014Y-107700448D01*
X120420647Y-107722362D01*
X120398957Y-107737333D01*
X120390747Y-107741733D01*
X120389132Y-107730904D01*
X120387841Y-107700251D01*
X120386862Y-107652526D01*
X120386183Y-107590479D01*
X120385790Y-107516862D01*
X120385670Y-107434427D01*
X120385812Y-107345925D01*
X120386203Y-107254107D01*
X120386829Y-107161724D01*
X120387680Y-107071528D01*
X120388740Y-106986271D01*
X120389999Y-106908703D01*
X120391444Y-106841576D01*
X120393062Y-106787641D01*
X120394839Y-106749650D01*
X120395331Y-106742667D01*
X120402908Y-106672251D01*
X120414469Y-106617102D01*
X120432208Y-106569981D01*
X120458318Y-106523647D01*
X120464585Y-106514067D01*
X120489017Y-106477378D01*
X119583689Y-106477378D01*
X119583493Y-108162245D01*
X119583493Y-108162245D01*
G37*
X119583493Y-108162245D02*
X119583474Y-108396662D01*
X119583448Y-108609603D01*
X119583375Y-108802168D01*
X119583218Y-108975459D01*
X119582936Y-109130576D01*
X119582491Y-109268620D01*
X119581844Y-109390692D01*
X119580955Y-109497894D01*
X119579787Y-109591326D01*
X119578299Y-109672090D01*
X119576454Y-109741286D01*
X119574211Y-109800015D01*
X119571531Y-109849379D01*
X119568377Y-109890478D01*
X119564708Y-109924413D01*
X119560487Y-109952286D01*
X119555673Y-109975198D01*
X119550227Y-109994249D01*
X119544112Y-110010540D01*
X119537288Y-110025173D01*
X119529715Y-110039249D01*
X119521355Y-110053868D01*
X119516161Y-110062974D01*
X119481896Y-110123689D01*
X120340045Y-110123689D01*
X120340045Y-110027733D01*
X120340776Y-109984370D01*
X120342728Y-109951205D01*
X120345537Y-109933424D01*
X120346779Y-109931778D01*
X120358201Y-109938662D01*
X120380916Y-109956505D01*
X120403615Y-109975879D01*
X120458200Y-110016614D01*
X120527679Y-110057617D01*
X120604730Y-110095123D01*
X120682035Y-110125364D01*
X120712887Y-110135012D01*
X120781384Y-110149578D01*
X120864236Y-110159539D01*
X120953629Y-110164583D01*
X121041752Y-110164396D01*
X121120793Y-110158666D01*
X121158489Y-110152858D01*
X121296586Y-110114797D01*
X121423887Y-110057073D01*
X121539708Y-109980211D01*
X121643363Y-109884739D01*
X121734167Y-109771179D01*
X121800969Y-109660381D01*
X121855836Y-109543625D01*
X121897837Y-109424276D01*
X121927833Y-109298283D01*
X121946689Y-109161594D01*
X121955268Y-109010158D01*
X121955994Y-108932711D01*
X121953900Y-108875934D01*
X121124783Y-108875934D01*
X121124576Y-108969002D01*
X121121663Y-109056692D01*
X121116000Y-109133772D01*
X121107545Y-109195009D01*
X121104962Y-109207350D01*
X121073160Y-109314633D01*
X121031502Y-109401658D01*
X120979637Y-109468642D01*
X120917219Y-109515805D01*
X120843900Y-109543365D01*
X120759331Y-109551541D01*
X120663165Y-109540551D01*
X120599689Y-109524829D01*
X120550546Y-109506639D01*
X120496417Y-109480791D01*
X120455756Y-109457089D01*
X120385200Y-109410721D01*
X120385200Y-108260530D01*
X120452608Y-108216962D01*
X120531133Y-108176040D01*
X120615319Y-108149389D01*
X120700443Y-108137465D01*
X120781784Y-108140722D01*
X120854620Y-108159615D01*
X120886574Y-108175184D01*
X120944499Y-108218181D01*
X120993456Y-108274953D01*
X121034610Y-108347575D01*
X121069126Y-108438121D01*
X121098167Y-108548666D01*
X121099448Y-108554533D01*
X121109619Y-108616788D01*
X121117261Y-108694594D01*
X121122330Y-108782720D01*
X121124783Y-108875934D01*
X121953900Y-108875934D01*
X121948143Y-108719895D01*
X121926198Y-108524059D01*
X121890214Y-108345332D01*
X121840241Y-108183845D01*
X121776332Y-108039726D01*
X121698538Y-107913106D01*
X121606911Y-107804115D01*
X121501503Y-107712883D01*
X121456338Y-107681932D01*
X121355389Y-107625785D01*
X121252099Y-107586174D01*
X121142011Y-107562014D01*
X121020670Y-107552219D01*
X120928164Y-107553265D01*
X120798510Y-107564231D01*
X120685916Y-107586046D01*
X120587125Y-107619714D01*
X120498879Y-107666236D01*
X120450014Y-107700448D01*
X120420647Y-107722362D01*
X120398957Y-107737333D01*
X120390747Y-107741733D01*
X120389132Y-107730904D01*
X120387841Y-107700251D01*
X120386862Y-107652526D01*
X120386183Y-107590479D01*
X120385790Y-107516862D01*
X120385670Y-107434427D01*
X120385812Y-107345925D01*
X120386203Y-107254107D01*
X120386829Y-107161724D01*
X120387680Y-107071528D01*
X120388740Y-106986271D01*
X120389999Y-106908703D01*
X120391444Y-106841576D01*
X120393062Y-106787641D01*
X120394839Y-106749650D01*
X120395331Y-106742667D01*
X120402908Y-106672251D01*
X120414469Y-106617102D01*
X120432208Y-106569981D01*
X120458318Y-106523647D01*
X120464585Y-106514067D01*
X120489017Y-106477378D01*
X119583689Y-106477378D01*
X119583493Y-108162245D01*
G36*
X128043043Y-105716571D02*
X127946768Y-105740809D01*
X127860184Y-105783641D01*
X127785373Y-105843419D01*
X127724418Y-105918494D01*
X127679399Y-106007220D01*
X127653136Y-106103530D01*
X127647286Y-106200795D01*
X127662140Y-106294654D01*
X127695840Y-106382511D01*
X127746528Y-106461770D01*
X127812345Y-106529836D01*
X127891434Y-106584112D01*
X127981934Y-106622002D01*
X128033200Y-106634426D01*
X128077698Y-106641947D01*
X128111999Y-106644919D01*
X128144960Y-106643094D01*
X128185434Y-106636225D01*
X128218531Y-106629250D01*
X128311947Y-106597741D01*
X128395619Y-106546617D01*
X128467665Y-106477429D01*
X128526200Y-106391728D01*
X128540148Y-106364489D01*
X128556586Y-106328122D01*
X128566894Y-106297582D01*
X128572460Y-106265450D01*
X128574669Y-106224307D01*
X128574948Y-106178222D01*
X128570861Y-106093865D01*
X128557446Y-106024586D01*
X128532256Y-105963961D01*
X128492846Y-105905567D01*
X128454298Y-105861302D01*
X128382406Y-105795484D01*
X128307313Y-105750053D01*
X128224562Y-105722850D01*
X128146928Y-105712576D01*
X128043043Y-105716571D01*
X128043043Y-105716571D01*
G37*
X128043043Y-105716571D02*
X127946768Y-105740809D01*
X127860184Y-105783641D01*
X127785373Y-105843419D01*
X127724418Y-105918494D01*
X127679399Y-106007220D01*
X127653136Y-106103530D01*
X127647286Y-106200795D01*
X127662140Y-106294654D01*
X127695840Y-106382511D01*
X127746528Y-106461770D01*
X127812345Y-106529836D01*
X127891434Y-106584112D01*
X127981934Y-106622002D01*
X128033200Y-106634426D01*
X128077698Y-106641947D01*
X128111999Y-106644919D01*
X128144960Y-106643094D01*
X128185434Y-106636225D01*
X128218531Y-106629250D01*
X128311947Y-106597741D01*
X128395619Y-106546617D01*
X128467665Y-106477429D01*
X128526200Y-106391728D01*
X128540148Y-106364489D01*
X128556586Y-106328122D01*
X128566894Y-106297582D01*
X128572460Y-106265450D01*
X128574669Y-106224307D01*
X128574948Y-106178222D01*
X128570861Y-106093865D01*
X128557446Y-106024586D01*
X128532256Y-105963961D01*
X128492846Y-105905567D01*
X128454298Y-105861302D01*
X128382406Y-105795484D01*
X128307313Y-105750053D01*
X128224562Y-105722850D01*
X128146928Y-105712576D01*
X128043043Y-105716571D01*
G36*
X159666256Y-82669918D02*
X159610799Y-82697568D01*
X159561852Y-82748480D01*
X159548371Y-82767338D01*
X159533686Y-82792015D01*
X159524158Y-82818816D01*
X159518707Y-82854587D01*
X159516253Y-82906169D01*
X159515714Y-82974267D01*
X159518148Y-83067588D01*
X159526606Y-83137657D01*
X159542826Y-83189931D01*
X159568546Y-83229869D01*
X159605503Y-83262929D01*
X159608218Y-83264886D01*
X159644640Y-83284908D01*
X159688498Y-83294815D01*
X159744276Y-83297257D01*
X159834952Y-83297257D01*
X159834990Y-83385283D01*
X159835834Y-83434308D01*
X159840976Y-83463065D01*
X159854413Y-83480311D01*
X159880142Y-83494808D01*
X159886321Y-83497769D01*
X159915236Y-83511648D01*
X159937624Y-83520414D01*
X159954271Y-83521171D01*
X159965964Y-83511023D01*
X159973490Y-83487073D01*
X159977634Y-83446426D01*
X159979185Y-83386186D01*
X159978929Y-83303455D01*
X159977651Y-83195339D01*
X159977252Y-83163000D01*
X159975815Y-83051524D01*
X159974528Y-82978603D01*
X159835029Y-82978603D01*
X159834245Y-83040499D01*
X159830760Y-83080997D01*
X159822876Y-83107708D01*
X159808895Y-83128244D01*
X159799403Y-83138260D01*
X159760596Y-83167567D01*
X159726237Y-83169952D01*
X159690784Y-83145750D01*
X159689886Y-83144857D01*
X159675461Y-83126153D01*
X159666687Y-83100732D01*
X159662261Y-83061584D01*
X159660882Y-83001697D01*
X159660857Y-82988430D01*
X159664188Y-82905901D01*
X159675031Y-82848691D01*
X159694660Y-82813766D01*
X159724350Y-82798094D01*
X159741509Y-82796514D01*
X159782234Y-82803926D01*
X159810168Y-82828330D01*
X159826983Y-82872980D01*
X159834350Y-82941130D01*
X159835029Y-82978603D01*
X159974528Y-82978603D01*
X159974292Y-82965245D01*
X159972323Y-82900333D01*
X159969550Y-82852958D01*
X159965612Y-82819290D01*
X159960151Y-82795498D01*
X159952808Y-82777753D01*
X159943223Y-82762224D01*
X159939113Y-82756381D01*
X159884595Y-82701185D01*
X159815664Y-82669890D01*
X159735928Y-82661165D01*
X159666256Y-82669918D01*
X159666256Y-82669918D01*
G37*
X159666256Y-82669918D02*
X159610799Y-82697568D01*
X159561852Y-82748480D01*
X159548371Y-82767338D01*
X159533686Y-82792015D01*
X159524158Y-82818816D01*
X159518707Y-82854587D01*
X159516253Y-82906169D01*
X159515714Y-82974267D01*
X159518148Y-83067588D01*
X159526606Y-83137657D01*
X159542826Y-83189931D01*
X159568546Y-83229869D01*
X159605503Y-83262929D01*
X159608218Y-83264886D01*
X159644640Y-83284908D01*
X159688498Y-83294815D01*
X159744276Y-83297257D01*
X159834952Y-83297257D01*
X159834990Y-83385283D01*
X159835834Y-83434308D01*
X159840976Y-83463065D01*
X159854413Y-83480311D01*
X159880142Y-83494808D01*
X159886321Y-83497769D01*
X159915236Y-83511648D01*
X159937624Y-83520414D01*
X159954271Y-83521171D01*
X159965964Y-83511023D01*
X159973490Y-83487073D01*
X159977634Y-83446426D01*
X159979185Y-83386186D01*
X159978929Y-83303455D01*
X159977651Y-83195339D01*
X159977252Y-83163000D01*
X159975815Y-83051524D01*
X159974528Y-82978603D01*
X159835029Y-82978603D01*
X159834245Y-83040499D01*
X159830760Y-83080997D01*
X159822876Y-83107708D01*
X159808895Y-83128244D01*
X159799403Y-83138260D01*
X159760596Y-83167567D01*
X159726237Y-83169952D01*
X159690784Y-83145750D01*
X159689886Y-83144857D01*
X159675461Y-83126153D01*
X159666687Y-83100732D01*
X159662261Y-83061584D01*
X159660882Y-83001697D01*
X159660857Y-82988430D01*
X159664188Y-82905901D01*
X159675031Y-82848691D01*
X159694660Y-82813766D01*
X159724350Y-82798094D01*
X159741509Y-82796514D01*
X159782234Y-82803926D01*
X159810168Y-82828330D01*
X159826983Y-82872980D01*
X159834350Y-82941130D01*
X159835029Y-82978603D01*
X159974528Y-82978603D01*
X159974292Y-82965245D01*
X159972323Y-82900333D01*
X159969550Y-82852958D01*
X159965612Y-82819290D01*
X159960151Y-82795498D01*
X159952808Y-82777753D01*
X159943223Y-82762224D01*
X159939113Y-82756381D01*
X159884595Y-82701185D01*
X159815664Y-82669890D01*
X159735928Y-82661165D01*
X159666256Y-82669918D01*
G36*
X158549907Y-82677780D02*
X158503328Y-82704723D01*
X158470943Y-82731466D01*
X158447258Y-82759484D01*
X158430941Y-82793748D01*
X158420661Y-82839227D01*
X158415086Y-82900892D01*
X158412884Y-82983711D01*
X158412629Y-83043246D01*
X158412629Y-83262391D01*
X158474314Y-83290044D01*
X158536000Y-83317697D01*
X158543257Y-83077670D01*
X158546256Y-82988028D01*
X158549402Y-82922962D01*
X158553299Y-82878026D01*
X158558553Y-82848770D01*
X158565769Y-82830748D01*
X158575550Y-82819511D01*
X158578688Y-82817079D01*
X158626239Y-82798083D01*
X158674303Y-82805600D01*
X158702914Y-82825543D01*
X158714553Y-82839675D01*
X158722609Y-82858220D01*
X158727729Y-82886334D01*
X158730559Y-82929173D01*
X158731744Y-82991895D01*
X158731943Y-83057261D01*
X158731982Y-83139268D01*
X158733386Y-83197316D01*
X158738086Y-83236465D01*
X158748013Y-83261780D01*
X158765097Y-83278323D01*
X158791268Y-83291156D01*
X158826225Y-83304491D01*
X158864404Y-83319007D01*
X158859859Y-83061389D01*
X158858029Y-82968519D01*
X158855888Y-82899889D01*
X158852819Y-82850711D01*
X158848206Y-82816198D01*
X158841432Y-82791562D01*
X158831881Y-82772016D01*
X158820366Y-82754770D01*
X158764810Y-82699680D01*
X158697020Y-82667822D01*
X158623287Y-82660191D01*
X158549907Y-82677780D01*
X158549907Y-82677780D01*
G37*
X158549907Y-82677780D02*
X158503328Y-82704723D01*
X158470943Y-82731466D01*
X158447258Y-82759484D01*
X158430941Y-82793748D01*
X158420661Y-82839227D01*
X158415086Y-82900892D01*
X158412884Y-82983711D01*
X158412629Y-83043246D01*
X158412629Y-83262391D01*
X158474314Y-83290044D01*
X158536000Y-83317697D01*
X158543257Y-83077670D01*
X158546256Y-82988028D01*
X158549402Y-82922962D01*
X158553299Y-82878026D01*
X158558553Y-82848770D01*
X158565769Y-82830748D01*
X158575550Y-82819511D01*
X158578688Y-82817079D01*
X158626239Y-82798083D01*
X158674303Y-82805600D01*
X158702914Y-82825543D01*
X158714553Y-82839675D01*
X158722609Y-82858220D01*
X158727729Y-82886334D01*
X158730559Y-82929173D01*
X158731744Y-82991895D01*
X158731943Y-83057261D01*
X158731982Y-83139268D01*
X158733386Y-83197316D01*
X158738086Y-83236465D01*
X158748013Y-83261780D01*
X158765097Y-83278323D01*
X158791268Y-83291156D01*
X158826225Y-83304491D01*
X158864404Y-83319007D01*
X158859859Y-83061389D01*
X158858029Y-82968519D01*
X158855888Y-82899889D01*
X158852819Y-82850711D01*
X158848206Y-82816198D01*
X158841432Y-82791562D01*
X158831881Y-82772016D01*
X158820366Y-82754770D01*
X158764810Y-82699680D01*
X158697020Y-82667822D01*
X158623287Y-82660191D01*
X158549907Y-82677780D01*
G36*
X160224885Y-82671962D02*
X160156855Y-82707733D01*
X160106649Y-82765301D01*
X160088815Y-82802312D01*
X160074937Y-82857882D01*
X160067833Y-82928096D01*
X160067160Y-83004727D01*
X160072573Y-83079552D01*
X160083730Y-83144342D01*
X160100286Y-83190873D01*
X160105374Y-83198887D01*
X160165645Y-83258707D01*
X160237231Y-83294535D01*
X160314908Y-83305020D01*
X160393452Y-83288810D01*
X160415311Y-83279092D01*
X160457878Y-83249143D01*
X160495237Y-83209433D01*
X160498768Y-83204397D01*
X160513119Y-83180124D01*
X160522606Y-83154178D01*
X160528210Y-83120022D01*
X160530914Y-83071119D01*
X160531701Y-83000935D01*
X160531714Y-82985200D01*
X160531678Y-82980192D01*
X160386571Y-82980192D01*
X160385727Y-83046430D01*
X160382404Y-83090386D01*
X160375417Y-83118779D01*
X160363584Y-83138325D01*
X160357543Y-83144857D01*
X160322814Y-83169680D01*
X160289097Y-83168548D01*
X160255005Y-83147016D01*
X160234671Y-83124029D01*
X160222629Y-83090478D01*
X160215866Y-83037569D01*
X160215402Y-83031399D01*
X160214248Y-82935513D01*
X160226312Y-82864299D01*
X160251430Y-82818194D01*
X160289440Y-82797635D01*
X160303008Y-82796514D01*
X160338636Y-82802152D01*
X160363006Y-82821686D01*
X160377907Y-82859042D01*
X160385125Y-82918150D01*
X160386571Y-82980192D01*
X160531678Y-82980192D01*
X160531174Y-82910413D01*
X160528904Y-82858159D01*
X160523932Y-82821949D01*
X160515287Y-82795299D01*
X160501995Y-82771722D01*
X160499057Y-82767338D01*
X160449687Y-82708249D01*
X160395891Y-82673947D01*
X160330398Y-82660331D01*
X160308158Y-82659665D01*
X160224885Y-82671962D01*
X160224885Y-82671962D01*
G37*
X160224885Y-82671962D02*
X160156855Y-82707733D01*
X160106649Y-82765301D01*
X160088815Y-82802312D01*
X160074937Y-82857882D01*
X160067833Y-82928096D01*
X160067160Y-83004727D01*
X160072573Y-83079552D01*
X160083730Y-83144342D01*
X160100286Y-83190873D01*
X160105374Y-83198887D01*
X160165645Y-83258707D01*
X160237231Y-83294535D01*
X160314908Y-83305020D01*
X160393452Y-83288810D01*
X160415311Y-83279092D01*
X160457878Y-83249143D01*
X160495237Y-83209433D01*
X160498768Y-83204397D01*
X160513119Y-83180124D01*
X160522606Y-83154178D01*
X160528210Y-83120022D01*
X160530914Y-83071119D01*
X160531701Y-83000935D01*
X160531714Y-82985200D01*
X160531678Y-82980192D01*
X160386571Y-82980192D01*
X160385727Y-83046430D01*
X160382404Y-83090386D01*
X160375417Y-83118779D01*
X160363584Y-83138325D01*
X160357543Y-83144857D01*
X160322814Y-83169680D01*
X160289097Y-83168548D01*
X160255005Y-83147016D01*
X160234671Y-83124029D01*
X160222629Y-83090478D01*
X160215866Y-83037569D01*
X160215402Y-83031399D01*
X160214248Y-82935513D01*
X160226312Y-82864299D01*
X160251430Y-82818194D01*
X160289440Y-82797635D01*
X160303008Y-82796514D01*
X160338636Y-82802152D01*
X160363006Y-82821686D01*
X160377907Y-82859042D01*
X160385125Y-82918150D01*
X160386571Y-82980192D01*
X160531678Y-82980192D01*
X160531174Y-82910413D01*
X160528904Y-82858159D01*
X160523932Y-82821949D01*
X160515287Y-82795299D01*
X160501995Y-82771722D01*
X160499057Y-82767338D01*
X160449687Y-82708249D01*
X160395891Y-82673947D01*
X160330398Y-82660331D01*
X160308158Y-82659665D01*
X160224885Y-82671962D01*
G36*
X159097697Y-82681239D02*
X159040473Y-82719735D01*
X158996251Y-82775335D01*
X158969833Y-82846086D01*
X158964490Y-82898162D01*
X158965097Y-82919893D01*
X158970178Y-82936531D01*
X158984145Y-82951437D01*
X159011411Y-82967973D01*
X159056388Y-82989498D01*
X159123489Y-83019374D01*
X159123829Y-83019524D01*
X159185593Y-83047813D01*
X159236241Y-83072933D01*
X159270596Y-83092179D01*
X159283482Y-83102848D01*
X159283486Y-83102934D01*
X159272128Y-83126166D01*
X159245569Y-83151774D01*
X159215077Y-83170221D01*
X159199630Y-83173886D01*
X159157485Y-83161212D01*
X159121192Y-83129471D01*
X159103483Y-83094572D01*
X159086448Y-83068845D01*
X159053078Y-83039546D01*
X159013851Y-83014235D01*
X158979244Y-83000471D01*
X158972007Y-82999714D01*
X158963861Y-83012160D01*
X158963370Y-83043972D01*
X158969357Y-83086866D01*
X158980643Y-83132558D01*
X158996050Y-83172761D01*
X158996829Y-83174322D01*
X159043196Y-83239062D01*
X159103289Y-83283097D01*
X159171535Y-83304711D01*
X159242362Y-83302185D01*
X159310196Y-83273804D01*
X159313212Y-83271808D01*
X159366573Y-83223448D01*
X159401660Y-83160352D01*
X159421078Y-83077387D01*
X159423684Y-83054078D01*
X159428299Y-82944055D01*
X159422767Y-82892748D01*
X159283486Y-82892748D01*
X159281676Y-82924753D01*
X159271778Y-82934093D01*
X159247102Y-82927105D01*
X159208205Y-82910587D01*
X159164725Y-82889881D01*
X159163644Y-82889333D01*
X159126791Y-82869949D01*
X159112000Y-82857013D01*
X159115647Y-82843451D01*
X159131005Y-82825632D01*
X159170077Y-82799845D01*
X159212154Y-82797950D01*
X159249897Y-82816717D01*
X159275966Y-82852915D01*
X159283486Y-82892748D01*
X159422767Y-82892748D01*
X159418806Y-82856027D01*
X159394450Y-82786212D01*
X159360544Y-82737302D01*
X159299347Y-82687878D01*
X159231937Y-82663359D01*
X159163120Y-82661797D01*
X159097697Y-82681239D01*
X159097697Y-82681239D01*
G37*
X159097697Y-82681239D02*
X159040473Y-82719735D01*
X158996251Y-82775335D01*
X158969833Y-82846086D01*
X158964490Y-82898162D01*
X158965097Y-82919893D01*
X158970178Y-82936531D01*
X158984145Y-82951437D01*
X159011411Y-82967973D01*
X159056388Y-82989498D01*
X159123489Y-83019374D01*
X159123829Y-83019524D01*
X159185593Y-83047813D01*
X159236241Y-83072933D01*
X159270596Y-83092179D01*
X159283482Y-83102848D01*
X159283486Y-83102934D01*
X159272128Y-83126166D01*
X159245569Y-83151774D01*
X159215077Y-83170221D01*
X159199630Y-83173886D01*
X159157485Y-83161212D01*
X159121192Y-83129471D01*
X159103483Y-83094572D01*
X159086448Y-83068845D01*
X159053078Y-83039546D01*
X159013851Y-83014235D01*
X158979244Y-83000471D01*
X158972007Y-82999714D01*
X158963861Y-83012160D01*
X158963370Y-83043972D01*
X158969357Y-83086866D01*
X158980643Y-83132558D01*
X158996050Y-83172761D01*
X158996829Y-83174322D01*
X159043196Y-83239062D01*
X159103289Y-83283097D01*
X159171535Y-83304711D01*
X159242362Y-83302185D01*
X159310196Y-83273804D01*
X159313212Y-83271808D01*
X159366573Y-83223448D01*
X159401660Y-83160352D01*
X159421078Y-83077387D01*
X159423684Y-83054078D01*
X159428299Y-82944055D01*
X159422767Y-82892748D01*
X159283486Y-82892748D01*
X159281676Y-82924753D01*
X159271778Y-82934093D01*
X159247102Y-82927105D01*
X159208205Y-82910587D01*
X159164725Y-82889881D01*
X159163644Y-82889333D01*
X159126791Y-82869949D01*
X159112000Y-82857013D01*
X159115647Y-82843451D01*
X159131005Y-82825632D01*
X159170077Y-82799845D01*
X159212154Y-82797950D01*
X159249897Y-82816717D01*
X159275966Y-82852915D01*
X159283486Y-82892748D01*
X159422767Y-82892748D01*
X159418806Y-82856027D01*
X159394450Y-82786212D01*
X159360544Y-82737302D01*
X159299347Y-82687878D01*
X159231937Y-82663359D01*
X159163120Y-82661797D01*
X159097697Y-82681239D01*
G36*
X157890114Y-82601289D02*
X157885861Y-82660613D01*
X157880975Y-82695572D01*
X157874205Y-82710820D01*
X157864298Y-82711015D01*
X157861086Y-82709195D01*
X157818356Y-82696015D01*
X157762773Y-82696785D01*
X157706263Y-82710333D01*
X157670918Y-82727861D01*
X157634679Y-82755861D01*
X157608187Y-82787549D01*
X157590001Y-82827813D01*
X157578678Y-82881543D01*
X157572778Y-82953626D01*
X157570857Y-83048951D01*
X157570823Y-83067237D01*
X157570800Y-83272646D01*
X157616509Y-83288580D01*
X157648973Y-83299420D01*
X157666785Y-83304468D01*
X157667309Y-83304514D01*
X157669063Y-83290828D01*
X157670556Y-83253076D01*
X157671674Y-83196224D01*
X157672303Y-83125234D01*
X157672400Y-83082073D01*
X157672602Y-82996973D01*
X157673642Y-82935981D01*
X157676169Y-82894177D01*
X157680836Y-82866642D01*
X157688293Y-82848456D01*
X157699189Y-82834698D01*
X157705993Y-82828073D01*
X157752728Y-82801375D01*
X157803728Y-82799375D01*
X157849999Y-82821955D01*
X157858556Y-82830107D01*
X157871107Y-82845436D01*
X157879812Y-82863618D01*
X157885369Y-82889909D01*
X157888474Y-82929562D01*
X157889824Y-82987832D01*
X157890114Y-83068173D01*
X157890114Y-83272646D01*
X157935823Y-83288580D01*
X157968287Y-83299420D01*
X157986099Y-83304468D01*
X157986623Y-83304514D01*
X157987963Y-83290623D01*
X157989172Y-83251439D01*
X157990199Y-83190700D01*
X157990998Y-83112141D01*
X157991519Y-83019498D01*
X157991714Y-82916509D01*
X157991714Y-82519342D01*
X157944543Y-82499444D01*
X157897371Y-82479547D01*
X157890114Y-82601289D01*
X157890114Y-82601289D01*
G37*
X157890114Y-82601289D02*
X157885861Y-82660613D01*
X157880975Y-82695572D01*
X157874205Y-82710820D01*
X157864298Y-82711015D01*
X157861086Y-82709195D01*
X157818356Y-82696015D01*
X157762773Y-82696785D01*
X157706263Y-82710333D01*
X157670918Y-82727861D01*
X157634679Y-82755861D01*
X157608187Y-82787549D01*
X157590001Y-82827813D01*
X157578678Y-82881543D01*
X157572778Y-82953626D01*
X157570857Y-83048951D01*
X157570823Y-83067237D01*
X157570800Y-83272646D01*
X157616509Y-83288580D01*
X157648973Y-83299420D01*
X157666785Y-83304468D01*
X157667309Y-83304514D01*
X157669063Y-83290828D01*
X157670556Y-83253076D01*
X157671674Y-83196224D01*
X157672303Y-83125234D01*
X157672400Y-83082073D01*
X157672602Y-82996973D01*
X157673642Y-82935981D01*
X157676169Y-82894177D01*
X157680836Y-82866642D01*
X157688293Y-82848456D01*
X157699189Y-82834698D01*
X157705993Y-82828073D01*
X157752728Y-82801375D01*
X157803728Y-82799375D01*
X157849999Y-82821955D01*
X157858556Y-82830107D01*
X157871107Y-82845436D01*
X157879812Y-82863618D01*
X157885369Y-82889909D01*
X157888474Y-82929562D01*
X157889824Y-82987832D01*
X157890114Y-83068173D01*
X157890114Y-83272646D01*
X157935823Y-83288580D01*
X157968287Y-83299420D01*
X157986099Y-83304468D01*
X157986623Y-83304514D01*
X157987963Y-83290623D01*
X157989172Y-83251439D01*
X157990199Y-83190700D01*
X157990998Y-83112141D01*
X157991519Y-83019498D01*
X157991714Y-82916509D01*
X157991714Y-82519342D01*
X157944543Y-82499444D01*
X157897371Y-82479547D01*
X157890114Y-82601289D01*
G36*
X157226256Y-82700968D02*
X157169384Y-82722087D01*
X157168733Y-82722493D01*
X157133560Y-82748380D01*
X157107593Y-82778633D01*
X157089330Y-82818058D01*
X157077268Y-82871462D01*
X157069904Y-82943651D01*
X157065736Y-83039432D01*
X157065371Y-83053078D01*
X157060124Y-83258842D01*
X157104284Y-83281678D01*
X157136237Y-83297110D01*
X157155530Y-83304423D01*
X157156422Y-83304514D01*
X157159761Y-83291022D01*
X157162413Y-83254626D01*
X157164044Y-83201452D01*
X157164400Y-83158393D01*
X157164408Y-83088641D01*
X157167597Y-83044837D01*
X157178712Y-83023944D01*
X157202499Y-83022925D01*
X157243704Y-83038741D01*
X157305914Y-83067815D01*
X157351659Y-83091963D01*
X157375187Y-83112913D01*
X157382104Y-83135747D01*
X157382114Y-83136877D01*
X157370701Y-83176212D01*
X157336908Y-83197462D01*
X157285191Y-83200539D01*
X157247939Y-83200006D01*
X157228297Y-83210735D01*
X157216048Y-83236505D01*
X157208998Y-83269337D01*
X157219158Y-83287966D01*
X157222983Y-83290632D01*
X157258999Y-83301340D01*
X157309434Y-83302856D01*
X157361374Y-83295759D01*
X157398178Y-83282788D01*
X157449062Y-83239585D01*
X157477986Y-83179446D01*
X157483714Y-83132462D01*
X157479343Y-83090082D01*
X157463525Y-83055488D01*
X157432203Y-83024763D01*
X157381322Y-82993990D01*
X157306824Y-82959252D01*
X157302286Y-82957288D01*
X157235179Y-82926287D01*
X157193768Y-82900862D01*
X157176019Y-82878014D01*
X157179893Y-82854745D01*
X157203357Y-82828056D01*
X157210373Y-82821914D01*
X157257370Y-82798100D01*
X157306067Y-82799103D01*
X157348478Y-82822451D01*
X157376616Y-82865675D01*
X157379231Y-82874160D01*
X157404692Y-82915308D01*
X157436999Y-82935128D01*
X157483714Y-82954770D01*
X157483714Y-82903950D01*
X157469504Y-82830082D01*
X157427325Y-82762327D01*
X157405376Y-82739661D01*
X157355483Y-82710569D01*
X157292033Y-82697400D01*
X157226256Y-82700968D01*
X157226256Y-82700968D01*
G37*
X157226256Y-82700968D02*
X157169384Y-82722087D01*
X157168733Y-82722493D01*
X157133560Y-82748380D01*
X157107593Y-82778633D01*
X157089330Y-82818058D01*
X157077268Y-82871462D01*
X157069904Y-82943651D01*
X157065736Y-83039432D01*
X157065371Y-83053078D01*
X157060124Y-83258842D01*
X157104284Y-83281678D01*
X157136237Y-83297110D01*
X157155530Y-83304423D01*
X157156422Y-83304514D01*
X157159761Y-83291022D01*
X157162413Y-83254626D01*
X157164044Y-83201452D01*
X157164400Y-83158393D01*
X157164408Y-83088641D01*
X157167597Y-83044837D01*
X157178712Y-83023944D01*
X157202499Y-83022925D01*
X157243704Y-83038741D01*
X157305914Y-83067815D01*
X157351659Y-83091963D01*
X157375187Y-83112913D01*
X157382104Y-83135747D01*
X157382114Y-83136877D01*
X157370701Y-83176212D01*
X157336908Y-83197462D01*
X157285191Y-83200539D01*
X157247939Y-83200006D01*
X157228297Y-83210735D01*
X157216048Y-83236505D01*
X157208998Y-83269337D01*
X157219158Y-83287966D01*
X157222983Y-83290632D01*
X157258999Y-83301340D01*
X157309434Y-83302856D01*
X157361374Y-83295759D01*
X157398178Y-83282788D01*
X157449062Y-83239585D01*
X157477986Y-83179446D01*
X157483714Y-83132462D01*
X157479343Y-83090082D01*
X157463525Y-83055488D01*
X157432203Y-83024763D01*
X157381322Y-82993990D01*
X157306824Y-82959252D01*
X157302286Y-82957288D01*
X157235179Y-82926287D01*
X157193768Y-82900862D01*
X157176019Y-82878014D01*
X157179893Y-82854745D01*
X157203357Y-82828056D01*
X157210373Y-82821914D01*
X157257370Y-82798100D01*
X157306067Y-82799103D01*
X157348478Y-82822451D01*
X157376616Y-82865675D01*
X157379231Y-82874160D01*
X157404692Y-82915308D01*
X157436999Y-82935128D01*
X157483714Y-82954770D01*
X157483714Y-82903950D01*
X157469504Y-82830082D01*
X157427325Y-82762327D01*
X157405376Y-82739661D01*
X157355483Y-82710569D01*
X157292033Y-82697400D01*
X157226256Y-82700968D01*
G36*
X156736074Y-82699755D02*
X156670142Y-82724084D01*
X156616727Y-82767117D01*
X156595836Y-82797409D01*
X156573061Y-82852994D01*
X156573534Y-82893186D01*
X156597438Y-82920217D01*
X156606283Y-82924813D01*
X156644470Y-82939144D01*
X156663972Y-82935472D01*
X156670578Y-82911407D01*
X156670914Y-82898114D01*
X156683008Y-82849210D01*
X156714529Y-82814999D01*
X156758341Y-82798476D01*
X156807305Y-82802634D01*
X156847106Y-82824227D01*
X156860550Y-82836544D01*
X156870079Y-82851487D01*
X156876515Y-82874075D01*
X156880683Y-82909328D01*
X156883403Y-82962266D01*
X156885498Y-83037907D01*
X156886040Y-83061857D01*
X156888019Y-83143790D01*
X156890269Y-83201455D01*
X156893643Y-83239608D01*
X156898994Y-83263004D01*
X156907176Y-83276398D01*
X156919041Y-83284545D01*
X156926638Y-83288144D01*
X156958898Y-83300452D01*
X156977889Y-83304514D01*
X156984164Y-83290948D01*
X156987994Y-83249934D01*
X156989400Y-83180999D01*
X156988402Y-83083669D01*
X156988092Y-83068657D01*
X156985899Y-82979859D01*
X156983307Y-82915019D01*
X156979618Y-82869067D01*
X156974136Y-82836935D01*
X156966165Y-82813553D01*
X156955007Y-82793852D01*
X156949170Y-82785410D01*
X156915704Y-82748057D01*
X156878273Y-82719003D01*
X156873691Y-82716467D01*
X156806574Y-82696443D01*
X156736074Y-82699755D01*
X156736074Y-82699755D01*
G37*
X156736074Y-82699755D02*
X156670142Y-82724084D01*
X156616727Y-82767117D01*
X156595836Y-82797409D01*
X156573061Y-82852994D01*
X156573534Y-82893186D01*
X156597438Y-82920217D01*
X156606283Y-82924813D01*
X156644470Y-82939144D01*
X156663972Y-82935472D01*
X156670578Y-82911407D01*
X156670914Y-82898114D01*
X156683008Y-82849210D01*
X156714529Y-82814999D01*
X156758341Y-82798476D01*
X156807305Y-82802634D01*
X156847106Y-82824227D01*
X156860550Y-82836544D01*
X156870079Y-82851487D01*
X156876515Y-82874075D01*
X156880683Y-82909328D01*
X156883403Y-82962266D01*
X156885498Y-83037907D01*
X156886040Y-83061857D01*
X156888019Y-83143790D01*
X156890269Y-83201455D01*
X156893643Y-83239608D01*
X156898994Y-83263004D01*
X156907176Y-83276398D01*
X156919041Y-83284545D01*
X156926638Y-83288144D01*
X156958898Y-83300452D01*
X156977889Y-83304514D01*
X156984164Y-83290948D01*
X156987994Y-83249934D01*
X156989400Y-83180999D01*
X156988402Y-83083669D01*
X156988092Y-83068657D01*
X156985899Y-82979859D01*
X156983307Y-82915019D01*
X156979618Y-82869067D01*
X156974136Y-82836935D01*
X156966165Y-82813553D01*
X156955007Y-82793852D01*
X156949170Y-82785410D01*
X156915704Y-82748057D01*
X156878273Y-82719003D01*
X156873691Y-82716467D01*
X156806574Y-82696443D01*
X156736074Y-82699755D01*
G36*
X156075883Y-82815358D02*
X156076067Y-82923837D01*
X156076781Y-83007287D01*
X156078325Y-83069704D01*
X156080999Y-83115085D01*
X156085106Y-83147429D01*
X156090945Y-83170733D01*
X156098818Y-83188995D01*
X156104779Y-83199418D01*
X156154145Y-83255945D01*
X156216736Y-83291377D01*
X156285987Y-83304090D01*
X156355332Y-83292463D01*
X156396625Y-83271568D01*
X156439975Y-83235422D01*
X156469519Y-83191276D01*
X156487345Y-83133462D01*
X156495537Y-83056313D01*
X156496698Y-82999714D01*
X156496542Y-82995647D01*
X156395143Y-82995647D01*
X156394524Y-83060550D01*
X156391686Y-83103514D01*
X156385160Y-83131622D01*
X156373477Y-83151953D01*
X156359517Y-83167288D01*
X156312635Y-83196890D01*
X156262299Y-83199419D01*
X156214724Y-83174705D01*
X156211021Y-83171356D01*
X156195217Y-83153935D01*
X156185307Y-83133209D01*
X156179942Y-83102362D01*
X156177772Y-83054577D01*
X156177429Y-83001748D01*
X156178173Y-82935381D01*
X156181252Y-82891106D01*
X156187939Y-82862009D01*
X156199504Y-82841173D01*
X156208987Y-82830107D01*
X156253040Y-82802198D01*
X156303776Y-82798843D01*
X156352204Y-82820159D01*
X156361550Y-82828073D01*
X156377460Y-82845647D01*
X156387390Y-82866587D01*
X156392722Y-82897782D01*
X156394837Y-82946122D01*
X156395143Y-82995647D01*
X156496542Y-82995647D01*
X156493190Y-82908568D01*
X156481274Y-82840086D01*
X156458865Y-82788600D01*
X156423876Y-82748443D01*
X156396625Y-82727861D01*
X156347093Y-82705625D01*
X156289684Y-82695304D01*
X156236318Y-82698067D01*
X156206457Y-82709212D01*
X156194739Y-82712383D01*
X156186963Y-82700557D01*
X156181535Y-82668866D01*
X156177429Y-82620593D01*
X156172933Y-82566829D01*
X156166687Y-82534482D01*
X156155324Y-82515985D01*
X156135472Y-82503770D01*
X156123000Y-82498362D01*
X156075829Y-82478601D01*
X156075883Y-82815358D01*
X156075883Y-82815358D01*
G37*
X156075883Y-82815358D02*
X156076067Y-82923837D01*
X156076781Y-83007287D01*
X156078325Y-83069704D01*
X156080999Y-83115085D01*
X156085106Y-83147429D01*
X156090945Y-83170733D01*
X156098818Y-83188995D01*
X156104779Y-83199418D01*
X156154145Y-83255945D01*
X156216736Y-83291377D01*
X156285987Y-83304090D01*
X156355332Y-83292463D01*
X156396625Y-83271568D01*
X156439975Y-83235422D01*
X156469519Y-83191276D01*
X156487345Y-83133462D01*
X156495537Y-83056313D01*
X156496698Y-82999714D01*
X156496542Y-82995647D01*
X156395143Y-82995647D01*
X156394524Y-83060550D01*
X156391686Y-83103514D01*
X156385160Y-83131622D01*
X156373477Y-83151953D01*
X156359517Y-83167288D01*
X156312635Y-83196890D01*
X156262299Y-83199419D01*
X156214724Y-83174705D01*
X156211021Y-83171356D01*
X156195217Y-83153935D01*
X156185307Y-83133209D01*
X156179942Y-83102362D01*
X156177772Y-83054577D01*
X156177429Y-83001748D01*
X156178173Y-82935381D01*
X156181252Y-82891106D01*
X156187939Y-82862009D01*
X156199504Y-82841173D01*
X156208987Y-82830107D01*
X156253040Y-82802198D01*
X156303776Y-82798843D01*
X156352204Y-82820159D01*
X156361550Y-82828073D01*
X156377460Y-82845647D01*
X156387390Y-82866587D01*
X156392722Y-82897782D01*
X156394837Y-82946122D01*
X156395143Y-82995647D01*
X156496542Y-82995647D01*
X156493190Y-82908568D01*
X156481274Y-82840086D01*
X156458865Y-82788600D01*
X156423876Y-82748443D01*
X156396625Y-82727861D01*
X156347093Y-82705625D01*
X156289684Y-82695304D01*
X156236318Y-82698067D01*
X156206457Y-82709212D01*
X156194739Y-82712383D01*
X156186963Y-82700557D01*
X156181535Y-82668866D01*
X156177429Y-82620593D01*
X156172933Y-82566829D01*
X156166687Y-82534482D01*
X156155324Y-82515985D01*
X156135472Y-82503770D01*
X156123000Y-82498362D01*
X156075829Y-82478601D01*
X156075883Y-82815358D01*
G36*
X155486167Y-82708663D02*
X155483952Y-82746850D01*
X155482216Y-82804886D01*
X155481101Y-82878180D01*
X155480743Y-82955055D01*
X155480743Y-83215196D01*
X155526674Y-83261127D01*
X155558325Y-83289429D01*
X155586110Y-83300893D01*
X155624085Y-83300168D01*
X155639160Y-83298321D01*
X155686274Y-83292948D01*
X155725244Y-83289869D01*
X155734743Y-83289585D01*
X155766767Y-83291445D01*
X155812568Y-83296114D01*
X155830326Y-83298321D01*
X155873943Y-83301735D01*
X155903255Y-83294320D01*
X155932320Y-83271427D01*
X155942812Y-83261127D01*
X155988743Y-83215196D01*
X155988743Y-82728602D01*
X155951774Y-82711758D01*
X155919941Y-82699282D01*
X155901317Y-82694914D01*
X155896542Y-82708718D01*
X155892079Y-82747286D01*
X155888225Y-82806356D01*
X155885278Y-82881663D01*
X155883857Y-82945286D01*
X155879886Y-83195657D01*
X155845241Y-83200556D01*
X155813732Y-83197131D01*
X155798292Y-83186041D01*
X155793977Y-83165308D01*
X155790292Y-83121145D01*
X155787531Y-83059146D01*
X155785988Y-82984909D01*
X155785765Y-82946706D01*
X155785543Y-82726783D01*
X155739834Y-82710849D01*
X155707482Y-82700015D01*
X155689885Y-82694962D01*
X155689377Y-82694914D01*
X155687612Y-82708648D01*
X155685671Y-82746730D01*
X155683718Y-82804482D01*
X155681916Y-82877227D01*
X155680657Y-82945286D01*
X155676686Y-83195657D01*
X155589600Y-83195657D01*
X155585604Y-82967240D01*
X155581608Y-82738822D01*
X155539153Y-82716868D01*
X155507808Y-82701793D01*
X155489256Y-82694951D01*
X155488721Y-82694914D01*
X155486167Y-82708663D01*
X155486167Y-82708663D01*
G37*
X155486167Y-82708663D02*
X155483952Y-82746850D01*
X155482216Y-82804886D01*
X155481101Y-82878180D01*
X155480743Y-82955055D01*
X155480743Y-83215196D01*
X155526674Y-83261127D01*
X155558325Y-83289429D01*
X155586110Y-83300893D01*
X155624085Y-83300168D01*
X155639160Y-83298321D01*
X155686274Y-83292948D01*
X155725244Y-83289869D01*
X155734743Y-83289585D01*
X155766767Y-83291445D01*
X155812568Y-83296114D01*
X155830326Y-83298321D01*
X155873943Y-83301735D01*
X155903255Y-83294320D01*
X155932320Y-83271427D01*
X155942812Y-83261127D01*
X155988743Y-83215196D01*
X155988743Y-82728602D01*
X155951774Y-82711758D01*
X155919941Y-82699282D01*
X155901317Y-82694914D01*
X155896542Y-82708718D01*
X155892079Y-82747286D01*
X155888225Y-82806356D01*
X155885278Y-82881663D01*
X155883857Y-82945286D01*
X155879886Y-83195657D01*
X155845241Y-83200556D01*
X155813732Y-83197131D01*
X155798292Y-83186041D01*
X155793977Y-83165308D01*
X155790292Y-83121145D01*
X155787531Y-83059146D01*
X155785988Y-82984909D01*
X155785765Y-82946706D01*
X155785543Y-82726783D01*
X155739834Y-82710849D01*
X155707482Y-82700015D01*
X155689885Y-82694962D01*
X155689377Y-82694914D01*
X155687612Y-82708648D01*
X155685671Y-82746730D01*
X155683718Y-82804482D01*
X155681916Y-82877227D01*
X155680657Y-82945286D01*
X155676686Y-83195657D01*
X155589600Y-83195657D01*
X155585604Y-82967240D01*
X155581608Y-82738822D01*
X155539153Y-82716868D01*
X155507808Y-82701793D01*
X155489256Y-82694951D01*
X155488721Y-82694914D01*
X155486167Y-82708663D01*
G36*
X155121124Y-82706335D02*
X155079333Y-82725344D01*
X155046531Y-82748378D01*
X155022497Y-82774133D01*
X155005903Y-82807358D01*
X154995423Y-82852800D01*
X154989729Y-82915207D01*
X154987493Y-82999327D01*
X154987257Y-83054721D01*
X154987257Y-83270826D01*
X155024226Y-83287670D01*
X155053344Y-83299981D01*
X155067769Y-83304514D01*
X155070528Y-83291025D01*
X155072718Y-83254653D01*
X155074058Y-83201542D01*
X155074343Y-83159372D01*
X155075566Y-83098447D01*
X155078864Y-83050115D01*
X155083679Y-83020518D01*
X155087504Y-83014229D01*
X155113217Y-83020652D01*
X155153582Y-83037125D01*
X155200321Y-83059458D01*
X155245155Y-83083457D01*
X155279807Y-83104930D01*
X155295998Y-83119685D01*
X155296062Y-83119845D01*
X155294670Y-83147152D01*
X155282182Y-83173219D01*
X155260257Y-83194392D01*
X155228257Y-83201474D01*
X155200908Y-83200649D01*
X155162174Y-83200042D01*
X155141842Y-83209116D01*
X155129631Y-83233092D01*
X155128091Y-83237613D01*
X155122797Y-83271806D01*
X155136953Y-83292568D01*
X155173852Y-83302462D01*
X155213711Y-83304292D01*
X155285438Y-83290727D01*
X155322568Y-83271355D01*
X155368424Y-83225845D01*
X155392744Y-83169983D01*
X155394927Y-83110957D01*
X155374371Y-83055953D01*
X155343451Y-83021486D01*
X155312580Y-83002189D01*
X155264058Y-82977759D01*
X155207515Y-82952985D01*
X155198090Y-82949199D01*
X155135981Y-82921791D01*
X155100178Y-82897634D01*
X155088663Y-82873619D01*
X155099420Y-82846635D01*
X155117886Y-82825543D01*
X155161531Y-82799572D01*
X155209554Y-82797624D01*
X155253594Y-82817637D01*
X155285291Y-82857551D01*
X155289451Y-82867848D01*
X155313673Y-82905724D01*
X155349035Y-82933842D01*
X155393657Y-82956917D01*
X155393657Y-82891485D01*
X155391031Y-82851506D01*
X155379770Y-82819997D01*
X155354801Y-82786378D01*
X155330831Y-82760484D01*
X155293559Y-82723817D01*
X155264599Y-82704121D01*
X155233495Y-82696220D01*
X155198287Y-82694914D01*
X155121124Y-82706335D01*
X155121124Y-82706335D01*
G37*
X155121124Y-82706335D02*
X155079333Y-82725344D01*
X155046531Y-82748378D01*
X155022497Y-82774133D01*
X155005903Y-82807358D01*
X154995423Y-82852800D01*
X154989729Y-82915207D01*
X154987493Y-82999327D01*
X154987257Y-83054721D01*
X154987257Y-83270826D01*
X155024226Y-83287670D01*
X155053344Y-83299981D01*
X155067769Y-83304514D01*
X155070528Y-83291025D01*
X155072718Y-83254653D01*
X155074058Y-83201542D01*
X155074343Y-83159372D01*
X155075566Y-83098447D01*
X155078864Y-83050115D01*
X155083679Y-83020518D01*
X155087504Y-83014229D01*
X155113217Y-83020652D01*
X155153582Y-83037125D01*
X155200321Y-83059458D01*
X155245155Y-83083457D01*
X155279807Y-83104930D01*
X155295998Y-83119685D01*
X155296062Y-83119845D01*
X155294670Y-83147152D01*
X155282182Y-83173219D01*
X155260257Y-83194392D01*
X155228257Y-83201474D01*
X155200908Y-83200649D01*
X155162174Y-83200042D01*
X155141842Y-83209116D01*
X155129631Y-83233092D01*
X155128091Y-83237613D01*
X155122797Y-83271806D01*
X155136953Y-83292568D01*
X155173852Y-83302462D01*
X155213711Y-83304292D01*
X155285438Y-83290727D01*
X155322568Y-83271355D01*
X155368424Y-83225845D01*
X155392744Y-83169983D01*
X155394927Y-83110957D01*
X155374371Y-83055953D01*
X155343451Y-83021486D01*
X155312580Y-83002189D01*
X155264058Y-82977759D01*
X155207515Y-82952985D01*
X155198090Y-82949199D01*
X155135981Y-82921791D01*
X155100178Y-82897634D01*
X155088663Y-82873619D01*
X155099420Y-82846635D01*
X155117886Y-82825543D01*
X155161531Y-82799572D01*
X155209554Y-82797624D01*
X155253594Y-82817637D01*
X155285291Y-82857551D01*
X155289451Y-82867848D01*
X155313673Y-82905724D01*
X155349035Y-82933842D01*
X155393657Y-82956917D01*
X155393657Y-82891485D01*
X155391031Y-82851506D01*
X155379770Y-82819997D01*
X155354801Y-82786378D01*
X155330831Y-82760484D01*
X155293559Y-82723817D01*
X155264599Y-82704121D01*
X155233495Y-82696220D01*
X155198287Y-82694914D01*
X155121124Y-82706335D01*
G36*
X154613400Y-82708752D02*
X154596052Y-82716334D01*
X154554644Y-82749128D01*
X154519235Y-82796547D01*
X154497336Y-82847151D01*
X154493771Y-82872098D01*
X154505721Y-82906927D01*
X154531933Y-82925357D01*
X154560036Y-82936516D01*
X154572905Y-82938572D01*
X154579171Y-82923649D01*
X154591544Y-82891175D01*
X154596972Y-82876502D01*
X154627410Y-82825744D01*
X154671480Y-82800427D01*
X154727990Y-82801206D01*
X154732175Y-82802203D01*
X154762345Y-82816507D01*
X154784524Y-82844393D01*
X154799673Y-82889287D01*
X154808750Y-82954615D01*
X154812714Y-83043804D01*
X154813086Y-83091261D01*
X154813270Y-83166071D01*
X154814478Y-83217069D01*
X154817691Y-83249471D01*
X154823891Y-83268495D01*
X154834060Y-83279356D01*
X154849181Y-83287272D01*
X154850054Y-83287670D01*
X154879172Y-83299981D01*
X154893597Y-83304514D01*
X154895814Y-83290809D01*
X154897711Y-83252925D01*
X154899153Y-83195715D01*
X154900002Y-83124027D01*
X154900171Y-83071565D01*
X154899308Y-82970047D01*
X154895930Y-82893032D01*
X154888858Y-82836023D01*
X154876912Y-82794526D01*
X154858910Y-82764043D01*
X154833673Y-82740080D01*
X154808753Y-82723355D01*
X154748829Y-82701097D01*
X154679089Y-82696076D01*
X154613400Y-82708752D01*
X154613400Y-82708752D01*
G37*
X154613400Y-82708752D02*
X154596052Y-82716334D01*
X154554644Y-82749128D01*
X154519235Y-82796547D01*
X154497336Y-82847151D01*
X154493771Y-82872098D01*
X154505721Y-82906927D01*
X154531933Y-82925357D01*
X154560036Y-82936516D01*
X154572905Y-82938572D01*
X154579171Y-82923649D01*
X154591544Y-82891175D01*
X154596972Y-82876502D01*
X154627410Y-82825744D01*
X154671480Y-82800427D01*
X154727990Y-82801206D01*
X154732175Y-82802203D01*
X154762345Y-82816507D01*
X154784524Y-82844393D01*
X154799673Y-82889287D01*
X154808750Y-82954615D01*
X154812714Y-83043804D01*
X154813086Y-83091261D01*
X154813270Y-83166071D01*
X154814478Y-83217069D01*
X154817691Y-83249471D01*
X154823891Y-83268495D01*
X154834060Y-83279356D01*
X154849181Y-83287272D01*
X154850054Y-83287670D01*
X154879172Y-83299981D01*
X154893597Y-83304514D01*
X154895814Y-83290809D01*
X154897711Y-83252925D01*
X154899153Y-83195715D01*
X154900002Y-83124027D01*
X154900171Y-83071565D01*
X154899308Y-82970047D01*
X154895930Y-82893032D01*
X154888858Y-82836023D01*
X154876912Y-82794526D01*
X154858910Y-82764043D01*
X154833673Y-82740080D01*
X154808753Y-82723355D01*
X154748829Y-82701097D01*
X154679089Y-82696076D01*
X154613400Y-82708752D01*
G36*
X154112405Y-82716966D02*
X154054979Y-82754497D01*
X154027281Y-82788096D01*
X154005338Y-82849064D01*
X154003595Y-82897308D01*
X154007543Y-82961816D01*
X154156314Y-83026934D01*
X154228651Y-83060202D01*
X154275916Y-83086964D01*
X154300493Y-83110144D01*
X154304763Y-83132667D01*
X154291111Y-83157455D01*
X154276057Y-83173886D01*
X154232254Y-83200235D01*
X154184611Y-83202081D01*
X154140855Y-83181546D01*
X154108711Y-83140752D01*
X154102962Y-83126347D01*
X154075424Y-83081356D01*
X154043742Y-83062182D01*
X154000286Y-83045779D01*
X154000286Y-83107966D01*
X154004128Y-83150283D01*
X154019177Y-83185969D01*
X154050720Y-83226943D01*
X154055408Y-83232267D01*
X154090494Y-83268720D01*
X154120653Y-83288283D01*
X154158385Y-83297283D01*
X154189665Y-83300230D01*
X154245615Y-83300965D01*
X154285445Y-83291660D01*
X154310292Y-83277846D01*
X154349344Y-83247467D01*
X154376375Y-83214613D01*
X154393483Y-83173294D01*
X154402762Y-83117521D01*
X154406307Y-83041305D01*
X154406590Y-83002622D01*
X154405628Y-82956247D01*
X154317993Y-82956247D01*
X154316977Y-82981126D01*
X154314444Y-82985200D01*
X154297726Y-82979665D01*
X154261751Y-82965017D01*
X154213669Y-82944190D01*
X154203614Y-82939714D01*
X154142848Y-82908814D01*
X154109368Y-82881657D01*
X154102010Y-82856220D01*
X154119609Y-82830481D01*
X154134144Y-82819109D01*
X154186590Y-82796364D01*
X154235678Y-82800122D01*
X154276773Y-82827884D01*
X154305242Y-82877152D01*
X154314369Y-82916257D01*
X154317993Y-82956247D01*
X154405628Y-82956247D01*
X154404715Y-82912249D01*
X154397804Y-82845384D01*
X154384116Y-82796695D01*
X154361904Y-82760849D01*
X154329426Y-82732513D01*
X154315267Y-82723355D01*
X154250947Y-82699507D01*
X154180527Y-82698006D01*
X154112405Y-82716966D01*
X154112405Y-82716966D01*
G37*
X154112405Y-82716966D02*
X154054979Y-82754497D01*
X154027281Y-82788096D01*
X154005338Y-82849064D01*
X154003595Y-82897308D01*
X154007543Y-82961816D01*
X154156314Y-83026934D01*
X154228651Y-83060202D01*
X154275916Y-83086964D01*
X154300493Y-83110144D01*
X154304763Y-83132667D01*
X154291111Y-83157455D01*
X154276057Y-83173886D01*
X154232254Y-83200235D01*
X154184611Y-83202081D01*
X154140855Y-83181546D01*
X154108711Y-83140752D01*
X154102962Y-83126347D01*
X154075424Y-83081356D01*
X154043742Y-83062182D01*
X154000286Y-83045779D01*
X154000286Y-83107966D01*
X154004128Y-83150283D01*
X154019177Y-83185969D01*
X154050720Y-83226943D01*
X154055408Y-83232267D01*
X154090494Y-83268720D01*
X154120653Y-83288283D01*
X154158385Y-83297283D01*
X154189665Y-83300230D01*
X154245615Y-83300965D01*
X154285445Y-83291660D01*
X154310292Y-83277846D01*
X154349344Y-83247467D01*
X154376375Y-83214613D01*
X154393483Y-83173294D01*
X154402762Y-83117521D01*
X154406307Y-83041305D01*
X154406590Y-83002622D01*
X154405628Y-82956247D01*
X154317993Y-82956247D01*
X154316977Y-82981126D01*
X154314444Y-82985200D01*
X154297726Y-82979665D01*
X154261751Y-82965017D01*
X154213669Y-82944190D01*
X154203614Y-82939714D01*
X154142848Y-82908814D01*
X154109368Y-82881657D01*
X154102010Y-82856220D01*
X154119609Y-82830481D01*
X154134144Y-82819109D01*
X154186590Y-82796364D01*
X154235678Y-82800122D01*
X154276773Y-82827884D01*
X154305242Y-82877152D01*
X154314369Y-82916257D01*
X154317993Y-82956247D01*
X154405628Y-82956247D01*
X154404715Y-82912249D01*
X154397804Y-82845384D01*
X154384116Y-82796695D01*
X154361904Y-82760849D01*
X154329426Y-82732513D01*
X154315267Y-82723355D01*
X154250947Y-82699507D01*
X154180527Y-82698006D01*
X154112405Y-82716966D01*
G36*
X157162090Y-77992348D02*
X157083546Y-77992778D01*
X157026702Y-77993942D01*
X156987895Y-77996207D01*
X156963462Y-77999940D01*
X156949738Y-78005506D01*
X156943060Y-78013273D01*
X156939764Y-78023605D01*
X156939444Y-78024943D01*
X156934438Y-78049079D01*
X156925171Y-78096701D01*
X156912608Y-78162741D01*
X156897713Y-78242128D01*
X156881449Y-78329796D01*
X156880881Y-78332875D01*
X156864590Y-78418789D01*
X156849348Y-78494696D01*
X156836139Y-78556045D01*
X156825946Y-78598282D01*
X156819752Y-78616855D01*
X156819457Y-78617184D01*
X156801212Y-78626253D01*
X156763595Y-78641367D01*
X156714729Y-78659262D01*
X156714457Y-78659358D01*
X156652907Y-78682493D01*
X156580343Y-78711965D01*
X156511943Y-78741597D01*
X156508706Y-78743062D01*
X156397298Y-78793626D01*
X156150601Y-78625160D01*
X156074923Y-78573803D01*
X156006369Y-78527889D01*
X155948912Y-78490030D01*
X155906524Y-78462837D01*
X155883175Y-78448921D01*
X155880958Y-78447889D01*
X155863990Y-78452484D01*
X155832299Y-78474655D01*
X155784648Y-78515447D01*
X155719802Y-78575905D01*
X155653603Y-78640227D01*
X155589786Y-78703612D01*
X155532671Y-78761451D01*
X155485695Y-78810175D01*
X155452297Y-78846210D01*
X155435915Y-78865984D01*
X155435306Y-78867002D01*
X155433495Y-78880572D01*
X155440317Y-78902733D01*
X155457460Y-78936478D01*
X155486607Y-78984800D01*
X155529445Y-79050692D01*
X155586552Y-79135517D01*
X155637234Y-79210177D01*
X155682539Y-79277140D01*
X155719850Y-79332516D01*
X155746548Y-79372420D01*
X155760015Y-79392962D01*
X155760863Y-79394356D01*
X155759219Y-79414038D01*
X155746755Y-79452293D01*
X155725952Y-79501889D01*
X155718538Y-79517728D01*
X155686186Y-79588290D01*
X155651672Y-79668353D01*
X155623635Y-79737629D01*
X155603432Y-79789045D01*
X155587385Y-79828119D01*
X155578112Y-79848541D01*
X155576959Y-79850114D01*
X155559904Y-79852721D01*
X155519702Y-79859863D01*
X155461698Y-79870523D01*
X155391237Y-79883685D01*
X155313665Y-79898333D01*
X155234328Y-79913449D01*
X155158569Y-79928018D01*
X155091736Y-79941022D01*
X155039172Y-79951445D01*
X155006224Y-79958270D01*
X154998143Y-79960199D01*
X154989795Y-79964962D01*
X154983494Y-79975718D01*
X154978955Y-79996098D01*
X154975896Y-80029734D01*
X154974033Y-80080255D01*
X154973082Y-80151292D01*
X154972760Y-80246476D01*
X154972743Y-80285492D01*
X154972743Y-80602799D01*
X155048943Y-80617839D01*
X155091337Y-80625995D01*
X155154600Y-80637899D01*
X155231038Y-80652116D01*
X155312957Y-80667210D01*
X155335600Y-80671355D01*
X155411194Y-80686053D01*
X155477047Y-80700505D01*
X155527634Y-80713375D01*
X155557426Y-80723322D01*
X155562388Y-80726287D01*
X155574574Y-80747283D01*
X155592047Y-80787967D01*
X155611423Y-80840322D01*
X155615266Y-80851600D01*
X155640661Y-80921523D01*
X155672183Y-81000418D01*
X155703031Y-81071266D01*
X155703183Y-81071595D01*
X155754553Y-81182733D01*
X155585601Y-81431253D01*
X155416648Y-81679772D01*
X155633571Y-81897058D01*
X155699181Y-81961726D01*
X155759021Y-82018733D01*
X155809733Y-82065033D01*
X155847954Y-82097584D01*
X155870325Y-82113343D01*
X155873534Y-82114343D01*
X155892374Y-82106469D01*
X155930820Y-82084578D01*
X155984670Y-82051267D01*
X156049724Y-82009131D01*
X156120060Y-81961943D01*
X156191445Y-81913810D01*
X156255092Y-81871928D01*
X156306959Y-81838871D01*
X156343005Y-81817218D01*
X156359133Y-81809543D01*
X156378811Y-81816037D01*
X156416125Y-81833150D01*
X156463379Y-81857326D01*
X156468388Y-81860013D01*
X156532023Y-81891927D01*
X156575659Y-81907579D01*
X156602798Y-81907745D01*
X156616943Y-81893204D01*
X156617025Y-81893000D01*
X156624095Y-81875779D01*
X156640958Y-81834899D01*
X156666305Y-81773525D01*
X156698829Y-81694819D01*
X156737222Y-81601947D01*
X156780178Y-81498072D01*
X156821778Y-81397502D01*
X156867496Y-81286516D01*
X156909474Y-81183703D01*
X156946452Y-81092215D01*
X156977173Y-81015201D01*
X157000378Y-80955815D01*
X157014810Y-80917209D01*
X157019257Y-80902800D01*
X157008104Y-80886272D01*
X156978931Y-80859930D01*
X156940029Y-80830887D01*
X156829243Y-80739039D01*
X156742649Y-80633759D01*
X156681284Y-80517266D01*
X156646185Y-80391776D01*
X156638392Y-80259507D01*
X156644057Y-80198457D01*
X156674922Y-80071795D01*
X156728080Y-79959941D01*
X156800233Y-79864001D01*
X156888083Y-79785076D01*
X156988335Y-79724270D01*
X157097690Y-79682687D01*
X157212853Y-79661428D01*
X157330525Y-79661599D01*
X157447410Y-79684301D01*
X157560211Y-79730638D01*
X157665631Y-79801713D01*
X157709632Y-79841911D01*
X157794021Y-79945129D01*
X157852778Y-80057925D01*
X157886296Y-80177010D01*
X157894965Y-80299095D01*
X157879177Y-80420893D01*
X157839322Y-80539116D01*
X157775793Y-80650475D01*
X157688979Y-80751684D01*
X157591971Y-80830887D01*
X157551563Y-80861162D01*
X157523018Y-80887219D01*
X157512743Y-80902825D01*
X157518123Y-80919843D01*
X157533425Y-80960500D01*
X157557388Y-81021642D01*
X157588756Y-81100119D01*
X157626268Y-81192780D01*
X157668667Y-81296472D01*
X157710337Y-81397526D01*
X157756310Y-81508607D01*
X157798893Y-81611541D01*
X157836779Y-81703165D01*
X157868660Y-81780316D01*
X157893229Y-81839831D01*
X157909180Y-81878544D01*
X157915090Y-81893000D01*
X157929052Y-81907685D01*
X157956060Y-81907642D01*
X157999587Y-81892099D01*
X158063110Y-81860284D01*
X158063612Y-81860013D01*
X158111440Y-81835323D01*
X158150103Y-81817338D01*
X158171905Y-81809614D01*
X158172867Y-81809543D01*
X158189279Y-81817378D01*
X158225513Y-81839165D01*
X158277526Y-81872328D01*
X158341275Y-81914291D01*
X158411940Y-81961943D01*
X158483884Y-82010191D01*
X158548726Y-82052151D01*
X158602265Y-82085227D01*
X158640303Y-82106821D01*
X158658467Y-82114343D01*
X158675192Y-82104457D01*
X158708820Y-82076826D01*
X158755990Y-82034495D01*
X158813342Y-81980505D01*
X158877516Y-81917899D01*
X158898503Y-81896983D01*
X159115501Y-81679623D01*
X158950332Y-81437220D01*
X158900136Y-81362781D01*
X158856081Y-81295972D01*
X158820638Y-81240665D01*
X158796281Y-81200729D01*
X158785478Y-81180036D01*
X158785162Y-81178563D01*
X158790857Y-81159058D01*
X158806174Y-81119822D01*
X158828463Y-81067430D01*
X158844107Y-81032355D01*
X158873359Y-80965201D01*
X158900906Y-80897358D01*
X158922263Y-80840034D01*
X158928065Y-80822572D01*
X158944548Y-80775938D01*
X158960660Y-80739905D01*
X158969510Y-80726287D01*
X158989040Y-80717952D01*
X159031666Y-80706137D01*
X159091855Y-80692181D01*
X159164078Y-80677422D01*
X159196400Y-80671355D01*
X159278478Y-80656273D01*
X159357205Y-80641669D01*
X159424891Y-80628980D01*
X159473840Y-80619642D01*
X159483057Y-80617839D01*
X159559257Y-80602799D01*
X159559257Y-80285492D01*
X159559086Y-80181154D01*
X159558384Y-80102213D01*
X159556866Y-80045038D01*
X159554251Y-80005999D01*
X159550254Y-79981465D01*
X159544591Y-79967805D01*
X159536980Y-79961389D01*
X159533857Y-79960199D01*
X159515022Y-79955980D01*
X159473412Y-79947562D01*
X159414370Y-79935961D01*
X159343243Y-79922195D01*
X159265375Y-79907280D01*
X159186113Y-79892232D01*
X159110802Y-79878069D01*
X159044787Y-79865806D01*
X158993413Y-79856461D01*
X158962025Y-79851050D01*
X158955041Y-79850114D01*
X158948715Y-79837596D01*
X158934710Y-79804246D01*
X158915645Y-79756377D01*
X158908366Y-79737629D01*
X158879004Y-79665195D01*
X158844429Y-79585170D01*
X158813463Y-79517728D01*
X158790677Y-79466159D01*
X158775518Y-79423785D01*
X158770458Y-79397834D01*
X158771264Y-79394356D01*
X158781959Y-79377936D01*
X158806380Y-79341417D01*
X158841905Y-79288687D01*
X158885913Y-79223635D01*
X158935783Y-79150151D01*
X158945644Y-79135645D01*
X159003508Y-79049704D01*
X159046044Y-78984261D01*
X159074946Y-78936304D01*
X159091910Y-78902820D01*
X159098633Y-78880795D01*
X159096810Y-78867217D01*
X159096764Y-78867131D01*
X159082414Y-78849297D01*
X159050677Y-78814817D01*
X159004990Y-78767268D01*
X158948796Y-78710222D01*
X158885532Y-78647255D01*
X158878398Y-78640227D01*
X158798670Y-78563020D01*
X158737143Y-78506330D01*
X158692579Y-78469110D01*
X158663743Y-78450315D01*
X158651042Y-78447889D01*
X158632506Y-78458471D01*
X158594039Y-78482916D01*
X158539614Y-78518612D01*
X158473202Y-78562947D01*
X158398775Y-78613311D01*
X158381399Y-78625160D01*
X158134703Y-78793626D01*
X158023294Y-78743062D01*
X157955543Y-78713595D01*
X157882817Y-78683959D01*
X157820297Y-78660330D01*
X157817543Y-78659358D01*
X157768640Y-78641457D01*
X157730943Y-78626320D01*
X157712575Y-78617210D01*
X157712544Y-78617184D01*
X157706715Y-78600717D01*
X157696808Y-78560219D01*
X157683805Y-78500242D01*
X157668691Y-78425340D01*
X157652448Y-78340064D01*
X157651119Y-78332875D01*
X157634825Y-78245014D01*
X157619867Y-78165260D01*
X157607209Y-78098681D01*
X157597814Y-78050347D01*
X157592646Y-78025325D01*
X157592556Y-78024943D01*
X157589411Y-78014299D01*
X157583296Y-78006262D01*
X157570547Y-78000467D01*
X157547500Y-77996547D01*
X157510491Y-77994135D01*
X157455856Y-77992865D01*
X157379933Y-77992371D01*
X157279056Y-77992286D01*
X157266000Y-77992286D01*
X157162090Y-77992348D01*
X157162090Y-77992348D01*
G37*
X157162090Y-77992348D02*
X157083546Y-77992778D01*
X157026702Y-77993942D01*
X156987895Y-77996207D01*
X156963462Y-77999940D01*
X156949738Y-78005506D01*
X156943060Y-78013273D01*
X156939764Y-78023605D01*
X156939444Y-78024943D01*
X156934438Y-78049079D01*
X156925171Y-78096701D01*
X156912608Y-78162741D01*
X156897713Y-78242128D01*
X156881449Y-78329796D01*
X156880881Y-78332875D01*
X156864590Y-78418789D01*
X156849348Y-78494696D01*
X156836139Y-78556045D01*
X156825946Y-78598282D01*
X156819752Y-78616855D01*
X156819457Y-78617184D01*
X156801212Y-78626253D01*
X156763595Y-78641367D01*
X156714729Y-78659262D01*
X156714457Y-78659358D01*
X156652907Y-78682493D01*
X156580343Y-78711965D01*
X156511943Y-78741597D01*
X156508706Y-78743062D01*
X156397298Y-78793626D01*
X156150601Y-78625160D01*
X156074923Y-78573803D01*
X156006369Y-78527889D01*
X155948912Y-78490030D01*
X155906524Y-78462837D01*
X155883175Y-78448921D01*
X155880958Y-78447889D01*
X155863990Y-78452484D01*
X155832299Y-78474655D01*
X155784648Y-78515447D01*
X155719802Y-78575905D01*
X155653603Y-78640227D01*
X155589786Y-78703612D01*
X155532671Y-78761451D01*
X155485695Y-78810175D01*
X155452297Y-78846210D01*
X155435915Y-78865984D01*
X155435306Y-78867002D01*
X155433495Y-78880572D01*
X155440317Y-78902733D01*
X155457460Y-78936478D01*
X155486607Y-78984800D01*
X155529445Y-79050692D01*
X155586552Y-79135517D01*
X155637234Y-79210177D01*
X155682539Y-79277140D01*
X155719850Y-79332516D01*
X155746548Y-79372420D01*
X155760015Y-79392962D01*
X155760863Y-79394356D01*
X155759219Y-79414038D01*
X155746755Y-79452293D01*
X155725952Y-79501889D01*
X155718538Y-79517728D01*
X155686186Y-79588290D01*
X155651672Y-79668353D01*
X155623635Y-79737629D01*
X155603432Y-79789045D01*
X155587385Y-79828119D01*
X155578112Y-79848541D01*
X155576959Y-79850114D01*
X155559904Y-79852721D01*
X155519702Y-79859863D01*
X155461698Y-79870523D01*
X155391237Y-79883685D01*
X155313665Y-79898333D01*
X155234328Y-79913449D01*
X155158569Y-79928018D01*
X155091736Y-79941022D01*
X155039172Y-79951445D01*
X155006224Y-79958270D01*
X154998143Y-79960199D01*
X154989795Y-79964962D01*
X154983494Y-79975718D01*
X154978955Y-79996098D01*
X154975896Y-80029734D01*
X154974033Y-80080255D01*
X154973082Y-80151292D01*
X154972760Y-80246476D01*
X154972743Y-80285492D01*
X154972743Y-80602799D01*
X155048943Y-80617839D01*
X155091337Y-80625995D01*
X155154600Y-80637899D01*
X155231038Y-80652116D01*
X155312957Y-80667210D01*
X155335600Y-80671355D01*
X155411194Y-80686053D01*
X155477047Y-80700505D01*
X155527634Y-80713375D01*
X155557426Y-80723322D01*
X155562388Y-80726287D01*
X155574574Y-80747283D01*
X155592047Y-80787967D01*
X155611423Y-80840322D01*
X155615266Y-80851600D01*
X155640661Y-80921523D01*
X155672183Y-81000418D01*
X155703031Y-81071266D01*
X155703183Y-81071595D01*
X155754553Y-81182733D01*
X155585601Y-81431253D01*
X155416648Y-81679772D01*
X155633571Y-81897058D01*
X155699181Y-81961726D01*
X155759021Y-82018733D01*
X155809733Y-82065033D01*
X155847954Y-82097584D01*
X155870325Y-82113343D01*
X155873534Y-82114343D01*
X155892374Y-82106469D01*
X155930820Y-82084578D01*
X155984670Y-82051267D01*
X156049724Y-82009131D01*
X156120060Y-81961943D01*
X156191445Y-81913810D01*
X156255092Y-81871928D01*
X156306959Y-81838871D01*
X156343005Y-81817218D01*
X156359133Y-81809543D01*
X156378811Y-81816037D01*
X156416125Y-81833150D01*
X156463379Y-81857326D01*
X156468388Y-81860013D01*
X156532023Y-81891927D01*
X156575659Y-81907579D01*
X156602798Y-81907745D01*
X156616943Y-81893204D01*
X156617025Y-81893000D01*
X156624095Y-81875779D01*
X156640958Y-81834899D01*
X156666305Y-81773525D01*
X156698829Y-81694819D01*
X156737222Y-81601947D01*
X156780178Y-81498072D01*
X156821778Y-81397502D01*
X156867496Y-81286516D01*
X156909474Y-81183703D01*
X156946452Y-81092215D01*
X156977173Y-81015201D01*
X157000378Y-80955815D01*
X157014810Y-80917209D01*
X157019257Y-80902800D01*
X157008104Y-80886272D01*
X156978931Y-80859930D01*
X156940029Y-80830887D01*
X156829243Y-80739039D01*
X156742649Y-80633759D01*
X156681284Y-80517266D01*
X156646185Y-80391776D01*
X156638392Y-80259507D01*
X156644057Y-80198457D01*
X156674922Y-80071795D01*
X156728080Y-79959941D01*
X156800233Y-79864001D01*
X156888083Y-79785076D01*
X156988335Y-79724270D01*
X157097690Y-79682687D01*
X157212853Y-79661428D01*
X157330525Y-79661599D01*
X157447410Y-79684301D01*
X157560211Y-79730638D01*
X157665631Y-79801713D01*
X157709632Y-79841911D01*
X157794021Y-79945129D01*
X157852778Y-80057925D01*
X157886296Y-80177010D01*
X157894965Y-80299095D01*
X157879177Y-80420893D01*
X157839322Y-80539116D01*
X157775793Y-80650475D01*
X157688979Y-80751684D01*
X157591971Y-80830887D01*
X157551563Y-80861162D01*
X157523018Y-80887219D01*
X157512743Y-80902825D01*
X157518123Y-80919843D01*
X157533425Y-80960500D01*
X157557388Y-81021642D01*
X157588756Y-81100119D01*
X157626268Y-81192780D01*
X157668667Y-81296472D01*
X157710337Y-81397526D01*
X157756310Y-81508607D01*
X157798893Y-81611541D01*
X157836779Y-81703165D01*
X157868660Y-81780316D01*
X157893229Y-81839831D01*
X157909180Y-81878544D01*
X157915090Y-81893000D01*
X157929052Y-81907685D01*
X157956060Y-81907642D01*
X157999587Y-81892099D01*
X158063110Y-81860284D01*
X158063612Y-81860013D01*
X158111440Y-81835323D01*
X158150103Y-81817338D01*
X158171905Y-81809614D01*
X158172867Y-81809543D01*
X158189279Y-81817378D01*
X158225513Y-81839165D01*
X158277526Y-81872328D01*
X158341275Y-81914291D01*
X158411940Y-81961943D01*
X158483884Y-82010191D01*
X158548726Y-82052151D01*
X158602265Y-82085227D01*
X158640303Y-82106821D01*
X158658467Y-82114343D01*
X158675192Y-82104457D01*
X158708820Y-82076826D01*
X158755990Y-82034495D01*
X158813342Y-81980505D01*
X158877516Y-81917899D01*
X158898503Y-81896983D01*
X159115501Y-81679623D01*
X158950332Y-81437220D01*
X158900136Y-81362781D01*
X158856081Y-81295972D01*
X158820638Y-81240665D01*
X158796281Y-81200729D01*
X158785478Y-81180036D01*
X158785162Y-81178563D01*
X158790857Y-81159058D01*
X158806174Y-81119822D01*
X158828463Y-81067430D01*
X158844107Y-81032355D01*
X158873359Y-80965201D01*
X158900906Y-80897358D01*
X158922263Y-80840034D01*
X158928065Y-80822572D01*
X158944548Y-80775938D01*
X158960660Y-80739905D01*
X158969510Y-80726287D01*
X158989040Y-80717952D01*
X159031666Y-80706137D01*
X159091855Y-80692181D01*
X159164078Y-80677422D01*
X159196400Y-80671355D01*
X159278478Y-80656273D01*
X159357205Y-80641669D01*
X159424891Y-80628980D01*
X159473840Y-80619642D01*
X159483057Y-80617839D01*
X159559257Y-80602799D01*
X159559257Y-80285492D01*
X159559086Y-80181154D01*
X159558384Y-80102213D01*
X159556866Y-80045038D01*
X159554251Y-80005999D01*
X159550254Y-79981465D01*
X159544591Y-79967805D01*
X159536980Y-79961389D01*
X159533857Y-79960199D01*
X159515022Y-79955980D01*
X159473412Y-79947562D01*
X159414370Y-79935961D01*
X159343243Y-79922195D01*
X159265375Y-79907280D01*
X159186113Y-79892232D01*
X159110802Y-79878069D01*
X159044787Y-79865806D01*
X158993413Y-79856461D01*
X158962025Y-79851050D01*
X158955041Y-79850114D01*
X158948715Y-79837596D01*
X158934710Y-79804246D01*
X158915645Y-79756377D01*
X158908366Y-79737629D01*
X158879004Y-79665195D01*
X158844429Y-79585170D01*
X158813463Y-79517728D01*
X158790677Y-79466159D01*
X158775518Y-79423785D01*
X158770458Y-79397834D01*
X158771264Y-79394356D01*
X158781959Y-79377936D01*
X158806380Y-79341417D01*
X158841905Y-79288687D01*
X158885913Y-79223635D01*
X158935783Y-79150151D01*
X158945644Y-79135645D01*
X159003508Y-79049704D01*
X159046044Y-78984261D01*
X159074946Y-78936304D01*
X159091910Y-78902820D01*
X159098633Y-78880795D01*
X159096810Y-78867217D01*
X159096764Y-78867131D01*
X159082414Y-78849297D01*
X159050677Y-78814817D01*
X159004990Y-78767268D01*
X158948796Y-78710222D01*
X158885532Y-78647255D01*
X158878398Y-78640227D01*
X158798670Y-78563020D01*
X158737143Y-78506330D01*
X158692579Y-78469110D01*
X158663743Y-78450315D01*
X158651042Y-78447889D01*
X158632506Y-78458471D01*
X158594039Y-78482916D01*
X158539614Y-78518612D01*
X158473202Y-78562947D01*
X158398775Y-78613311D01*
X158381399Y-78625160D01*
X158134703Y-78793626D01*
X158023294Y-78743062D01*
X157955543Y-78713595D01*
X157882817Y-78683959D01*
X157820297Y-78660330D01*
X157817543Y-78659358D01*
X157768640Y-78641457D01*
X157730943Y-78626320D01*
X157712575Y-78617210D01*
X157712544Y-78617184D01*
X157706715Y-78600717D01*
X157696808Y-78560219D01*
X157683805Y-78500242D01*
X157668691Y-78425340D01*
X157652448Y-78340064D01*
X157651119Y-78332875D01*
X157634825Y-78245014D01*
X157619867Y-78165260D01*
X157607209Y-78098681D01*
X157597814Y-78050347D01*
X157592646Y-78025325D01*
X157592556Y-78024943D01*
X157589411Y-78014299D01*
X157583296Y-78006262D01*
X157570547Y-78000467D01*
X157547500Y-77996547D01*
X157510491Y-77994135D01*
X157455856Y-77992865D01*
X157379933Y-77992371D01*
X157279056Y-77992286D01*
X157266000Y-77992286D01*
X157162090Y-77992348D01*
D14*
X149775143Y-99508334D02*
X149822762Y-99460715D01*
X149870381Y-99317858D01*
X149870381Y-99222620D01*
X149822762Y-99079762D01*
X149727524Y-98984524D01*
X149632286Y-98936905D01*
X149441810Y-98889286D01*
X149298952Y-98889286D01*
X149108476Y-98936905D01*
X149013238Y-98984524D01*
X148918000Y-99079762D01*
X148870381Y-99222620D01*
X148870381Y-99317858D01*
X148918000Y-99460715D01*
X148965619Y-99508334D01*
X148870381Y-99841667D02*
X148870381Y-100508334D01*
X149870381Y-100079762D01*
X148358143Y-99508334D02*
X148405762Y-99460715D01*
X148453381Y-99317858D01*
X148453381Y-99222620D01*
X148405762Y-99079762D01*
X148310524Y-98984524D01*
X148215286Y-98936905D01*
X148024810Y-98889286D01*
X147881952Y-98889286D01*
X147691476Y-98936905D01*
X147596238Y-98984524D01*
X147501000Y-99079762D01*
X147453381Y-99222620D01*
X147453381Y-99317858D01*
X147501000Y-99460715D01*
X147548619Y-99508334D01*
X147881952Y-100079762D02*
X147834333Y-99984524D01*
X147786714Y-99936905D01*
X147691476Y-99889286D01*
X147643857Y-99889286D01*
X147548619Y-99936905D01*
X147501000Y-99984524D01*
X147453381Y-100079762D01*
X147453381Y-100270239D01*
X147501000Y-100365477D01*
X147548619Y-100413096D01*
X147643857Y-100460715D01*
X147691476Y-100460715D01*
X147786714Y-100413096D01*
X147834333Y-100365477D01*
X147881952Y-100270239D01*
X147881952Y-100079762D01*
X147929571Y-99984524D01*
X147977190Y-99936905D01*
X148072429Y-99889286D01*
X148262905Y-99889286D01*
X148358143Y-99936905D01*
X148405762Y-99984524D01*
X148453381Y-100079762D01*
X148453381Y-100270239D01*
X148405762Y-100365477D01*
X148358143Y-100413096D01*
X148262905Y-100460715D01*
X148072429Y-100460715D01*
X147977190Y-100413096D01*
X147929571Y-100365477D01*
X147881952Y-100270239D01*
M02*
